<svg id="svg" version="1.1" xmlns="http://www.w3.org/2000/svg" xmlns:xlink="http://www.w3.org/1999/xlink" width="400" height="47.22222222222222" viewBox="0, 0, 400,47.22222222222222"><g id="svgg"><path id="path0" d="M0.000 23.583 L 0.000 47.167 74.750 47.167 L 149.500 47.167 149.500 23.583 L 149.500 0.000 74.750 0.000 L 0.000 0.000 0.000 23.583 M29.880 12.057 C 30.175 12.180,30.811 12.375,31.292 12.490 C 31.774 12.606,32.210 12.769,32.262 12.852 C 32.314 12.936,32.670 13.162,33.053 13.354 C 33.866 13.760,34.048 13.909,35.522 15.376 C 38.407 18.247,39.537 22.434,38.682 27.084 C 38.016 30.702,33.922 35.008,30.732 35.445 C 29.710 35.585,29.499 35.195,29.502 33.171 C 29.504 31.988,29.412 31.299,29.142 30.470 C 28.697 29.103,28.901 28.588,29.957 28.410 C 32.323 28.013,33.413 26.778,33.605 24.277 C 33.726 22.706,33.493 21.339,32.998 20.709 C 32.760 20.407,32.667 20.034,32.667 19.383 C 32.667 17.750,32.401 17.583,30.880 18.265 C 30.037 18.642,29.791 18.681,28.917 18.573 C 27.627 18.413,26.179 18.416,24.895 18.579 C 23.986 18.695,23.767 18.661,22.916 18.271 C 21.340 17.550,21.092 17.690,21.074 19.307 C 21.066 20.155,20.988 20.536,20.781 20.742 C 20.627 20.897,20.463 21.187,20.418 21.387 C 20.053 23.002,20.029 23.333,20.193 24.581 C 20.469 26.677,21.550 27.946,23.385 28.327 C 24.956 28.653,25.250 29.375,24.328 30.648 C 23.720 31.487,23.192 31.716,22.207 31.568 C 21.543 31.469,21.473 31.489,21.527 31.770 C 21.576 32.030,21.781 32.098,22.723 32.167 C 24.187 32.274,24.384 32.502,24.295 33.978 C 24.193 35.684,23.434 35.903,21.303 34.846 C 17.136 32.778,15.163 29.474,15.041 24.364 C 14.934 19.915,15.600 18.078,18.288 15.400 C 19.786 13.908,19.965 13.761,20.780 13.354 C 21.164 13.162,21.520 12.936,21.572 12.852 C 21.623 12.769,22.060 12.606,22.541 12.491 C 23.023 12.375,23.642 12.183,23.917 12.064 C 24.620 11.758,29.152 11.753,29.880 12.057 M55.667 16.902 C 57.951 17.319,58.833 17.921,58.833 19.062 C 58.833 20.014,58.456 20.133,57.304 19.548 C 53.341 17.534,50.167 19.254,50.167 23.417 C 50.167 27.008,52.485 28.834,55.917 27.944 L 56.750 27.728 56.750 26.322 L 56.750 24.917 55.673 24.866 C 54.345 24.804,54.135 24.647,54.200 23.764 L 54.250 23.083 56.667 23.083 L 59.083 23.083 59.129 25.653 L 59.176 28.222 58.723 28.695 C 58.475 28.954,58.150 29.167,58.002 29.167 C 57.854 29.167,57.641 29.259,57.529 29.371 C 56.677 30.223,51.992 30.225,51.140 29.373 C 51.026 29.260,50.843 29.167,50.734 29.167 C 50.426 29.167,49.027 27.851,48.904 27.445 C 48.843 27.246,48.695 26.970,48.573 26.831 C 47.961 26.130,47.706 22.628,48.147 20.971 C 48.661 19.044,50.540 17.344,52.613 16.932 C 54.104 16.635,54.203 16.634,55.667 16.902 M66.794 23.383 L 66.837 29.683 65.877 29.633 L 64.917 29.583 64.873 23.520 C 64.824 16.717,64.783 16.955,65.985 17.034 L 66.750 17.083 66.794 23.383 M81.736 17.101 C 82.057 17.224,82.104 18.496,81.800 18.800 C 81.668 18.932,80.959 19.000,79.717 19.000 C 78.681 19.000,77.817 19.019,77.798 19.042 C 77.778 19.065,77.722 21.446,77.673 24.333 L 77.583 29.583 76.667 29.583 L 75.750 29.583 75.667 24.333 L 75.583 19.083 73.677 19.036 C 72.622 19.010,71.673 18.908,71.552 18.807 C 71.271 18.574,71.263 17.223,71.542 17.110 C 71.842 16.989,81.422 16.980,81.736 17.101 M88.300 17.200 C 88.435 17.335,88.500 18.114,88.500 19.613 C 88.500 22.253,88.213 22.034,91.583 21.965 L 93.917 21.917 93.961 19.667 C 94.011 17.147,94.078 17.000,95.167 17.000 C 96.395 17.000,96.343 16.701,96.294 23.500 L 96.250 29.583 95.167 29.583 L 94.083 29.583 94.000 26.750 L 93.917 23.917 91.500 23.875 C 88.366 23.821,88.601 23.587,88.500 26.869 L 88.417 29.583 87.516 29.635 C 86.908 29.669,86.570 29.615,86.477 29.468 C 86.270 29.141,86.297 17.712,86.506 17.322 C 86.706 16.948,87.962 16.862,88.300 17.200 M104.044 17.292 C 104.267 17.539,104.315 18.291,104.362 22.250 C 104.415 26.818,104.425 26.925,104.788 27.288 C 106.032 28.532,108.354 28.393,109.205 27.025 C 109.570 26.438,109.585 26.258,109.636 21.917 C 109.695 16.931,109.679 17.000,110.793 17.000 C 112.042 17.000,112.000 16.840,112.000 21.637 C 112.000 26.723,111.539 28.628,110.191 29.125 C 110.040 29.180,109.873 29.291,109.819 29.371 C 109.421 29.958,106.569 30.225,105.089 29.814 C 103.948 29.496,102.678 28.227,102.286 27.013 C 101.926 25.899,101.853 17.547,102.200 17.200 C 102.510 16.890,103.737 16.951,104.044 17.292 M124.333 17.347 C 126.615 18.382,127.192 20.820,125.559 22.525 L 125.136 22.967 125.645 23.343 C 127.253 24.533,127.380 27.336,125.885 28.669 C 124.819 29.621,124.528 29.678,121.000 29.629 L 117.750 29.583 117.706 23.520 C 117.675 19.183,117.716 17.391,117.852 17.228 C 118.189 16.821,123.384 16.917,124.333 17.347 M120.035 20.458 L 120.083 21.917 121.167 21.969 C 123.520 22.083,124.384 21.536,124.075 20.128 C 123.871 19.202,123.455 19.012,121.619 19.006 L 119.987 19.000 120.035 20.458 M120.202 23.964 C 120.045 24.072,120.001 24.590,120.036 25.930 L 120.083 27.750 121.872 27.750 C 124.310 27.750,125.296 26.701,124.431 25.028 C 124.011 24.215,120.959 23.447,120.202 23.964 " stroke="none" fill="#545454" fill-rule="evenodd"></path><path id="path1" d="M24.020 12.841 C 23.161 13.013,22.336 13.264,22.187 13.398 C 22.038 13.533,21.560 13.796,21.124 13.983 C 20.316 14.329,17.334 17.133,17.333 17.548 C 17.332 17.659,17.110 18.085,16.838 18.495 C 16.566 18.904,16.298 19.467,16.243 19.745 C 16.187 20.023,16.016 20.587,15.862 21.000 C 15.103 23.042,15.638 27.339,16.933 29.601 C 17.748 31.025,19.772 33.318,20.223 33.330 C 20.299 33.332,20.674 33.553,21.056 33.822 C 22.350 34.734,23.540 34.862,23.729 34.108 C 23.948 33.235,23.629 32.891,22.504 32.789 C 21.276 32.678,20.512 32.213,19.980 31.253 C 19.775 30.885,19.351 30.265,19.036 29.877 C 18.468 29.177,18.410 28.667,18.898 28.667 C 19.031 28.667,19.239 28.629,19.361 28.583 C 19.483 28.537,20.046 28.942,20.610 29.483 C 21.947 30.762,23.458 31.087,23.753 30.158 C 23.956 29.517,23.684 29.200,22.617 28.837 C 20.111 27.985,18.145 23.771,19.386 21.912 C 19.860 21.204,20.167 20.034,20.167 18.940 C 20.167 17.042,21.130 16.389,22.633 17.270 C 23.371 17.703,23.406 17.707,26.851 17.709 L 30.325 17.712 31.214 17.246 C 32.782 16.425,33.665 17.107,33.666 19.139 C 33.667 19.932,33.795 20.513,34.182 21.472 C 35.368 24.410,33.984 27.893,31.257 28.831 C 30.712 29.018,30.208 29.264,30.136 29.378 C 29.940 29.686,29.973 33.707,30.177 34.290 L 30.353 34.797 31.302 34.505 C 36.014 33.054,39.469 26.418,38.075 21.495 C 37.933 20.993,37.737 20.252,37.639 19.847 C 37.541 19.441,37.245 18.811,36.980 18.447 C 36.716 18.082,36.500 17.711,36.500 17.623 C 36.500 17.534,36.110 17.012,35.634 16.462 C 32.758 13.143,28.753 11.894,24.020 12.841 M52.833 17.259 C 52.696 17.308,52.176 17.476,51.679 17.632 C 47.353 18.991,47.018 26.775,51.189 28.999 C 52.471 29.682,55.699 29.846,56.817 29.285 C 57.129 29.128,57.475 29.000,57.586 29.000 C 57.698 29.000,57.988 28.843,58.232 28.651 L 58.675 28.302 58.629 25.776 L 58.583 23.250 56.917 23.201 C 54.842 23.141,54.500 23.216,54.500 23.735 C 54.500 24.213,54.770 24.333,55.847 24.333 C 57.218 24.333,57.641 25.253,57.225 27.333 C 56.921 28.854,52.727 28.911,51.166 27.416 C 49.386 25.711,49.363 21.139,51.126 19.457 C 52.519 18.129,55.717 17.951,57.412 19.109 C 58.179 19.633,58.761 19.095,58.216 18.366 C 57.635 17.590,53.999 16.842,52.833 17.259 M65.246 17.532 C 65.200 17.653,65.182 20.376,65.206 23.584 L 65.250 29.417 65.917 29.417 L 66.583 29.417 66.583 23.417 L 66.583 17.417 65.957 17.365 C 65.553 17.331,65.301 17.391,65.246 17.532 M71.667 17.917 L 71.667 18.500 73.542 18.503 C 76.161 18.506,75.908 17.915,75.965 24.170 L 76.013 29.519 76.632 29.468 L 77.250 29.417 77.333 24.139 C 77.379 21.236,77.479 18.798,77.555 18.722 C 77.631 18.646,78.568 18.546,79.638 18.500 L 81.583 18.417 81.636 17.875 L 81.688 17.333 76.677 17.333 L 71.667 17.333 71.667 17.917 M86.746 17.532 C 86.700 17.653,86.682 20.376,86.706 23.584 L 86.750 29.417 87.417 29.417 L 88.083 29.417 88.167 26.583 L 88.250 23.750 91.145 23.704 C 94.778 23.647,94.481 23.382,94.538 26.725 L 94.583 29.417 95.167 29.417 L 95.750 29.417 95.750 23.417 L 95.750 17.417 95.167 17.417 L 94.583 17.417 94.500 19.722 C 94.394 22.646,94.555 22.501,91.426 22.498 C 88.108 22.494,88.270 22.630,88.167 19.745 L 88.083 17.417 87.457 17.365 C 87.053 17.331,86.801 17.391,86.746 17.532 M102.452 17.437 C 102.196 17.693,102.320 25.463,102.599 26.571 C 103.149 28.761,104.332 29.564,107.003 29.561 C 110.907 29.556,111.537 28.428,111.462 21.583 L 111.417 17.417 110.833 17.417 L 110.250 17.417 110.152 21.667 C 110.013 27.694,109.642 28.500,107.008 28.500 C 104.306 28.500,103.945 27.741,103.833 21.833 L 103.750 17.417 103.161 17.367 C 102.837 17.340,102.518 17.371,102.452 17.437 M118.173 17.656 C 117.858 18.243,117.944 29.276,118.264 29.399 C 118.885 29.637,123.217 29.501,124.126 29.215 C 126.723 28.396,127.349 25.588,125.358 23.682 C 124.783 23.131,124.500 22.752,124.631 22.707 C 126.127 22.202,126.483 19.500,125.212 18.300 C 124.195 17.339,118.615 16.829,118.173 17.656 M221.878 17.831 C 219.745 18.287,218.592 19.549,218.601 21.417 C 218.612 23.377,219.703 24.304,222.917 25.084 C 224.934 25.573,225.500 25.846,225.500 26.328 C 225.500 27.571,222.298 27.428,221.858 26.166 L 221.680 25.654 220.048 25.702 L 218.417 25.750 218.458 26.413 C 218.686 30.103,226.910 31.127,228.804 27.702 C 230.483 24.664,228.991 23.115,223.037 21.715 C 222.091 21.493,222.249 20.464,223.271 20.182 C 224.142 19.942,224.790 20.130,225.303 20.773 L 225.750 21.333 227.292 21.333 C 228.915 21.333,228.904 21.339,228.837 20.500 C 228.677 18.516,225.097 17.143,221.878 17.831 M248.620 17.829 C 246.804 18.159,245.555 19.398,245.386 21.037 C 245.163 23.203,246.601 24.541,249.750 25.094 C 252.631 25.601,253.301 27.167,250.637 27.167 C 249.427 27.167,249.044 26.979,248.731 26.231 L 248.491 25.655 246.870 25.702 L 245.250 25.750 245.299 26.497 C 245.548 30.284,253.845 31.070,255.676 27.481 C 256.968 24.949,255.642 23.152,251.819 22.253 C 249.638 21.740,249.250 21.538,249.250 20.915 C 249.250 19.825,251.527 19.768,252.139 20.843 C 252.416 21.330,252.420 21.331,254.042 21.332 L 255.667 21.333 255.667 20.825 C 255.667 18.628,252.239 17.170,248.620 17.829 M283.189 17.835 C 279.688 18.576,277.844 22.633,279.250 26.500 C 280.309 29.413,284.615 30.700,287.803 29.056 C 288.846 28.517,288.978 28.532,289.219 29.208 C 289.301 29.439,289.518 29.500,290.248 29.500 L 291.174 29.500 291.129 26.292 L 291.083 23.083 288.083 23.083 L 285.083 23.083 285.034 24.106 L 284.985 25.129 286.231 25.192 C 287.676 25.265,287.831 25.360,287.494 25.959 C 286.638 27.484,283.730 27.368,282.877 25.776 C 282.448 24.974,282.472 22.439,282.917 21.684 C 283.915 19.989,286.550 19.844,287.487 21.432 L 287.822 22.000 289.416 22.000 C 291.273 22.000,291.368 21.917,290.913 20.702 C 290.067 18.444,286.524 17.129,283.189 17.835 M311.989 17.823 C 306.685 18.801,305.751 27.478,310.750 29.324 C 312.312 29.901,315.034 29.781,316.463 29.072 C 317.545 28.535,317.755 28.536,317.857 29.083 C 317.910 29.363,318.073 29.425,318.880 29.467 L 319.841 29.517 319.795 26.300 L 319.750 23.083 316.750 23.083 L 313.750 23.083 313.700 24.125 L 313.651 25.167 314.784 25.169 C 316.240 25.173,316.510 25.324,316.165 25.946 C 315.313 27.483,312.376 27.342,311.606 25.726 C 311.219 24.915,311.231 22.452,311.625 21.679 C 312.484 19.995,315.267 19.854,316.206 21.447 L 316.533 22.000 318.105 22.000 C 319.899 22.000,320.011 21.915,319.678 20.805 C 319.000 18.541,315.485 17.179,311.989 17.823 M165.553 18.042 C 165.479 18.156,165.180 18.925,164.887 19.750 C 164.279 21.460,163.366 23.978,162.261 26.990 C 161.253 29.736,161.164 29.520,163.285 29.464 L 165.070 29.417 165.318 28.750 C 165.659 27.833,165.676 27.827,167.816 27.875 C 169.861 27.920,169.774 27.880,170.173 28.958 L 170.374 29.500 172.177 29.500 C 173.169 29.500,174.013 29.444,174.054 29.375 C 174.094 29.306,173.686 28.050,173.146 26.583 C 172.607 25.117,171.785 22.867,171.321 21.583 C 170.857 20.300,170.359 18.931,170.216 18.542 L 169.955 17.833 167.821 17.833 C 166.295 17.833,165.648 17.893,165.553 18.042 M175.833 23.673 L 175.833 29.512 177.458 29.464 L 179.083 29.417 179.129 26.792 C 179.184 23.635,179.167 23.646,180.842 25.625 C 181.521 26.427,182.351 27.383,182.686 27.750 C 183.022 28.117,183.501 28.663,183.751 28.964 L 184.206 29.512 185.811 29.464 L 187.417 29.417 187.417 23.667 L 187.417 17.917 185.796 17.869 L 184.175 17.821 184.129 20.536 C 184.097 22.467,184.027 23.250,183.889 23.250 C 183.719 23.250,181.720 21.004,179.772 18.622 L 179.127 17.833 177.480 17.833 L 175.833 17.833 175.833 23.673 M190.078 18.037 C 190.033 18.156,190.015 20.764,190.039 23.835 L 190.083 29.417 191.917 29.417 L 193.750 29.417 193.798 28.140 L 193.847 26.863 194.782 26.093 C 195.957 25.126,195.831 25.054,197.208 27.466 L 198.369 29.500 200.434 29.500 C 202.852 29.500,202.780 29.635,201.479 27.552 C 199.056 23.674,198.484 22.660,198.605 22.459 C 198.674 22.344,199.372 21.508,200.157 20.602 C 202.233 18.202,202.321 18.095,202.327 17.958 C 202.331 17.890,201.362 17.833,200.175 17.833 L 198.017 17.833 196.072 20.167 C 195.001 21.450,194.062 22.500,193.984 22.500 C 193.906 22.500,193.822 21.469,193.796 20.208 L 193.750 17.917 191.955 17.869 C 190.608 17.834,190.140 17.876,190.078 18.037 M204.534 22.042 C 204.609 28.433,205.544 29.667,210.311 29.667 C 215.103 29.667,216.083 28.364,216.083 22.000 L 216.083 17.917 214.292 17.869 L 212.500 17.822 212.500 21.594 C 212.500 26.430,212.233 27.067,210.222 27.027 C 208.397 26.990,208.167 26.382,208.167 21.589 L 208.167 17.833 206.325 17.833 L 204.484 17.833 204.534 22.042 M231.415 18.208 C 231.365 18.415,231.344 21.021,231.370 24.000 L 231.417 29.417 233.208 29.464 L 235.000 29.511 235.003 27.464 C 235.006 24.826,234.863 24.979,237.263 25.036 L 239.250 25.083 239.333 27.250 L 239.417 29.417 241.208 29.464 L 243.000 29.511 243.000 23.672 L 243.000 17.833 241.253 17.833 C 239.199 17.833,239.355 17.635,239.291 20.333 L 239.250 22.083 237.263 22.131 C 234.869 22.187,235.006 22.329,235.003 19.792 L 235.000 17.833 233.253 17.833 C 231.580 17.833,231.503 17.849,231.415 18.208 M258.373 23.625 L 258.417 29.417 260.167 29.417 L 261.917 29.417 261.960 23.625 L 262.004 17.833 260.167 17.833 L 258.329 17.833 258.373 23.625 M265.000 23.673 L 265.000 29.512 266.625 29.464 L 268.250 29.417 268.296 26.780 C 268.352 23.586,268.242 23.613,270.498 26.250 C 271.439 27.350,272.477 28.531,272.805 28.875 L 273.401 29.500 274.950 29.500 L 276.500 29.500 276.500 23.661 L 276.500 17.821 274.875 17.869 L 273.250 17.917 273.204 20.625 C 273.179 22.115,273.096 23.333,273.021 23.333 C 272.885 23.333,268.711 18.523,268.450 18.066 C 268.350 17.891,267.904 17.833,266.658 17.833 L 265.000 17.833 265.000 23.673 M293.667 23.667 L 293.667 29.511 295.458 29.464 L 297.250 29.417 297.333 27.250 L 297.417 25.083 299.309 25.036 C 301.766 24.975,301.667 24.874,301.667 27.443 L 301.667 29.511 303.458 29.464 L 305.250 29.417 305.297 24.000 C 305.355 17.151,305.564 17.833,303.413 17.833 L 301.667 17.833 301.667 19.813 C 301.667 22.281,301.757 22.192,299.309 22.131 L 297.417 22.083 297.333 20.000 L 297.250 17.917 295.458 17.869 L 293.667 17.822 293.667 23.667 M325.419 18.037 C 325.378 18.154,325.150 18.775,324.912 19.417 C 324.675 20.058,324.267 21.183,324.006 21.917 C 323.745 22.650,323.219 24.113,322.837 25.167 C 321.075 30.036,321.031 29.500,323.191 29.500 L 324.827 29.500 325.205 28.708 L 325.583 27.917 327.500 27.875 C 329.659 27.827,329.674 27.833,330.015 28.750 L 330.263 29.417 332.132 29.464 C 333.159 29.490,334.000 29.460,334.000 29.398 C 334.000 29.294,332.387 24.776,331.091 21.250 C 330.788 20.425,330.390 19.337,330.206 18.833 L 329.871 17.917 327.682 17.870 C 326.021 17.835,325.475 17.875,325.419 18.037 M335.742 18.043 C 335.698 18.158,335.682 20.764,335.706 23.835 L 335.750 29.417 337.371 29.464 L 338.991 29.512 339.037 26.895 C 339.069 25.092,339.144 24.257,339.277 24.213 C 339.383 24.178,340.464 25.297,341.678 26.699 C 344.313 29.744,343.987 29.524,345.789 29.465 L 347.250 29.417 347.294 23.625 L 347.338 17.833 345.669 17.833 L 344.000 17.833 344.000 20.490 C 344.000 21.951,343.932 23.189,343.848 23.241 C 343.714 23.324,342.168 21.633,339.779 18.791 L 338.974 17.833 337.399 17.833 C 336.287 17.833,335.799 17.895,335.742 18.043 M350.167 23.681 L 350.167 29.528 353.792 29.472 C 359.383 29.386,360.965 28.269,361.278 24.183 C 361.636 19.513,359.593 17.833,353.554 17.833 L 350.167 17.833 350.167 23.681 M363.540 23.625 L 363.583 29.417 365.370 29.464 L 367.157 29.511 367.203 27.297 L 367.250 25.083 369.333 25.083 L 371.417 25.083 371.500 27.250 L 371.583 29.417 373.333 29.417 L 375.083 29.417 375.083 23.667 L 375.083 17.917 373.297 17.869 L 371.510 17.822 371.463 19.953 L 371.417 22.083 369.333 22.083 L 367.250 22.083 367.203 19.958 L 367.157 17.833 365.326 17.833 L 363.496 17.833 363.540 23.625 M378.082 18.208 C 378.031 18.415,378.011 21.021,378.037 24.000 L 378.083 29.417 379.875 29.464 L 381.667 29.511 381.667 23.672 L 381.667 17.833 379.920 17.833 C 378.247 17.833,378.169 17.849,378.082 18.208 M122.976 18.655 C 124.978 19.042,125.095 21.662,123.135 22.244 C 121.955 22.594,120.202 22.584,119.805 22.224 C 119.486 21.936,119.347 19.320,119.628 18.900 C 119.896 18.499,121.544 18.378,122.976 18.655 M356.518 20.846 C 358.073 21.953,357.890 25.909,356.252 26.593 C 355.448 26.929,353.900 26.914,353.768 26.570 C 353.637 26.228,353.640 21.366,353.772 20.875 C 353.915 20.341,355.781 20.322,356.518 20.846 M168.492 23.236 C 169.093 25.330,169.094 25.327,167.620 25.331 C 166.401 25.334,166.372 25.256,166.888 23.373 C 167.641 20.627,167.741 20.619,168.492 23.236 M328.229 22.708 C 329.016 25.371,329.029 25.327,327.453 25.331 C 326.263 25.334,326.189 25.195,326.642 23.798 C 326.829 23.221,327.064 22.431,327.164 22.042 C 327.448 20.938,327.764 21.136,328.229 22.708 M123.800 23.900 C 125.057 24.549,125.404 26.469,124.447 27.468 C 123.671 28.279,120.495 28.682,119.805 28.058 C 119.495 27.777,119.326 24.062,119.611 23.778 C 119.833 23.556,123.333 23.658,123.800 23.900 " stroke="none" fill="#eaeff4" fill-rule="evenodd"></path><path id="path2" d="M149.500 23.583 L 149.500 47.167 274.750 47.167 L 400.000 47.167 400.000 23.583 L 400.000 0.000 274.750 0.000 L 149.500 0.000 149.500 23.583 M225.504 17.556 C 227.577 17.958,228.901 19.062,229.106 20.561 C 229.248 21.599,229.143 21.661,227.215 21.664 C 226.008 21.666,225.634 21.610,225.465 21.401 C 224.569 20.292,224.100 20.113,223.094 20.496 C 221.931 20.938,222.850 21.579,225.360 22.077 C 228.284 22.657,229.500 23.742,229.500 25.773 C 229.500 28.619,227.778 29.917,224.000 29.917 C 220.204 29.917,218.401 28.826,218.201 26.407 L 218.125 25.500 220.021 25.502 L 221.917 25.503 222.188 26.150 C 222.602 27.136,224.996 27.322,225.135 26.379 C 225.188 26.015,223.777 25.333,222.970 25.333 C 221.488 25.333,219.322 24.147,218.709 23.000 C 216.912 19.638,220.677 16.621,225.504 17.556 M252.094 17.514 C 254.312 17.920,255.980 19.378,255.996 20.925 C 256.005 21.778,252.570 22.106,252.153 21.292 C 251.587 20.185,249.016 19.978,249.436 21.073 C 249.572 21.429,251.758 22.160,252.716 22.171 C 255.161 22.197,257.122 25.462,255.971 27.587 C 253.947 31.320,245.753 30.692,245.016 26.747 C 244.783 25.501,244.785 25.500,246.921 25.500 L 248.807 25.500 248.914 25.988 C 249.088 26.780,250.008 27.139,251.263 26.903 C 252.543 26.663,252.053 25.879,250.395 25.515 C 246.342 24.624,245.087 23.631,245.108 21.332 C 245.134 18.482,248.207 16.803,252.094 17.514 M287.022 17.573 C 289.242 18.044,290.639 19.108,291.177 20.739 C 291.639 22.138,291.605 22.167,289.474 22.167 L 287.651 22.167 287.372 21.681 C 286.773 20.636,284.730 20.259,283.769 21.015 C 282.332 22.145,282.505 25.810,284.032 26.600 C 284.997 27.099,286.756 26.767,287.162 26.009 C 287.427 25.514,287.402 25.500,286.282 25.500 C 284.812 25.500,284.637 25.333,284.699 23.996 L 284.750 22.917 287.988 22.871 C 290.467 22.837,291.257 22.876,291.360 23.038 C 291.586 23.394,291.531 29.402,291.300 29.633 C 290.866 30.067,289.345 29.881,289.044 29.357 L 288.771 28.880 287.677 29.398 C 284.631 30.842,280.577 29.768,279.256 27.167 C 276.454 21.651,280.819 16.259,287.022 17.573 M315.486 17.520 C 318.094 17.965,319.933 19.549,320.046 21.450 L 320.083 22.083 318.221 22.130 L 316.358 22.177 316.073 21.695 C 315.042 19.949,312.197 20.369,311.663 22.345 C 310.823 25.449,313.090 27.975,315.349 26.452 C 316.313 25.803,316.203 25.500,315.001 25.500 C 313.516 25.500,313.333 25.357,313.336 24.202 C 313.340 22.756,313.171 22.820,316.845 22.871 L 320.083 22.917 320.129 26.145 C 320.181 29.859,320.189 29.833,318.910 29.833 C 318.142 29.833,317.985 29.775,317.697 29.379 L 317.366 28.925 316.641 29.281 C 312.348 31.393,307.889 29.297,307.332 24.907 C 306.681 19.778,310.174 16.615,315.486 17.520 M170.125 17.708 C 170.217 17.823,170.496 18.517,170.745 19.250 C 170.995 19.983,171.298 20.808,171.418 21.083 C 171.538 21.358,171.829 22.146,172.063 22.833 C 172.779 24.926,173.788 27.714,174.069 28.370 C 174.647 29.724,174.499 29.833,172.090 29.833 C 170.213 29.833,170.171 29.814,169.840 28.787 L 169.637 28.156 167.717 28.203 L 165.796 28.250 165.535 28.917 C 165.183 29.814,165.149 29.828,163.305 29.831 C 160.698 29.835,160.755 30.363,162.761 24.821 C 165.071 18.438,165.329 17.773,165.550 17.632 C 165.903 17.408,169.939 17.475,170.125 17.708 M181.432 20.208 L 183.750 22.917 183.796 20.294 C 183.850 17.229,183.662 17.455,186.083 17.534 L 187.583 17.583 187.627 23.480 C 187.678 30.387,187.842 29.833,185.751 29.833 L 184.209 29.833 183.563 29.119 C 183.207 28.725,182.467 27.885,181.917 27.251 C 179.084 23.985,179.333 23.977,179.333 27.329 C 179.333 30.012,179.474 29.833,177.353 29.833 C 175.343 29.833,175.500 30.356,175.500 23.667 C 175.500 16.940,175.318 17.500,177.507 17.500 L 179.114 17.500 181.432 20.208 M194.000 19.861 L 194.083 22.138 195.098 20.944 C 195.656 20.287,196.476 19.300,196.919 18.750 C 197.986 17.428,197.770 17.505,200.375 17.503 C 202.859 17.500,203.105 17.614,202.375 18.430 C 201.438 19.478,199.048 22.282,198.940 22.459 C 198.809 22.675,199.286 23.681,199.957 24.599 C 200.164 24.883,200.333 25.173,200.333 25.243 C 200.333 25.314,200.587 25.720,200.897 26.144 C 201.207 26.569,201.601 27.179,201.772 27.501 C 201.943 27.822,202.252 28.321,202.458 28.610 C 202.899 29.227,202.935 29.592,202.570 29.732 C 202.045 29.933,198.382 29.844,198.204 29.625 C 197.950 29.314,196.333 26.470,196.333 26.335 C 196.333 25.680,195.688 25.684,194.859 26.345 L 194.000 27.028 194.000 28.231 C 194.000 28.944,193.919 29.515,193.800 29.633 C 193.590 29.843,190.594 29.923,190.097 29.732 C 189.819 29.625,189.676 17.880,189.949 17.606 C 190.013 17.542,190.932 17.511,191.991 17.537 L 193.917 17.583 194.000 19.861 M208.282 17.708 C 208.356 17.823,208.454 19.743,208.500 21.974 L 208.583 26.032 209.083 26.432 C 209.640 26.877,210.538 26.961,211.255 26.634 C 212.092 26.253,212.167 25.848,212.167 21.708 C 212.167 18.969,212.223 17.844,212.367 17.700 C 212.609 17.458,215.792 17.427,216.167 17.663 C 216.764 18.039,216.535 25.910,215.887 27.285 C 214.232 30.797,206.638 30.946,204.885 27.500 C 204.208 26.170,203.809 19.296,204.329 17.928 C 204.516 17.435,207.981 17.243,208.282 17.708 M235.133 17.700 C 235.266 17.833,235.333 18.559,235.333 19.867 L 235.333 21.833 237.245 21.833 L 239.157 21.833 239.203 19.708 L 239.250 17.583 241.059 17.536 C 243.562 17.470,243.333 16.855,243.333 23.654 C 243.333 30.411,243.527 29.834,241.258 29.831 C 239.071 29.827,239.186 29.954,239.130 27.494 L 239.083 25.417 237.208 25.370 L 235.333 25.322 235.333 27.378 C 235.333 28.754,235.267 29.499,235.133 29.633 C 234.924 29.843,231.927 29.923,231.430 29.732 C 231.155 29.627,231.008 17.881,231.278 17.611 C 231.482 17.407,234.920 17.486,235.133 17.700 M262.133 17.700 C 262.524 18.091,262.408 29.448,262.011 29.661 C 261.471 29.950,258.571 29.881,258.262 29.571 C 257.919 29.229,257.861 18.039,258.200 17.700 C 258.474 17.426,261.859 17.426,262.133 17.700 M268.756 18.125 C 269.061 18.469,269.883 19.425,270.582 20.250 C 271.281 21.075,272.092 21.998,272.385 22.300 L 272.917 22.850 273.000 20.217 L 273.083 17.583 274.725 17.535 C 277.034 17.468,276.833 16.884,276.833 23.654 C 276.833 30.374,277.001 29.833,274.915 29.833 C 273.163 29.833,273.237 29.873,271.803 28.152 C 269.761 25.700,268.695 24.527,268.598 24.624 C 268.544 24.678,268.500 25.827,268.500 27.177 C 268.500 30.027,268.640 29.833,266.583 29.833 C 264.454 29.833,264.667 30.517,264.667 23.677 C 264.667 20.402,264.717 17.672,264.778 17.611 C 264.839 17.550,265.634 17.500,266.545 17.500 L 268.201 17.500 268.756 18.125 M297.463 19.708 L 297.510 21.833 299.422 21.833 L 301.333 21.833 301.333 19.753 C 301.333 17.300,301.160 17.459,303.750 17.535 L 305.417 17.583 305.460 23.572 C 305.511 30.493,305.729 29.827,303.408 29.831 C 301.267 29.834,301.333 29.912,301.333 27.378 L 301.333 25.322 299.458 25.370 L 297.583 25.417 297.536 27.494 C 297.480 29.954,297.596 29.827,295.408 29.831 C 293.140 29.834,293.333 30.409,293.333 23.667 C 293.333 16.868,293.111 17.474,295.580 17.537 L 297.417 17.583 297.463 19.708 M330.229 18.222 C 330.518 18.814,331.124 20.456,332.361 24.000 C 332.633 24.779,332.954 25.642,333.075 25.917 C 333.195 26.192,333.384 26.717,333.495 27.083 C 333.605 27.450,333.855 28.148,334.049 28.635 C 334.506 29.778,334.427 29.827,332.157 29.831 C 330.186 29.834,329.933 29.731,329.709 28.833 L 329.563 28.250 327.644 28.203 L 325.725 28.157 325.529 28.586 C 325.421 28.822,325.333 29.122,325.333 29.252 C 325.333 29.677,324.715 29.833,323.031 29.833 C 321.189 29.833,320.859 29.683,321.156 28.977 C 321.246 28.760,321.672 27.608,322.100 26.417 C 322.529 25.225,323.178 23.425,323.542 22.417 C 323.907 21.408,324.423 19.950,324.688 19.175 C 325.290 17.421,325.157 17.492,327.750 17.542 L 329.917 17.583 330.229 18.222 M339.247 17.771 C 339.396 17.920,340.282 18.951,341.216 20.062 C 343.558 22.849,343.544 22.833,343.692 22.833 C 343.765 22.833,343.846 21.652,343.871 20.208 L 343.917 17.583 345.559 17.535 C 347.868 17.468,347.667 16.880,347.667 23.681 C 347.667 30.430,347.865 29.833,345.626 29.833 C 343.957 29.833,344.221 30.017,341.674 27.083 C 340.560 25.800,339.578 24.725,339.491 24.694 C 339.397 24.661,339.333 25.602,339.333 27.036 C 339.333 28.678,339.270 29.496,339.133 29.633 C 338.924 29.842,336.255 29.921,335.764 29.732 C 335.489 29.627,335.341 17.881,335.611 17.611 C 335.866 17.356,338.969 17.492,339.247 17.771 M357.340 17.738 C 360.223 18.490,361.538 20.349,361.539 23.672 C 361.540 27.005,360.072 28.965,357.094 29.605 C 355.755 29.892,350.314 29.914,350.033 29.633 C 349.738 29.338,349.747 17.729,350.042 17.610 C 350.553 17.404,356.457 17.507,357.340 17.738 M367.300 17.700 C 367.433 17.833,367.500 18.559,367.500 19.867 L 367.500 21.833 369.333 21.833 L 371.167 21.833 371.167 19.854 C 371.167 17.394,371.088 17.474,373.441 17.536 L 375.250 17.583 375.294 23.572 C 375.344 30.471,375.543 29.827,373.364 29.831 C 371.106 29.834,371.167 29.902,371.167 27.411 L 371.167 25.333 369.333 25.333 L 367.500 25.333 367.500 27.383 C 367.500 28.756,367.434 29.499,367.300 29.633 C 366.979 29.954,363.760 29.903,363.429 29.571 C 363.086 29.229,363.028 18.039,363.367 17.700 C 363.641 17.426,367.026 17.426,367.300 17.700 M381.736 17.601 C 382.137 17.755,382.137 29.578,381.736 29.732 C 381.394 29.864,378.440 29.864,378.097 29.732 C 377.822 29.627,377.674 17.881,377.944 17.611 C 378.083 17.472,381.378 17.464,381.736 17.601 M354.081 20.862 C 354.032 20.991,354.012 22.331,354.037 23.840 L 354.083 26.583 354.613 26.635 C 356.618 26.829,357.577 25.425,357.246 22.778 C 357.069 21.362,356.512 20.796,355.198 20.701 C 354.418 20.645,354.150 20.683,354.081 20.862 M167.402 22.458 C 167.340 22.802,167.233 23.196,167.164 23.333 C 167.095 23.471,166.986 23.902,166.921 24.292 L 166.804 25.000 167.735 25.000 C 168.772 25.000,168.762 25.016,168.425 23.988 C 168.292 23.582,168.102 22.931,168.002 22.542 C 167.778 21.667,167.551 21.635,167.402 22.458 M327.103 23.204 C 326.524 25.061,326.507 25.000,327.583 25.000 C 328.087 25.000,328.500 24.956,328.500 24.903 C 328.500 24.611,327.788 22.062,327.674 21.944 C 327.599 21.868,327.342 22.434,327.103 23.204 " stroke="none" fill="#0464d4" fill-rule="evenodd"></path><path id="path3" d="M23.917 12.064 C 23.642 12.183,23.023 12.375,22.541 12.491 C 22.060 12.606,21.623 12.769,21.572 12.852 C 21.520 12.936,21.164 13.162,20.780 13.354 C 19.965 13.761,19.786 13.908,18.288 15.400 C 15.600 18.078,14.934 19.915,15.041 24.364 C 15.163 29.474,17.136 32.778,21.303 34.846 C 23.434 35.903,24.193 35.684,24.295 33.978 C 24.384 32.502,24.187 32.274,22.723 32.167 C 21.781 32.098,21.576 32.030,21.527 31.770 C 21.473 31.489,21.543 31.469,22.207 31.568 C 23.192 31.716,23.720 31.487,24.328 30.648 C 25.250 29.375,24.956 28.653,23.385 28.327 C 21.550 27.946,20.469 26.677,20.193 24.581 C 20.029 23.333,20.053 23.002,20.418 21.387 C 20.463 21.187,20.627 20.897,20.781 20.742 C 20.988 20.536,21.066 20.155,21.074 19.307 C 21.092 17.690,21.340 17.550,22.916 18.271 C 23.767 18.661,23.986 18.695,24.895 18.579 C 26.179 18.416,27.627 18.413,28.917 18.573 C 29.791 18.681,30.037 18.642,30.880 18.265 C 32.401 17.583,32.667 17.750,32.667 19.383 C 32.667 20.034,32.760 20.407,32.998 20.709 C 34.162 22.189,33.836 25.807,32.412 27.211 C 31.631 27.981,31.169 28.207,29.957 28.410 C 28.901 28.588,28.697 29.103,29.142 30.470 C 29.412 31.299,29.504 31.988,29.502 33.171 C 29.499 35.195,29.710 35.585,30.732 35.445 C 33.922 35.008,38.016 30.702,38.682 27.084 C 39.537 22.434,38.407 18.247,35.522 15.376 C 34.048 13.909,33.866 13.760,33.053 13.354 C 32.670 13.162,32.314 12.936,32.262 12.852 C 32.210 12.769,31.774 12.606,31.292 12.490 C 30.811 12.375,30.175 12.180,29.880 12.057 C 29.152 11.753,24.620 11.758,23.917 12.064 M29.417 12.774 C 32.011 13.249,36.500 16.322,36.500 17.623 C 36.500 17.711,36.716 18.082,36.980 18.447 C 37.245 18.811,37.541 19.441,37.639 19.847 C 37.737 20.252,37.933 20.993,38.075 21.495 C 39.469 26.418,36.014 33.054,31.302 34.505 L 30.353 34.797 30.177 34.290 C 29.973 33.707,29.940 29.686,30.136 29.378 C 30.208 29.264,30.712 29.018,31.257 28.831 C 33.984 27.893,35.368 24.410,34.182 21.472 C 33.795 20.513,33.667 19.932,33.666 19.139 C 33.665 17.107,32.782 16.425,31.214 17.246 L 30.325 17.712 26.851 17.709 C 23.406 17.707,23.371 17.703,22.633 17.270 C 21.130 16.389,20.167 17.042,20.167 18.940 C 20.167 20.034,19.860 21.204,19.386 21.912 C 18.145 23.771,20.111 27.985,22.617 28.837 C 23.684 29.200,23.956 29.517,23.753 30.158 C 23.458 31.087,21.947 30.762,20.610 29.483 C 20.046 28.942,19.483 28.537,19.361 28.583 C 19.239 28.629,19.031 28.667,18.898 28.667 C 18.410 28.667,18.468 29.177,19.036 29.877 C 19.351 30.265,19.775 30.885,19.980 31.253 C 20.512 32.213,21.276 32.678,22.504 32.789 C 23.629 32.891,23.948 33.235,23.729 34.108 C 23.540 34.862,22.350 34.734,21.056 33.822 C 20.674 33.553,20.299 33.332,20.223 33.330 C 19.772 33.318,17.748 31.025,16.933 29.601 C 15.638 27.339,15.103 23.042,15.862 21.000 C 16.016 20.587,16.187 20.023,16.243 19.745 C 16.298 19.467,16.566 18.904,16.838 18.495 C 17.110 18.085,17.332 17.659,17.333 17.548 C 17.334 17.133,20.316 14.329,21.124 13.983 C 21.560 13.796,22.038 13.533,22.187 13.398 C 22.984 12.677,26.997 12.331,29.417 12.774 M52.613 16.932 C 50.540 17.344,48.661 19.044,48.147 20.971 C 47.706 22.628,47.961 26.130,48.573 26.831 C 48.695 26.970,48.843 27.246,48.904 27.445 C 49.027 27.851,50.426 29.167,50.734 29.167 C 50.843 29.167,51.026 29.260,51.140 29.373 C 51.992 30.225,56.677 30.223,57.529 29.371 C 57.641 29.259,57.854 29.167,58.002 29.167 C 58.150 29.167,58.475 28.954,58.723 28.695 L 59.176 28.222 59.129 25.653 L 59.083 23.083 56.667 23.083 L 54.250 23.083 54.200 23.764 C 54.135 24.647,54.345 24.804,55.673 24.866 L 56.750 24.917 56.750 26.322 L 56.750 27.728 55.917 27.944 C 52.485 28.834,50.167 27.008,50.167 23.417 C 50.167 19.254,53.341 17.534,57.304 19.548 C 58.334 20.071,58.364 20.076,58.596 19.760 C 59.934 17.936,56.270 16.204,52.613 16.932 M65.025 17.220 C 64.881 17.393,64.841 19.064,64.873 23.520 L 64.917 29.583 65.877 29.633 L 66.837 29.683 66.794 23.383 L 66.750 17.083 65.985 17.034 C 65.478 17.001,65.155 17.063,65.025 17.220 M71.542 17.110 C 71.263 17.223,71.271 18.574,71.552 18.807 C 71.673 18.908,72.622 19.010,73.677 19.036 L 75.583 19.083 75.667 24.333 L 75.750 29.583 76.667 29.583 L 77.583 29.583 77.673 24.333 C 77.722 21.446,77.778 19.065,77.798 19.042 C 77.817 19.019,78.681 19.000,79.717 19.000 C 80.959 19.000,81.668 18.932,81.800 18.800 C 82.104 18.496,82.057 17.224,81.736 17.101 C 81.422 16.980,71.842 16.989,71.542 17.110 M86.506 17.322 C 86.297 17.712,86.270 29.141,86.477 29.468 C 86.570 29.615,86.908 29.669,87.516 29.635 L 88.417 29.583 88.500 26.869 C 88.601 23.587,88.366 23.821,91.500 23.875 L 93.917 23.917 94.000 26.750 L 94.083 29.583 95.167 29.583 L 96.250 29.583 96.294 23.500 C 96.343 16.701,96.395 17.000,95.167 17.000 C 94.078 17.000,94.011 17.147,93.961 19.667 L 93.917 21.917 91.583 21.965 C 88.213 22.034,88.500 22.253,88.500 19.613 C 88.500 18.114,88.435 17.335,88.300 17.200 C 87.962 16.862,86.706 16.948,86.506 17.322 M102.200 17.200 C 101.853 17.547,101.926 25.899,102.286 27.013 C 102.678 28.227,103.948 29.496,105.089 29.814 C 106.569 30.225,109.421 29.958,109.819 29.371 C 109.873 29.291,110.040 29.180,110.191 29.125 C 111.539 28.628,112.000 26.723,112.000 21.637 C 112.000 16.840,112.042 17.000,110.793 17.000 C 109.679 17.000,109.695 16.931,109.636 21.917 C 109.585 26.258,109.570 26.438,109.205 27.025 C 108.354 28.393,106.032 28.532,104.788 27.288 C 104.425 26.925,104.415 26.818,104.362 22.250 C 104.299 16.968,104.307 17.000,103.091 17.000 C 102.711 17.000,102.310 17.090,102.200 17.200 M117.852 17.228 C 117.716 17.391,117.675 19.183,117.706 23.520 L 117.750 29.583 121.000 29.629 C 124.528 29.678,124.819 29.621,125.885 28.669 C 127.380 27.336,127.253 24.533,125.645 23.343 L 125.136 22.967 125.559 22.525 C 127.192 20.820,126.615 18.382,124.333 17.347 C 123.384 16.917,118.189 16.821,117.852 17.228 M57.083 17.645 C 58.003 17.999,58.576 18.608,58.406 19.050 C 58.276 19.391,57.861 19.415,57.412 19.109 C 55.717 17.951,52.519 18.129,51.126 19.457 C 49.363 21.139,49.386 25.711,51.166 27.416 C 52.727 28.911,56.921 28.854,57.225 27.333 C 57.641 25.253,57.218 24.333,55.847 24.333 C 54.770 24.333,54.500 24.213,54.500 23.735 C 54.500 23.216,54.842 23.141,56.917 23.201 L 58.583 23.250 58.629 25.776 L 58.675 28.302 58.232 28.651 C 57.988 28.843,57.698 29.000,57.586 29.000 C 57.475 29.000,57.129 29.128,56.817 29.285 C 55.699 29.846,52.471 29.682,51.189 28.999 C 47.018 26.775,47.353 18.991,51.679 17.632 C 52.176 17.476,52.696 17.308,52.833 17.259 C 53.372 17.066,56.263 17.328,57.083 17.645 M66.583 23.417 L 66.583 29.417 65.917 29.417 L 65.250 29.417 65.206 23.584 C 65.156 16.959,65.116 17.295,65.957 17.365 L 66.583 17.417 66.583 23.417 M81.636 17.875 L 81.583 18.417 79.638 18.500 C 78.568 18.546,77.631 18.646,77.555 18.722 C 77.479 18.798,77.379 21.236,77.333 24.139 L 77.250 29.417 76.632 29.468 L 76.013 29.519 75.965 24.170 C 75.908 17.915,76.161 18.506,73.542 18.503 L 71.667 18.500 71.667 17.917 L 71.667 17.333 76.677 17.333 L 81.688 17.333 81.636 17.875 M88.167 19.745 C 88.270 22.630,88.108 22.494,91.426 22.498 C 94.555 22.501,94.394 22.646,94.500 19.722 L 94.583 17.417 95.167 17.417 L 95.750 17.417 95.750 23.417 L 95.750 29.417 95.167 29.417 L 94.583 29.417 94.538 26.725 C 94.481 23.382,94.778 23.647,91.145 23.704 L 88.250 23.750 88.167 26.583 L 88.083 29.417 87.417 29.417 L 86.750 29.417 86.706 23.584 C 86.656 16.959,86.616 17.295,87.457 17.365 L 88.083 17.417 88.167 19.745 M103.833 21.833 C 103.945 27.741,104.306 28.500,107.008 28.500 C 109.642 28.500,110.013 27.694,110.152 21.667 L 110.250 17.417 110.833 17.417 L 111.417 17.417 111.462 21.583 C 111.537 28.428,110.907 29.556,107.003 29.561 C 103.052 29.566,102.333 28.331,102.333 21.535 C 102.333 17.191,102.312 17.296,103.161 17.367 L 103.750 17.417 103.833 21.833 M123.845 17.599 C 126.315 18.322,126.874 21.949,124.631 22.707 C 124.500 22.752,124.783 23.131,125.358 23.682 C 127.349 25.588,126.723 28.396,124.126 29.215 C 123.217 29.501,118.885 29.637,118.264 29.399 C 117.944 29.276,117.858 18.243,118.173 17.656 C 118.406 17.219,122.413 17.179,123.845 17.599 M120.000 18.621 C 119.389 18.854,119.235 21.708,119.805 22.224 C 120.581 22.927,123.794 22.381,124.267 21.466 C 124.615 20.794,124.496 19.588,124.036 19.129 C 123.529 18.621,120.876 18.288,120.000 18.621 M123.605 19.308 C 125.194 20.635,123.853 22.099,121.167 21.969 L 120.083 21.917 120.035 20.458 L 119.987 19.000 121.619 19.006 C 122.933 19.010,123.319 19.069,123.605 19.308 M119.611 23.778 C 119.326 24.062,119.495 27.777,119.805 28.058 C 120.495 28.682,123.671 28.279,124.447 27.468 C 125.404 26.469,125.057 24.549,123.800 23.900 C 123.333 23.658,119.833 23.556,119.611 23.778 M123.588 24.263 C 124.731 24.740,125.006 26.403,124.092 27.317 C 123.681 27.729,123.575 27.750,121.872 27.750 L 120.083 27.750 120.036 25.930 C 120.001 24.590,120.045 24.072,120.202 23.964 C 120.499 23.761,122.894 23.973,123.588 24.263 " stroke="none" fill="#8d8d8d" fill-rule="evenodd"></path><path id="path4" d="M221.997 17.559 C 216.650 18.712,217.479 25.333,222.970 25.333 C 223.777 25.333,225.188 26.015,225.135 26.379 C 224.996 27.322,222.602 27.136,222.188 26.150 L 221.917 25.503 220.021 25.502 L 218.125 25.500 218.201 26.407 C 218.557 30.699,227.832 31.502,229.243 27.363 C 230.199 24.557,228.891 22.777,225.360 22.077 C 222.850 21.579,221.931 20.938,223.094 20.496 C 224.100 20.113,224.569 20.292,225.465 21.401 C 225.706 21.699,228.547 21.790,228.983 21.514 C 229.361 21.274,229.086 19.869,228.525 19.170 C 227.341 17.697,224.552 17.009,221.997 17.559 M248.750 17.569 C 246.349 18.056,245.126 19.319,245.108 21.332 C 245.087 23.631,246.342 24.624,250.395 25.515 C 252.053 25.879,252.543 26.663,251.263 26.903 C 250.008 27.139,249.088 26.780,248.914 25.988 L 248.807 25.500 246.921 25.500 C 244.785 25.500,244.783 25.501,245.016 26.747 C 245.753 30.692,253.947 31.320,255.971 27.587 C 257.122 25.462,255.161 22.197,252.716 22.171 C 251.758 22.160,249.572 21.429,249.436 21.073 C 249.016 19.978,251.587 20.185,252.153 21.292 C 252.570 22.106,256.005 21.778,255.996 20.925 C 255.970 18.466,252.423 16.824,248.750 17.569 M283.567 17.514 C 279.287 18.231,277.148 23.018,279.256 27.167 C 280.577 29.768,284.631 30.842,287.677 29.398 L 288.771 28.880 289.044 29.357 C 289.345 29.881,290.866 30.067,291.300 29.633 C 291.531 29.402,291.586 23.394,291.360 23.038 C 291.257 22.876,290.467 22.837,287.988 22.871 L 284.750 22.917 284.699 23.996 C 284.637 25.333,284.812 25.500,286.282 25.500 C 287.402 25.500,287.427 25.514,287.162 26.009 C 286.756 26.767,284.997 27.099,284.032 26.600 C 282.505 25.810,282.332 22.145,283.769 21.015 C 284.730 20.259,286.773 20.636,287.372 21.681 L 287.651 22.167 289.474 22.167 C 291.605 22.167,291.639 22.138,291.177 20.739 C 290.363 18.272,287.157 16.914,283.567 17.514 M312.188 17.521 C 306.097 18.533,305.309 27.995,311.171 29.736 C 312.857 30.236,315.074 30.052,316.641 29.281 L 317.366 28.925 317.697 29.379 C 317.985 29.775,318.142 29.833,318.910 29.833 C 320.189 29.833,320.181 29.859,320.129 26.145 L 320.083 22.917 316.845 22.871 C 313.171 22.820,313.340 22.756,313.336 24.202 C 313.333 25.357,313.516 25.500,315.001 25.500 C 316.203 25.500,316.313 25.803,315.349 26.452 C 313.090 27.975,310.823 25.449,311.663 22.345 C 312.197 20.369,315.042 19.949,316.073 21.695 L 316.358 22.177 318.221 22.130 L 320.083 22.083 320.046 21.450 C 319.880 18.667,316.241 16.848,312.188 17.521 M165.550 17.632 C 165.329 17.773,165.071 18.438,162.761 24.821 C 160.755 30.363,160.698 29.835,163.305 29.831 C 165.149 29.828,165.183 29.814,165.535 28.917 L 165.796 28.250 167.717 28.203 L 169.637 28.156 169.840 28.787 C 170.171 29.814,170.213 29.833,172.090 29.833 C 174.499 29.833,174.647 29.724,174.069 28.370 C 173.788 27.714,172.779 24.926,172.063 22.833 C 171.829 22.146,171.538 21.358,171.418 21.083 C 171.298 20.808,170.995 19.983,170.745 19.250 C 170.496 18.517,170.217 17.823,170.125 17.708 C 169.939 17.475,165.903 17.408,165.550 17.632 M175.700 17.700 C 175.552 17.848,175.500 19.404,175.500 23.667 C 175.500 30.356,175.343 29.833,177.353 29.833 C 179.474 29.833,179.333 30.012,179.333 27.329 C 179.333 23.977,179.084 23.985,181.917 27.251 C 182.467 27.885,183.207 28.725,183.563 29.119 L 184.209 29.833 185.751 29.833 C 187.842 29.833,187.678 30.387,187.627 23.480 L 187.583 17.583 186.083 17.534 C 183.662 17.455,183.850 17.229,183.796 20.294 L 183.750 22.917 181.432 20.208 L 179.114 17.500 177.507 17.500 C 176.479 17.500,175.828 17.572,175.700 17.700 M189.949 17.606 C 189.676 17.880,189.819 29.625,190.097 29.732 C 190.594 29.923,193.590 29.843,193.800 29.633 C 193.919 29.515,194.000 28.944,194.000 28.231 L 194.000 27.028 194.859 26.345 C 195.688 25.684,196.333 25.680,196.333 26.335 C 196.333 26.470,197.950 29.314,198.204 29.625 C 198.382 29.844,202.045 29.933,202.570 29.732 C 202.935 29.592,202.899 29.227,202.458 28.610 C 202.252 28.321,201.943 27.822,201.772 27.501 C 201.601 27.179,201.207 26.569,200.897 26.144 C 200.587 25.720,200.333 25.314,200.333 25.243 C 200.333 25.173,200.164 24.883,199.957 24.599 C 199.286 23.681,198.809 22.675,198.940 22.459 C 199.048 22.282,201.438 19.478,202.375 18.430 C 203.105 17.614,202.859 17.500,200.375 17.503 C 197.770 17.505,197.986 17.428,196.919 18.750 C 196.476 19.300,195.656 20.287,195.098 20.944 L 194.083 22.138 194.000 19.861 L 193.917 17.583 191.991 17.537 C 190.932 17.511,190.013 17.542,189.949 17.606 M204.329 17.928 C 203.809 19.296,204.208 26.170,204.885 27.500 C 206.638 30.946,214.232 30.797,215.887 27.285 C 216.535 25.910,216.764 18.039,216.167 17.663 C 215.792 17.427,212.609 17.458,212.367 17.700 C 212.223 17.844,212.167 18.969,212.167 21.708 C 212.167 25.848,212.092 26.253,211.255 26.634 C 210.538 26.961,209.640 26.877,209.083 26.432 L 208.583 26.032 208.500 21.974 C 208.454 19.743,208.356 17.823,208.282 17.708 C 207.981 17.243,204.516 17.435,204.329 17.928 M231.278 17.611 C 231.008 17.881,231.155 29.627,231.430 29.732 C 231.927 29.923,234.924 29.843,235.133 29.633 C 235.267 29.499,235.333 28.754,235.333 27.378 L 235.333 25.322 237.208 25.370 L 239.083 25.417 239.130 27.494 C 239.186 29.954,239.071 29.827,241.258 29.831 C 243.527 29.834,243.333 30.411,243.333 23.654 C 243.333 16.855,243.562 17.470,241.059 17.536 L 239.250 17.583 239.203 19.708 L 239.157 21.833 237.245 21.833 L 235.333 21.833 235.333 19.867 C 235.333 18.559,235.266 17.833,235.133 17.700 C 234.920 17.486,231.482 17.407,231.278 17.611 M258.200 17.700 C 257.861 18.039,257.919 29.229,258.262 29.571 C 258.571 29.881,261.471 29.950,262.011 29.661 C 262.408 29.448,262.524 18.091,262.133 17.700 C 261.859 17.426,258.474 17.426,258.200 17.700 M264.778 17.611 C 264.717 17.672,264.667 20.402,264.667 23.677 C 264.667 30.517,264.454 29.833,266.583 29.833 C 268.640 29.833,268.500 30.027,268.500 27.177 C 268.500 25.827,268.544 24.678,268.598 24.624 C 268.695 24.527,269.761 25.700,271.803 28.152 C 273.237 29.873,273.163 29.833,274.915 29.833 C 277.001 29.833,276.833 30.374,276.833 23.654 C 276.833 16.884,277.034 17.468,274.725 17.535 L 273.083 17.583 273.000 20.217 L 272.917 22.850 272.385 22.300 C 272.092 21.998,271.281 21.075,270.582 20.250 C 269.883 19.425,269.061 18.469,268.756 18.125 L 268.201 17.500 266.545 17.500 C 265.634 17.500,264.839 17.550,264.778 17.611 M293.538 17.695 C 293.247 17.986,293.242 29.342,293.533 29.633 C 293.758 29.858,296.948 29.914,297.286 29.699 C 297.424 29.612,297.504 28.898,297.536 27.494 L 297.583 25.417 299.458 25.370 L 301.333 25.322 301.333 27.378 C 301.333 29.912,301.267 29.834,303.408 29.831 C 305.729 29.827,305.511 30.493,305.460 23.572 L 305.417 17.583 303.750 17.535 C 301.160 17.459,301.333 17.300,301.333 19.753 L 301.333 21.833 299.422 21.833 L 297.510 21.833 297.463 19.708 L 297.417 17.583 295.580 17.537 C 294.294 17.504,293.682 17.551,293.538 17.695 M325.377 17.633 C 325.264 17.707,324.954 18.401,324.688 19.175 C 324.423 19.950,323.907 21.408,323.542 22.417 C 323.178 23.425,322.529 25.225,322.100 26.417 C 321.672 27.608,321.246 28.760,321.156 28.977 C 320.859 29.683,321.189 29.833,323.031 29.833 C 324.715 29.833,325.333 29.677,325.333 29.252 C 325.333 29.122,325.421 28.822,325.529 28.586 L 325.725 28.157 327.644 28.203 L 329.563 28.250 329.709 28.833 C 329.933 29.731,330.186 29.834,332.157 29.831 C 334.427 29.827,334.506 29.778,334.049 28.635 C 333.855 28.148,333.605 27.450,333.495 27.083 C 333.384 26.717,333.195 26.192,333.075 25.917 C 332.954 25.642,332.633 24.779,332.361 24.000 C 331.124 20.456,330.518 18.814,330.229 18.222 L 329.917 17.583 327.750 17.542 C 326.558 17.519,325.491 17.560,325.377 17.633 M335.611 17.611 C 335.341 17.881,335.489 29.627,335.764 29.732 C 336.255 29.921,338.924 29.842,339.133 29.633 C 339.270 29.496,339.333 28.678,339.333 27.036 C 339.333 25.602,339.397 24.661,339.491 24.694 C 339.578 24.725,340.560 25.800,341.674 27.083 C 344.221 30.017,343.957 29.833,345.626 29.833 C 347.865 29.833,347.667 30.430,347.667 23.681 C 347.667 16.880,347.868 17.468,345.559 17.535 L 343.917 17.583 343.871 20.208 C 343.846 21.652,343.765 22.833,343.692 22.833 C 343.544 22.833,343.558 22.849,341.216 20.062 C 338.849 17.246,339.232 17.500,337.349 17.500 C 336.454 17.500,335.672 17.550,335.611 17.611 M350.042 17.610 C 349.747 17.729,349.738 29.338,350.033 29.633 C 350.705 30.305,357.426 29.757,358.998 28.902 C 362.647 26.917,362.440 20.182,358.669 18.196 C 357.537 17.600,351.143 17.166,350.042 17.610 M363.367 17.700 C 363.028 18.039,363.086 29.229,363.429 29.571 C 363.760 29.903,366.979 29.954,367.300 29.633 C 367.434 29.499,367.500 28.756,367.500 27.383 L 367.500 25.333 369.333 25.333 L 371.167 25.333 371.167 27.411 C 371.167 29.902,371.106 29.834,373.364 29.831 C 375.543 29.827,375.344 30.471,375.294 23.572 L 375.250 17.583 373.441 17.536 C 371.088 17.474,371.167 17.394,371.167 19.854 L 371.167 21.833 369.333 21.833 L 367.500 21.833 367.500 19.867 C 367.500 18.559,367.433 17.833,367.300 17.700 C 367.026 17.426,363.641 17.426,363.367 17.700 M377.944 17.611 C 377.674 17.881,377.822 29.627,378.097 29.732 C 378.440 29.864,381.394 29.864,381.736 29.732 C 382.137 29.578,382.137 17.755,381.736 17.601 C 381.378 17.464,378.083 17.472,377.944 17.611 M226.564 18.085 C 228.156 18.753,228.966 19.830,228.852 21.125 C 228.838 21.275,228.404 21.333,227.292 21.333 L 225.750 21.333 225.303 20.773 C 224.790 20.130,224.142 19.942,223.271 20.182 C 222.249 20.464,222.091 21.493,223.037 21.715 C 228.991 23.115,230.483 24.664,228.804 27.702 C 226.910 31.127,218.686 30.103,218.458 26.413 L 218.417 25.750 220.048 25.702 L 221.680 25.654 221.858 26.166 C 222.298 27.428,225.500 27.571,225.500 26.328 C 225.500 25.846,224.934 25.573,222.917 25.084 C 219.188 24.180,217.639 22.203,218.866 19.913 C 219.921 17.943,223.950 16.986,226.564 18.085 M253.438 18.159 C 254.804 18.763,255.667 19.795,255.667 20.825 L 255.667 21.333 254.042 21.332 C 252.420 21.331,252.416 21.330,252.139 20.843 C 251.527 19.768,249.250 19.825,249.250 20.915 C 249.250 21.538,249.638 21.740,251.819 22.253 C 255.642 23.152,256.968 24.949,255.676 27.481 C 253.845 31.070,245.548 30.284,245.299 26.497 L 245.250 25.750 246.870 25.702 L 248.491 25.655 248.731 26.231 C 249.044 26.979,249.427 27.167,250.637 27.167 C 253.301 27.167,252.631 25.601,249.750 25.094 C 245.930 24.423,244.254 21.982,245.903 19.491 C 247.024 17.796,251.020 17.090,253.438 18.159 M288.224 18.168 C 289.434 18.625,290.517 19.646,290.913 20.702 C 291.368 21.917,291.273 22.000,289.416 22.000 L 287.822 22.000 287.487 21.432 C 286.550 19.844,283.915 19.989,282.917 21.684 C 282.472 22.439,282.448 24.974,282.877 25.776 C 283.730 27.368,286.638 27.484,287.494 25.959 C 287.831 25.360,287.676 25.265,286.231 25.192 L 284.985 25.129 285.034 24.106 L 285.083 23.083 288.083 23.083 L 291.083 23.083 291.129 26.292 L 291.174 29.500 290.248 29.500 C 289.518 29.500,289.301 29.439,289.219 29.208 C 288.978 28.532,288.846 28.517,287.803 29.056 C 286.513 29.721,283.873 29.896,282.248 29.423 C 277.940 28.171,277.592 20.346,281.755 18.331 C 283.334 17.567,286.427 17.489,288.224 18.168 M317.166 18.263 C 318.347 18.793,319.392 19.850,319.678 20.805 C 320.011 21.915,319.899 22.000,318.105 22.000 L 316.533 22.000 316.206 21.447 C 315.267 19.854,312.484 19.995,311.625 21.679 C 311.231 22.452,311.219 24.915,311.606 25.726 C 312.376 27.342,315.313 27.483,316.165 25.946 C 316.510 25.324,316.240 25.173,314.784 25.169 L 313.651 25.167 313.700 24.125 L 313.750 23.083 316.750 23.083 L 319.750 23.083 319.795 26.300 L 319.841 29.517 318.880 29.467 C 318.073 29.425,317.910 29.363,317.857 29.083 C 317.755 28.536,317.545 28.535,316.463 29.072 C 315.034 29.781,312.312 29.901,310.750 29.324 C 306.574 27.782,306.344 20.459,310.405 18.384 C 312.098 17.519,315.377 17.460,317.166 18.263 M170.216 18.542 C 170.359 18.931,170.857 20.300,171.321 21.583 C 171.785 22.867,172.607 25.117,173.146 26.583 C 173.686 28.050,174.094 29.306,174.054 29.375 C 174.013 29.444,173.169 29.500,172.177 29.500 L 170.374 29.500 170.173 28.958 C 169.774 27.880,169.861 27.920,167.816 27.875 C 165.676 27.827,165.659 27.833,165.318 28.750 L 165.070 29.417 163.285 29.464 C 161.164 29.520,161.253 29.736,162.261 26.990 C 163.366 23.978,164.279 21.460,164.887 19.750 C 165.626 17.669,165.374 17.833,167.821 17.833 L 169.955 17.833 170.216 18.542 M179.772 18.622 C 181.720 21.004,183.719 23.250,183.889 23.250 C 184.027 23.250,184.097 22.467,184.129 20.536 L 184.175 17.821 185.796 17.869 L 187.417 17.917 187.417 23.667 L 187.417 29.417 185.811 29.464 L 184.206 29.512 183.751 28.964 C 183.501 28.663,183.022 28.117,182.686 27.750 C 182.351 27.383,181.521 26.427,180.842 25.625 C 179.167 23.646,179.184 23.635,179.129 26.792 L 179.083 29.417 177.458 29.464 L 175.833 29.512 175.833 23.673 L 175.833 17.833 177.480 17.833 L 179.127 17.833 179.772 18.622 M193.796 20.208 C 193.822 21.469,193.906 22.500,193.984 22.500 C 194.062 22.500,195.001 21.450,196.072 20.167 L 198.017 17.833 200.175 17.833 C 201.362 17.833,202.331 17.890,202.327 17.958 C 202.321 18.095,202.233 18.202,200.157 20.602 C 199.372 21.508,198.674 22.344,198.605 22.459 C 198.484 22.660,199.056 23.674,201.479 27.552 C 202.780 29.635,202.852 29.500,200.434 29.500 L 198.369 29.500 197.208 27.466 C 195.831 25.054,195.957 25.126,194.782 26.093 L 193.847 26.863 193.798 28.140 L 193.750 29.417 191.917 29.417 L 190.083 29.417 190.039 23.835 C 189.986 17.094,189.756 17.811,191.955 17.869 L 193.750 17.917 193.796 20.208 M208.167 21.589 C 208.167 26.382,208.397 26.990,210.222 27.027 C 212.233 27.067,212.500 26.430,212.500 21.594 L 212.500 17.822 214.292 17.869 L 216.083 17.917 216.083 22.000 C 216.083 28.364,215.103 29.667,210.311 29.667 C 205.544 29.667,204.609 28.433,204.534 22.042 L 204.484 17.833 206.325 17.833 L 208.167 17.833 208.167 21.589 M235.003 19.792 C 235.006 22.329,234.869 22.187,237.263 22.131 L 239.250 22.083 239.291 20.333 C 239.355 17.635,239.199 17.833,241.253 17.833 L 243.000 17.833 243.000 23.672 L 243.000 29.511 241.208 29.464 L 239.417 29.417 239.333 27.250 L 239.250 25.083 237.263 25.036 C 234.863 24.979,235.006 24.826,235.003 27.464 L 235.000 29.511 233.208 29.464 L 231.417 29.417 231.370 24.000 C 231.311 17.151,231.103 17.833,233.253 17.833 L 235.000 17.833 235.003 19.792 M261.960 23.625 L 261.917 29.417 260.167 29.417 L 258.417 29.417 258.373 23.625 L 258.329 17.833 260.167 17.833 L 262.004 17.833 261.960 23.625 M268.450 18.066 C 268.711 18.523,272.885 23.333,273.021 23.333 C 273.096 23.333,273.179 22.115,273.204 20.625 L 273.250 17.917 274.875 17.869 L 276.500 17.821 276.500 23.661 L 276.500 29.500 274.950 29.500 L 273.401 29.500 272.805 28.875 C 272.477 28.531,271.439 27.350,270.498 26.250 C 268.242 23.613,268.352 23.586,268.296 26.780 L 268.250 29.417 266.625 29.464 L 265.000 29.512 265.000 23.673 L 265.000 17.833 266.658 17.833 C 267.904 17.833,268.350 17.891,268.450 18.066 M297.333 20.000 L 297.417 22.083 299.309 22.131 C 301.757 22.192,301.667 22.281,301.667 19.813 L 301.667 17.833 303.413 17.833 C 305.564 17.833,305.355 17.151,305.297 24.000 L 305.250 29.417 303.458 29.464 L 301.667 29.511 301.667 27.443 C 301.667 24.874,301.766 24.975,299.309 25.036 L 297.417 25.083 297.333 27.250 L 297.250 29.417 295.458 29.464 L 293.667 29.511 293.667 23.667 L 293.667 17.822 295.458 17.869 L 297.250 17.917 297.333 20.000 M330.206 18.833 C 330.390 19.337,330.788 20.425,331.091 21.250 C 332.387 24.776,334.000 29.294,334.000 29.398 C 334.000 29.460,333.159 29.490,332.132 29.464 L 330.263 29.417 330.015 28.750 C 329.674 27.833,329.659 27.827,327.500 27.875 L 325.583 27.917 325.205 28.708 L 324.827 29.500 323.191 29.500 C 321.031 29.500,321.075 30.036,322.837 25.167 C 323.219 24.113,323.745 22.650,324.006 21.917 C 324.267 21.183,324.675 20.058,324.912 19.417 C 325.150 18.775,325.378 18.154,325.419 18.037 C 325.475 17.875,326.021 17.835,327.682 17.870 L 329.871 17.917 330.206 18.833 M339.779 18.791 C 342.168 21.633,343.714 23.324,343.848 23.241 C 343.932 23.189,344.000 21.951,344.000 20.490 L 344.000 17.833 345.669 17.833 L 347.338 17.833 347.294 23.625 L 347.250 29.417 345.789 29.465 C 343.987 29.524,344.313 29.744,341.678 26.699 C 340.464 25.297,339.383 24.178,339.277 24.213 C 339.144 24.257,339.069 25.092,339.037 26.895 L 338.991 29.512 337.371 29.464 L 335.750 29.417 335.706 23.835 C 335.653 17.144,335.459 17.833,337.399 17.833 L 338.974 17.833 339.779 18.791 M357.762 18.109 C 362.293 19.631,362.679 26.832,358.345 28.961 C 357.434 29.408,357.350 29.418,353.792 29.472 L 350.167 29.528 350.167 23.681 L 350.167 17.833 353.554 17.833 C 356.264 17.833,357.105 17.888,357.762 18.109 M367.203 19.958 L 367.250 22.083 369.333 22.083 L 371.417 22.083 371.463 19.953 L 371.510 17.822 373.297 17.869 L 375.083 17.917 375.083 23.667 L 375.083 29.417 373.333 29.417 L 371.583 29.417 371.500 27.250 L 371.417 25.083 369.333 25.083 L 367.250 25.083 367.203 27.297 L 367.157 29.511 365.370 29.464 L 363.583 29.417 363.540 23.625 L 363.496 17.833 365.326 17.833 L 367.157 17.833 367.203 19.958 M381.667 23.672 L 381.667 29.511 379.875 29.464 L 378.083 29.417 378.037 24.000 C 377.978 17.151,377.770 17.833,379.920 17.833 L 381.667 17.833 381.667 23.672 M353.772 20.875 C 353.640 21.366,353.637 26.228,353.768 26.570 C 353.900 26.914,355.448 26.929,356.252 26.593 C 357.890 25.909,358.073 21.953,356.518 20.846 C 355.781 20.322,353.915 20.341,353.772 20.875 M356.678 21.319 C 357.456 22.250,357.528 24.849,356.805 25.871 C 356.449 26.373,355.462 26.717,354.613 26.635 L 354.083 26.583 354.037 23.840 C 353.980 20.437,353.917 20.609,355.198 20.701 C 356.110 20.767,356.275 20.836,356.678 21.319 M167.498 21.504 C 167.180 22.098,166.469 24.846,166.567 25.101 C 166.667 25.360,168.421 25.431,168.799 25.192 C 168.969 25.084,168.904 24.674,168.492 23.236 C 167.904 21.187,167.782 20.974,167.498 21.504 M327.164 22.042 C 327.064 22.431,326.829 23.221,326.642 23.798 C 326.189 25.195,326.263 25.334,327.453 25.331 C 329.029 25.327,329.016 25.371,328.229 22.708 C 327.764 21.136,327.448 20.938,327.164 22.042 M168.002 22.542 C 168.102 22.931,168.292 23.582,168.425 23.988 C 168.762 25.016,168.772 25.000,167.735 25.000 L 166.804 25.000 166.921 24.292 C 166.986 23.902,167.095 23.471,167.164 23.333 C 167.233 23.196,167.340 22.802,167.402 22.458 C 167.551 21.635,167.778 21.667,168.002 22.542 M328.155 23.444 C 328.345 24.193,328.500 24.849,328.500 24.903 C 328.500 24.956,328.087 25.000,327.583 25.000 C 326.507 25.000,326.524 25.061,327.103 23.204 C 327.606 21.587,327.688 21.606,328.155 23.444 " stroke="none" fill="#619de4" fill-rule="evenodd"></path></g></svg>