<svg id="svg" version="1.1" xmlns="http://www.w3.org/2000/svg" xmlns:xlink="http://www.w3.org/1999/xlink" width="400" height="49.72222222222222" viewBox="0, 0, 400,49.72222222222222"><g id="svgg"><path id="path0" d="M16.961 13.320 L 16.417 13.806 16.417 24.833 L 16.417 35.861 16.961 36.347 L 17.505 36.833 28.128 36.822 C 39.482 36.809,39.110 36.833,39.695 36.088 L 40.083 35.592 40.137 25.921 C 40.199 14.660,40.164 13.971,39.496 13.303 L 39.026 12.833 28.265 12.833 L 17.505 12.833 16.961 13.320 M22.715 15.927 C 24.285 17.236,24.153 19.251,22.437 20.145 C 21.277 20.749,19.893 20.318,19.166 19.127 C 17.845 16.960,20.780 14.314,22.715 15.927 M51.040 24.542 L 51.083 30.750 54.738 30.795 C 58.489 30.841,58.783 30.795,58.590 30.187 C 58.485 29.857,58.349 29.839,55.620 29.796 L 52.759 29.750 52.549 29.333 C 52.392 29.024,52.338 27.554,52.336 23.625 L 52.333 18.333 51.665 18.333 L 50.996 18.333 51.040 24.542 M65.000 24.583 L 65.000 30.854 65.542 30.802 L 66.083 30.750 66.083 24.583 L 66.083 18.417 65.542 18.364 L 65.000 18.312 65.000 24.583 M74.082 18.708 C 74.031 18.915,74.011 21.708,74.037 24.917 L 74.083 30.750 74.750 30.750 L 75.417 30.750 75.500 25.752 C 75.589 20.425,75.701 19.829,76.352 21.203 C 76.789 22.128,78.174 24.724,78.328 24.910 C 78.408 25.006,78.525 25.291,78.588 25.543 C 78.651 25.794,78.752 26.000,78.812 26.000 C 78.872 26.000,79.103 26.394,79.324 26.875 C 79.546 27.356,79.817 27.863,79.927 28.000 C 80.037 28.137,80.184 28.438,80.253 28.667 C 80.322 28.896,80.430 29.121,80.492 29.167 C 80.555 29.212,80.777 29.606,80.985 30.042 L 81.363 30.833 82.348 30.833 L 83.333 30.833 83.333 24.573 L 83.333 18.313 82.708 18.365 L 82.083 18.417 82.039 23.236 C 81.984 29.278,81.926 29.419,80.590 26.795 C 80.158 25.945,79.416 24.522,78.943 23.631 C 78.470 22.741,77.720 21.316,77.276 20.465 C 76.193 18.391,76.134 18.333,75.061 18.333 C 74.278 18.333,74.162 18.378,74.082 18.708 M91.409 18.542 C 91.365 18.657,91.349 21.451,91.373 24.751 L 91.417 30.750 91.958 30.802 L 92.500 30.854 92.500 28.448 C 92.500 24.158,92.383 24.172,96.252 28.016 L 99.087 30.833 99.877 30.833 C 100.930 30.833,101.055 31.017,97.715 27.655 C 93.852 23.765,93.890 24.484,97.364 21.131 L 100.250 18.346 99.448 18.340 C 98.556 18.333,98.741 18.190,95.097 21.704 C 92.707 24.009,92.500 23.905,92.500 20.406 L 92.500 18.333 91.995 18.333 C 91.717 18.333,91.453 18.427,91.409 18.542 M106.873 24.542 L 106.917 30.750 110.796 30.795 C 114.153 30.833,114.688 30.805,114.773 30.584 C 115.022 29.935,114.587 29.833,111.572 29.833 C 108.000 29.833,108.167 29.962,108.167 27.202 C 108.167 24.494,107.946 24.667,111.405 24.667 C 113.822 24.667,114.313 24.626,114.394 24.417 C 114.658 23.726,114.427 23.667,111.492 23.667 C 108.084 23.667,108.167 23.721,108.167 21.481 C 108.167 19.301,108.099 19.344,111.583 19.292 L 114.417 19.250 114.469 18.792 L 114.522 18.333 110.676 18.333 L 106.829 18.333 106.873 24.542 M122.000 24.583 L 122.000 30.833 124.396 30.833 C 128.396 30.833,130.104 30.234,131.590 28.308 C 132.387 27.275,132.782 23.831,132.250 22.558 C 132.112 22.229,132.000 21.825,132.000 21.661 C 132.000 21.497,131.696 20.979,131.325 20.509 C 130.073 18.926,128.156 18.333,124.282 18.333 L 122.000 18.333 122.000 24.583 M139.584 18.699 C 139.533 18.910,139.511 21.708,139.537 24.917 L 139.583 30.750 140.250 30.750 L 140.917 30.750 140.917 24.583 L 140.917 18.417 140.297 18.365 C 139.768 18.321,139.664 18.370,139.584 18.699 M149.000 24.594 L 149.000 30.854 149.542 30.802 L 150.083 30.750 150.126 25.833 C 150.180 19.540,150.219 19.469,151.889 22.701 C 152.704 24.278,152.877 24.608,153.159 25.125 C 153.247 25.285,153.553 25.867,153.840 26.417 C 154.127 26.967,154.754 28.167,155.233 29.083 L 156.105 30.750 157.094 30.750 L 158.083 30.750 158.083 24.583 L 158.083 18.417 157.542 18.364 L 157.000 18.312 157.000 23.062 C 157.000 26.063,156.934 27.984,156.820 28.281 L 156.640 28.750 156.237 28.250 C 156.016 27.975,155.490 27.075,155.069 26.250 C 154.648 25.425,153.905 24.000,153.418 23.083 C 152.930 22.167,152.171 20.723,151.731 19.875 L 150.930 18.333 149.965 18.333 L 149.000 18.333 149.000 24.594 M127.417 19.561 C 127.967 19.680,128.657 19.903,128.950 20.055 C 131.547 21.408,131.743 27.183,129.248 28.851 C 127.931 29.732,123.862 30.249,123.601 29.570 C 123.397 29.037,123.488 19.745,123.700 19.533 C 123.966 19.267,126.134 19.284,127.417 19.561 M252.500 20.840 C 250.136 21.059,248.745 22.541,249.101 24.461 C 249.375 25.935,250.391 26.584,253.583 27.325 C 254.597 27.561,255.168 27.911,255.164 28.296 C 255.153 29.532,252.303 29.486,251.830 28.241 C 251.683 27.855,251.603 27.833,250.337 27.833 L 249.000 27.833 249.000 28.378 C 249.000 32.141,257.168 32.441,258.263 28.718 C 258.890 26.589,257.753 25.399,254.455 24.731 C 252.877 24.411,252.333 24.117,252.333 23.585 C 252.333 22.614,254.252 22.410,254.997 23.301 C 255.479 23.879,257.870 24.139,258.040 23.631 C 258.601 21.946,255.798 20.534,252.500 20.840 M276.228 20.837 C 273.634 21.112,272.222 22.997,273.077 25.043 C 273.539 26.149,274.533 26.672,277.417 27.329 C 278.926 27.673,279.439 28.340,278.630 28.907 C 277.756 29.519,275.997 29.120,275.660 28.233 C 275.517 27.857,275.429 27.833,274.171 27.833 L 272.833 27.833 272.833 28.475 C 272.833 32.102,281.022 32.356,282.089 28.762 C 282.712 26.665,281.523 25.400,278.314 24.747 C 276.943 24.467,275.997 24.004,276.003 23.614 C 276.016 22.566,278.445 22.462,278.992 23.486 C 279.309 24.078,281.833 24.009,281.833 23.408 C 281.833 21.570,279.483 20.492,276.228 20.837 M307.167 20.843 C 304.098 21.108,302.757 22.702,302.758 26.083 C 302.758 28.212,302.980 28.972,303.894 29.974 C 305.250 31.463,308.690 31.737,310.750 30.522 C 311.326 30.182,311.833 30.334,311.833 30.845 C 311.833 30.930,312.171 31.000,312.583 31.000 L 313.333 31.000 313.333 28.250 L 313.333 25.500 310.758 25.500 L 308.182 25.500 308.075 26.069 C 307.874 27.142,308.052 27.333,309.251 27.333 C 310.431 27.333,310.571 27.423,310.282 27.993 C 309.754 29.036,307.840 29.435,306.849 28.710 C 305.443 27.680,305.439 24.323,306.843 23.295 C 307.762 22.622,309.797 22.957,310.262 23.857 C 310.504 24.324,310.536 24.333,311.921 24.333 L 313.333 24.333 313.333 23.857 C 313.333 21.895,310.579 20.549,307.167 20.843 M332.667 20.848 C 329.097 21.169,327.314 24.300,328.458 28.237 C 329.263 31.005,332.971 32.183,336.035 30.644 C 336.830 30.245,337.176 30.251,337.285 30.667 C 337.357 30.943,337.512 31.000,338.190 31.000 L 339.008 31.000 338.962 28.292 L 338.917 25.583 336.292 25.537 L 333.667 25.492 333.667 26.311 C 333.667 27.254,333.772 27.333,335.014 27.333 C 336.036 27.333,336.166 27.857,335.321 28.569 C 334.590 29.183,333.105 29.216,332.290 28.636 C 330.905 27.650,330.929 24.334,332.328 23.337 C 333.322 22.629,335.281 22.926,335.762 23.857 C 336.004 24.324,336.036 24.333,337.421 24.333 L 338.833 24.333 338.833 23.857 C 338.833 21.893,336.064 20.542,332.667 20.848 M201.574 21.755 C 201.350 22.262,201.167 22.748,201.167 22.836 C 201.167 22.924,200.986 23.466,200.765 24.040 C 200.544 24.614,200.162 25.646,199.917 26.333 C 199.671 27.021,199.215 28.262,198.902 29.092 C 198.136 31.123,198.072 31.000,199.887 31.000 L 201.441 31.000 201.596 30.375 L 201.750 29.750 203.735 29.750 L 205.720 29.750 205.916 30.333 L 206.112 30.917 207.723 30.964 C 208.609 30.991,209.333 30.966,209.333 30.909 C 209.333 30.819,208.690 28.994,208.072 27.333 C 207.716 26.373,206.496 22.972,206.220 22.167 C 205.739 20.765,205.862 20.833,203.818 20.833 L 201.982 20.833 201.574 21.755 M211.111 20.944 C 211.050 21.006,211.000 23.293,211.000 26.028 L 211.000 31.000 212.417 31.000 L 213.833 31.000 213.833 28.677 C 213.833 26.110,213.919 25.902,214.644 26.704 C 215.653 27.819,216.206 28.448,217.282 29.708 L 218.385 31.000 219.859 31.000 L 221.333 31.000 221.333 25.910 L 221.333 20.820 219.875 20.869 L 218.417 20.917 218.333 23.417 L 218.250 25.917 217.831 25.500 C 217.600 25.271,216.850 24.409,216.164 23.584 C 213.726 20.654,213.965 20.833,212.501 20.833 C 211.798 20.833,211.172 20.883,211.111 20.944 M223.667 25.917 L 223.667 31.000 225.242 31.000 L 226.818 31.000 226.867 29.884 L 226.917 28.768 227.824 28.030 L 228.731 27.291 229.093 27.745 C 229.293 27.995,229.806 28.830,230.235 29.600 L 231.015 31.000 232.860 31.000 L 234.705 31.000 234.459 30.625 C 233.091 28.535,231.167 25.268,231.171 25.038 C 231.173 24.880,231.702 24.150,232.347 23.417 C 232.992 22.683,233.746 21.802,234.024 21.458 L 234.528 20.833 232.621 20.833 L 230.714 20.833 229.754 22.042 C 228.148 24.064,227.137 25.168,226.981 25.072 C 226.900 25.022,226.833 24.047,226.833 22.907 L 226.833 20.833 225.250 20.833 L 223.667 20.833 223.667 25.917 M236.537 24.535 C 236.604 28.420,236.683 28.870,237.456 29.754 C 239.199 31.749,243.891 31.827,245.689 29.890 C 246.630 28.877,246.713 28.507,246.799 24.976 C 246.906 20.563,247.012 20.833,245.163 20.833 L 243.667 20.833 243.667 24.089 C 243.667 27.647,243.551 28.241,242.753 28.763 C 242.016 29.246,240.888 29.132,240.268 28.512 L 239.750 27.994 239.667 24.456 L 239.583 20.917 238.028 20.869 L 236.472 20.820 236.537 24.535 M260.500 25.917 L 260.500 31.000 262.000 31.000 L 263.500 31.000 263.500 29.347 C 263.500 27.024,263.362 27.167,265.601 27.167 L 267.500 27.167 267.500 29.083 L 267.500 31.000 269.083 31.000 L 270.667 31.000 270.667 25.910 L 270.667 20.821 269.125 20.869 L 267.583 20.917 267.536 22.792 L 267.489 24.667 265.596 24.667 C 263.363 24.667,263.500 24.809,263.500 22.486 L 263.500 20.833 262.000 20.833 L 260.500 20.833 260.500 25.917 M284.444 20.944 C 284.383 21.006,284.333 23.293,284.333 26.028 L 284.333 31.000 285.917 31.000 L 287.500 31.000 287.500 25.917 L 287.500 20.833 286.028 20.833 C 285.218 20.833,284.506 20.883,284.444 20.944 M290.333 25.917 L 290.333 31.000 291.750 31.000 L 293.167 31.000 293.167 28.667 C 293.167 25.734,293.098 25.734,295.597 28.661 L 297.583 30.989 299.044 30.994 L 300.505 31.000 300.461 25.958 L 300.417 20.917 299.042 20.868 L 297.667 20.820 297.667 23.233 C 297.667 26.529,297.851 26.548,294.833 22.941 L 293.083 20.850 291.708 20.842 L 290.333 20.833 290.333 25.917 M315.833 25.917 L 315.833 31.000 317.333 31.000 L 318.833 31.000 318.833 29.347 C 318.833 27.024,318.696 27.167,320.934 27.167 L 322.833 27.167 322.833 29.083 L 322.833 31.000 324.419 31.000 L 326.005 31.000 325.961 25.958 L 325.917 20.917 324.381 20.869 L 322.844 20.821 322.797 22.702 L 322.750 24.583 320.930 24.631 C 318.743 24.688,318.839 24.784,318.836 22.542 L 318.833 20.833 317.333 20.833 L 315.833 20.833 315.833 25.917 M343.927 21.370 C 343.795 21.670,343.489 22.479,343.246 23.167 C 343.003 23.854,342.552 25.092,342.243 25.917 C 341.935 26.742,341.443 28.129,341.151 29.000 C 340.858 29.871,340.543 30.680,340.450 30.798 C 340.315 30.971,340.603 31.003,341.918 30.965 L 343.554 30.917 343.750 30.333 L 343.946 29.750 345.932 29.750 L 347.917 29.750 348.071 30.375 L 348.225 31.000 349.858 31.000 L 351.490 31.000 350.646 28.625 C 349.716 26.009,349.093 24.273,348.358 22.250 L 347.874 20.917 346.020 20.870 L 344.166 20.822 343.927 21.370 M353.167 25.917 L 353.167 31.000 354.583 31.000 L 356.000 31.000 356.000 28.667 C 356.000 25.851,356.097 25.774,357.519 27.469 C 358.034 28.082,358.919 29.127,359.485 29.792 L 360.516 31.000 361.924 31.000 L 363.333 31.000 363.333 25.910 L 363.333 20.820 361.958 20.868 L 360.583 20.917 360.537 23.375 C 360.500 25.340,360.445 25.833,360.259 25.833 C 360.132 25.833,360.003 25.761,359.972 25.673 C 359.942 25.585,359.020 24.460,357.924 23.173 L 355.931 20.833 354.549 20.833 L 353.167 20.833 353.167 25.917 M366.000 25.917 L 366.000 31.000 368.994 31.000 C 374.267 31.000,375.693 29.935,375.693 26.000 C 375.693 21.973,374.177 20.839,368.792 20.835 L 366.000 20.833 366.000 25.917 M377.944 20.944 C 377.883 21.006,377.833 23.293,377.833 26.028 L 377.833 31.000 379.411 31.000 L 380.989 31.000 381.036 29.125 L 381.083 27.250 383.000 27.250 L 384.917 27.250 384.964 29.125 L 385.011 31.000 386.505 31.000 L 388.000 31.000 388.000 25.917 L 388.000 20.833 386.505 20.833 L 385.011 20.833 384.964 22.708 L 384.917 24.583 383.000 24.583 L 381.083 24.583 381.036 22.708 L 380.989 20.833 379.522 20.833 C 378.716 20.833,378.006 20.883,377.944 20.944 M390.950 20.938 C 390.886 21.003,390.833 23.293,390.833 26.028 L 390.833 31.000 392.419 31.000 L 394.005 31.000 393.961 25.958 L 393.917 20.917 392.492 20.869 C 391.709 20.843,391.015 20.874,390.950 20.938 M34.354 21.392 C 36.625 21.927,37.327 23.652,37.452 29.008 C 37.562 33.672,37.320 34.167,34.936 34.167 C 33.063 34.167,32.954 33.933,32.838 29.653 C 32.750 26.396,32.749 26.389,32.283 25.778 C 31.643 24.939,30.959 24.932,30.158 25.759 L 29.583 26.351 29.496 29.800 C 29.388 34.105,29.360 34.168,27.531 34.166 C 24.997 34.163,25.000 34.172,25.000 27.429 L 25.000 22.008 25.411 21.739 C 25.800 21.484,26.669 21.470,29.667 21.672 C 29.804 21.682,30.329 21.578,30.833 21.442 C 31.997 21.128,33.162 21.112,34.354 21.392 M22.566 21.492 C 22.923 21.575,23.278 21.742,23.355 21.863 C 23.573 22.207,23.535 32.684,23.313 33.320 C 22.871 34.587,19.929 34.479,19.253 33.172 C 18.902 32.493,18.873 22.146,19.221 21.857 C 19.746 21.422,21.457 21.235,22.566 21.492 M371.684 23.381 C 372.842 24.159,373.003 27.198,371.941 28.257 C 371.404 28.794,370.059 29.140,369.438 28.902 C 369.157 28.794,369.007 23.382,369.278 23.111 C 369.557 22.832,371.130 23.008,371.684 23.381 M204.414 25.225 C 205.083 27.418,205.058 27.500,203.732 27.500 L 202.632 27.500 202.716 26.875 C 202.910 25.427,203.570 23.587,203.835 23.751 C 203.923 23.805,204.183 24.468,204.414 25.225 M346.178 24.020 C 346.461 24.549,347.122 27.052,347.042 27.292 C 346.939 27.599,344.898 27.576,344.779 27.266 C 344.730 27.138,344.910 26.301,345.178 25.406 C 345.447 24.511,345.667 23.754,345.667 23.723 C 345.667 23.521,346.021 23.728,346.178 24.020 " stroke="none" fill="#f1f2f3" fill-rule="evenodd"></path><path id="path1" d="M0.000 24.833 L 0.000 49.667 91.667 49.667 L 183.333 49.667 183.333 24.833 L 183.333 0.000 91.667 0.000 L 0.000 0.000 0.000 24.833 M39.731 12.493 C 40.682 12.854,40.667 12.649,40.666 24.783 C 40.666 37.025,40.675 36.913,39.667 37.187 C 38.944 37.383,17.275 37.354,16.707 37.156 C 15.737 36.818,15.750 36.980,15.750 24.833 C 15.750 13.020,15.757 12.917,16.554 12.531 C 17.029 12.302,39.132 12.265,39.731 12.493 M20.265 17.013 C 18.998 18.519,20.934 20.401,22.428 19.116 C 23.084 18.552,23.093 17.456,22.447 16.900 C 21.749 16.300,20.824 16.348,20.265 17.013 M52.688 18.196 C 52.765 18.317,52.829 20.826,52.831 23.771 L 52.833 29.125 53.354 29.229 C 53.641 29.286,54.938 29.333,56.238 29.333 C 58.872 29.333,59.000 29.381,59.000 30.363 C 59.000 31.193,59.036 31.187,54.500 31.130 L 50.750 31.083 50.706 24.667 C 50.665 18.701,50.683 18.234,50.956 18.029 C 51.311 17.762,52.485 17.875,52.688 18.196 M66.239 17.996 L 66.667 18.158 66.667 24.561 C 66.667 31.684,66.758 31.167,65.498 31.167 C 64.299 31.167,64.333 31.359,64.333 24.603 C 64.333 20.023,64.384 18.500,64.542 18.301 C 64.907 17.840,65.533 17.728,66.239 17.996 M76.312 18.125 C 76.660 18.416,77.145 19.259,78.590 22.083 C 79.012 22.908,79.572 23.958,79.834 24.417 C 80.097 24.875,80.316 25.381,80.322 25.542 C 80.328 25.702,80.401 25.833,80.484 25.833 C 80.566 25.833,80.719 26.040,80.824 26.292 C 81.579 28.118,81.576 28.129,81.673 22.917 C 81.722 20.258,81.779 18.068,81.798 18.049 C 81.931 17.921,83.035 17.822,83.321 17.913 C 83.669 18.023,83.670 18.049,83.627 24.554 L 83.583 31.083 82.394 31.132 L 81.204 31.181 80.715 30.382 C 80.446 29.943,80.020 29.171,79.769 28.667 C 79.332 27.791,78.095 25.422,76.767 22.917 C 76.427 22.275,76.078 21.679,75.991 21.592 C 75.892 21.492,75.833 23.165,75.833 26.100 C 75.833 29.507,75.779 30.821,75.633 30.967 C 75.287 31.313,74.039 31.218,73.832 30.830 C 73.524 30.256,73.683 18.197,74.000 17.996 C 74.436 17.721,75.928 17.804,76.312 18.125 M92.942 18.188 C 93.108 18.326,93.167 18.911,93.167 20.427 C 93.167 21.556,93.232 22.520,93.311 22.570 C 93.448 22.654,94.431 21.789,97.083 19.252 C 98.563 17.837,99.418 17.510,100.344 18.006 C 100.845 18.274,100.736 18.553,99.792 19.419 C 96.879 22.089,95.001 23.949,95.001 24.165 C 95.000 24.302,96.398 25.813,98.107 27.524 C 101.612 31.032,101.680 31.167,99.949 31.167 L 98.888 31.167 96.159 28.429 C 94.657 26.923,93.370 25.727,93.298 25.772 C 93.226 25.817,93.167 26.971,93.167 28.337 C 93.167 31.137,93.153 31.167,91.865 31.167 C 90.799 31.167,90.825 31.345,90.873 24.405 L 90.917 18.098 91.333 17.976 C 91.838 17.829,92.636 17.934,92.942 18.188 M114.667 18.048 C 115.174 18.304,115.284 18.880,114.928 19.422 C 114.667 19.821,114.628 19.826,111.707 19.871 L 108.750 19.917 108.702 21.437 C 108.645 23.282,108.418 23.161,111.955 23.164 C 114.781 23.167,114.783 23.168,114.638 24.438 L 114.583 24.917 111.625 24.962 L 108.667 25.008 108.667 27.066 L 108.667 29.125 109.188 29.229 C 109.474 29.286,110.898 29.333,112.351 29.333 L 114.994 29.333 115.093 29.730 C 115.148 29.948,115.168 30.342,115.138 30.605 L 115.083 31.083 110.833 31.083 L 106.583 31.083 106.539 24.667 C 106.499 18.782,106.519 18.233,106.780 18.042 C 107.183 17.746,114.079 17.752,114.667 18.048 M128.583 18.262 C 131.765 19.324,132.754 20.828,132.744 24.583 C 132.734 28.295,131.778 29.770,128.708 30.813 C 127.474 31.232,122.249 31.349,121.867 30.967 C 121.506 30.606,121.588 18.436,121.953 18.071 C 122.341 17.683,127.276 17.825,128.583 18.262 M141.167 18.167 C 141.627 18.627,141.693 30.450,141.238 30.905 C 140.845 31.298,139.560 31.257,139.339 30.844 C 139.155 30.500,139.091 19.049,139.269 18.384 C 139.432 17.778,140.639 17.639,141.167 18.167 M150.864 17.983 C 151.076 18.065,151.437 18.496,151.667 18.941 C 151.896 19.386,152.130 19.787,152.186 19.833 C 152.242 19.879,152.499 20.367,152.755 20.917 C 153.012 21.467,153.279 21.955,153.348 22.002 C 153.417 22.048,153.525 22.293,153.589 22.545 C 153.652 22.797,153.763 23.040,153.836 23.085 C 153.909 23.130,154.321 23.861,154.752 24.708 C 156.464 28.075,156.397 28.156,156.500 22.619 C 156.593 17.639,156.565 17.746,157.745 17.919 C 158.691 18.057,158.661 17.839,158.664 24.592 C 158.667 31.621,158.770 31.168,157.175 31.164 C 155.850 31.161,155.824 31.146,155.259 30.000 C 155.010 29.496,154.402 28.333,153.907 27.417 C 153.412 26.500,152.963 25.637,152.908 25.500 C 152.854 25.363,152.738 25.137,152.651 25.000 C 152.564 24.863,152.381 24.525,152.244 24.250 C 152.001 23.762,151.842 23.469,151.498 22.875 C 151.405 22.715,151.245 22.370,151.142 22.109 C 150.773 21.167,150.672 22.094,150.669 26.452 C 150.666 31.344,150.713 31.167,149.440 31.167 C 148.308 31.167,148.333 31.317,148.333 24.603 C 148.333 18.383,148.354 18.180,149.000 17.949 C 149.408 17.803,150.449 17.822,150.864 17.983 M123.875 20.019 C 123.539 20.364,123.579 28.886,123.918 29.168 C 124.372 29.545,127.683 29.227,128.592 28.719 C 131.398 27.151,131.286 21.789,128.417 20.282 C 127.590 19.847,124.232 19.653,123.875 20.019 M20.200 22.200 C 19.866 22.534,19.920 32.145,20.259 32.630 C 20.620 33.145,22.392 33.180,22.661 32.678 C 22.920 32.194,22.894 22.461,22.633 22.200 C 22.521 22.088,21.985 22.000,21.417 22.000 C 20.848 22.000,20.312 22.088,20.200 22.200 M26.292 22.180 C 25.833 22.447,25.846 32.309,26.305 32.724 C 26.678 33.062,28.408 33.112,28.615 32.792 C 28.689 32.677,28.790 31.121,28.839 29.333 C 28.955 25.089,29.266 24.495,31.370 24.502 C 33.262 24.509,33.567 25.158,33.640 29.333 C 33.705 33.046,33.688 33.000,35.000 33.000 C 36.425 33.000,36.383 33.150,36.295 28.377 C 36.213 23.896,36.214 23.901,35.282 22.820 L 34.647 22.083 32.853 22.028 C 31.144 21.975,31.035 21.992,30.566 22.387 C 29.911 22.938,28.833 23.011,28.833 22.505 C 28.833 22.100,26.862 21.848,26.292 22.180 " stroke="none" fill="#545454" fill-rule="evenodd"></path><path id="path2" d="M183.333 24.833 L 183.333 49.667 291.667 49.667 L 400.000 49.667 400.000 24.833 L 400.000 0.000 291.667 0.000 L 183.333 0.000 183.333 24.833 M205.796 20.759 C 206.000 20.902,206.167 21.107,206.167 21.214 C 206.167 21.394,206.850 23.318,207.186 24.083 C 207.266 24.267,207.676 25.392,208.097 26.583 C 208.517 27.775,209.044 29.260,209.268 29.884 C 209.787 31.331,209.784 31.334,207.865 31.331 C 206.093 31.328,205.938 31.279,205.752 30.667 C 205.516 29.887,205.380 29.833,203.653 29.833 L 202.013 29.833 201.838 30.483 C 201.742 30.840,201.545 31.178,201.401 31.233 C 200.882 31.432,198.160 31.344,198.077 31.125 C 197.973 30.853,201.620 20.800,201.882 20.633 C 202.280 20.380,205.399 20.481,205.796 20.759 M213.932 20.714 C 214.123 20.826,215.062 21.848,216.019 22.987 C 218.268 25.666,218.167 25.665,218.167 23.020 C 218.167 20.481,218.154 20.500,219.874 20.500 C 221.617 20.500,221.512 20.132,221.461 26.083 L 221.417 31.250 219.840 31.250 L 218.264 31.250 216.257 28.931 L 214.250 26.613 214.203 28.754 C 214.145 31.406,214.180 31.359,212.350 31.298 L 210.917 31.250 210.873 26.011 C 210.838 21.931,210.875 20.743,211.039 20.639 C 211.366 20.431,213.542 20.488,213.932 20.714 M226.736 20.601 C 226.956 20.686,227.000 21.030,227.000 22.679 C 227.000 25.072,226.936 25.074,228.915 22.638 C 230.627 20.531,230.683 20.499,232.636 20.502 C 234.953 20.506,235.166 20.635,234.355 21.546 C 232.249 23.910,231.345 25.052,231.446 25.221 C 231.510 25.329,232.344 26.680,233.299 28.223 C 235.322 31.490,235.342 31.360,232.826 31.297 L 230.929 31.250 230.590 30.725 C 230.403 30.436,229.929 29.629,229.537 28.930 C 228.748 27.526,228.775 27.533,227.667 28.470 C 227.127 28.926,227.077 29.050,227.000 30.107 L 226.917 31.250 225.250 31.250 L 223.583 31.250 223.539 26.103 C 223.508 22.445,223.550 20.891,223.685 20.728 C 223.881 20.492,226.200 20.395,226.736 20.601 M256.568 21.010 C 257.564 21.508,258.167 22.267,258.289 23.177 C 258.409 24.067,258.251 24.161,256.632 24.164 C 255.336 24.167,255.255 24.134,254.758 23.417 C 254.487 23.026,252.995 22.938,252.640 23.293 C 252.254 23.679,252.924 24.052,254.853 24.526 C 258.308 25.376,259.456 26.995,258.342 29.448 C 256.895 32.636,249.242 32.088,248.743 28.761 C 248.560 27.542,248.613 27.500,250.337 27.500 L 251.851 27.500 252.026 28.004 C 252.308 28.812,254.291 29.236,254.819 28.601 C 255.162 28.187,254.026 27.505,252.988 27.501 C 250.034 27.490,247.908 24.525,249.234 22.263 C 250.222 20.576,254.303 19.879,256.568 21.010 M263.511 20.673 C 263.798 20.826,263.833 21.035,263.833 22.589 L 263.833 24.333 265.583 24.333 L 267.333 24.333 267.333 22.617 C 267.333 20.511,267.343 20.499,269.075 20.503 C 271.001 20.506,270.845 20.004,270.794 26.011 L 270.750 31.250 269.083 31.250 L 267.417 31.250 267.370 29.375 L 267.322 27.500 265.578 27.500 L 263.833 27.500 263.833 29.316 C 263.833 30.817,263.788 31.148,263.570 31.232 C 263.082 31.419,260.575 31.342,260.367 31.133 C 260.003 30.769,260.089 20.895,260.458 20.680 C 260.841 20.457,263.098 20.451,263.511 20.673 M280.256 20.964 C 281.744 21.731,282.801 23.721,281.903 24.066 C 280.900 24.450,278.667 24.066,278.667 23.508 C 278.667 23.032,276.688 22.894,276.406 23.350 C 276.230 23.635,276.842 24.154,277.481 24.262 C 281.774 24.985,283.336 26.688,282.181 29.384 C 280.655 32.944,272.225 31.920,272.531 28.211 L 272.583 27.583 274.131 27.535 L 275.680 27.487 275.857 27.997 C 276.141 28.811,278.122 29.239,278.652 28.601 C 278.995 28.187,277.859 27.505,276.821 27.501 C 273.129 27.488,271.144 23.053,274.018 21.239 C 275.321 20.416,278.888 20.259,280.256 20.964 M287.511 20.673 C 287.819 20.837,287.833 21.074,287.833 26.003 L 287.833 31.160 287.458 31.254 C 287.252 31.306,286.446 31.326,285.667 31.299 L 284.250 31.250 284.206 26.011 C 284.172 21.931,284.208 20.743,284.373 20.639 C 284.680 20.444,287.133 20.470,287.511 20.673 M293.692 21.167 C 293.973 21.488,294.848 22.519,295.637 23.458 C 297.415 25.577,297.333 25.599,297.333 23.006 C 297.333 21.040,297.362 20.829,297.656 20.673 C 298.006 20.485,299.685 20.443,300.294 20.606 L 300.671 20.707 300.627 25.978 L 300.583 31.250 299.115 31.298 L 297.647 31.347 297.115 30.796 C 296.823 30.493,295.918 29.472,295.104 28.527 C 293.357 26.498,293.358 26.498,293.297 29.170 L 293.250 31.250 292.002 31.300 C 291.316 31.327,290.584 31.307,290.377 31.255 L 290.000 31.160 290.000 26.030 C 290.000 20.032,289.863 20.452,291.799 20.529 C 293.143 20.582,293.196 20.600,293.692 21.167 M310.186 20.669 C 312.017 21.015,313.743 22.678,313.633 23.989 L 313.583 24.583 312.094 24.632 L 310.604 24.681 310.005 23.984 C 309.055 22.882,307.020 23.000,306.402 24.194 C 306.080 24.817,306.087 27.196,306.413 27.826 C 306.928 28.823,308.751 29.089,309.739 28.312 C 310.392 27.798,310.049 27.500,308.805 27.500 L 307.818 27.500 307.867 26.375 L 307.917 25.250 310.750 25.250 L 313.583 25.250 313.583 28.250 L 313.583 31.250 312.724 31.300 C 312.000 31.342,311.824 31.293,311.613 30.991 L 311.361 30.633 310.277 31.066 C 305.975 32.787,302.443 30.546,302.425 26.083 C 302.408 21.752,305.286 19.745,310.186 20.669 M318.844 20.673 C 319.131 20.826,319.167 21.035,319.167 22.589 L 319.167 24.333 320.816 24.333 C 322.762 24.333,322.667 24.440,322.667 22.256 C 322.667 20.789,322.687 20.700,323.042 20.605 C 323.527 20.475,325.308 20.475,325.794 20.606 L 326.171 20.707 326.127 25.978 L 326.083 31.250 324.417 31.250 L 322.750 31.250 322.667 29.417 L 322.583 27.583 320.875 27.536 L 319.167 27.488 319.167 29.310 C 319.167 31.432,319.256 31.333,317.333 31.333 C 315.310 31.333,315.500 31.888,315.500 25.990 C 315.500 21.271,315.524 20.836,315.792 20.680 C 316.175 20.457,318.431 20.451,318.844 20.673 M336.673 20.950 C 338.181 21.620,339.241 22.956,339.135 24.054 L 339.083 24.583 337.466 24.631 L 335.848 24.679 335.602 24.202 C 334.928 22.900,332.574 22.895,331.902 24.194 C 331.618 24.744,331.583 27.134,331.850 27.721 C 332.308 28.726,334.054 29.107,335.090 28.428 C 335.884 27.907,335.632 27.522,334.458 27.466 L 333.417 27.417 333.366 26.432 C 333.300 25.152,333.251 25.172,336.369 25.169 C 338.789 25.167,339.001 25.191,339.161 25.489 C 339.412 25.958,339.388 30.879,339.133 31.133 C 338.779 31.487,337.388 31.384,337.107 30.983 L 336.861 30.633 335.777 31.066 C 333.710 31.893,330.805 31.576,329.479 30.378 C 326.893 28.041,327.412 22.672,330.372 21.149 C 331.811 20.409,335.213 20.302,336.673 20.950 M347.743 20.604 C 348.052 20.722,348.429 21.394,348.746 22.392 C 348.866 22.772,349.206 23.721,349.500 24.500 C 349.794 25.279,350.133 26.217,350.254 26.583 C 350.374 26.950,350.780 28.107,351.156 29.155 C 351.962 31.401,352.003 31.328,349.917 31.328 C 348.196 31.328,348.128 31.301,347.777 30.458 L 347.517 29.833 345.946 29.833 C 344.268 29.833,344.115 29.899,343.912 30.711 C 343.768 31.283,343.468 31.362,341.667 31.299 C 340.268 31.251,340.250 31.245,340.276 30.829 C 340.296 30.514,342.882 23.173,343.751 20.968 C 343.914 20.554,346.903 20.281,347.743 20.604 M356.034 20.685 C 356.244 20.787,357.204 21.813,358.167 22.965 C 360.435 25.682,360.333 25.682,360.333 22.948 C 360.333 20.372,360.249 20.500,361.941 20.500 C 363.804 20.500,363.667 20.064,363.667 25.988 C 363.667 31.884,363.852 31.335,361.861 31.331 C 360.322 31.328,360.627 31.535,358.426 29.000 C 357.431 27.854,356.553 26.892,356.475 26.861 C 356.397 26.831,356.333 27.734,356.333 28.869 C 356.333 30.252,356.267 30.999,356.133 31.133 C 355.865 31.402,353.302 31.402,353.033 31.133 C 352.669 30.769,352.756 20.895,353.125 20.680 C 353.518 20.451,355.557 20.454,356.034 20.685 M372.852 20.826 C 376.927 22.022,377.254 28.835,373.333 30.849 C 372.564 31.244,367.222 31.551,366.084 31.265 L 365.667 31.160 365.667 26.005 C 365.667 21.276,365.691 20.835,365.958 20.667 C 366.323 20.438,371.973 20.568,372.852 20.826 M381.071 20.762 C 381.274 20.965,381.333 21.396,381.333 22.679 L 381.333 24.333 383.000 24.333 L 384.667 24.333 384.667 22.589 C 384.667 20.505,384.672 20.500,386.622 20.500 C 388.458 20.500,388.333 20.099,388.333 26.016 C 388.333 31.896,388.534 31.333,386.436 31.333 C 384.673 31.333,384.667 31.326,384.667 29.217 L 384.667 27.500 383.000 27.500 L 381.333 27.500 381.333 29.230 C 381.333 31.380,381.351 31.361,379.308 31.298 L 377.750 31.250 377.706 25.971 C 377.656 19.915,377.443 20.551,379.530 20.519 C 380.490 20.505,380.875 20.565,381.071 20.762 M393.961 20.639 C 394.125 20.743,394.162 21.931,394.127 26.011 L 394.083 31.250 392.525 31.298 C 390.325 31.366,390.500 31.834,390.500 25.891 L 390.500 20.823 390.875 20.672 C 391.344 20.483,393.676 20.458,393.961 20.639 M239.895 21.042 C 239.950 21.248,239.996 22.850,239.998 24.603 C 240.000 28.205,240.104 28.546,241.260 28.763 C 242.970 29.084,243.232 28.515,243.333 24.250 L 243.417 20.750 245.167 20.750 L 246.917 20.750 246.962 24.492 L 247.007 28.233 246.568 29.129 C 245.727 30.849,244.075 31.577,241.248 31.473 C 237.162 31.322,236.333 30.115,236.333 24.312 L 236.333 20.667 238.064 20.667 C 239.718 20.667,239.799 20.683,239.895 21.042 M369.434 23.597 C 369.278 24.006,369.320 28.221,369.484 28.480 C 369.666 28.767,371.028 28.598,371.610 28.217 C 372.542 27.607,372.584 24.611,371.672 23.792 C 371.064 23.246,369.618 23.120,369.434 23.597 M203.354 25.250 C 203.146 25.983,202.934 26.715,202.885 26.875 C 202.806 27.129,202.916 27.167,203.731 27.167 C 204.823 27.167,204.801 27.252,204.187 25.333 L 203.734 23.917 203.354 25.250 M345.622 25.034 C 345.478 25.428,345.317 25.919,345.264 26.125 C 345.210 26.331,345.124 26.650,345.072 26.833 C 344.985 27.139,345.057 27.167,345.923 27.167 C 346.756 27.167,346.856 27.132,346.757 26.875 C 346.695 26.715,346.525 26.133,346.378 25.583 C 346.022 24.255,345.932 24.189,345.622 25.034 " stroke="none" fill="#047cb3" fill-rule="evenodd"></path><path id="path3" d="M16.554 12.531 C 15.757 12.917,15.750 13.020,15.750 24.833 C 15.750 36.980,15.737 36.818,16.707 37.156 C 17.275 37.354,38.944 37.383,39.667 37.187 C 40.675 36.913,40.666 37.025,40.666 24.783 C 40.667 12.649,40.682 12.854,39.731 12.493 C 39.132 12.265,17.029 12.302,16.554 12.531 M39.583 13.042 C 40.286 13.648,40.325 14.266,40.328 24.750 C 40.330 35.712,40.325 35.795,39.660 36.507 L 39.200 37.000 28.250 37.000 L 17.300 37.000 16.733 36.433 L 16.167 35.867 16.167 24.833 L 16.167 13.800 16.733 13.233 L 17.300 12.667 28.224 12.667 L 39.148 12.667 39.583 13.042 M20.200 16.161 C 17.925 17.810,19.728 20.940,22.349 19.891 C 23.875 19.280,23.928 17.066,22.439 16.125 C 21.515 15.540,21.048 15.548,20.200 16.161 M22.447 16.900 C 23.457 17.770,22.775 19.500,21.421 19.500 C 20.631 19.500,20.356 19.361,20.077 18.821 C 19.247 17.216,21.083 15.727,22.447 16.900 M50.956 18.029 C 50.683 18.234,50.665 18.701,50.706 24.667 L 50.750 31.083 54.500 31.130 C 59.036 31.187,59.000 31.193,59.000 30.363 C 59.000 29.381,58.872 29.333,56.238 29.333 C 54.938 29.333,53.641 29.286,53.354 29.229 L 52.833 29.125 52.831 23.771 C 52.829 20.826,52.765 18.317,52.688 18.196 C 52.485 17.875,51.311 17.762,50.956 18.029 M65.000 17.949 C 64.354 18.180,64.333 18.383,64.333 24.603 C 64.333 31.359,64.299 31.167,65.498 31.167 C 66.758 31.167,66.667 31.684,66.667 24.561 L 66.667 18.158 66.239 17.996 C 65.780 17.821,65.398 17.807,65.000 17.949 M74.000 17.996 C 73.683 18.197,73.524 30.256,73.832 30.830 C 74.039 31.218,75.287 31.313,75.633 30.967 C 75.779 30.821,75.833 29.507,75.833 26.100 C 75.833 23.165,75.892 21.492,75.991 21.592 C 76.078 21.679,76.427 22.275,76.767 22.917 C 78.095 25.422,79.332 27.791,79.769 28.667 C 80.020 29.171,80.446 29.943,80.715 30.382 L 81.204 31.181 82.394 31.132 L 83.583 31.083 83.627 24.554 C 83.670 18.049,83.669 18.023,83.321 17.913 C 83.035 17.822,81.931 17.921,81.798 18.049 C 81.779 18.068,81.722 20.258,81.673 22.917 C 81.576 28.129,81.579 28.118,80.824 26.292 C 80.719 26.040,80.566 25.833,80.484 25.833 C 80.401 25.833,80.328 25.702,80.322 25.542 C 80.316 25.381,80.097 24.875,79.834 24.417 C 79.572 23.958,79.012 22.908,78.590 22.083 C 77.145 19.259,76.660 18.416,76.312 18.125 C 75.928 17.804,74.436 17.721,74.000 17.996 M91.333 17.976 L 90.917 18.098 90.873 24.405 C 90.825 31.345,90.799 31.167,91.865 31.167 C 93.153 31.167,93.167 31.137,93.167 28.337 C 93.167 26.971,93.226 25.817,93.298 25.772 C 93.370 25.727,94.657 26.923,96.159 28.429 L 98.888 31.167 99.949 31.167 C 101.680 31.167,101.612 31.032,98.107 27.524 C 96.398 25.813,95.000 24.302,95.001 24.165 C 95.001 23.949,96.879 22.089,99.792 19.419 C 100.736 18.553,100.845 18.274,100.344 18.006 C 99.418 17.510,98.563 17.837,97.083 19.252 C 94.431 21.789,93.448 22.654,93.311 22.570 C 93.232 22.520,93.167 21.556,93.167 20.427 C 93.167 18.911,93.108 18.326,92.942 18.188 C 92.636 17.934,91.838 17.829,91.333 17.976 M106.780 18.042 C 106.519 18.233,106.499 18.782,106.539 24.667 L 106.583 31.083 110.833 31.083 L 115.083 31.083 115.138 30.605 C 115.168 30.342,115.148 29.948,115.093 29.730 L 114.994 29.333 112.351 29.333 C 110.898 29.333,109.474 29.286,109.188 29.229 L 108.667 29.125 108.667 27.066 L 108.667 25.008 111.625 24.962 L 114.583 24.917 114.638 24.438 C 114.783 23.168,114.781 23.167,111.955 23.164 C 108.418 23.161,108.645 23.282,108.702 21.437 L 108.750 19.917 111.707 19.871 C 114.628 19.826,114.667 19.821,114.928 19.422 C 115.284 18.880,115.174 18.304,114.667 18.048 C 114.079 17.752,107.183 17.746,106.780 18.042 M121.953 18.071 C 121.588 18.436,121.506 30.606,121.867 30.967 C 122.249 31.349,127.474 31.232,128.708 30.813 C 131.778 29.770,132.734 28.295,132.744 24.583 C 132.754 20.828,131.765 19.324,128.583 18.262 C 127.276 17.825,122.341 17.683,121.953 18.071 M139.642 17.945 C 139.199 18.063,139.171 18.459,139.169 24.636 C 139.166 31.252,139.152 31.167,140.244 31.167 C 141.550 31.167,141.500 31.427,141.500 24.571 C 141.500 17.476,141.494 17.453,139.642 17.945 M149.000 17.949 C 148.354 18.180,148.333 18.383,148.333 24.603 C 148.333 31.317,148.308 31.167,149.440 31.167 C 150.713 31.167,150.666 31.344,150.669 26.452 C 150.672 22.094,150.773 21.167,151.142 22.109 C 151.245 22.370,151.405 22.715,151.498 22.875 C 151.842 23.469,152.001 23.762,152.244 24.250 C 152.381 24.525,152.564 24.863,152.651 25.000 C 152.738 25.137,152.854 25.363,152.908 25.500 C 152.963 25.637,153.412 26.500,153.907 27.417 C 154.402 28.333,155.010 29.496,155.259 30.000 C 155.824 31.146,155.850 31.161,157.175 31.164 C 158.770 31.168,158.667 31.621,158.664 24.592 C 158.661 17.839,158.691 18.057,157.745 17.919 C 156.565 17.746,156.593 17.639,156.500 22.619 C 156.397 28.156,156.464 28.075,154.752 24.708 C 154.321 23.861,153.909 23.130,153.836 23.085 C 153.763 23.040,153.652 22.797,153.589 22.545 C 153.525 22.293,153.417 22.048,153.348 22.002 C 153.279 21.955,153.012 21.467,152.755 20.917 C 152.499 20.367,152.242 19.879,152.186 19.833 C 152.130 19.787,151.896 19.386,151.667 18.941 C 151.148 17.934,150.116 17.550,149.000 17.949 M52.500 23.778 C 52.546 26.818,52.646 29.368,52.722 29.445 C 52.798 29.521,54.148 29.621,55.722 29.667 L 58.583 29.750 58.583 30.333 L 58.583 30.917 54.938 30.962 C 52.389 30.993,51.223 30.949,51.063 30.816 C 50.822 30.616,50.705 19.028,50.938 18.422 C 51.016 18.218,51.216 18.162,51.729 18.200 L 52.417 18.250 52.500 23.778 M66.070 18.268 C 66.304 18.358,66.333 19.072,66.333 24.598 L 66.333 30.827 65.930 30.928 C 64.862 31.196,64.921 31.540,64.873 24.748 C 64.822 17.578,64.786 17.775,66.070 18.268 M76.218 18.465 C 76.506 18.783,77.178 19.985,78.426 22.417 C 78.849 23.242,79.603 24.667,80.102 25.583 C 80.600 26.500,81.089 27.456,81.187 27.708 C 81.333 28.081,81.716 28.316,81.866 28.125 C 81.884 28.102,81.941 25.871,81.991 23.167 L 82.083 18.250 82.750 18.250 L 83.417 18.250 83.417 24.583 L 83.417 30.917 82.491 30.966 C 81.401 31.023,81.264 30.914,80.440 29.313 C 79.928 28.320,78.958 26.467,76.958 22.667 C 75.560 20.009,75.602 19.914,75.500 25.972 L 75.417 30.917 74.750 30.917 L 74.083 30.917 74.040 24.751 C 74.016 21.359,74.032 18.491,74.076 18.376 C 74.207 18.034,75.892 18.104,76.218 18.465 M92.683 20.667 C 92.813 23.817,92.756 23.790,94.917 21.720 C 98.933 17.872,98.563 18.167,99.373 18.167 C 100.575 18.167,100.495 18.294,97.483 21.189 C 94.035 24.502,93.987 23.734,97.889 27.662 C 101.009 30.804,101.125 31.000,99.863 31.000 L 99.080 31.000 96.250 28.167 C 92.578 24.490,92.667 24.486,92.667 28.344 L 92.667 30.827 92.224 30.938 C 91.238 31.186,91.254 31.284,91.206 24.668 C 91.159 18.100,91.157 18.111,92.069 18.200 L 92.583 18.250 92.683 20.667 M114.638 18.634 C 114.751 19.431,114.503 19.500,111.513 19.500 C 108.168 19.500,108.333 19.396,108.333 21.513 C 108.333 23.582,108.171 23.482,111.595 23.538 L 114.417 23.583 114.469 24.125 C 114.534 24.800,114.906 24.715,111.417 24.824 L 108.417 24.917 108.370 27.082 C 108.310 29.839,108.089 29.667,111.687 29.667 C 114.577 29.667,115.000 29.763,115.000 30.423 C 115.000 31.003,107.422 31.355,106.867 30.800 C 106.654 30.588,106.562 18.966,106.769 18.427 C 106.859 18.192,107.320 18.166,110.727 18.205 L 114.583 18.250 114.638 18.634 M127.917 18.478 C 131.240 19.233,132.528 20.940,132.528 24.592 C 132.528 29.222,130.210 31.000,124.174 31.000 L 122.000 31.000 122.000 24.583 L 122.000 18.167 124.292 18.171 C 125.893 18.174,126.985 18.266,127.917 18.478 M140.994 18.489 C 141.254 18.975,141.228 30.538,140.967 30.800 C 140.751 31.016,140.188 31.062,139.764 30.899 C 139.489 30.793,139.341 18.548,139.611 18.278 C 139.865 18.024,140.824 18.171,140.994 18.489 M151.206 18.625 C 151.446 19.100,152.824 21.707,154.138 24.167 C 154.554 24.946,155.139 26.074,155.437 26.673 C 156.748 29.308,156.822 29.124,156.874 23.086 C 156.921 17.774,156.877 17.974,157.930 18.238 L 158.333 18.340 158.333 24.569 C 158.333 31.497,158.423 31.000,157.167 31.000 C 156.194 31.000,156.020 30.873,155.478 29.770 C 155.202 29.209,154.689 28.225,154.337 27.583 C 153.985 26.942,153.347 25.742,152.917 24.917 C 150.167 19.630,150.349 19.570,150.294 25.766 C 150.246 31.177,150.245 31.181,149.276 30.938 L 148.833 30.827 148.833 24.608 C 148.833 21.187,148.883 18.339,148.944 18.278 C 149.306 17.917,150.979 18.174,151.206 18.625 M123.686 19.798 C 123.440 20.256,123.428 28.888,123.673 29.344 C 124.016 29.985,127.689 29.653,129.008 28.862 C 131.756 27.213,131.498 21.474,128.612 20.032 C 127.454 19.454,123.959 19.287,123.686 19.798 M128.417 20.282 C 131.286 21.789,131.398 27.151,128.592 28.719 C 127.683 29.227,124.372 29.545,123.918 29.168 C 123.579 28.886,123.539 20.364,123.875 20.019 C 124.232 19.653,127.590 19.847,128.417 20.282 M201.891 20.628 C 201.784 20.695,202.384 20.729,203.224 20.703 C 205.522 20.632,205.797 20.553,203.833 20.528 C 202.871 20.515,201.997 20.560,201.891 20.628 M211.796 20.622 C 212.188 20.657,212.788 20.657,213.129 20.621 C 213.471 20.585,213.150 20.557,212.417 20.557 C 211.683 20.558,211.404 20.587,211.796 20.622 M219.208 20.621 C 219.552 20.657,220.115 20.657,220.458 20.621 C 220.802 20.585,220.521 20.556,219.833 20.556 C 219.146 20.556,218.865 20.585,219.208 20.621 M224.547 20.623 C 224.985 20.657,225.660 20.657,226.047 20.622 C 226.434 20.587,226.075 20.559,225.250 20.559 C 224.425 20.560,224.109 20.588,224.547 20.623 M231.792 20.623 C 232.273 20.657,233.060 20.657,233.542 20.623 C 234.023 20.589,233.629 20.562,232.667 20.562 C 231.704 20.562,231.310 20.589,231.792 20.623 M261.292 20.622 C 261.681 20.657,262.319 20.657,262.708 20.622 C 263.098 20.587,262.779 20.558,262.000 20.558 C 261.221 20.558,260.902 20.587,261.292 20.622 M267.533 20.700 C 267.400 20.834,267.344 21.455,267.366 22.575 L 267.399 24.250 267.491 22.500 L 267.583 20.750 269.083 20.656 L 270.583 20.563 269.158 20.531 C 268.233 20.511,267.663 20.570,267.533 20.700 M284.387 20.630 C 284.278 20.699,284.766 20.732,285.470 20.704 C 287.369 20.627,287.605 20.548,286.000 20.525 C 285.221 20.514,284.495 20.561,284.387 20.630 M290.200 20.700 C 290.051 20.849,290.010 22.229,290.038 26.075 L 290.076 31.250 290.163 26.000 L 290.250 20.750 291.583 20.656 L 292.917 20.561 291.658 20.531 C 290.863 20.511,290.326 20.574,290.200 20.700 M298.375 20.621 C 298.719 20.657,299.281 20.657,299.625 20.621 C 299.969 20.585,299.688 20.556,299.000 20.556 C 298.313 20.556,298.031 20.585,298.375 20.621 M316.625 20.622 C 317.015 20.657,317.652 20.657,318.042 20.622 C 318.431 20.587,318.112 20.558,317.333 20.558 C 316.554 20.558,316.235 20.587,316.625 20.622 M323.796 20.622 C 324.188 20.657,324.788 20.657,325.129 20.621 C 325.471 20.585,325.150 20.557,324.417 20.557 C 323.683 20.558,323.404 20.587,323.796 20.622 M345.125 20.623 C 345.606 20.657,346.394 20.657,346.875 20.623 C 347.356 20.589,346.962 20.562,346.000 20.562 C 345.037 20.562,344.644 20.589,345.125 20.623 M353.963 20.622 C 354.355 20.657,354.955 20.657,355.296 20.621 C 355.637 20.585,355.317 20.557,354.583 20.557 C 353.850 20.558,353.571 20.587,353.963 20.622 M360.549 20.633 C 360.439 20.703,360.889 20.735,361.549 20.705 C 363.255 20.626,363.463 20.542,362.000 20.522 C 361.313 20.513,360.660 20.562,360.549 20.633 M367.292 20.624 C 367.956 20.655,369.044 20.655,369.708 20.624 C 370.373 20.592,369.829 20.566,368.500 20.566 C 367.171 20.566,366.627 20.592,367.292 20.624 M378.792 20.622 C 379.181 20.657,379.819 20.657,380.208 20.622 C 380.598 20.587,380.279 20.558,379.500 20.558 C 378.721 20.558,378.402 20.587,378.792 20.622 M386.583 20.656 L 388.083 20.750 388.170 26.000 L 388.257 31.250 388.295 26.075 C 388.340 20.046,388.482 20.488,386.508 20.531 L 385.083 20.563 386.583 20.656 M391.417 20.598 C 392.200 20.723,394.134 20.749,393.951 20.633 C 393.840 20.562,393.150 20.514,392.417 20.525 C 391.683 20.536,391.233 20.569,391.417 20.598 M218.278 20.778 C 218.217 20.839,218.167 21.851,218.167 23.028 C 218.167 25.366,218.164 25.373,217.426 24.709 C 216.981 24.309,216.989 24.330,217.489 24.873 C 217.803 25.215,218.103 25.453,218.155 25.401 C 218.227 25.330,218.471 20.665,218.403 20.666 C 218.395 20.667,218.339 20.717,218.278 20.778 M243.408 20.880 C 243.363 20.997,243.346 22.553,243.372 24.338 L 243.417 27.583 243.500 24.125 C 243.582 20.735,243.573 20.448,243.408 20.880 M260.242 20.877 C 260.198 20.992,260.182 23.336,260.206 26.085 L 260.250 31.083 260.334 25.875 C 260.379 23.010,260.396 20.667,260.370 20.667 C 260.344 20.667,260.287 20.761,260.242 20.877 M263.666 22.466 L 263.748 24.250 263.797 22.598 C 263.824 21.689,263.787 20.887,263.715 20.814 C 263.642 20.741,263.620 21.485,263.666 22.466 M287.667 25.966 L 287.750 31.250 287.794 26.094 C 287.818 23.258,287.781 20.881,287.711 20.811 C 287.641 20.740,287.621 23.061,287.667 25.966 M297.444 20.778 C 297.383 20.839,297.333 21.851,297.333 23.028 C 297.333 25.157,297.281 25.355,296.829 24.958 C 296.699 24.844,296.733 24.919,296.905 25.125 C 297.430 25.753,297.481 25.587,297.533 23.083 C 297.561 21.754,297.577 20.666,297.569 20.666 C 297.562 20.667,297.506 20.717,297.444 20.778 M315.576 20.877 C 315.531 20.992,315.515 23.374,315.539 26.168 L 315.584 31.250 315.667 25.958 C 315.713 23.048,315.729 20.667,315.703 20.667 C 315.677 20.667,315.620 20.761,315.576 20.877 M352.944 20.778 C 352.731 20.991,352.816 30.916,353.033 31.133 C 353.163 31.263,353.733 31.322,354.658 31.302 L 356.083 31.270 354.583 31.177 L 353.083 31.083 353.083 25.875 C 353.083 23.010,353.077 20.667,353.069 20.667 C 353.062 20.667,353.006 20.717,352.944 20.778 M363.500 25.966 L 363.583 31.250 363.627 26.094 C 363.652 23.258,363.614 20.881,363.544 20.811 C 363.474 20.740,363.454 23.061,363.500 25.966 M365.742 20.877 C 365.698 20.992,365.682 23.374,365.706 26.168 L 365.750 31.250 365.834 25.958 C 365.879 23.048,365.896 20.667,365.870 20.667 C 365.844 20.667,365.787 20.761,365.742 20.877 M384.778 20.778 C 384.717 20.839,384.667 21.664,384.667 22.611 L 384.667 24.333 383.006 24.333 L 381.345 24.333 381.289 22.708 L 381.233 21.083 381.241 22.750 L 381.250 24.417 383.000 24.417 L 384.750 24.417 384.833 22.541 C 384.879 21.510,384.910 20.666,384.903 20.666 C 384.895 20.666,384.839 20.717,384.778 20.778 M390.611 20.778 C 390.398 20.991,390.483 30.916,390.700 31.133 C 390.921 31.354,393.926 31.421,394.058 31.208 C 394.101 31.140,393.374 31.083,392.443 31.083 L 390.750 31.083 390.750 25.875 C 390.750 23.010,390.744 20.667,390.736 20.667 C 390.728 20.667,390.672 20.717,390.611 20.778 M221.372 25.958 L 221.333 31.167 219.882 31.167 C 218.436 31.167,218.428 31.164,217.757 30.542 L 217.083 29.917 217.742 30.625 L 218.401 31.333 219.872 31.333 C 221.687 31.333,221.514 31.932,221.458 25.832 L 221.412 20.750 221.372 25.958 M310.847 20.895 C 311.019 21.049,312.000 21.500,312.000 21.425 C 312.000 21.329,311.076 20.833,310.897 20.833 C 310.832 20.833,310.809 20.861,310.847 20.895 M336.347 20.895 C 336.519 21.049,337.500 21.500,337.500 21.425 C 337.500 21.329,336.576 20.833,336.397 20.833 C 336.332 20.833,336.309 20.861,336.347 20.895 M356.337 20.953 C 356.340 21.024,356.733 21.500,357.212 22.009 C 358.059 22.909,357.958 22.747,356.866 21.453 C 356.573 21.106,356.335 20.881,356.337 20.953 M372.847 20.895 C 373.019 21.049,374.000 21.500,374.000 21.425 C 374.000 21.329,373.076 20.833,372.897 20.833 C 372.832 20.833,372.809 20.861,372.847 20.895 M239.903 24.417 C 239.903 26.250,239.928 27.023,239.957 26.134 C 239.987 25.245,239.988 23.745,239.958 22.801 C 239.928 21.856,239.904 22.583,239.903 24.417 M257.392 21.737 C 257.726 22.071,258.000 22.429,258.000 22.533 C 258.000 22.637,258.046 22.677,258.102 22.621 C 258.245 22.477,257.546 21.536,257.131 21.314 C 256.938 21.211,257.054 21.398,257.392 21.737 M273.551 21.595 L 273.083 22.024 273.625 21.647 C 273.923 21.440,274.167 21.247,274.167 21.219 C 274.167 21.087,273.982 21.200,273.551 21.595 M304.028 21.792 L 303.402 22.417 303.993 21.917 C 304.318 21.642,304.655 21.361,304.742 21.292 C 304.829 21.223,304.845 21.167,304.777 21.167 C 304.709 21.167,304.372 21.448,304.028 21.792 M329.528 21.792 L 328.902 22.417 329.493 21.917 C 329.818 21.642,330.155 21.361,330.242 21.292 C 330.329 21.223,330.345 21.167,330.277 21.167 C 330.209 21.167,329.872 21.448,329.528 21.792 M31.388 21.507 C 31.005 21.583,30.461 21.764,30.179 21.910 C 29.718 22.149,29.618 22.150,29.175 21.921 C 28.391 21.516,25.931 21.569,25.500 22.000 C 25.063 22.437,24.980 31.896,25.404 32.912 C 25.688 33.592,26.600 33.914,27.886 33.791 C 29.233 33.661,29.238 33.647,29.333 29.670 L 29.417 26.184 29.991 25.592 C 30.882 24.674,31.934 24.721,32.600 25.708 L 33.078 26.417 33.164 29.807 C 33.265 33.777,33.289 33.833,34.927 33.833 C 37.053 33.833,37.238 33.422,37.116 28.989 C 36.934 22.358,35.639 20.667,31.388 21.507 M20.281 21.659 C 19.298 21.976,19.333 21.759,19.333 27.448 C 19.333 30.724,19.398 32.809,19.505 33.009 C 20.072 34.069,22.564 34.171,23.089 33.155 C 23.421 32.514,23.453 22.393,23.125 21.946 C 22.878 21.609,21.019 21.421,20.281 21.659 M338.032 21.917 C 338.279 22.192,338.633 22.754,338.820 23.167 C 339.007 23.579,339.161 23.820,339.163 23.702 C 339.170 23.317,338.544 22.260,338.058 21.834 L 337.583 21.418 338.032 21.917 M374.167 21.552 C 374.167 21.581,374.410 21.825,374.708 22.094 L 375.250 22.583 374.760 22.042 C 374.304 21.537,374.167 21.423,374.167 21.552 M22.633 22.200 C 22.894 22.461,22.920 32.194,22.661 32.678 C 22.392 33.180,20.620 33.145,20.259 32.630 C 19.920 32.145,19.866 22.534,20.200 22.200 C 20.312 22.088,20.848 22.000,21.417 22.000 C 21.985 22.000,22.521 22.088,22.633 22.200 M28.308 22.183 C 28.597 22.284,28.833 22.429,28.833 22.505 C 28.833 23.011,29.911 22.938,30.566 22.387 C 31.035 21.992,31.144 21.975,32.853 22.028 L 34.647 22.083 35.282 22.820 C 36.214 23.901,36.213 23.896,36.295 28.377 C 36.383 33.150,36.425 33.000,35.000 33.000 C 33.688 33.000,33.705 33.046,33.640 29.333 C 33.567 25.158,33.262 24.509,31.370 24.502 C 29.266 24.495,28.955 25.089,28.839 29.333 C 28.790 31.121,28.689 32.677,28.615 32.792 C 28.408 33.112,26.678 33.062,26.305 32.724 C 25.846 32.309,25.833 22.447,26.292 22.180 C 26.679 21.955,27.657 21.956,28.308 22.183 M232.500 23.500 C 231.931 24.142,231.503 24.667,231.549 24.667 C 231.595 24.667,232.098 24.142,232.667 23.500 C 233.236 22.858,233.663 22.333,233.618 22.333 C 233.572 22.333,233.069 22.858,232.500 23.500 M276.326 23.259 C 276.145 23.477,276.174 23.577,276.508 23.884 C 276.862 24.211,276.874 24.213,276.619 23.904 C 276.246 23.451,276.258 23.353,276.708 23.172 C 276.962 23.070,276.996 23.018,276.812 23.011 C 276.663 23.005,276.444 23.117,276.326 23.259 M281.991 23.417 L 281.917 23.917 280.500 24.011 L 279.083 24.105 280.417 24.133 C 281.970 24.166,282.217 24.060,282.129 23.399 L 282.065 22.917 281.991 23.417 M313.454 23.711 L 313.542 24.487 311.979 24.546 L 310.417 24.604 312.000 24.594 L 313.583 24.583 313.635 24.045 C 313.664 23.749,313.615 23.378,313.527 23.221 C 313.414 23.020,313.393 23.165,313.454 23.711 M369.444 23.278 C 369.383 23.339,369.334 23.470,369.336 23.569 C 369.338 23.685,369.383 23.679,369.464 23.553 C 369.532 23.445,369.925 23.327,370.336 23.291 L 371.083 23.225 370.319 23.196 C 369.899 23.180,369.506 23.217,369.444 23.278 M335.429 23.958 L 335.893 24.667 337.436 24.667 C 338.286 24.667,339.015 24.610,339.058 24.542 C 339.101 24.473,338.399 24.440,337.499 24.469 C 336.003 24.517,335.854 24.494,335.760 24.199 C 335.704 24.022,335.502 23.736,335.312 23.564 C 335.047 23.324,335.074 23.417,335.429 23.958 M371.181 23.375 C 371.219 23.398,371.475 23.604,371.750 23.833 L 372.250 24.250 371.846 23.792 C 371.624 23.540,371.367 23.333,371.277 23.333 C 371.186 23.333,371.142 23.352,371.181 23.375 M295.667 23.719 C 295.667 23.748,295.910 23.991,296.208 24.260 L 296.750 24.750 296.260 24.208 C 295.804 23.703,295.667 23.590,295.667 23.719 M255.216 24.034 C 255.326 24.104,256.017 24.152,256.750 24.141 C 258.245 24.119,258.020 24.042,256.216 23.961 C 255.556 23.931,255.106 23.964,255.216 24.034 M322.500 24.139 C 322.500 24.272,321.962 24.344,320.792 24.368 L 319.083 24.403 320.735 24.458 C 322.262 24.509,322.924 24.368,322.614 24.058 C 322.551 23.996,322.500 24.032,322.500 24.139 M345.728 24.247 C 345.672 24.394,345.672 24.561,345.729 24.618 C 345.787 24.675,345.833 24.630,345.833 24.518 C 345.833 24.406,345.908 24.360,346.000 24.417 C 346.092 24.473,346.167 24.445,346.167 24.353 C 346.167 24.053,345.833 23.972,345.728 24.247 M375.872 24.667 C 375.872 24.988,375.906 25.119,375.948 24.958 C 375.990 24.798,375.990 24.535,375.948 24.375 C 375.906 24.215,375.872 24.346,375.872 24.667 M264.714 24.457 C 265.245 24.490,266.070 24.490,266.548 24.456 C 267.026 24.422,266.592 24.395,265.583 24.396 C 264.575 24.396,264.184 24.424,264.714 24.457 M359.583 24.863 C 359.858 25.200,360.140 25.481,360.208 25.488 C 360.480 25.514,360.280 25.226,359.696 24.750 L 359.083 24.250 359.583 24.863 M331.558 26.000 C 331.558 26.779,331.587 27.098,331.622 26.708 C 331.657 26.319,331.657 25.681,331.622 25.292 C 331.587 24.902,331.558 25.221,331.558 26.000 M302.389 26.000 C 302.389 26.688,302.419 26.969,302.455 26.625 C 302.491 26.281,302.491 25.719,302.455 25.375 C 302.419 25.031,302.389 25.313,302.389 26.000 M306.056 26.000 C 306.056 26.688,306.085 26.969,306.121 26.625 C 306.157 26.281,306.157 25.719,306.121 25.375 C 306.085 25.031,306.056 25.313,306.056 26.000 M327.890 26.083 C 327.891 26.817,327.920 27.096,327.956 26.704 C 327.991 26.312,327.990 25.712,327.954 25.371 C 327.919 25.029,327.890 25.350,327.890 26.083 M307.912 25.340 C 307.850 25.440,307.845 25.567,307.900 25.622 C 307.955 25.677,308.000 25.635,308.000 25.528 C 308.000 25.273,313.431 25.250,313.557 25.504 C 313.604 25.598,313.622 25.579,313.599 25.462 C 313.542 25.181,308.083 25.064,307.912 25.340 M333.542 25.277 C 333.314 25.369,333.240 27.256,333.458 27.391 C 333.527 27.434,333.583 27.007,333.583 26.443 L 333.583 25.417 336.359 25.417 C 337.886 25.417,339.100 25.360,339.058 25.292 C 338.973 25.155,333.878 25.141,333.542 25.277 M249.861 26.208 C 250.205 26.552,250.584 26.831,250.702 26.828 C 250.820 26.825,250.767 26.741,250.583 26.640 C 250.400 26.539,250.022 26.260,249.743 26.020 C 249.460 25.777,249.513 25.860,249.861 26.208 M339.164 28.333 L 339.083 31.083 338.219 31.133 C 337.488 31.176,337.326 31.130,337.171 30.842 C 336.978 30.480,336.588 30.389,336.418 30.665 C 336.359 30.761,336.429 30.786,336.585 30.726 C 336.755 30.661,336.947 30.755,337.103 30.978 C 337.402 31.404,338.829 31.491,339.151 31.103 C 339.282 30.945,339.327 30.039,339.294 28.228 L 339.245 25.583 339.164 28.333 M349.860 25.750 C 349.859 25.842,349.960 26.179,350.083 26.500 C 350.207 26.821,350.310 26.971,350.313 26.833 C 350.316 26.696,350.215 26.358,350.089 26.083 C 349.963 25.808,349.860 25.658,349.860 25.750 M273.959 26.458 C 274.175 26.665,274.441 26.831,274.551 26.828 C 274.660 26.825,274.600 26.740,274.417 26.638 C 274.233 26.537,273.967 26.370,273.825 26.268 C 273.683 26.167,273.744 26.252,273.959 26.458 M214.073 26.718 C 214.027 26.837,214.013 27.868,214.042 29.009 L 214.095 31.083 214.131 28.846 L 214.167 26.609 214.625 27.013 L 215.083 27.417 214.679 26.958 C 214.217 26.434,214.186 26.422,214.073 26.718 M258.435 26.917 C 258.572 27.529,258.668 27.663,258.664 27.236 C 258.663 27.060,258.585 26.804,258.492 26.667 C 258.369 26.484,258.353 26.552,258.435 26.917 M293.333 26.861 C 293.333 26.968,293.385 27.004,293.447 26.942 C 293.510 26.879,293.829 27.073,294.156 27.372 L 294.750 27.917 294.176 27.292 C 293.585 26.649,293.333 26.521,293.333 26.861 M356.203 28.875 L 356.239 31.083 356.291 28.958 C 356.351 26.519,356.298 26.590,357.279 27.625 L 358.028 28.417 357.306 27.542 C 356.223 26.231,356.161 26.307,356.203 28.875 M375.872 27.167 C 375.872 27.488,375.906 27.619,375.948 27.458 C 375.990 27.298,375.990 27.035,375.948 26.875 C 375.906 26.715,375.872 26.846,375.872 27.167 M203.295 27.287 C 203.594 27.325,204.044 27.324,204.295 27.286 C 204.545 27.248,204.300 27.217,203.750 27.218 C 203.200 27.219,202.995 27.250,203.295 27.287 M345.542 27.286 C 345.794 27.324,346.206 27.324,346.458 27.286 C 346.710 27.248,346.504 27.217,346.000 27.217 C 345.496 27.217,345.290 27.248,345.542 27.286 M246.872 27.833 C 246.872 28.154,246.906 28.285,246.948 28.125 C 246.990 27.965,246.990 27.702,246.948 27.542 C 246.906 27.381,246.872 27.512,246.872 27.833 M265.536 27.455 L 267.323 27.511 267.370 29.381 L 267.417 31.250 269.042 31.260 L 270.667 31.269 269.089 31.212 L 267.511 31.155 267.464 29.286 L 267.417 27.417 265.583 27.407 L 263.750 27.398 265.536 27.455 M319.667 27.441 C 321.063 27.564,322.667 27.573,322.667 27.458 C 322.667 27.390,321.860 27.346,320.875 27.361 C 319.890 27.377,319.346 27.413,319.667 27.441 M381.250 27.536 C 381.207 27.654,381.152 28.500,381.128 29.417 L 381.083 31.083 379.391 31.083 C 378.460 31.083,377.733 31.140,377.775 31.208 C 377.908 31.421,380.912 31.354,381.133 31.133 C 381.263 31.004,381.333 30.330,381.333 29.217 L 381.333 27.500 383.000 27.500 L 384.667 27.500 384.667 29.217 C 384.667 31.357,384.653 31.342,386.575 31.301 L 388.083 31.270 386.500 31.176 L 384.917 31.083 384.833 29.250 L 384.750 27.417 383.039 27.369 C 381.761 27.334,381.308 27.376,381.250 27.536 M228.218 27.933 L 227.750 28.366 228.228 28.019 C 228.491 27.828,228.784 27.719,228.879 27.778 C 228.979 27.840,229.001 27.804,228.933 27.692 C 228.771 27.432,228.752 27.438,228.218 27.933 M248.732 27.736 C 248.683 27.866,248.674 28.184,248.713 28.444 C 248.771 28.834,248.788 28.806,248.808 28.280 L 248.833 27.644 250.401 27.697 C 251.264 27.726,251.934 27.694,251.891 27.625 C 251.738 27.378,248.830 27.480,248.732 27.736 M272.609 27.625 C 272.567 27.694,273.268 27.750,274.167 27.750 C 275.066 27.750,275.767 27.694,275.724 27.625 C 275.682 27.556,274.981 27.500,274.167 27.500 C 273.352 27.500,272.652 27.556,272.609 27.625 M335.519 27.758 C 335.509 27.946,335.425 28.190,335.334 28.301 C 335.243 28.411,335.287 28.397,335.433 28.270 C 335.579 28.143,335.663 27.899,335.619 27.728 C 335.547 27.447,335.537 27.450,335.519 27.758 M215.167 27.719 C 215.167 27.748,215.410 27.991,215.708 28.260 L 216.250 28.750 215.760 28.208 C 215.304 27.703,215.167 27.590,215.167 27.719 M254.417 27.866 C 254.600 27.970,254.805 28.136,254.872 28.236 C 254.957 28.360,254.996 28.354,254.997 28.214 C 254.999 28.103,254.855 27.934,254.678 27.839 C 254.239 27.604,253.999 27.629,254.417 27.866 M263.729 29.417 C 263.729 30.425,263.757 30.816,263.790 30.286 C 263.823 29.755,263.823 28.930,263.789 28.452 C 263.756 27.974,263.729 28.408,263.729 29.417 M375.518 28.430 C 375.394 28.772,374.986 29.396,374.611 29.817 L 373.928 30.583 374.562 30.000 C 375.208 29.405,375.897 28.276,375.797 27.976 C 375.767 27.884,375.641 28.089,375.518 28.430 M294.667 28.052 C 294.667 28.081,294.910 28.325,295.208 28.594 L 295.750 29.083 295.260 28.542 C 294.804 28.037,294.667 27.923,294.667 28.052 M309.906 28.183 C 309.844 28.284,309.559 28.468,309.272 28.593 C 308.982 28.719,308.876 28.823,309.032 28.827 C 309.295 28.833,310.390 28.017,310.135 28.005 C 310.071 28.002,309.969 28.082,309.906 28.183 M332.417 28.500 C 332.692 28.682,332.992 28.831,333.083 28.832 C 333.175 28.832,333.004 28.682,332.704 28.499 C 331.997 28.068,331.765 28.068,332.417 28.500 M307.074 28.574 C 307.251 28.717,307.514 28.827,307.657 28.820 C 307.881 28.809,307.883 28.794,307.667 28.714 C 307.529 28.663,307.267 28.553,307.083 28.468 C 306.755 28.317,306.755 28.319,307.074 28.574 M358.000 28.552 C 358.000 28.581,358.244 28.825,358.542 29.094 L 359.083 29.583 358.594 29.042 C 358.138 28.537,358.000 28.423,358.000 28.552 M216.167 28.885 C 216.167 28.914,216.410 29.158,216.708 29.427 L 217.250 29.917 216.760 29.375 C 216.304 28.870,216.167 28.757,216.167 28.885 M253.211 28.953 C 253.464 28.991,253.839 28.990,254.044 28.951 C 254.249 28.911,254.042 28.880,253.583 28.881 C 253.125 28.882,252.957 28.915,253.211 28.953 M277.044 28.953 C 277.297 28.991,277.672 28.990,277.877 28.951 C 278.082 28.911,277.875 28.880,277.417 28.881 C 276.958 28.882,276.791 28.915,277.044 28.953 M282.000 29.459 C 282.000 29.559,281.796 29.891,281.548 30.196 C 281.175 30.651,281.163 30.691,281.480 30.419 C 281.929 30.031,282.235 29.513,282.097 29.375 C 282.044 29.321,282.000 29.360,282.000 29.459 M329.167 30.062 C 329.748 30.693,330.625 31.264,330.778 31.111 C 330.822 31.067,330.692 30.978,330.488 30.913 C 330.285 30.848,329.773 30.488,329.351 30.112 L 328.583 29.428 329.167 30.062 M359.500 30.250 C 359.811 30.571,360.103 30.833,360.149 30.833 C 360.195 30.833,359.978 30.571,359.667 30.250 C 359.356 29.929,359.064 29.667,359.018 29.667 C 358.972 29.667,359.189 29.929,359.500 30.250 M249.500 30.230 C 249.935 30.719,250.806 31.250,250.945 31.111 C 250.989 31.067,250.865 30.979,250.668 30.917 C 250.472 30.855,250.035 30.570,249.697 30.283 C 249.121 29.794,249.109 29.791,249.500 30.230 M303.992 30.407 C 304.283 30.758,305.165 31.224,305.293 31.096 C 305.346 31.043,305.312 31.000,305.218 31.000 C 305.124 31.000,304.757 30.803,304.403 30.563 C 304.049 30.323,303.864 30.253,303.992 30.407 M230.482 30.597 C 230.810 31.280,231.051 31.347,233.010 31.297 C 234.965 31.248,235.202 31.150,234.743 30.577 C 234.489 30.259,234.487 30.261,234.657 30.614 C 234.754 30.814,234.833 31.021,234.833 31.072 C 234.833 31.474,231.006 31.139,230.671 30.708 C 230.448 30.422,230.377 30.380,230.482 30.597 M310.918 30.665 C 310.859 30.761,310.929 30.786,311.085 30.726 C 311.255 30.661,311.447 30.755,311.603 30.978 C 311.854 31.336,313.368 31.515,313.558 31.208 C 313.601 31.140,313.236 31.109,312.748 31.140 C 311.987 31.188,311.834 31.147,311.674 30.848 C 311.478 30.481,311.089 30.387,310.918 30.665 M209.500 30.972 C 209.500 31.105,208.962 31.178,207.792 31.202 L 206.083 31.236 207.735 31.291 C 209.262 31.342,209.924 31.201,209.614 30.892 C 209.551 30.829,209.500 30.865,209.500 30.972 M372.500 31.000 C 372.157 31.110,372.142 31.136,372.417 31.148 C 372.600 31.155,372.863 31.089,373.000 31.000 C 373.292 30.811,373.089 30.811,372.500 31.000 M198.148 31.215 C 198.220 31.287,198.986 31.324,199.848 31.297 L 201.417 31.248 199.716 31.166 C 198.781 31.120,198.075 31.143,198.148 31.215 M210.981 31.215 C 211.055 31.288,211.745 31.325,212.515 31.298 L 213.917 31.247 212.383 31.165 C 211.539 31.120,210.908 31.143,210.981 31.215 M223.609 31.208 C 223.652 31.277,224.390 31.333,225.250 31.333 C 226.110 31.333,226.848 31.277,226.891 31.208 C 226.933 31.140,226.195 31.083,225.250 31.083 C 224.305 31.083,223.567 31.140,223.609 31.208 M284.314 31.215 C 284.387 31.287,285.152 31.324,286.015 31.297 L 287.583 31.248 285.883 31.166 C 284.947 31.120,284.241 31.143,284.314 31.215 M291.750 31.167 L 290.250 31.270 291.698 31.302 C 292.520 31.320,293.192 31.261,293.250 31.167 C 293.307 31.075,293.330 31.014,293.302 31.031 C 293.273 31.049,292.575 31.110,291.750 31.167 M299.083 31.167 L 297.583 31.270 299.032 31.302 C 299.854 31.320,300.525 31.261,300.583 31.167 C 300.640 31.075,300.663 31.014,300.635 31.031 C 300.607 31.049,299.908 31.110,299.083 31.167 M322.776 31.208 C 322.818 31.277,323.557 31.333,324.417 31.333 C 325.277 31.333,326.015 31.277,326.058 31.208 C 326.100 31.140,325.362 31.083,324.417 31.083 C 323.472 31.083,322.733 31.140,322.776 31.208 M340.314 31.215 C 340.387 31.287,341.152 31.324,342.015 31.297 L 343.583 31.248 341.883 31.166 C 340.947 31.120,340.241 31.143,340.314 31.215 M261.208 31.289 C 261.644 31.324,262.356 31.324,262.792 31.289 C 263.227 31.255,262.871 31.227,262.000 31.227 C 261.129 31.227,260.773 31.255,261.208 31.289 M309.000 31.333 C 308.665 31.441,308.649 31.468,308.917 31.472 C 309.100 31.474,309.400 31.412,309.583 31.333 C 310.008 31.151,309.570 31.151,309.000 31.333 M316.542 31.289 C 316.977 31.324,317.690 31.324,318.125 31.289 C 318.560 31.255,318.204 31.227,317.333 31.227 C 316.462 31.227,316.106 31.255,316.542 31.289 M334.500 31.333 C 334.165 31.441,334.149 31.468,334.417 31.472 C 334.600 31.474,334.900 31.412,335.083 31.333 C 335.508 31.151,335.070 31.151,334.500 31.333 M349.131 31.290 C 349.615 31.324,350.365 31.323,350.797 31.289 C 351.230 31.255,350.833 31.227,349.917 31.228 C 349.000 31.228,348.646 31.256,349.131 31.290 M361.213 31.289 C 361.652 31.324,362.327 31.323,362.713 31.288 C 363.100 31.254,362.742 31.225,361.917 31.226 C 361.092 31.226,360.775 31.255,361.213 31.289 M367.367 31.291 C 368.164 31.321,369.514 31.321,370.367 31.291 C 371.219 31.261,370.567 31.236,368.917 31.236 C 367.267 31.235,366.569 31.260,367.367 31.291 " stroke="none" fill="#83a2b0" fill-rule="evenodd"></path><path id="path4" d="M16.733 13.233 L 16.167 13.800 16.167 24.833 L 16.167 35.867 16.733 36.433 L 17.300 37.000 28.250 37.000 L 39.200 37.000 39.660 36.507 C 40.325 35.795,40.330 35.712,40.328 24.750 C 40.325 14.266,40.286 13.648,39.583 13.042 L 39.148 12.667 28.224 12.667 L 17.300 12.667 16.733 13.233 M39.496 13.303 C 40.164 13.971,40.199 14.660,40.137 25.921 L 40.083 35.592 39.695 36.088 C 39.110 36.833,39.482 36.809,28.128 36.822 L 17.505 36.833 16.961 36.347 L 16.417 35.861 16.417 24.833 L 16.417 13.806 16.961 13.320 L 17.505 12.833 28.265 12.833 L 39.026 12.833 39.496 13.303 M20.722 15.442 C 19.981 15.601,18.833 17.075,18.834 17.868 C 18.836 20.430,22.353 21.380,23.514 19.132 C 24.470 17.279,22.750 15.006,20.722 15.442 M22.439 16.125 C 23.928 17.066,23.875 19.280,22.349 19.891 C 19.728 20.940,17.925 17.810,20.200 16.161 C 21.048 15.548,21.515 15.540,22.439 16.125 M51.663 18.285 L 52.329 18.352 52.376 23.634 L 52.424 28.917 52.420 23.583 L 52.417 18.250 51.707 18.234 L 50.998 18.217 51.663 18.285 M64.909 18.376 C 64.865 18.491,64.849 21.358,64.873 24.748 C 64.921 31.540,64.862 31.196,65.930 30.928 L 66.333 30.827 66.333 24.598 C 66.333 19.072,66.304 18.358,66.070 18.268 C 65.624 18.097,64.994 18.155,64.909 18.376 M74.076 18.344 C 74.016 18.442,74.012 18.567,74.067 18.622 C 74.122 18.677,74.167 18.635,74.167 18.528 C 74.167 18.093,75.945 18.295,76.321 18.772 C 76.511 19.014,76.667 19.140,76.667 19.052 C 76.667 18.385,74.429 17.774,74.076 18.344 M82.113 18.286 C 82.066 18.361,82.322 18.395,82.681 18.361 L 83.333 18.298 83.333 24.558 L 83.333 30.817 82.416 30.880 L 81.498 30.944 82.457 30.930 L 83.417 30.917 83.417 24.583 L 83.417 18.250 82.807 18.199 C 82.472 18.171,82.159 18.210,82.113 18.286 M91.374 18.359 C 91.081 18.653,91.073 30.507,91.367 30.800 C 91.477 30.910,91.758 30.991,91.992 30.980 C 92.386 30.962,92.381 30.953,91.917 30.854 L 91.417 30.747 91.417 24.582 L 91.417 18.417 91.958 18.364 L 92.500 18.312 92.500 20.395 C 92.500 23.765,92.784 24.000,94.588 22.125 L 95.750 20.917 94.579 22.042 C 92.792 23.759,92.811 23.773,92.683 20.667 L 92.583 18.250 92.083 18.201 C 91.807 18.174,91.488 18.245,91.374 18.359 M97.694 19.110 L 96.750 20.054 97.698 19.194 C 98.565 18.407,98.716 18.333,99.448 18.335 L 100.250 18.336 98.875 19.710 C 98.119 20.465,97.447 21.158,97.380 21.250 C 97.314 21.342,97.948 20.747,98.788 19.929 C 100.461 18.300,100.506 18.167,99.392 18.167 C 98.697 18.167,98.563 18.241,97.694 19.110 M110.719 18.290 L 114.522 18.340 114.469 18.795 L 114.417 19.250 111.559 19.296 C 109.080 19.335,108.672 19.379,108.484 19.629 C 108.299 19.873,108.301 19.885,108.500 19.708 C 108.667 19.559,109.525 19.500,111.513 19.500 C 114.503 19.500,114.751 19.431,114.638 18.634 L 114.583 18.250 110.750 18.245 L 106.917 18.241 110.719 18.290 M123.216 18.291 C 123.931 18.322,125.056 18.322,125.716 18.290 C 126.376 18.259,125.792 18.233,124.417 18.233 C 123.042 18.234,122.501 18.259,123.216 18.291 M139.576 18.344 C 139.516 18.442,139.512 18.567,139.567 18.622 C 139.622 18.677,139.667 18.627,139.667 18.510 C 139.667 18.364,139.870 18.318,140.319 18.361 C 140.678 18.395,140.936 18.365,140.893 18.295 C 140.773 18.101,139.702 18.141,139.576 18.344 M148.912 18.368 C 148.867 18.487,148.850 21.359,148.875 24.751 L 148.921 30.917 148.960 24.625 L 149.000 18.333 149.986 18.333 C 150.528 18.333,151.010 18.410,151.057 18.504 C 151.104 18.598,151.123 18.579,151.099 18.462 C 151.039 18.160,149.026 18.072,148.912 18.368 M156.909 18.377 C 156.864 18.493,156.849 20.724,156.875 23.335 L 156.922 28.083 156.961 23.198 L 157.000 18.312 157.542 18.364 L 158.083 18.417 158.083 24.583 L 158.083 30.750 157.167 30.848 L 156.250 30.946 157.028 30.973 C 158.443 31.022,158.333 31.559,158.333 24.583 C 158.333 19.070,158.304 18.358,158.070 18.268 C 157.623 18.096,156.994 18.156,156.909 18.377 M66.083 24.583 L 66.083 30.750 65.542 30.802 L 65.000 30.854 65.000 24.583 L 65.000 18.312 65.542 18.364 L 66.083 18.417 66.083 24.583 M127.333 18.500 C 127.563 18.573,127.900 18.633,128.083 18.633 C 128.347 18.633,128.330 18.606,128.000 18.500 C 127.771 18.427,127.433 18.367,127.250 18.367 C 126.986 18.367,127.003 18.394,127.333 18.500 M50.872 24.508 C 50.843 29.068,50.884 30.650,51.033 30.800 C 51.258 31.025,58.421 31.096,58.558 30.875 C 58.600 30.806,56.936 30.750,54.859 30.750 L 51.083 30.750 50.997 24.583 L 50.910 18.417 50.872 24.508 M106.705 24.508 C 106.676 29.068,106.717 30.650,106.867 30.800 C 107.013 30.946,108.081 30.990,110.825 30.963 L 114.583 30.926 110.750 30.838 L 106.917 30.750 106.830 24.583 L 106.744 18.417 106.705 24.508 M129.688 19.167 C 130.204 19.434,130.909 19.974,131.253 20.368 C 131.598 20.761,131.779 20.933,131.656 20.750 C 131.029 19.813,129.459 18.639,128.881 18.675 C 128.809 18.679,129.172 18.901,129.688 19.167 M140.999 24.667 L 140.917 30.750 140.333 30.853 L 139.750 30.956 140.271 30.978 C 141.178 31.016,141.175 31.039,141.126 24.564 L 141.081 18.583 140.999 24.667 M123.700 19.533 C 123.590 19.643,123.500 19.808,123.500 19.899 C 123.500 19.989,123.601 19.926,123.725 19.757 C 123.926 19.481,124.138 19.458,125.766 19.530 C 126.766 19.575,127.358 19.558,127.083 19.492 C 126.223 19.287,123.918 19.315,123.700 19.533 M151.668 19.750 C 151.669 19.842,151.818 20.142,152.000 20.417 C 152.432 21.068,152.432 20.837,152.001 20.129 C 151.818 19.829,151.668 19.658,151.668 19.750 M128.731 20.039 C 128.903 20.155,129.278 20.435,129.564 20.661 C 130.066 21.058,130.072 21.058,129.750 20.685 C 129.567 20.473,129.192 20.193,128.917 20.064 C 128.622 19.925,128.545 19.915,128.731 20.039 M108.227 21.500 C 108.227 22.371,108.255 22.727,108.289 22.292 C 108.324 21.856,108.324 21.144,108.289 20.708 C 108.255 20.273,108.227 20.629,108.227 21.500 M77.168 20.250 C 77.169 20.342,77.318 20.642,77.500 20.917 C 77.932 21.568,77.932 21.337,77.501 20.629 C 77.318 20.329,77.168 20.158,77.168 20.250 M150.245 20.708 C 150.203 20.823,150.149 23.128,150.126 25.832 L 150.083 30.747 149.583 30.854 C 149.119 30.953,149.114 30.962,149.508 30.980 C 150.320 31.018,150.333 30.931,150.333 25.713 L 150.333 20.826 150.792 21.113 L 151.250 21.400 150.846 20.950 C 150.385 20.437,150.351 20.423,150.245 20.708 M252.333 20.662 C 251.964 20.737,252.421 20.781,253.583 20.782 C 254.931 20.783,255.240 20.748,254.750 20.651 C 253.962 20.495,253.138 20.499,252.333 20.662 M276.167 20.660 C 275.804 20.732,276.276 20.776,277.417 20.778 C 278.753 20.780,279.069 20.745,278.583 20.650 C 277.798 20.496,276.975 20.499,276.167 20.660 M306.669 20.690 C 301.318 21.577,300.829 30.486,306.091 31.232 L 306.750 31.326 306.167 31.145 C 303.479 30.315,302.762 29.251,302.755 26.083 C 302.747 22.294,304.280 20.840,308.316 20.804 C 309.682 20.792,309.932 20.757,309.417 20.654 C 308.585 20.486,307.843 20.496,306.669 20.690 M331.867 20.754 C 328.687 21.445,327.187 24.668,328.328 28.360 C 329.202 31.191,332.903 32.344,336.147 30.797 L 336.877 30.449 337.155 30.818 C 337.389 31.128,337.567 31.179,338.259 31.135 L 339.083 31.083 339.083 28.250 L 339.083 25.417 336.333 25.417 L 333.583 25.417 333.583 26.417 L 333.583 27.417 334.625 27.466 C 336.428 27.552,335.686 28.833,333.833 28.833 C 332.165 28.833,331.500 28.026,331.500 26.000 C 331.500 24.025,332.174 23.167,333.723 23.167 C 334.750 23.167,335.294 23.403,335.632 23.997 C 335.963 24.579,338.894 24.802,339.102 24.262 C 339.482 23.271,337.159 20.805,335.881 20.842 C 335.717 20.847,335.958 20.998,336.417 21.179 C 337.762 21.709,338.833 22.896,338.833 23.857 L 338.833 24.333 337.421 24.333 C 336.036 24.333,336.004 24.324,335.762 23.857 C 335.281 22.926,333.322 22.629,332.328 23.337 C 330.929 24.334,330.905 27.650,332.290 28.636 C 333.105 29.216,334.590 29.183,335.321 28.569 C 336.166 27.857,336.036 27.333,335.014 27.333 C 333.772 27.333,333.667 27.254,333.667 26.311 L 333.667 25.492 336.292 25.537 L 338.917 25.583 338.962 28.292 L 339.008 31.000 338.190 31.000 C 337.512 31.000,337.357 30.943,337.285 30.667 C 337.176 30.251,336.830 30.245,336.035 30.644 C 332.935 32.202,329.264 31.007,328.439 28.173 C 327.166 23.799,329.323 20.844,333.816 20.804 C 335.182 20.792,335.432 20.757,334.917 20.654 C 333.969 20.463,333.075 20.492,331.867 20.754 M75.562 20.911 C 75.511 21.046,75.507 21.252,75.554 21.370 C 75.602 21.487,75.646 21.415,75.654 21.208 C 75.669 20.760,75.911 20.721,76.171 21.125 C 76.346 21.397,76.352 21.396,76.263 21.111 C 76.210 20.943,76.167 20.775,76.167 20.736 C 76.167 20.547,75.644 20.699,75.562 20.911 M201.905 20.794 C 201.730 20.915,201.158 22.224,201.176 22.462 C 201.182 22.529,201.365 22.190,201.584 21.708 L 201.981 20.833 203.831 20.833 L 205.680 20.833 205.995 21.542 C 206.354 22.350,206.426 22.320,206.139 21.483 C 205.870 20.696,205.801 20.672,203.833 20.672 C 202.871 20.672,202.003 20.727,201.905 20.794 M210.909 20.877 C 210.865 20.992,210.848 23.336,210.872 26.085 L 210.917 31.083 212.458 31.131 L 214.000 31.179 214.000 28.933 C 214.000 27.697,214.065 26.646,214.144 26.598 C 214.223 26.549,215.199 27.557,216.314 28.838 L 218.340 31.167 219.878 31.135 L 221.417 31.103 219.870 31.010 L 218.323 30.917 217.472 29.917 C 216.552 28.836,214.721 26.761,214.362 26.392 C 213.932 25.950,213.833 26.376,213.833 28.677 L 213.833 31.000 212.414 31.000 L 210.995 31.000 211.039 25.958 L 211.083 20.917 212.426 20.869 L 213.768 20.821 214.342 21.452 C 214.658 21.799,215.587 22.887,216.405 23.869 C 217.994 25.774,218.335 26.055,218.331 25.453 C 218.329 25.207,218.284 25.153,218.196 25.291 C 218.041 25.536,217.673 25.166,215.754 22.833 C 213.900 20.580,214.035 20.667,212.393 20.667 C 211.417 20.667,210.965 20.731,210.909 20.877 M218.442 20.792 C 218.399 20.860,218.826 20.896,219.390 20.870 C 221.228 20.787,221.446 20.721,219.968 20.693 C 219.171 20.679,218.485 20.723,218.442 20.792 M225.250 20.788 L 226.833 20.845 226.833 22.913 C 226.833 24.050,226.900 25.022,226.981 25.072 C 227.137 25.168,228.148 24.064,229.754 22.042 L 230.714 20.833 232.621 20.833 L 234.528 20.833 234.024 21.458 C 233.746 21.802,232.992 22.683,232.347 23.417 C 231.702 24.150,231.173 24.880,231.171 25.038 C 231.167 25.268,233.091 28.535,234.459 30.625 L 234.705 31.000 232.860 31.000 L 231.015 31.000 230.235 29.600 C 229.806 28.830,229.293 27.995,229.093 27.745 L 228.731 27.291 227.824 28.030 L 226.917 28.768 226.867 29.884 L 226.818 31.000 225.245 31.000 L 223.672 31.000 223.624 26.000 L 223.576 21.000 223.580 26.042 L 223.583 31.083 225.250 31.083 L 226.917 31.083 226.966 29.972 C 227.015 28.845,227.363 28.348,228.615 27.609 C 228.744 27.533,229.059 27.919,229.509 28.704 C 229.892 29.371,230.385 30.198,230.605 30.542 L 231.005 31.167 232.919 31.167 C 233.972 31.167,234.833 31.104,234.833 31.028 C 234.833 30.952,234.046 29.622,233.083 28.071 C 230.977 24.679,230.985 25.240,233.010 22.921 C 235.002 20.640,235.007 20.667,232.578 20.667 L 230.675 20.667 229.054 22.625 C 228.162 23.702,227.353 24.637,227.258 24.703 C 227.141 24.783,227.056 24.152,227.000 22.786 L 226.917 20.750 225.291 20.740 L 223.666 20.731 225.250 20.788 M236.450 20.772 C 236.304 20.918,236.327 27.442,236.475 27.971 C 236.535 28.184,236.558 26.662,236.528 24.589 L 236.472 20.820 238.028 20.869 L 239.583 20.917 239.667 24.456 L 239.750 27.994 240.268 28.512 C 240.888 29.132,242.016 29.246,242.753 28.763 C 243.551 28.241,243.667 27.647,243.667 24.089 L 243.667 20.833 245.163 20.833 C 247.012 20.833,246.906 20.563,246.799 24.976 C 246.713 28.507,246.630 28.877,245.689 29.890 C 243.516 32.231,238.148 31.592,236.889 28.842 C 236.767 28.576,236.689 28.516,236.680 28.683 C 236.606 30.137,239.624 31.655,242.167 31.444 C 246.074 31.119,246.877 29.985,246.972 24.660 C 247.048 20.382,247.169 20.632,245.058 20.702 L 243.583 20.750 243.496 24.250 C 243.389 28.524,243.265 28.833,241.662 28.833 C 240.055 28.833,239.935 28.534,239.833 24.250 L 239.750 20.750 238.158 20.703 C 237.283 20.677,236.514 20.708,236.450 20.772 M260.450 20.772 C 260.386 20.836,260.333 23.201,260.333 26.028 L 260.333 31.167 262.000 31.167 L 263.667 31.167 263.669 29.458 C 263.673 27.212,263.586 27.300,265.725 27.364 C 266.702 27.393,267.501 27.360,267.500 27.292 C 267.500 27.223,266.646 27.167,265.601 27.167 C 263.362 27.167,263.500 27.024,263.500 29.347 L 263.500 31.000 262.000 31.000 L 260.500 31.000 260.500 25.917 L 260.500 20.833 262.000 20.833 L 263.500 20.833 263.500 22.486 C 263.500 24.810,263.362 24.667,265.601 24.667 C 267.303 24.667,267.499 24.636,267.487 24.375 C 267.479 24.201,267.440 24.167,267.390 24.292 C 267.330 24.440,266.803 24.500,265.573 24.500 C 263.550 24.500,263.692 24.664,263.625 22.250 L 263.583 20.750 262.075 20.703 C 261.246 20.676,260.515 20.708,260.450 20.772 M267.612 20.786 C 267.567 20.858,268.236 20.893,269.099 20.864 L 270.667 20.810 270.667 25.899 L 270.667 30.988 269.042 31.042 L 267.417 31.097 269.127 31.132 L 270.838 31.167 270.794 25.958 L 270.750 20.750 269.222 20.702 C 268.381 20.676,267.657 20.714,267.612 20.786 M284.373 20.802 C 284.209 20.909,284.171 22.066,284.206 26.011 L 284.250 31.083 285.961 31.131 L 287.671 31.178 287.627 25.964 L 287.583 20.750 286.083 20.708 C 285.258 20.684,284.488 20.727,284.373 20.802 M290.278 20.778 C 290.217 20.839,290.167 23.204,290.167 26.034 L 290.167 31.179 291.708 31.131 L 293.250 31.083 293.297 28.875 C 293.322 27.658,293.413 26.667,293.498 26.667 C 293.583 26.667,294.528 27.682,295.598 28.923 L 297.542 31.179 299.063 31.131 L 300.583 31.083 300.583 25.917 L 300.583 20.750 299.083 20.750 L 297.583 20.750 297.537 23.125 C 297.512 24.431,297.429 25.500,297.354 25.500 C 297.278 25.500,296.302 24.412,295.184 23.083 L 293.151 20.667 291.770 20.667 C 291.010 20.667,290.339 20.717,290.278 20.778 M315.778 20.778 C 315.717 20.839,315.667 23.204,315.667 26.034 L 315.667 31.178 317.375 31.131 L 319.083 31.083 319.130 29.208 L 319.178 27.333 320.917 27.333 L 322.656 27.333 322.703 29.208 L 322.750 31.083 324.417 31.083 L 326.083 31.083 326.083 25.917 L 326.083 20.750 324.417 20.750 L 322.750 20.750 322.667 22.583 L 322.583 24.417 320.875 24.464 L 319.167 24.512 319.167 22.789 C 319.167 21.672,319.096 20.996,318.967 20.867 C 318.754 20.654,315.979 20.577,315.778 20.778 M343.988 20.875 C 343.742 21.141,340.200 30.874,340.287 31.042 C 340.324 31.110,341.087 31.167,341.985 31.167 L 343.616 31.167 343.880 30.494 L 344.144 29.822 345.933 29.869 L 347.721 29.917 347.917 30.500 L 348.112 31.083 349.890 31.131 C 350.945 31.159,351.667 31.113,351.667 31.018 C 351.667 30.739,348.149 21.096,347.967 20.877 C 347.725 20.585,344.257 20.583,343.988 20.875 M353.076 20.877 C 353.031 20.992,353.015 23.336,353.039 26.085 L 353.083 31.083 354.625 31.131 L 356.167 31.179 356.167 28.923 C 356.167 26.100,356.098 26.100,358.500 28.915 L 360.417 31.160 361.961 31.164 L 363.505 31.167 363.461 25.958 L 363.417 20.750 362.253 20.700 C 360.221 20.612,360.333 20.468,360.333 23.170 C 360.333 24.451,360.277 25.495,360.208 25.489 C 360.140 25.483,359.333 24.581,358.417 23.485 C 355.827 20.387,356.208 20.667,354.571 20.667 C 353.586 20.667,353.132 20.731,353.076 20.877 M365.944 20.778 C 365.883 20.839,365.833 23.201,365.833 26.028 L 365.833 31.167 368.886 31.167 C 372.500 31.167,373.322 30.991,374.414 29.985 C 377.332 27.295,375.752 20.735,372.214 20.848 C 371.854 20.860,371.930 20.913,372.551 21.083 C 374.712 21.677,375.693 23.213,375.693 26.000 C 375.693 29.935,374.267 31.000,368.994 31.000 L 366.000 31.000 366.000 25.921 L 366.000 20.841 368.875 20.791 L 371.750 20.742 368.903 20.704 C 367.337 20.684,366.006 20.717,365.944 20.778 M377.745 20.871 C 377.699 20.990,377.681 23.336,377.706 26.085 L 377.750 31.083 379.417 31.083 L 381.083 31.083 381.167 29.250 L 381.250 27.417 383.000 27.417 L 384.750 27.417 384.833 29.250 L 384.917 31.083 386.544 31.131 L 388.171 31.179 388.127 25.964 L 388.083 20.750 386.500 20.750 L 384.917 20.750 384.833 22.583 L 384.750 24.417 383.000 24.417 L 381.250 24.417 381.167 22.583 L 381.083 20.750 379.455 20.702 C 378.240 20.667,377.807 20.709,377.745 20.871 M390.742 20.877 C 390.698 20.992,390.681 23.336,390.706 26.085 L 390.750 31.083 392.417 31.083 L 394.083 31.083 394.127 26.011 C 394.162 22.065,394.125 20.910,393.961 20.806 C 393.600 20.577,390.834 20.638,390.742 20.877 M250.387 21.254 C 248.720 22.253,248.350 24.447,249.614 25.846 C 250.253 26.553,251.347 27.034,253.206 27.425 C 254.622 27.723,255.000 27.916,255.000 28.343 C 255.000 29.342,252.384 29.197,252.029 28.179 L 251.851 27.667 250.342 27.667 L 248.833 27.667 248.833 28.342 C 248.833 30.279,250.858 31.526,253.917 31.470 C 254.883 31.453,254.871 31.448,253.583 31.334 C 250.461 31.058,249.000 30.107,249.000 28.350 L 249.000 27.833 250.337 27.833 C 251.603 27.833,251.683 27.855,251.830 28.241 C 252.303 29.486,255.153 29.532,255.164 28.296 C 255.168 27.911,254.597 27.561,253.583 27.325 C 250.391 26.584,249.375 25.935,249.101 24.461 C 248.846 23.084,249.822 21.483,251.182 21.049 C 251.546 20.932,251.630 20.862,251.417 20.852 C 251.233 20.843,250.770 21.024,250.387 21.254 M255.998 21.053 C 257.085 21.399,258.280 22.909,258.040 23.631 C 257.870 24.139,255.479 23.879,254.997 23.301 C 254.252 22.410,252.333 22.614,252.333 23.585 C 252.333 24.120,252.878 24.411,254.495 24.739 C 257.068 25.260,258.141 26.004,258.413 27.453 C 258.472 27.773,258.558 27.998,258.602 27.954 C 258.646 27.910,258.594 27.525,258.486 27.099 C 258.146 25.745,256.979 25.029,254.250 24.497 C 252.145 24.088,251.740 23.000,253.691 23.000 C 254.461 23.000,255.000 23.241,255.000 23.586 C 255.000 24.128,258.200 24.162,258.303 23.621 C 258.479 22.698,256.738 20.802,255.759 20.850 C 255.532 20.862,255.612 20.930,255.998 21.053 M274.107 21.335 C 271.053 23.272,272.597 26.491,277.026 27.422 C 278.783 27.792,279.425 28.450,278.406 28.837 C 277.323 29.249,276.127 28.937,275.860 28.172 L 275.680 27.654 274.131 27.702 L 272.583 27.750 272.621 28.388 C 272.711 29.883,273.723 30.841,275.637 31.244 C 279.132 31.979,281.541 31.070,282.276 28.737 C 282.953 26.590,281.652 25.219,278.302 24.547 C 276.012 24.088,275.368 22.993,277.395 23.005 C 278.283 23.011,278.692 23.206,278.883 23.715 C 278.980 23.976,279.178 24.007,280.456 23.965 L 281.917 23.917 281.970 23.359 C 282.065 22.368,280.565 20.804,279.561 20.846 C 279.360 20.855,279.428 20.922,279.750 21.034 C 280.914 21.441,281.833 22.489,281.833 23.408 C 281.833 24.009,279.309 24.078,278.992 23.486 C 278.445 22.462,276.016 22.566,276.003 23.614 C 275.997 24.004,276.943 24.467,278.314 24.747 C 281.523 25.400,282.712 26.665,282.089 28.762 C 281.022 32.356,272.833 32.102,272.833 28.475 L 272.833 27.833 274.171 27.833 C 275.429 27.833,275.517 27.857,275.660 28.233 C 275.997 29.120,277.756 29.519,278.630 28.907 C 279.439 28.340,278.926 27.673,277.417 27.329 C 274.533 26.672,273.539 26.149,273.077 25.043 C 272.351 23.304,273.248 21.675,275.333 20.947 C 275.505 20.887,275.476 20.856,275.241 20.846 C 275.053 20.839,274.542 21.059,274.107 21.335 M287.500 25.917 L 287.500 31.000 285.917 31.000 L 284.333 31.000 284.333 26.028 C 284.333 23.293,284.383 21.006,284.444 20.944 C 284.506 20.883,285.218 20.833,286.028 20.833 L 287.500 20.833 287.500 25.917 M294.833 22.941 C 297.851 26.548,297.667 26.529,297.667 23.233 L 297.667 20.820 299.042 20.868 L 300.417 20.917 300.461 25.958 L 300.505 31.000 299.044 30.994 L 297.583 30.989 295.597 28.661 C 293.098 25.734,293.167 25.734,293.167 28.667 L 293.167 31.000 291.750 31.000 L 290.333 31.000 290.333 25.917 L 290.333 20.833 291.708 20.842 L 293.083 20.850 294.833 22.941 M310.917 21.179 C 312.262 21.709,313.333 22.896,313.333 23.857 L 313.333 24.333 311.921 24.333 C 310.536 24.333,310.504 24.324,310.262 23.857 C 309.541 22.463,306.895 22.669,306.125 24.179 C 304.708 26.959,307.372 30.397,309.639 28.714 C 310.799 27.853,310.653 27.333,309.251 27.333 C 308.052 27.333,307.874 27.142,308.075 26.069 L 308.182 25.500 310.758 25.500 L 313.333 25.500 313.333 28.250 L 313.333 31.000 312.583 31.000 C 312.171 31.000,311.833 30.930,311.833 30.845 C 311.833 30.342,311.323 30.178,310.786 30.508 C 310.095 30.933,309.186 31.187,307.833 31.335 C 306.802 31.447,306.789 31.454,307.559 31.476 C 308.485 31.503,310.194 31.101,310.885 30.693 C 311.335 30.427,311.363 30.431,311.643 30.802 C 311.890 31.130,312.058 31.180,312.759 31.135 L 313.583 31.083 313.631 28.583 C 313.700 24.982,314.010 25.333,310.765 25.333 C 307.739 25.333,307.833 25.297,307.833 26.480 C 307.833 27.323,308.070 27.500,309.200 27.500 C 310.043 27.500,310.167 27.541,310.167 27.821 C 310.167 28.714,308.083 29.197,306.997 28.555 C 305.674 27.773,305.674 24.227,306.997 23.445 C 307.982 22.863,309.654 23.158,310.132 23.997 C 310.417 24.498,310.417 24.498,311.980 24.499 L 313.543 24.500 313.457 23.738 C 313.318 22.497,311.564 20.829,310.417 20.846 C 310.233 20.849,310.458 20.998,310.917 21.179 M318.836 22.542 C 318.839 24.784,318.743 24.688,320.930 24.631 L 322.750 24.583 322.797 22.702 L 322.844 20.821 324.381 20.869 L 325.917 20.917 325.961 25.958 L 326.005 31.000 324.419 31.000 L 322.833 31.000 322.833 29.083 L 322.833 27.167 320.934 27.167 C 318.696 27.167,318.833 27.024,318.833 29.347 L 318.833 31.000 317.333 31.000 L 315.833 31.000 315.833 25.917 L 315.833 20.833 317.333 20.833 L 318.833 20.833 318.836 22.542 M348.358 22.250 C 349.093 24.273,349.716 26.009,350.646 28.625 L 351.490 31.000 349.858 31.000 L 348.225 31.000 348.071 30.375 L 347.917 29.750 345.932 29.750 L 343.946 29.750 343.750 30.333 L 343.554 30.917 341.918 30.965 C 340.603 31.003,340.315 30.971,340.450 30.798 C 340.543 30.680,340.858 29.871,341.151 29.000 C 341.443 28.129,341.935 26.742,342.243 25.917 C 342.552 25.092,343.003 23.854,343.246 23.167 C 343.489 22.479,343.795 21.670,343.927 21.370 L 344.166 20.822 346.020 20.870 L 347.874 20.917 348.358 22.250 M357.924 23.173 C 359.020 24.460,359.942 25.585,359.972 25.673 C 360.003 25.761,360.132 25.833,360.259 25.833 C 360.445 25.833,360.500 25.340,360.537 23.375 L 360.583 20.917 361.958 20.868 L 363.333 20.820 363.333 25.910 L 363.333 31.000 361.924 31.000 L 360.516 31.000 359.485 29.792 C 358.919 29.127,358.034 28.082,357.519 27.469 C 356.097 25.774,356.000 25.851,356.000 28.667 L 356.000 31.000 354.583 31.000 L 353.167 31.000 353.167 25.917 L 353.167 20.833 354.549 20.833 L 355.931 20.833 357.924 23.173 M381.036 22.708 L 381.083 24.583 383.000 24.583 L 384.917 24.583 384.964 22.708 L 385.011 20.833 386.505 20.833 L 388.000 20.833 388.000 25.917 L 388.000 31.000 386.505 31.000 L 385.011 31.000 384.964 29.125 L 384.917 27.250 383.000 27.250 L 381.083 27.250 381.036 29.125 L 380.989 31.000 379.411 31.000 L 377.833 31.000 377.833 26.028 C 377.833 23.293,377.883 21.006,377.944 20.944 C 378.006 20.883,378.716 20.833,379.522 20.833 L 380.989 20.833 381.036 22.708 M393.961 25.958 L 394.005 31.000 392.419 31.000 L 390.833 31.000 390.833 26.028 C 390.833 23.293,390.886 21.003,390.950 20.938 C 391.015 20.874,391.709 20.843,392.492 20.869 L 393.917 20.917 393.961 25.958 M30.833 21.442 C 30.329 21.578,29.804 21.682,29.667 21.672 C 26.669 21.470,25.800 21.484,25.411 21.739 L 25.000 22.008 25.000 27.429 C 25.000 34.172,24.997 34.163,27.531 34.166 C 29.360 34.168,29.388 34.105,29.496 29.800 L 29.583 26.351 30.158 25.759 C 30.959 24.932,31.643 24.939,32.283 25.778 C 32.749 26.389,32.750 26.396,32.838 29.653 C 32.954 33.933,33.063 34.167,34.936 34.167 C 37.320 34.167,37.562 33.672,37.452 29.008 C 37.292 22.167,35.547 20.172,30.833 21.442 M20.096 21.520 C 18.945 21.790,19.000 21.497,19.000 27.362 C 19.000 31.792,19.042 32.765,19.253 33.172 C 19.929 34.479,22.871 34.587,23.313 33.320 C 23.535 32.684,23.573 22.207,23.355 21.863 C 23.062 21.401,21.366 21.222,20.096 21.520 M33.922 21.513 C 36.340 21.934,36.962 23.391,37.116 28.989 C 37.238 33.422,37.053 33.833,34.927 33.833 C 33.289 33.833,33.265 33.777,33.164 29.807 L 33.078 26.417 32.600 25.708 C 31.934 24.721,30.882 24.674,29.991 25.592 L 29.417 26.184 29.333 29.670 C 29.238 33.647,29.233 33.661,27.886 33.791 C 26.600 33.914,25.688 33.592,25.404 32.912 C 24.980 31.896,25.063 22.437,25.500 22.000 C 25.931 21.569,28.391 21.516,29.175 21.921 C 29.618 22.150,29.718 22.149,30.179 21.910 C 31.202 21.381,32.422 21.252,33.922 21.513 M23.125 21.946 C 23.453 22.393,23.421 32.514,23.089 33.155 C 22.564 34.171,20.072 34.069,19.505 33.009 C 19.213 32.464,19.276 22.255,19.573 22.009 C 20.262 21.436,22.720 21.393,23.125 21.946 M151.168 21.583 C 151.169 21.675,151.318 21.975,151.500 22.250 C 151.932 22.902,151.932 22.670,151.501 21.962 C 151.318 21.662,151.168 21.492,151.168 21.583 M132.007 21.773 C 132.003 21.877,132.110 22.214,132.243 22.523 C 132.377 22.831,132.490 22.998,132.493 22.894 C 132.497 22.790,132.390 22.453,132.257 22.144 C 132.123 21.836,132.010 21.668,132.007 21.773 M95.505 22.912 C 94.916 23.505,94.469 24.014,94.509 24.041 C 94.550 24.069,95.065 23.584,95.654 22.963 C 97.015 21.526,96.913 21.491,95.505 22.912 M76.836 22.417 C 76.836 22.508,76.985 22.808,77.167 23.083 C 77.349 23.358,77.498 23.508,77.498 23.417 C 77.498 23.325,77.349 23.025,77.167 22.750 C 76.985 22.475,76.836 22.325,76.836 22.417 M206.375 22.583 C 206.454 22.874,207.440 25.633,208.072 27.333 C 208.690 28.994,209.333 30.819,209.333 30.909 C 209.333 30.966,208.609 30.991,207.723 30.964 L 206.112 30.917 205.916 30.333 L 205.720 29.750 203.735 29.750 L 201.750 29.750 201.596 30.375 L 201.441 31.000 199.887 31.000 C 198.519 31.000,198.333 30.965,198.331 30.708 C 198.329 30.461,198.304 30.454,198.171 30.665 C 197.901 31.093,198.228 31.181,199.910 31.131 L 201.540 31.083 201.729 30.500 L 201.917 29.917 203.719 29.869 L 205.522 29.822 205.786 30.494 L 206.051 31.167 207.775 31.167 C 208.974 31.167,209.500 31.108,209.500 30.973 C 209.500 30.727,206.513 22.453,206.382 22.337 C 206.328 22.289,206.325 22.400,206.375 22.583 M130.790 23.269 C 130.838 23.717,130.905 24.115,130.939 24.153 C 131.072 24.304,130.986 22.902,130.849 22.686 C 130.759 22.545,130.737 22.771,130.790 23.269 M200.706 23.706 C 200.502 24.266,200.362 24.751,200.395 24.784 C 200.428 24.817,200.625 24.389,200.833 23.833 C 201.041 23.277,201.181 22.792,201.144 22.755 C 201.107 22.718,200.910 23.146,200.706 23.706 M153.335 22.917 C 153.335 23.008,153.485 23.308,153.667 23.583 C 154.098 24.235,154.099 24.003,153.667 23.296 C 153.484 22.996,153.335 22.825,153.335 22.917 M369.278 23.111 C 369.007 23.382,369.157 28.794,369.438 28.902 C 371.489 29.689,373.141 27.386,372.474 24.670 C 372.152 23.362,370.052 22.337,369.278 23.111 M108.479 23.375 C 108.680 23.632,109.039 23.667,111.507 23.667 C 113.252 23.667,114.337 23.731,114.390 23.837 C 114.437 23.931,114.456 23.913,114.432 23.796 C 114.400 23.636,113.694 23.572,111.582 23.538 C 109.683 23.507,108.689 23.426,108.512 23.288 C 108.281 23.107,108.277 23.118,108.479 23.375 M371.861 23.810 C 372.305 24.307,372.333 24.428,372.333 25.828 C 372.333 28.085,371.891 28.667,370.175 28.667 L 369.333 28.667 369.333 26.028 C 369.333 24.576,369.390 23.332,369.458 23.262 C 369.797 22.917,371.388 23.280,371.861 23.810 M203.411 24.285 C 203.265 24.632,203.111 25.142,203.070 25.417 C 203.028 25.692,203.152 25.467,203.346 24.917 C 203.539 24.367,203.722 23.891,203.752 23.860 C 203.782 23.829,203.939 24.222,204.100 24.733 C 204.261 25.244,204.425 25.631,204.463 25.592 C 204.566 25.489,204.001 23.854,203.826 23.745 C 203.744 23.695,203.557 23.938,203.411 24.285 M345.667 23.723 C 345.667 23.754,345.447 24.511,345.178 25.406 C 344.910 26.301,344.730 27.138,344.779 27.266 C 344.898 27.576,346.939 27.599,347.042 27.292 C 347.122 27.052,346.461 24.549,346.178 24.020 C 346.021 23.728,345.667 23.521,345.667 23.723 M346.421 25.250 C 346.575 25.800,346.739 26.494,346.785 26.792 L 346.870 27.333 346.013 27.333 C 344.786 27.333,344.774 27.186,345.766 24.180 C 345.892 23.800,346.117 24.168,346.421 25.250 M108.442 24.792 C 108.399 24.860,109.239 24.897,110.307 24.873 C 113.892 24.793,114.272 24.731,111.385 24.699 C 109.809 24.681,108.485 24.723,108.442 24.792 M130.879 25.500 C 130.879 25.912,130.911 26.081,130.951 25.875 C 130.991 25.669,130.991 25.331,130.951 25.125 C 130.911 24.919,130.879 25.087,130.879 25.500 M92.586 25.701 C 92.529 26.094,92.507 27.429,92.538 28.667 L 92.594 30.917 92.630 28.389 C 92.687 24.481,92.577 24.488,96.252 28.172 L 99.083 31.011 99.904 30.964 C 100.404 30.935,100.740 30.834,100.766 30.704 C 100.789 30.587,100.770 30.569,100.724 30.663 C 100.677 30.756,100.290 30.833,99.863 30.833 L 99.087 30.833 96.252 28.016 C 93.030 24.815,92.740 24.632,92.586 25.701 M154.502 25.083 C 154.502 25.175,154.651 25.475,154.833 25.750 C 155.265 26.402,155.265 26.170,154.834 25.462 C 154.651 25.162,154.501 24.992,154.502 25.083 M108.231 27.167 C 108.231 28.313,108.258 28.781,108.290 28.208 C 108.323 27.635,108.323 26.698,108.290 26.125 C 108.258 25.552,108.231 26.021,108.231 27.167 M96.485 26.458 C 97.089 27.077,97.617 27.563,97.657 27.537 C 97.747 27.481,95.635 25.333,95.490 25.333 C 95.433 25.333,95.881 25.840,96.485 26.458 M204.616 26.542 L 204.712 27.333 203.751 27.333 L 202.791 27.333 202.898 26.625 C 202.973 26.128,202.955 25.991,202.838 26.167 C 202.747 26.304,202.671 26.660,202.669 26.958 L 202.667 27.500 203.750 27.500 L 204.833 27.500 204.822 26.958 C 204.815 26.660,204.745 26.267,204.665 26.083 C 204.572 25.867,204.554 26.027,204.616 26.542 M79.127 26.826 C 79.371 27.280,79.593 27.629,79.621 27.601 C 79.704 27.518,78.926 26.001,78.801 26.001 C 78.737 26.000,78.884 26.372,79.127 26.826 M199.685 26.519 C 199.583 26.813,199.528 27.083,199.563 27.119 C 199.599 27.155,199.712 26.943,199.815 26.648 C 199.917 26.354,199.972 26.083,199.937 26.048 C 199.901 26.012,199.788 26.224,199.685 26.519 M132.204 26.708 C 131.921 27.493,131.960 27.706,132.261 27.013 C 132.397 26.699,132.486 26.375,132.459 26.292 C 132.431 26.210,132.317 26.397,132.204 26.708 M155.667 27.415 C 155.667 27.474,155.863 27.779,156.102 28.093 C 156.503 28.618,156.833 28.718,156.833 28.314 C 156.833 28.222,156.765 28.189,156.682 28.241 C 156.599 28.292,156.336 28.103,156.099 27.821 C 155.861 27.539,155.667 27.356,155.667 27.415 M199.121 28.038 C 198.767 29.006,198.630 29.500,198.716 29.500 C 198.828 29.500,199.537 27.482,199.455 27.399 C 199.414 27.359,199.264 27.646,199.121 28.038 M81.846 27.875 C 81.831 28.209,81.403 28.271,81.277 27.958 C 81.224 27.827,81.188 27.820,81.180 27.938 C 81.173 28.041,81.269 28.211,81.395 28.315 C 81.667 28.541,82.086 28.147,81.946 27.797 C 81.892 27.663,81.855 27.692,81.846 27.875 M98.260 28.185 C 98.684 28.704,99.333 29.270,99.333 29.119 C 99.333 29.092,98.982 28.735,98.552 28.326 C 97.865 27.674,97.830 27.656,98.260 28.185 M129.901 28.084 C 129.751 28.313,129.338 28.664,128.983 28.863 C 128.628 29.063,128.367 29.256,128.403 29.292 C 128.533 29.422,129.779 28.525,130.057 28.100 C 130.213 27.862,130.304 27.667,130.258 27.667 C 130.212 27.667,130.051 27.854,129.901 28.084 M258.210 28.887 C 257.898 30.054,257.228 30.612,255.500 31.145 L 254.917 31.326 255.576 31.232 C 256.989 31.032,258.219 30.029,258.430 28.904 C 258.588 28.061,258.434 28.049,258.210 28.887 M130.851 29.176 C 130.632 29.359,130.488 29.544,130.531 29.587 C 130.574 29.630,130.786 29.478,131.001 29.249 C 131.468 28.752,131.401 28.719,130.851 29.176 M52.503 29.258 C 52.495 29.752,52.944 29.833,55.686 29.833 C 57.423 29.833,58.504 29.898,58.557 30.004 C 58.604 30.098,58.622 30.079,58.599 29.962 C 58.567 29.804,57.826 29.729,55.688 29.667 C 53.385 29.600,52.789 29.534,52.663 29.333 C 52.576 29.196,52.504 29.162,52.503 29.258 M123.561 29.389 C 123.619 29.557,123.667 29.725,123.667 29.764 C 123.667 29.889,126.742 29.813,127.083 29.679 C 127.267 29.607,126.636 29.585,125.682 29.631 C 124.120 29.706,123.922 29.682,123.701 29.399 C 123.471 29.104,123.462 29.104,123.561 29.389 M108.479 29.556 C 108.676 29.795,109.104 29.833,111.583 29.833 C 114.592 29.833,115.022 29.935,114.771 30.590 C 114.713 30.740,114.740 30.807,114.835 30.749 C 115.079 30.598,115.035 30.226,114.738 29.929 C 114.521 29.712,114.004 29.667,111.727 29.667 C 109.956 29.667,108.849 29.598,108.614 29.473 C 108.285 29.297,108.272 29.305,108.479 29.556 M127.417 30.667 C 126.992 30.849,127.430 30.849,128.000 30.667 C 128.335 30.559,128.351 30.532,128.083 30.528 C 127.900 30.526,127.600 30.588,127.417 30.667 M74.109 30.875 C 74.152 30.944,74.440 31.000,74.750 31.000 C 75.060 31.000,75.348 30.944,75.391 30.875 C 75.433 30.806,75.145 30.750,74.750 30.750 C 74.355 30.750,74.067 30.806,74.109 30.875 M123.125 30.957 C 123.790 30.989,124.877 30.989,125.542 30.957 C 126.206 30.925,125.662 30.900,124.333 30.900 C 123.004 30.900,122.460 30.925,123.125 30.957 " stroke="none" fill="#97cce1" fill-rule="evenodd"></path></g></svg>