<svg id="svg" version="1.1" xmlns="http://www.w3.org/2000/svg" xmlns:xlink="http://www.w3.org/1999/xlink" width="400" height="38.05555555555556" viewBox="0, 0, 400,38.05555555555556"><g id="svgg"><path id="path0" d="M209.833 19.000 L 209.833 38.000 304.917 38.000 L 400.000 38.000 400.000 19.000 L 400.000 0.000 304.917 0.000 L 209.833 0.000 209.833 19.000 M23.683 10.267 L 23.341 10.702 23.879 11.454 C 24.175 11.868,24.567 12.412,24.750 12.663 C 24.933 12.914,25.233 13.336,25.417 13.601 C 25.600 13.865,26.106 14.555,26.542 15.133 C 26.977 15.711,27.333 16.262,27.333 16.357 C 27.333 17.066,28.285 17.267,28.966 16.702 L 29.514 16.247 28.632 14.996 C 24.866 9.655,24.466 9.272,23.683 10.267 M286.167 12.735 C 288.554 13.161,290.000 14.422,290.000 16.077 L 290.000 16.667 288.178 16.667 C 286.510 16.667,286.347 16.639,286.251 16.338 C 285.874 15.150,283.167 15.009,283.167 16.177 C 283.167 16.534,284.366 17.167,285.044 17.167 C 285.236 17.167,285.623 17.239,285.905 17.328 C 286.186 17.417,286.867 17.617,287.417 17.773 C 289.919 18.485,291.032 20.620,290.083 22.891 C 288.347 27.047,278.862 25.980,278.837 21.625 L 278.833 21.000 280.664 21.000 L 282.496 21.000 282.740 21.584 C 283.262 22.834,286.699 22.812,286.219 21.563 C 286.048 21.117,285.429 20.896,283.208 20.489 C 277.572 19.456,277.505 13.503,283.119 12.682 C 284.495 12.480,284.769 12.485,286.167 12.735 M320.878 12.860 C 322.503 13.206,323.804 14.495,324.089 16.042 L 324.204 16.667 322.272 16.667 C 320.389 16.667,320.337 16.657,320.243 16.280 C 319.981 15.237,317.156 15.023,317.169 16.046 C 317.175 16.533,318.195 17.167,318.972 17.167 C 319.204 17.167,319.623 17.235,319.905 17.318 C 320.186 17.401,320.867 17.603,321.417 17.767 C 326.091 19.156,325.316 24.527,320.323 25.352 C 316.243 26.027,312.840 24.257,312.834 21.458 L 312.833 21.000 314.729 21.000 L 316.625 21.000 316.724 21.493 C 316.868 22.214,317.626 22.555,318.882 22.464 C 319.915 22.389,320.408 22.056,320.219 21.563 C 320.050 21.122,319.552 20.941,317.250 20.486 C 316.792 20.396,316.248 20.249,316.042 20.161 C 315.835 20.072,315.460 19.910,315.208 19.800 C 313.783 19.178,313.010 18.064,313.004 16.620 C 312.990 13.540,316.408 11.908,320.878 12.860 M357.333 13.016 C 359.406 13.662,360.833 15.124,360.833 16.602 L 360.833 17.333 359.008 17.333 L 357.182 17.333 356.912 16.763 C 356.383 15.650,354.173 15.275,353.039 16.106 C 351.646 17.128,351.563 20.592,352.903 21.828 C 353.798 22.654,356.326 22.448,356.828 21.509 C 357.144 20.919,357.024 20.848,355.625 20.798 L 354.250 20.750 354.250 19.583 L 354.250 18.417 357.545 18.371 L 360.840 18.326 360.795 21.788 L 360.750 25.250 359.833 25.250 C 358.958 25.250,358.906 25.225,358.677 24.705 C 358.545 24.405,358.395 24.184,358.343 24.213 C 352.925 27.287,347.942 24.874,347.923 19.167 C 347.906 13.939,351.907 11.324,357.333 13.016 M20.944 12.778 C 20.460 13.262,20.859 13.935,22.363 15.167 C 23.202 15.854,24.446 16.923,25.128 17.542 C 26.479 18.768,26.758 18.862,27.304 18.281 C 27.809 17.744,27.451 16.521,26.780 16.491 C 26.672 16.486,25.571 15.627,24.333 14.581 C 22.137 12.725,21.393 12.329,20.944 12.778 M238.225 13.209 C 238.514 13.507,239.688 14.857,240.833 16.210 L 242.917 18.670 243.000 15.710 L 243.083 12.750 244.747 12.702 C 247.015 12.636,246.833 12.094,246.833 18.935 C 246.833 25.850,247.044 25.167,244.911 25.167 L 243.191 25.167 241.971 23.785 C 240.254 21.841,239.069 20.466,238.628 19.904 L 238.250 19.423 238.167 22.253 L 238.083 25.083 236.250 25.083 L 234.417 25.083 234.373 19.084 C 234.349 15.785,234.365 12.991,234.409 12.876 C 234.612 12.348,237.647 12.612,238.225 13.209 M253.296 15.208 C 253.321 16.560,253.404 17.667,253.480 17.667 C 253.556 17.667,254.460 16.653,255.490 15.414 C 256.519 14.175,257.473 13.050,257.610 12.914 C 257.803 12.721,258.321 12.667,259.970 12.669 C 262.387 12.672,262.749 12.783,262.239 13.366 C 262.054 13.577,261.606 14.090,261.243 14.506 C 260.880 14.923,260.133 15.776,259.583 16.404 C 259.033 17.031,258.528 17.639,258.459 17.756 C 258.383 17.886,259.140 19.260,260.430 21.335 C 261.582 23.188,262.565 24.810,262.615 24.940 C 262.691 25.138,262.326 25.169,260.337 25.130 L 257.968 25.083 256.769 23.000 C 255.397 20.615,255.478 20.656,254.257 21.722 L 253.333 22.527 253.333 23.847 L 253.333 25.167 251.333 25.167 L 249.333 25.167 249.333 19.028 C 249.333 15.651,249.386 12.837,249.450 12.773 C 249.514 12.709,250.395 12.677,251.408 12.703 L 253.250 12.750 253.296 15.208 M296.238 12.929 C 296.447 13.137,296.500 13.593,296.500 15.179 L 296.500 17.167 298.583 17.167 L 300.667 17.167 300.667 15.018 C 300.667 12.506,300.528 12.667,302.691 12.667 C 305.049 12.667,304.834 12.043,304.831 18.881 C 304.829 22.109,304.767 24.846,304.692 24.964 C 304.592 25.123,304.064 25.166,302.653 25.131 L 300.750 25.083 300.667 22.833 L 300.583 20.583 298.542 20.537 L 296.500 20.490 296.497 22.620 C 296.494 25.344,296.629 25.188,294.320 25.131 L 292.417 25.083 292.373 19.011 C 292.339 14.264,292.375 12.910,292.540 12.805 C 292.953 12.543,295.953 12.643,296.238 12.929 M330.344 12.839 C 330.688 13.023,330.859 24.439,330.526 24.964 C 330.425 25.123,329.897 25.166,328.487 25.131 L 326.583 25.083 326.540 19.103 C 326.508 14.828,326.550 13.058,326.685 12.895 C 326.915 12.617,329.846 12.572,330.344 12.839 M337.019 12.990 C 337.238 13.168,338.392 14.475,339.583 15.895 C 340.775 17.314,341.806 18.481,341.875 18.488 C 341.944 18.495,342.000 17.233,342.000 15.684 C 342.000 12.423,341.845 12.667,343.917 12.667 C 344.681 12.667,345.425 12.712,345.570 12.768 C 345.804 12.858,345.833 13.565,345.833 19.018 L 345.833 25.167 344.020 25.167 L 342.207 25.167 341.231 24.042 C 340.694 23.423,340.215 22.879,340.166 22.833 C 340.118 22.787,339.483 22.056,338.757 21.208 C 338.030 20.360,337.377 19.667,337.305 19.667 C 337.234 19.667,337.154 20.885,337.129 22.375 L 337.083 25.083 335.208 25.130 L 333.333 25.178 333.333 19.019 C 333.333 14.249,333.380 12.842,333.542 12.777 C 334.167 12.525,336.633 12.676,337.019 12.990 M367.236 12.768 C 367.458 12.853,367.500 13.212,367.500 15.018 L 367.500 17.167 369.583 17.167 L 371.667 17.167 371.667 15.018 C 371.667 12.501,371.520 12.667,373.750 12.667 C 374.606 12.667,375.425 12.712,375.570 12.768 C 375.804 12.858,375.833 13.565,375.833 19.023 L 375.833 25.177 373.792 25.130 L 371.750 25.083 371.667 22.833 L 371.583 20.583 369.583 20.583 L 367.583 20.583 367.537 22.880 L 367.491 25.177 365.454 25.130 L 363.417 25.083 363.373 19.011 C 363.339 14.264,363.375 12.910,363.540 12.805 C 363.785 12.650,366.848 12.619,367.236 12.768 M228.514 13.167 C 228.587 13.304,228.845 13.979,229.089 14.667 C 229.576 16.043,231.115 20.222,231.329 20.750 C 231.404 20.933,231.591 21.458,231.745 21.917 C 231.900 22.375,232.089 22.900,232.167 23.083 C 233.112 25.323,233.106 25.333,230.761 25.333 C 228.728 25.333,228.617 25.290,228.407 24.416 C 228.196 23.537,228.101 23.500,226.077 23.500 C 223.961 23.500,223.667 23.564,223.667 24.026 C 223.667 24.204,223.552 24.571,223.412 24.842 L 223.158 25.333 221.426 25.333 C 219.015 25.333,219.097 25.407,219.695 23.779 C 219.970 23.030,220.482 21.629,220.833 20.667 C 221.715 18.249,222.375 16.453,223.102 14.494 L 223.721 12.825 226.051 12.871 C 227.918 12.908,228.407 12.966,228.514 13.167 M268.333 16.755 C 268.333 21.010,268.425 21.558,269.228 22.084 C 269.776 22.443,271.018 22.440,271.631 22.078 C 272.558 21.531,272.579 21.423,272.638 16.958 L 272.692 12.833 274.687 12.833 L 276.682 12.833 276.633 17.292 L 276.583 21.750 276.107 22.720 C 274.311 26.378,266.754 26.398,264.851 22.750 C 264.418 21.920,264.416 21.899,264.365 17.375 L 264.314 12.833 266.324 12.833 L 268.333 12.833 268.333 16.755 M18.572 16.403 C 18.342 17.320,18.473 17.421,22.083 19.108 C 23.183 19.623,24.262 20.183,24.481 20.355 C 25.297 20.995,26.333 20.555,26.333 19.569 C 26.333 19.162,26.246 18.963,26.042 18.901 C 25.740 18.809,25.390 18.659,23.833 17.956 C 21.687 16.987,20.556 16.460,20.141 16.238 C 19.418 15.849,18.692 15.926,18.572 16.403 M225.596 17.708 C 225.430 18.281,225.191 19.071,225.064 19.464 C 224.680 20.652,224.692 20.667,226.000 20.667 C 226.775 20.667,227.167 20.602,227.167 20.473 C 227.167 20.252,226.694 18.585,226.489 18.083 C 226.414 17.900,226.305 17.506,226.246 17.208 C 226.091 16.417,225.934 16.538,225.596 17.708 M18.000 19.786 C 16.090 20.438,17.892 21.692,21.436 22.177 C 24.758 22.632,24.197 23.333,20.511 23.333 C 17.517 23.333,17.000 23.470,17.000 24.260 C 17.000 25.117,17.239 25.167,21.319 25.167 L 24.992 25.167 25.279 24.729 C 25.550 24.315,25.550 24.265,25.278 23.790 C 25.025 23.350,25.019 23.254,25.231 23.019 C 26.220 21.915,25.776 21.357,23.500 20.846 C 22.629 20.651,21.279 20.347,20.500 20.172 C 18.522 19.727,18.283 19.690,18.000 19.786 M13.835 21.996 C 13.725 22.203,13.676 23.434,13.704 25.288 L 13.750 28.250 21.200 28.293 L 28.651 28.337 28.758 27.767 C 28.954 26.719,28.773 22.245,28.521 21.942 C 27.660 20.906,27.095 21.804,27.025 24.317 C 26.947 27.099,27.566 26.833,21.180 26.833 C 14.751 26.833,15.333 27.068,15.333 24.478 C 15.333 22.113,15.202 21.667,14.510 21.667 C 14.184 21.667,13.951 21.781,13.835 21.996 " stroke="none" fill="#f38324" fill-rule="evenodd"></path><path id="path1" d="M282.685 12.844 C 277.746 13.724,277.792 19.009,282.750 20.231 C 283.392 20.390,284.147 20.590,284.428 20.676 C 284.710 20.763,285.056 20.833,285.198 20.833 C 285.546 20.833,286.333 21.469,286.333 21.750 C 286.333 22.271,285.825 22.500,284.668 22.500 C 283.217 22.500,283.057 22.432,282.653 21.640 L 282.321 20.988 280.619 21.036 L 278.917 21.083 278.974 21.830 C 279.155 24.200,280.914 25.238,284.750 25.241 C 288.575 25.244,290.333 23.986,290.333 21.245 C 290.333 19.032,289.074 18.077,285.050 17.240 C 282.541 16.718,282.279 15.333,284.688 15.333 C 285.531 15.333,285.929 15.547,286.253 16.172 L 286.509 16.667 288.254 16.667 L 290.000 16.667 290.000 16.160 C 290.000 13.780,286.454 12.172,282.685 12.844 M316.875 12.825 C 313.049 13.431,311.667 17.756,314.750 19.472 C 315.025 19.625,315.287 19.790,315.333 19.838 C 315.379 19.887,315.979 20.060,316.667 20.223 C 319.885 20.986,320.333 21.171,320.333 21.741 C 320.333 22.958,317.015 22.791,316.687 21.558 L 316.560 21.083 314.905 21.041 C 312.817 20.988,312.691 21.058,312.971 22.116 C 313.586 24.437,315.038 25.236,318.650 25.240 C 322.711 25.244,324.253 24.122,324.248 21.167 C 324.244 18.953,323.125 18.064,319.417 17.327 C 317.244 16.895,316.405 16.067,317.591 15.527 C 318.669 15.036,320.333 15.533,320.333 16.345 C 320.333 16.643,320.468 16.667,322.189 16.667 L 324.045 16.667 323.946 15.942 C 323.621 13.569,320.596 12.235,316.875 12.825 M352.710 12.851 C 348.620 13.533,346.679 18.028,348.552 22.482 C 349.618 25.017,354.163 26.189,357.180 24.706 C 358.439 24.087,358.667 24.050,358.667 24.467 C 358.667 24.971,359.026 25.167,359.950 25.167 L 360.833 25.167 360.833 21.750 L 360.833 18.333 357.576 18.333 L 354.319 18.333 354.368 19.542 L 354.417 20.750 355.792 20.798 C 357.305 20.852,357.282 20.837,356.892 21.497 C 356.129 22.788,353.675 22.837,352.500 21.585 C 351.885 20.929,351.773 17.656,352.335 16.747 C 353.297 15.191,356.236 15.167,356.967 16.708 L 357.185 17.167 359.009 17.167 L 360.833 17.167 360.830 16.708 C 360.808 14.012,356.895 12.154,352.710 12.851 M234.500 19.000 L 234.500 25.167 236.250 25.167 L 238.000 25.167 238.000 22.361 C 238.000 20.818,238.044 19.512,238.097 19.458 C 238.194 19.362,238.891 20.097,240.667 22.165 C 243.511 25.479,243.088 25.192,245.038 25.131 L 246.583 25.083 246.627 18.958 L 246.671 12.833 244.919 12.833 L 243.167 12.833 243.155 15.542 C 243.139 19.254,243.247 19.198,241.083 16.633 C 240.075 15.438,238.971 14.150,238.629 13.772 C 238.288 13.393,238.007 13.027,238.004 12.958 C 238.002 12.890,237.213 12.833,236.250 12.833 L 234.500 12.833 234.500 19.000 M249.500 19.005 L 249.500 25.178 251.375 25.130 L 253.250 25.083 253.333 23.703 L 253.417 22.323 254.390 21.494 C 255.601 20.461,255.352 20.279,257.133 23.500 C 257.361 23.912,257.692 24.456,257.869 24.708 L 258.189 25.167 260.345 25.167 C 261.645 25.167,262.500 25.102,262.500 25.003 C 262.500 24.913,261.578 23.357,260.450 21.545 C 259.323 19.733,258.353 18.171,258.294 18.074 C 258.235 17.977,259.157 16.785,260.343 15.424 C 261.530 14.064,262.500 12.924,262.500 12.892 C 262.500 12.860,261.427 12.833,260.116 12.833 L 257.732 12.833 255.661 15.333 C 254.522 16.708,253.532 17.833,253.462 17.833 C 253.391 17.833,253.333 16.708,253.333 15.333 L 253.333 12.833 251.417 12.833 L 249.500 12.833 249.500 19.005 M264.401 13.253 C 264.066 14.589,264.430 21.741,264.877 22.606 C 266.712 26.155,274.259 26.324,275.981 22.854 C 276.601 21.605,276.681 20.865,276.631 16.833 L 276.583 12.917 274.713 12.870 C 272.449 12.813,272.683 12.296,272.626 17.478 L 272.583 21.372 271.931 21.936 C 271.188 22.577,270.350 22.682,269.435 22.247 C 268.387 21.750,268.333 21.489,268.333 16.933 L 268.333 12.833 266.420 12.833 C 264.514 12.833,264.506 12.835,264.401 13.253 M292.540 18.958 L 292.583 25.083 294.417 25.083 L 296.250 25.083 296.296 22.787 L 296.343 20.490 298.546 20.537 L 300.750 20.583 300.833 22.833 L 300.917 25.083 302.792 25.130 L 304.667 25.178 304.667 19.005 L 304.667 12.833 302.755 12.833 L 300.843 12.833 300.797 15.042 L 300.750 17.250 298.583 17.250 L 296.417 17.250 296.370 15.042 L 296.324 12.833 294.410 12.833 L 292.496 12.833 292.540 18.958 M326.706 18.958 L 326.750 25.083 328.625 25.130 L 330.500 25.178 330.500 19.005 L 330.500 12.833 328.581 12.833 L 326.663 12.833 326.706 18.958 M333.444 12.944 C 333.283 13.105,333.313 24.709,333.475 24.965 C 333.574 25.122,334.054 25.167,335.264 25.131 L 336.917 25.083 336.962 22.280 C 337.018 18.888,336.854 18.918,339.405 21.833 C 340.488 23.071,341.594 24.330,341.863 24.631 L 342.352 25.179 343.968 25.131 L 345.583 25.083 345.627 18.958 L 345.671 12.833 343.937 12.833 C 341.838 12.833,342.001 12.562,341.995 16.055 L 341.991 18.750 341.454 18.159 C 341.158 17.835,340.542 17.125,340.083 16.583 C 339.625 16.040,338.950 15.253,338.583 14.834 C 338.217 14.414,337.697 13.793,337.428 13.452 L 336.940 12.833 335.248 12.833 C 334.317 12.833,333.506 12.883,333.444 12.944 M363.540 18.958 L 363.583 25.083 365.309 25.131 C 367.583 25.194,367.500 25.288,367.500 22.641 L 367.500 20.490 369.625 20.537 L 371.750 20.583 371.833 22.833 L 371.917 25.083 373.750 25.083 L 375.583 25.083 375.627 18.958 L 375.671 12.833 373.757 12.833 L 371.843 12.833 371.797 15.042 L 371.750 17.250 369.625 17.297 L 367.500 17.343 367.500 15.352 C 367.500 12.643,367.659 12.833,365.397 12.833 L 363.496 12.833 363.540 18.958 M223.278 14.287 C 223.021 15.000,222.747 15.733,222.668 15.917 C 222.589 16.100,222.214 17.112,221.833 18.167 C 221.453 19.221,221.078 20.233,221.001 20.417 C 220.923 20.600,220.673 21.275,220.445 21.917 C 220.216 22.558,219.872 23.517,219.681 24.048 C 219.490 24.578,219.333 25.047,219.333 25.090 C 219.333 25.132,220.220 25.167,221.304 25.167 L 223.275 25.167 223.512 24.375 L 223.750 23.583 225.980 23.583 L 228.210 23.583 228.463 24.375 L 228.715 25.167 230.691 25.167 C 232.995 25.167,232.884 25.326,232.097 23.155 C 230.411 18.503,229.410 15.768,228.931 14.500 L 228.395 13.083 226.070 13.037 L 223.745 12.991 223.278 14.287 M40.237 14.149 C 37.510 15.388,38.290 18.217,41.594 19.072 C 43.507 19.568,44.167 20.077,44.167 21.059 C 44.167 22.711,42.261 23.436,39.986 22.648 C 38.886 22.268,38.408 22.387,38.765 22.952 C 39.235 23.697,42.615 23.955,43.826 23.337 C 46.105 22.175,45.728 19.165,43.212 18.436 C 40.149 17.548,40.268 17.601,39.922 16.963 C 38.995 15.254,41.205 14.176,44.031 14.957 C 44.540 15.098,44.663 15.082,44.746 14.867 C 45.092 13.966,41.796 13.441,40.237 14.149 M75.000 14.171 C 71.516 15.786,71.328 21.548,74.703 23.266 C 76.209 24.033,79.535 23.667,79.776 22.707 C 79.922 22.126,79.760 22.086,78.893 22.494 C 75.424 24.124,72.417 21.146,73.580 17.231 C 74.348 14.645,76.708 13.967,79.721 15.468 C 79.797 15.505,79.834 15.322,79.804 15.060 C 79.683 13.995,76.608 13.426,75.000 14.171 M98.417 14.145 C 96.090 15.206,95.059 18.873,96.371 21.417 C 97.946 24.471,102.442 24.515,104.001 21.491 C 106.179 17.268,102.417 12.320,98.417 14.145 M168.750 14.145 C 165.251 15.740,165.163 21.760,168.616 23.346 C 171.785 24.801,174.733 22.665,174.744 18.904 C 174.756 14.987,171.892 12.712,168.750 14.145 M49.363 14.375 C 49.414 14.728,49.504 14.753,50.917 14.796 C 52.955 14.859,52.833 14.559,52.833 19.532 L 52.833 23.667 53.333 23.667 L 53.833 23.667 53.833 19.437 C 53.833 14.511,53.686 14.866,55.759 14.799 C 57.161 14.753,57.253 14.728,57.303 14.375 L 57.357 14.000 53.333 14.000 L 49.310 14.000 49.363 14.375 M63.158 14.458 C 63.066 14.710,62.909 15.142,62.809 15.417 C 62.709 15.692,62.531 16.142,62.414 16.417 C 62.296 16.692,62.083 17.254,61.941 17.667 C 61.798 18.079,61.448 19.017,61.163 19.750 C 60.878 20.483,60.506 21.470,60.337 21.942 C 60.168 22.414,59.949 22.951,59.851 23.134 C 59.711 23.395,59.729 23.488,59.933 23.567 C 60.600 23.823,60.732 23.679,61.346 22.027 C 61.705 21.059,61.849 21.000,63.834 21.000 C 66.240 21.000,66.378 21.063,66.768 22.339 C 67.101 23.427,67.634 23.933,68.031 23.536 C 68.198 23.368,67.350 20.843,66.087 17.750 C 65.975 17.475,65.788 16.987,65.672 16.667 C 65.556 16.346,65.368 15.858,65.255 15.583 C 65.142 15.308,64.955 14.840,64.838 14.542 C 64.542 13.784,63.424 13.729,63.158 14.458 M85.274 14.366 C 84.984 15.447,85.161 23.476,85.477 23.576 C 86.250 23.821,86.333 23.603,86.333 21.325 C 86.333 20.149,86.400 19.145,86.482 19.095 C 86.564 19.044,87.689 20.052,88.984 21.335 C 90.357 22.695,91.469 23.667,91.655 23.667 C 92.632 23.667,92.524 23.476,90.220 21.148 C 88.961 19.876,87.867 18.720,87.788 18.579 C 87.630 18.298,87.600 18.331,90.481 15.625 L 92.211 14.000 91.547 14.000 C 90.837 14.000,90.862 13.981,87.975 16.764 C 86.414 18.269,86.354 18.241,86.297 15.958 L 86.250 14.083 85.813 14.033 C 85.476 13.994,85.353 14.070,85.274 14.366 M108.770 14.447 C 108.834 14.705,109.200 15.704,109.584 16.667 C 109.969 17.629,110.379 18.717,110.497 19.083 C 110.614 19.450,110.766 19.825,110.833 19.917 C 110.901 20.008,111.050 20.383,111.165 20.750 C 111.279 21.117,111.468 21.642,111.583 21.917 C 111.699 22.192,111.888 22.661,112.002 22.960 C 112.325 23.809,113.530 23.916,113.751 23.116 C 113.807 22.915,113.954 22.488,114.079 22.167 C 114.203 21.846,114.360 21.433,114.426 21.250 C 114.595 20.786,115.223 19.125,115.717 17.833 C 115.945 17.237,116.363 16.131,116.645 15.375 L 117.158 14.000 116.654 14.000 C 116.227 14.000,116.112 14.095,115.901 14.625 C 115.764 14.969,115.589 15.400,115.512 15.583 C 115.391 15.873,115.162 16.460,114.665 17.750 C 114.594 17.933,114.290 18.758,113.989 19.583 C 112.825 22.772,112.942 22.808,111.495 18.833 C 111.111 17.779,110.730 16.767,110.648 16.583 C 110.566 16.400,110.327 15.762,110.117 15.167 C 109.684 13.938,108.488 13.300,108.770 14.447 M122.000 18.747 L 122.000 23.494 122.375 23.586 C 123.566 23.880,127.916 23.586,127.970 23.208 C 128.023 22.837,128.005 22.833,125.939 22.833 C 122.917 22.833,123.000 22.891,123.000 20.772 C 123.000 18.695,122.815 18.833,125.597 18.833 C 127.549 18.833,127.667 18.815,127.667 18.503 C 127.667 18.073,127.346 18.008,125.000 17.958 L 123.083 17.917 123.083 16.417 L 123.083 14.917 125.417 14.833 C 127.681 14.752,127.752 14.739,127.803 14.375 L 127.857 14.000 124.928 14.000 L 122.000 14.000 122.000 18.747 M133.539 18.792 L 133.583 23.583 134.000 23.583 C 134.415 23.583,134.417 23.578,134.500 21.667 C 134.598 19.406,134.632 19.333,135.590 19.333 C 137.217 19.333,137.923 19.964,139.093 22.462 C 139.583 23.507,140.138 23.929,140.520 23.547 C 140.721 23.346,139.184 20.293,138.545 19.627 L 138.102 19.164 138.759 18.491 C 139.393 17.841,139.417 17.777,139.417 16.693 C 139.417 14.577,138.581 14.009,135.456 14.004 L 133.495 14.000 133.539 18.792 M145.944 14.111 C 145.619 14.437,145.830 23.476,146.165 23.583 C 146.761 23.772,146.833 23.539,146.833 21.419 C 146.833 18.778,146.785 18.833,149.095 18.833 C 150.410 18.833,150.833 18.781,150.833 18.617 C 150.833 18.126,150.419 18.000,148.806 18.000 C 146.900 18.000,146.833 17.945,146.833 16.376 C 146.833 14.904,146.915 14.848,149.167 14.795 C 151.012 14.752,151.085 14.736,151.137 14.375 C 151.190 14.001,146.303 13.753,145.944 14.111 M156.706 18.792 L 156.750 23.583 159.417 23.625 C 162.123 23.667,162.630 23.579,162.446 23.100 C 162.360 22.875,162.017 22.833,160.267 22.833 C 157.441 22.833,157.667 23.240,157.667 18.155 L 157.667 14.000 157.164 14.000 L 156.662 14.000 156.706 18.792 M179.500 14.197 C 179.500 14.390,179.784 15.559,180.243 17.250 C 180.367 17.708,180.557 18.496,180.665 19.000 C 180.773 19.504,180.959 20.254,181.078 20.667 C 181.198 21.079,181.391 21.849,181.508 22.377 C 181.757 23.500,181.952 23.708,182.685 23.636 L 183.226 23.583 183.689 21.750 C 183.944 20.742,184.240 19.579,184.347 19.167 C 184.453 18.754,184.602 18.154,184.676 17.833 C 185.028 16.316,185.197 15.739,185.329 15.606 C 185.522 15.411,185.933 16.242,186.145 17.256 C 186.240 17.711,186.394 18.383,186.486 18.750 C 186.643 19.370,187.011 20.965,187.313 22.333 C 187.649 23.855,189.333 24.279,189.333 22.842 C 189.333 22.676,189.606 21.500,189.939 20.229 C 190.560 17.859,190.654 17.479,191.054 15.748 C 191.181 15.197,191.339 14.579,191.404 14.373 C 191.511 14.038,191.466 14.000,190.967 14.000 L 190.412 14.000 190.029 15.542 C 189.819 16.390,189.584 17.383,189.507 17.750 C 189.374 18.381,188.698 21.179,188.570 21.625 C 188.339 22.433,187.824 21.218,187.139 18.250 C 186.156 13.993,186.159 14.000,185.433 14.000 C 184.806 14.000,184.681 14.211,184.351 15.833 C 184.151 16.817,183.559 19.195,183.247 20.265 C 183.111 20.731,183.000 21.233,183.000 21.380 C 183.000 22.308,182.260 21.512,182.017 20.322 C 181.876 19.632,181.686 18.863,180.799 15.375 C 180.464 14.056,180.430 14.000,179.975 14.000 C 179.714 14.000,179.500 14.089,179.500 14.197 M101.758 15.079 C 102.950 15.778,103.625 17.464,103.457 19.321 C 102.984 24.535,97.000 24.072,97.000 18.822 C 97.000 15.499,99.337 13.661,101.758 15.079 M171.719 14.854 C 174.954 16.515,173.995 23.000,170.514 23.000 C 166.887 23.000,165.909 16.704,169.250 14.861 C 169.687 14.620,171.255 14.615,171.719 14.854 M137.820 15.238 C 138.661 15.999,138.540 17.638,137.597 18.256 C 136.925 18.697,135.009 18.799,134.724 18.410 C 134.427 18.004,134.415 15.322,134.708 15.017 C 135.008 14.705,137.421 14.877,137.820 15.238 M64.500 16.117 C 64.500 16.239,64.570 16.468,64.656 16.627 C 65.055 17.365,65.813 19.694,65.727 19.917 C 65.600 20.248,62.369 20.287,62.243 19.958 C 62.200 19.844,62.318 19.337,62.506 18.833 C 62.695 18.329,63.005 17.467,63.196 16.917 C 63.729 15.380,64.500 14.908,64.500 16.117 M226.570 18.042 C 226.829 18.890,227.079 19.865,227.126 20.208 L 227.211 20.833 226.032 20.833 C 224.546 20.833,224.556 20.856,225.179 18.801 C 225.465 17.856,225.738 16.952,225.786 16.792 C 225.946 16.252,226.096 16.492,226.570 18.042 " stroke="none" fill="#f6f4f3" fill-rule="evenodd"></path><path id="path2" d="M0.000 19.000 L 0.000 38.000 104.917 38.000 L 209.833 38.000 209.833 19.000 L 209.833 0.000 104.917 0.000 L 0.000 0.000 0.000 19.000 M25.107 10.294 C 25.559 10.731,26.670 12.213,28.632 14.996 L 29.514 16.247 28.966 16.702 C 28.285 17.267,27.333 17.066,27.333 16.357 C 27.333 16.262,26.977 15.711,26.542 15.133 C 26.106 14.555,25.600 13.865,25.417 13.601 C 25.233 13.336,24.933 12.914,24.750 12.663 C 24.567 12.412,24.175 11.868,23.879 11.454 L 23.341 10.702 23.683 10.267 C 24.120 9.711,24.513 9.718,25.107 10.294 M24.333 14.581 C 25.571 15.627,26.672 16.486,26.780 16.491 C 27.451 16.521,27.809 17.744,27.304 18.281 C 26.758 18.862,26.479 18.768,25.128 17.542 C 24.446 16.923,23.202 15.854,22.363 15.167 C 21.043 14.085,20.837 13.847,20.835 13.403 C 20.830 12.050,21.674 12.334,24.333 14.581 M44.550 13.865 C 44.979 14.033,45.012 14.109,44.967 14.815 C 44.910 15.682,44.969 15.666,43.362 15.235 C 41.961 14.860,40.575 15.113,40.317 15.793 C 40.090 16.389,40.277 17.087,40.716 17.283 C 41.393 17.587,42.791 18.000,43.141 18.000 C 45.481 18.000,46.547 22.115,44.546 23.426 C 42.531 24.746,38.252 24.184,38.366 22.614 C 38.427 21.778,38.581 21.759,40.469 22.346 C 42.294 22.914,43.815 22.335,43.828 21.067 C 43.835 20.357,42.734 19.500,41.812 19.500 C 41.403 19.500,40.392 19.209,40.000 18.979 C 39.862 18.899,39.591 18.763,39.396 18.678 C 38.404 18.246,37.982 16.162,38.661 15.048 C 39.563 13.569,42.355 13.008,44.550 13.865 M79.459 14.026 C 80.187 14.373,80.412 14.772,80.305 15.523 C 80.233 16.032,79.784 16.105,79.209 15.702 C 77.564 14.548,74.981 15.030,74.212 16.634 C 73.721 17.658,73.791 20.404,74.327 21.167 C 75.451 22.764,77.393 23.005,79.432 21.802 C 80.463 21.194,80.828 22.625,79.825 23.339 C 76.393 25.783,71.991 23.237,71.985 18.806 C 71.980 14.496,75.595 12.184,79.459 14.026 M102.432 13.963 C 106.316 15.961,105.645 22.932,101.468 23.972 C 97.085 25.063,93.819 20.159,96.088 15.892 C 97.243 13.720,100.208 12.818,102.432 13.963 M172.851 14.053 C 174.828 15.213,175.734 17.750,175.094 20.333 C 173.635 26.228,165.667 24.966,165.667 18.841 C 165.667 14.719,169.561 12.124,172.851 14.053 M57.583 14.417 L 57.583 15.083 56.417 15.124 C 55.775 15.146,55.008 15.206,54.711 15.256 L 54.172 15.347 54.128 19.549 L 54.083 23.750 53.333 23.750 L 52.583 23.750 52.539 19.591 C 52.487 14.801,52.647 15.173,50.643 15.169 C 49.110 15.167,49.000 15.106,49.000 14.264 C 49.000 13.663,49.031 13.659,53.406 13.706 L 57.583 13.750 57.583 14.417 M65.074 14.037 C 65.217 14.241,65.333 14.574,65.333 14.777 C 65.333 14.981,65.403 15.190,65.487 15.242 C 65.572 15.294,65.764 15.730,65.914 16.210 C 66.064 16.690,66.281 17.271,66.397 17.500 C 66.514 17.729,66.710 18.254,66.834 18.667 C 66.958 19.079,67.116 19.492,67.184 19.585 C 67.358 19.822,67.828 21.203,67.831 21.487 C 67.832 21.617,67.930 21.842,68.049 21.987 C 68.877 22.997,68.746 23.833,67.761 23.833 C 66.914 23.833,66.756 23.680,66.470 22.577 C 66.188 21.491,66.222 21.506,63.966 21.503 L 62.016 21.500 61.771 22.042 C 61.637 22.340,61.474 22.771,61.410 23.000 C 61.220 23.676,61.000 23.833,60.247 23.833 C 59.218 23.833,59.224 23.654,60.364 20.711 C 61.501 17.777,62.043 16.354,62.541 15.000 C 63.000 13.749,63.091 13.667,64.011 13.667 C 64.652 13.667,64.867 13.741,65.074 14.037 M86.452 13.800 C 86.580 13.881,86.671 14.501,86.702 15.506 C 86.762 17.473,86.713 17.476,88.906 15.375 C 90.677 13.677,90.693 13.667,91.516 13.667 C 92.744 13.667,92.751 13.986,91.552 15.135 C 91.007 15.656,90.023 16.599,89.364 17.229 C 87.886 18.643,87.755 18.215,90.497 20.936 C 93.163 23.584,93.283 23.835,91.875 23.830 L 90.917 23.828 89.000 21.914 C 86.616 19.535,86.689 19.536,86.630 21.875 L 86.583 23.750 85.850 23.802 C 85.376 23.836,85.067 23.777,84.977 23.636 C 84.746 23.271,84.798 14.102,85.033 13.867 C 85.256 13.644,86.140 13.602,86.452 13.800 M110.065 14.042 C 110.197 14.248,110.399 14.754,110.515 15.167 C 110.630 15.579,110.782 15.994,110.852 16.087 C 110.921 16.181,111.101 16.631,111.250 17.087 C 111.400 17.544,111.630 18.153,111.761 18.442 C 111.893 18.731,112.000 19.050,112.000 19.152 C 112.000 19.254,112.067 19.468,112.150 19.627 C 112.232 19.786,112.431 20.236,112.593 20.627 L 112.886 21.338 113.325 20.294 C 113.567 19.720,113.899 18.819,114.064 18.292 C 114.229 17.765,114.432 17.292,114.515 17.240 C 114.599 17.189,114.667 17.001,114.667 16.823 C 114.667 16.644,114.854 16.110,115.083 15.635 C 115.313 15.160,115.500 14.640,115.500 14.481 C 115.500 13.956,115.988 13.646,116.729 13.700 C 117.346 13.745,117.414 13.793,117.391 14.167 C 117.365 14.581,116.694 16.570,116.453 16.949 C 116.383 17.058,116.177 17.613,115.995 18.183 C 115.813 18.753,115.605 19.301,115.533 19.401 C 115.461 19.501,115.264 19.996,115.094 20.500 C 114.925 21.004,114.722 21.488,114.643 21.575 C 114.565 21.662,114.500 21.859,114.500 22.012 C 114.500 22.165,114.346 22.638,114.159 23.062 L 113.818 23.833 112.919 23.833 C 111.837 23.833,111.911 23.923,111.079 21.583 C 110.916 21.125,110.682 20.525,110.560 20.250 C 110.245 19.541,109.167 16.694,109.167 16.570 C 109.167 16.514,109.062 16.231,108.935 15.942 C 108.466 14.878,108.215 14.078,108.287 13.875 C 108.425 13.487,109.793 13.615,110.065 14.042 M128.133 13.867 C 128.399 14.132,128.388 14.747,128.114 14.974 C 127.988 15.079,126.980 15.176,125.739 15.203 L 123.583 15.250 123.534 16.375 L 123.485 17.500 125.451 17.503 C 127.557 17.505,127.725 17.548,127.905 18.125 C 128.196 19.056,127.998 19.153,125.699 19.203 L 123.583 19.250 123.583 20.750 L 123.583 22.250 125.917 22.333 L 128.250 22.417 128.250 23.083 L 128.250 23.750 125.012 23.795 C 122.533 23.830,121.743 23.791,121.640 23.629 C 121.411 23.269,121.468 14.099,121.700 13.867 C 121.982 13.585,127.852 13.585,128.133 13.867 M138.298 13.982 C 139.642 14.668,140.345 16.356,139.769 17.512 C 139.621 17.808,139.500 18.131,139.500 18.228 C 139.500 18.325,139.294 18.569,139.042 18.771 L 138.583 19.137 138.952 19.531 C 139.458 20.072,141.206 23.468,141.081 23.670 C 141.026 23.760,140.610 23.833,140.156 23.833 L 139.332 23.833 138.570 22.267 C 137.576 20.224,137.315 19.987,135.934 19.876 L 134.844 19.789 134.797 21.769 L 134.750 23.750 134.000 23.750 L 133.250 23.750 133.206 18.919 C 133.181 16.261,133.198 13.993,133.242 13.877 C 133.385 13.505,137.532 13.591,138.298 13.982 M151.467 13.867 C 151.577 13.977,151.667 14.224,151.667 14.417 C 151.667 15.071,151.365 15.167,149.300 15.167 L 147.333 15.167 147.333 16.318 L 147.333 17.470 149.090 17.526 C 151.017 17.589,151.205 17.686,151.127 18.583 L 151.083 19.083 149.208 19.130 L 147.333 19.178 147.333 21.242 C 147.333 23.795,147.320 23.833,146.432 23.833 C 145.309 23.833,145.333 23.945,145.333 18.750 C 145.333 15.330,145.387 14.013,145.533 13.867 C 145.814 13.586,151.186 13.586,151.467 13.867 M158.007 18.000 C 158.057 20.337,158.113 22.269,158.132 22.292 C 158.151 22.315,159.178 22.333,160.413 22.333 C 162.652 22.333,162.661 22.335,162.762 22.737 C 163.019 23.762,163.057 23.750,159.498 23.750 L 156.250 23.750 156.206 18.937 C 156.156 13.558,156.144 13.620,157.236 13.700 L 157.917 13.750 158.007 18.000 M180.752 13.836 C 180.836 13.972,181.883 18.026,182.404 20.232 C 182.621 21.149,183.479 18.571,184.166 14.943 C 184.381 13.805,184.563 13.642,185.546 13.701 L 186.372 13.750 186.684 14.750 C 186.855 15.300,186.996 15.979,186.998 16.258 C 186.999 16.538,187.067 16.838,187.149 16.925 C 187.318 17.104,187.653 18.416,187.786 19.417 C 187.876 20.095,188.240 20.804,188.370 20.554 C 188.531 20.243,189.286 17.204,189.687 15.250 C 189.943 14.001,190.217 13.667,190.986 13.667 C 191.921 13.667,191.951 14.016,191.236 16.583 C 191.083 17.133,190.897 17.883,190.823 18.250 C 190.749 18.617,190.565 19.367,190.415 19.917 C 190.265 20.467,190.075 21.217,189.992 21.583 C 189.909 21.950,189.737 22.587,189.611 23.000 L 189.380 23.750 188.315 23.750 C 187.253 23.750,187.250 23.748,187.202 23.250 C 187.176 22.975,187.082 22.600,186.993 22.417 C 186.904 22.233,186.752 21.708,186.656 21.250 C 186.211 19.136,185.736 17.166,185.574 16.767 C 185.441 16.441,185.200 17.089,184.835 18.750 C 184.423 20.624,184.302 21.111,184.170 21.417 C 184.091 21.600,183.990 22.012,183.945 22.333 C 183.759 23.654,183.599 23.833,182.608 23.833 C 181.559 23.833,181.418 23.710,181.168 22.577 C 181.068 22.122,180.915 21.525,180.829 21.250 C 180.646 20.664,180.134 18.597,179.590 16.250 C 179.378 15.333,179.148 14.445,179.078 14.275 C 178.866 13.758,180.447 13.343,180.752 13.836 M99.250 15.193 C 96.732 16.119,96.613 21.074,99.081 22.242 C 101.325 23.303,103.000 21.836,103.000 18.807 C 103.000 15.977,101.375 14.411,99.250 15.193 M169.583 15.201 C 166.995 16.106,166.820 21.052,169.333 22.280 C 171.491 23.335,173.333 21.745,173.333 18.828 C 173.333 16.027,171.711 14.458,169.583 15.201 M135.125 15.280 C 134.876 15.346,134.833 15.566,134.833 16.784 L 134.833 18.211 136.084 18.130 C 137.660 18.029,138.000 17.771,138.000 16.678 C 138.000 15.571,136.594 14.888,135.125 15.280 M20.141 16.238 C 20.556 16.460,21.687 16.987,23.833 17.956 C 25.390 18.659,25.740 18.809,26.042 18.901 C 26.246 18.963,26.333 19.162,26.333 19.569 C 26.333 20.555,25.297 20.995,24.481 20.355 C 24.262 20.183,23.183 19.623,22.083 19.108 C 18.473 17.421,18.342 17.320,18.572 16.403 C 18.692 15.926,19.418 15.849,20.141 16.238 M63.669 16.826 C 63.571 17.189,63.418 17.531,63.329 17.586 C 63.240 17.641,63.167 17.854,63.167 18.060 C 63.167 18.265,63.097 18.505,63.011 18.592 C 62.926 18.679,62.832 18.975,62.803 19.250 L 62.750 19.750 63.743 19.801 C 65.209 19.876,65.563 19.758,65.278 19.288 C 65.154 19.084,64.955 18.579,64.835 18.167 C 64.264 16.193,63.939 15.820,63.669 16.826 M20.500 20.172 C 21.279 20.347,22.629 20.651,23.500 20.846 C 25.776 21.357,26.220 21.915,25.231 23.019 C 25.019 23.254,25.025 23.350,25.278 23.790 C 25.550 24.265,25.550 24.315,25.279 24.729 L 24.992 25.167 21.319 25.167 C 17.239 25.167,17.000 25.117,17.000 24.260 C 17.000 23.470,17.517 23.333,20.511 23.333 C 24.197 23.333,24.758 22.632,21.436 22.177 C 18.226 21.737,16.845 21.013,17.542 20.134 C 17.950 19.620,18.055 19.621,20.500 20.172 M15.171 22.094 C 15.260 22.329,15.333 23.402,15.333 24.478 C 15.333 27.068,14.751 26.833,21.180 26.833 C 27.566 26.833,26.947 27.099,27.025 24.317 C 27.095 21.804,27.660 20.906,28.521 21.942 C 28.773 22.245,28.954 26.719,28.758 27.767 L 28.651 28.337 21.200 28.293 L 13.750 28.250 13.704 25.288 C 13.654 22.001,13.728 21.667,14.510 21.667 C 14.891 21.667,15.046 21.767,15.171 22.094 " stroke="none" fill="#545454" fill-rule="evenodd"></path><path id="path3" d="M284.294 12.618 C 284.501 12.658,284.801 12.656,284.960 12.615 C 285.120 12.573,284.950 12.540,284.583 12.542 C 284.217 12.544,284.086 12.578,284.294 12.618 M318.294 12.618 C 318.501 12.658,318.801 12.656,318.960 12.615 C 319.120 12.573,318.950 12.540,318.583 12.542 C 318.217 12.544,318.086 12.578,318.294 12.618 M354.294 12.618 C 354.501 12.658,354.801 12.656,354.960 12.615 C 355.120 12.573,354.950 12.540,354.583 12.542 C 354.217 12.544,354.086 12.578,354.294 12.618 M234.409 12.876 C 234.365 12.991,234.350 15.785,234.375 19.084 L 234.421 25.083 234.461 18.964 L 234.500 12.845 236.125 12.791 L 237.750 12.736 236.120 12.702 C 234.939 12.676,234.467 12.724,234.409 12.876 M243.074 12.882 C 243.028 13.000,243.014 14.294,243.042 15.757 L 243.092 18.417 243.130 15.631 L 243.167 12.845 244.875 12.791 L 246.583 12.737 244.870 12.702 C 243.598 12.676,243.135 12.722,243.074 12.882 M249.409 12.876 C 249.365 12.991,249.350 15.822,249.375 19.167 L 249.421 25.250 249.460 19.047 L 249.500 12.844 251.375 12.791 L 253.250 12.738 251.370 12.702 C 249.989 12.676,249.468 12.722,249.409 12.876 M258.875 12.790 C 259.494 12.822,260.506 12.822,261.125 12.790 C 261.744 12.758,261.237 12.732,260.000 12.732 C 258.762 12.732,258.256 12.758,258.875 12.790 M293.458 12.790 C 293.940 12.823,294.727 12.823,295.208 12.790 C 295.690 12.756,295.296 12.728,294.333 12.728 C 293.371 12.728,292.977 12.756,293.458 12.790 M301.792 12.790 C 302.273 12.823,303.060 12.823,303.542 12.790 C 304.023 12.756,303.629 12.728,302.667 12.728 C 301.704 12.728,301.310 12.756,301.792 12.790 M327.625 12.790 C 328.106 12.823,328.894 12.823,329.375 12.790 C 329.856 12.756,329.462 12.728,328.500 12.728 C 327.537 12.728,327.144 12.756,327.625 12.790 M334.375 12.789 C 334.810 12.824,335.523 12.824,335.958 12.789 C 336.394 12.755,336.037 12.727,335.167 12.727 C 334.296 12.727,333.940 12.755,334.375 12.789 M343.131 12.790 C 343.615 12.824,344.365 12.823,344.797 12.789 C 345.230 12.755,344.833 12.727,343.917 12.728 C 343.000 12.728,342.646 12.756,343.131 12.790 M364.548 12.790 C 365.078 12.823,365.903 12.823,366.381 12.789 C 366.859 12.756,366.425 12.729,365.417 12.729 C 364.408 12.729,364.017 12.757,364.548 12.790 M372.881 12.790 C 373.412 12.823,374.237 12.823,374.714 12.789 C 375.192 12.756,374.758 12.729,373.750 12.729 C 372.742 12.729,372.351 12.757,372.881 12.790 M225.917 12.956 C 227.866 12.998,228.284 13.052,228.458 13.285 C 228.573 13.438,228.667 13.489,228.667 13.399 C 228.667 12.920,228.220 12.834,225.925 12.870 L 223.583 12.906 225.917 12.956 M292.370 18.865 C 292.350 22.229,292.390 25.015,292.458 25.058 C 292.572 25.128,292.569 20.400,292.452 14.917 C 292.427 13.725,292.390 15.502,292.370 18.865 M300.703 14.958 L 300.667 17.167 298.588 17.167 L 296.510 17.167 296.455 15.125 L 296.400 13.083 296.408 15.167 L 296.417 17.250 298.545 17.297 C 301.064 17.352,300.861 17.575,300.791 14.824 L 300.739 12.750 300.703 14.958 M345.629 19.000 C 345.604 22.392,345.640 25.167,345.708 25.167 C 345.777 25.167,345.833 22.392,345.833 19.000 C 345.833 15.608,345.798 12.833,345.754 12.833 C 345.710 12.833,345.654 15.608,345.629 19.000 M363.370 18.865 C 363.350 22.229,363.390 25.015,363.458 25.058 C 363.572 25.128,363.569 20.400,363.452 14.917 C 363.427 13.725,363.390 15.502,363.370 18.865 M371.703 14.953 L 371.667 17.157 369.542 17.209 L 367.417 17.261 369.547 17.297 C 372.065 17.340,371.861 17.564,371.791 14.824 L 371.739 12.750 371.703 14.953 M375.629 19.000 C 375.604 22.392,375.640 25.167,375.708 25.167 C 375.777 25.167,375.833 22.392,375.833 19.000 C 375.833 15.608,375.798 12.833,375.754 12.833 C 375.710 12.833,375.654 15.608,375.629 19.000 M304.742 18.917 C 304.742 22.217,304.764 23.590,304.791 21.969 C 304.819 20.348,304.819 17.648,304.791 15.969 C 304.764 14.290,304.742 15.617,304.742 18.917 M326.536 18.948 C 326.516 22.266,326.556 25.015,326.625 25.058 C 326.739 25.128,326.736 20.579,326.619 15.083 C 326.594 13.892,326.556 15.631,326.536 18.948 M330.575 18.917 C 330.575 22.217,330.597 23.590,330.625 21.969 C 330.652 20.348,330.652 17.648,330.625 15.969 C 330.598 14.290,330.575 15.617,330.575 18.917 M246.742 19.000 C 246.742 22.254,246.764 23.585,246.791 21.958 C 246.819 20.331,246.819 17.669,246.791 16.042 C 246.764 14.415,246.742 15.746,246.742 19.000 M41.455 13.787 C 41.750 13.824,42.275 13.824,42.621 13.788 C 42.967 13.752,42.725 13.722,42.083 13.721 C 41.442 13.721,41.159 13.750,41.455 13.787 M76.288 13.787 C 76.584 13.824,77.109 13.824,77.455 13.788 C 77.800 13.752,77.558 13.722,76.917 13.721 C 76.275 13.721,75.992 13.750,76.288 13.787 M99.625 13.787 C 99.923 13.824,100.410 13.824,100.708 13.787 C 101.006 13.750,100.763 13.720,100.167 13.720 C 99.571 13.720,99.327 13.750,99.625 13.787 M169.958 13.787 C 170.256 13.824,170.744 13.824,171.042 13.787 C 171.340 13.750,171.096 13.720,170.500 13.720 C 169.904 13.720,169.660 13.750,169.958 13.787 M39.893 14.065 C 38.170 15.022,37.997 17.559,39.584 18.599 C 39.822 18.755,40.693 19.054,41.520 19.264 C 43.481 19.761,43.985 20.142,43.995 21.133 C 44.008 22.475,42.457 23.074,40.417 22.515 C 38.554 22.004,38.591 22.002,38.532 22.616 C 38.468 23.271,38.913 23.545,40.504 23.834 C 42.899 24.268,45.379 23.268,45.320 21.891 C 45.310 21.656,45.285 21.642,45.213 21.833 C 44.994 22.417,44.429 23.030,43.826 23.337 C 42.615 23.955,39.235 23.697,38.765 22.952 C 38.408 22.387,38.886 22.268,39.986 22.648 C 42.261 23.436,44.167 22.711,44.167 21.059 C 44.167 20.077,43.507 19.568,41.594 19.072 C 38.290 18.217,37.510 15.388,40.237 14.149 C 40.629 13.971,40.775 13.846,40.583 13.853 C 40.400 13.860,40.089 13.955,39.893 14.065 M43.951 14.054 C 45.074 14.466,45.146 15.265,44.031 14.957 C 41.205 14.176,38.995 15.254,39.922 16.963 C 40.268 17.600,40.110 17.530,43.250 18.451 C 44.194 18.728,44.774 19.188,45.098 19.917 C 45.249 20.257,45.322 20.318,45.327 20.109 C 45.347 19.180,44.189 18.394,42.083 17.906 C 40.614 17.566,40.000 17.126,40.000 16.413 C 40.000 14.997,41.836 14.392,43.834 15.152 C 44.661 15.466,44.673 15.466,44.845 15.145 C 45.191 14.498,44.580 13.806,43.697 13.846 C 43.543 13.853,43.657 13.947,43.951 14.054 M49.198 14.375 L 49.250 14.917 50.776 14.964 C 52.784 15.027,52.653 14.712,52.705 19.597 L 52.750 23.750 53.333 23.750 L 53.917 23.750 53.961 19.597 C 54.014 14.712,53.883 15.027,55.890 14.964 L 57.417 14.917 57.469 14.375 L 57.521 13.833 53.333 13.833 L 49.146 13.833 49.198 14.375 M63.064 14.125 C 62.953 14.477,62.534 15.563,62.244 16.250 C 62.128 16.525,61.917 17.087,61.774 17.500 C 61.632 17.912,61.283 18.850,61.000 19.583 C 60.717 20.317,60.367 21.254,60.223 21.667 C 60.079 22.079,59.853 22.628,59.720 22.887 C 59.432 23.449,59.651 23.833,60.259 23.833 C 60.733 23.833,61.132 23.452,61.273 22.863 C 61.332 22.618,61.522 22.135,61.694 21.792 L 62.007 21.167 63.848 21.167 C 66.100 21.167,66.234 21.232,66.615 22.520 C 66.950 23.653,67.407 24.005,68.118 23.681 C 68.510 23.503,68.499 23.357,68.013 22.250 C 67.933 22.067,67.773 21.654,67.658 21.333 C 67.544 21.012,67.358 20.525,67.246 20.250 C 67.133 19.975,66.724 18.887,66.337 17.833 C 65.950 16.779,65.539 15.692,65.425 15.417 C 65.310 15.142,65.121 14.673,65.005 14.375 C 64.751 13.725,63.251 13.532,63.064 14.125 M74.304 14.316 C 71.154 16.314,71.344 21.839,74.620 23.442 C 76.491 24.358,79.642 23.885,80.074 22.624 C 80.345 21.835,80.002 21.729,78.889 22.257 C 75.532 23.852,72.766 21.090,73.823 17.199 C 74.387 15.124,76.698 14.259,78.871 15.311 C 79.806 15.764,80.167 15.767,80.167 15.322 C 80.167 14.576,79.231 13.813,78.355 13.843 C 78.205 13.848,78.384 13.979,78.752 14.134 C 79.120 14.290,79.514 14.477,79.627 14.552 C 79.845 14.694,79.923 15.574,79.708 15.463 C 76.778 13.955,74.344 14.657,73.580 17.231 C 72.417 21.146,75.424 24.124,78.893 22.494 C 79.760 22.086,79.922 22.126,79.776 22.707 C 79.535 23.667,76.209 24.033,74.703 23.266 C 71.329 21.549,71.519 15.754,75.000 14.180 C 75.474 13.966,75.624 13.839,75.408 13.837 C 75.219 13.835,74.723 14.050,74.304 14.316 M85.119 13.937 C 84.771 14.284,84.994 23.485,85.354 23.678 C 86.265 24.165,86.500 23.719,86.500 21.504 C 86.500 18.986,86.403 18.980,89.083 21.667 C 90.906 23.493,91.324 23.833,91.748 23.831 C 92.255 23.828,92.807 23.589,92.662 23.435 C 92.619 23.389,91.552 22.306,90.292 21.029 C 89.031 19.752,88.000 18.602,88.000 18.474 C 88.000 18.346,88.975 17.319,90.167 16.192 C 92.606 13.885,92.637 13.831,91.542 13.841 C 90.765 13.848,90.713 13.883,88.833 15.672 C 86.448 17.941,86.523 17.940,86.464 15.708 L 86.417 13.917 85.827 13.867 C 85.503 13.840,85.185 13.871,85.119 13.937 M97.972 14.171 C 96.389 15.007,95.576 16.814,95.703 19.218 C 96.054 25.908,104.889 25.407,104.826 18.700 C 104.805 16.429,103.087 13.833,101.605 13.833 C 101.402 13.833,101.611 14.004,102.130 14.263 C 106.481 16.431,104.940 23.667,100.128 23.667 C 95.372 23.667,94.021 16.150,98.417 14.145 C 98.783 13.978,98.971 13.842,98.833 13.844 C 98.696 13.846,98.308 13.993,97.972 14.171 M108.470 13.919 C 108.380 14.009,108.844 15.404,109.412 16.750 C 109.528 17.025,110.015 18.300,110.495 19.583 C 110.974 20.867,111.463 22.142,111.581 22.417 C 111.700 22.692,111.847 23.085,111.909 23.291 C 112.043 23.736,112.704 23.943,113.311 23.730 C 113.659 23.607,113.849 23.292,114.305 22.081 C 114.615 21.257,114.963 20.358,115.079 20.083 C 115.195 19.808,115.495 19.021,115.745 18.333 C 115.994 17.646,116.296 16.858,116.414 16.583 C 116.532 16.308,116.727 15.783,116.848 15.417 C 116.969 15.050,117.128 14.679,117.201 14.592 C 117.588 14.130,117.338 13.814,116.627 13.865 L 115.922 13.917 114.697 17.167 C 114.024 18.954,113.340 20.740,113.178 21.136 L 112.884 21.855 112.542 21.053 C 112.355 20.611,112.084 19.912,111.942 19.500 C 111.800 19.087,111.483 18.225,111.239 17.583 C 110.995 16.942,110.589 15.854,110.338 15.167 C 109.891 13.943,109.025 13.364,108.470 13.919 M121.778 13.944 C 121.717 14.006,121.667 16.178,121.667 18.772 C 121.667 24.437,121.259 23.858,125.205 23.796 L 128.083 23.750 128.083 23.167 L 128.083 22.583 126.000 22.543 C 122.944 22.483,123.167 22.624,123.167 20.747 C 123.167 19.878,123.185 19.156,123.208 19.142 C 123.231 19.129,124.263 19.073,125.500 19.017 L 127.750 18.917 127.750 18.417 L 127.750 17.917 125.677 17.870 C 123.213 17.814,123.167 17.787,123.167 16.417 C 123.167 15.041,123.206 15.019,125.743 14.964 C 127.988 14.914,128.372 14.775,128.115 14.106 C 128.007 13.824,122.051 13.672,121.778 13.944 M133.333 18.739 C 133.333 23.498,133.343 23.647,133.667 23.750 C 134.536 24.026,134.653 23.796,134.703 21.699 L 134.750 19.750 135.750 19.705 C 137.210 19.639,137.591 19.935,138.582 21.905 C 139.029 22.794,139.538 23.598,139.713 23.691 C 140.123 23.911,140.833 23.733,140.833 23.412 C 140.833 23.092,139.431 20.420,138.883 19.695 L 138.463 19.140 138.908 18.676 C 139.633 17.919,139.892 16.788,139.584 15.727 C 139.151 14.237,138.261 13.833,135.409 13.833 L 133.333 13.833 133.333 18.739 M145.778 13.944 C 145.435 14.287,145.665 23.488,146.021 23.678 C 146.939 24.169,147.152 23.739,147.203 21.297 L 147.250 19.083 149.083 19.000 L 150.917 18.917 150.917 18.417 L 150.917 17.917 149.083 17.833 L 147.250 17.750 147.250 16.417 L 147.250 15.083 149.290 15.037 C 151.403 14.988,151.884 14.757,151.423 14.009 C 151.302 13.815,145.969 13.754,145.778 13.944 M156.434 14.097 C 156.379 14.242,156.333 16.414,156.333 18.924 C 156.333 24.363,155.998 23.834,159.447 23.831 C 162.323 23.828,162.667 23.768,162.667 23.264 C 162.667 22.592,162.377 22.500,160.250 22.500 C 157.617 22.500,157.833 22.906,157.833 17.967 L 157.833 13.833 157.184 13.833 C 156.747 13.833,156.503 13.919,156.434 14.097 M168.374 14.074 C 167.384 14.621,166.148 16.192,166.175 16.868 C 166.180 16.987,166.368 16.713,166.592 16.261 C 167.125 15.185,167.544 14.758,168.561 14.251 C 169.022 14.021,169.253 13.841,169.074 13.850 C 168.896 13.859,168.581 13.960,168.374 14.074 M172.126 14.082 C 175.644 15.611,175.816 21.777,172.384 23.347 C 170.192 24.350,167.166 23.188,166.492 21.083 C 166.375 20.717,166.245 20.518,166.203 20.641 C 166.032 21.151,167.088 22.674,168.021 23.263 C 171.609 25.528,175.768 22.244,174.992 17.760 C 174.638 15.717,173.108 13.809,171.849 13.840 C 171.703 13.843,171.828 13.953,172.126 14.082 M179.296 13.926 C 179.245 13.977,179.266 14.258,179.343 14.551 C 179.684 15.850,180.364 18.591,180.839 20.583 C 181.501 23.361,181.478 23.287,181.773 23.582 C 182.084 23.893,183.061 23.911,183.310 23.611 C 183.458 23.433,184.282 20.361,185.241 16.417 L 185.362 15.917 185.585 16.340 C 185.707 16.573,185.967 17.435,186.162 18.257 C 186.357 19.078,186.719 20.603,186.967 21.647 C 187.467 23.754,187.645 23.968,188.736 23.764 C 189.208 23.675,189.350 23.559,189.425 23.201 C 189.585 22.438,190.339 19.446,190.506 18.908 C 190.695 18.301,190.994 16.947,191.092 16.250 L 191.163 15.750 190.985 16.250 C 190.886 16.525,190.747 17.012,190.675 17.333 C 190.604 17.654,190.272 18.957,189.939 20.229 C 189.606 21.500,189.333 22.676,189.333 22.842 C 189.333 24.279,187.649 23.855,187.313 22.333 C 187.011 20.965,186.643 19.370,186.486 18.750 C 186.394 18.383,186.240 17.711,186.145 17.256 C 185.933 16.242,185.522 15.411,185.329 15.606 C 185.197 15.739,185.028 16.316,184.676 17.833 C 184.602 18.154,184.453 18.754,184.347 19.167 C 184.240 19.579,183.944 20.742,183.689 21.750 L 183.226 23.583 182.685 23.636 C 181.952 23.708,181.757 23.500,181.508 22.377 C 181.391 21.849,181.198 21.079,181.078 20.667 C 180.959 20.254,180.773 19.504,180.665 19.000 C 180.557 18.496,180.367 17.708,180.243 17.250 C 179.361 13.994,179.361 14.000,179.975 14.000 C 180.430 14.000,180.464 14.056,180.799 15.375 C 181.686 18.863,181.876 19.632,182.017 20.322 C 182.190 21.169,182.607 21.890,182.841 21.745 C 183.090 21.591,183.035 20.997,182.780 21.095 C 182.551 21.183,182.167 20.528,182.167 20.048 C 182.167 19.900,182.057 19.398,181.923 18.931 C 181.538 17.589,180.962 15.297,180.873 14.750 C 180.744 13.959,179.771 13.451,179.296 13.926 M184.524 14.375 C 184.431 14.673,184.122 15.892,183.837 17.083 C 183.551 18.275,183.237 19.523,183.139 19.856 C 183.040 20.189,182.992 20.560,183.032 20.680 C 183.072 20.800,183.191 20.565,183.296 20.158 C 183.807 18.179,184.213 16.513,184.351 15.833 C 184.681 14.211,184.806 14.000,185.433 14.000 C 186.159 14.000,186.156 13.993,187.139 18.250 C 187.682 20.605,188.102 21.833,188.364 21.833 C 188.530 21.833,188.524 21.853,188.910 20.167 C 189.068 19.479,189.271 18.718,189.362 18.474 C 189.453 18.231,189.502 17.856,189.471 17.641 C 189.439 17.426,189.194 18.169,188.925 19.292 C 188.343 21.726,188.115 21.831,187.747 19.833 C 187.688 19.512,187.576 19.025,187.498 18.750 C 187.226 17.793,187.004 16.909,186.744 15.750 C 186.325 13.889,186.287 13.833,185.433 13.833 C 184.743 13.833,184.681 13.870,184.524 14.375 M190.289 13.958 C 190.225 14.084,190.015 14.823,189.680 16.103 C 189.581 16.480,189.502 16.892,189.505 17.019 C 189.516 17.510,189.796 16.732,190.099 15.375 L 190.405 14.000 190.970 14.000 C 191.442 14.000,191.516 14.049,191.420 14.292 C 191.357 14.452,191.273 14.846,191.234 15.167 L 191.163 15.750 191.402 15.167 C 191.839 14.102,191.760 13.833,191.010 13.833 C 190.649 13.833,190.324 13.890,190.289 13.958 M57.303 14.375 C 57.253 14.728,57.161 14.753,55.759 14.799 C 53.686 14.866,53.833 14.511,53.833 19.437 L 53.833 23.667 53.333 23.667 L 52.833 23.667 52.833 19.532 C 52.833 14.559,52.955 14.859,50.917 14.796 C 49.504 14.753,49.414 14.728,49.363 14.375 L 49.310 14.000 53.333 14.000 L 57.357 14.000 57.303 14.375 M64.838 14.542 C 64.955 14.840,65.142 15.308,65.255 15.583 C 65.368 15.858,65.556 16.346,65.672 16.667 C 65.788 16.987,65.975 17.475,66.087 17.750 C 67.350 20.843,68.198 23.368,68.031 23.536 C 67.634 23.933,67.101 23.427,66.768 22.339 C 66.378 21.063,66.240 21.000,63.834 21.000 C 61.849 21.000,61.705 21.059,61.346 22.027 C 60.732 23.679,60.600 23.823,59.933 23.567 C 59.729 23.488,59.711 23.395,59.851 23.134 C 59.949 22.951,60.168 22.414,60.337 21.942 C 60.506 21.470,60.878 20.483,61.163 19.750 C 61.448 19.017,61.798 18.079,61.941 17.667 C 62.083 17.254,62.296 16.692,62.414 16.417 C 62.531 16.142,62.709 15.692,62.809 15.417 C 62.909 15.142,63.066 14.710,63.158 14.458 C 63.424 13.729,64.542 13.784,64.838 14.542 M86.297 15.958 C 86.354 18.241,86.414 18.269,87.975 16.764 C 90.862 13.981,90.837 14.000,91.547 14.000 L 92.211 14.000 90.481 15.625 C 87.600 18.331,87.630 18.298,87.788 18.579 C 87.867 18.720,88.961 19.876,90.220 21.148 C 92.524 23.476,92.632 23.667,91.655 23.667 C 91.469 23.667,90.357 22.695,88.984 21.335 C 87.689 20.052,86.564 19.044,86.482 19.095 C 86.400 19.145,86.333 20.149,86.333 21.325 C 86.333 23.603,86.250 23.821,85.477 23.576 C 85.185 23.483,85.167 23.222,85.169 19.114 C 85.172 14.132,85.193 13.961,85.813 14.033 L 86.250 14.083 86.297 15.958 M110.117 15.167 C 110.327 15.762,110.566 16.400,110.648 16.583 C 110.730 16.767,111.111 17.779,111.495 18.833 C 112.942 22.808,112.825 22.772,113.989 19.583 C 114.290 18.758,114.594 17.933,114.665 17.750 C 115.162 16.460,115.391 15.873,115.512 15.583 C 115.589 15.400,115.764 14.969,115.901 14.625 C 116.112 14.095,116.227 14.000,116.654 14.000 L 117.158 14.000 116.645 15.375 C 116.363 16.131,115.945 17.237,115.717 17.833 C 115.223 19.125,114.595 20.786,114.426 21.250 C 114.360 21.433,114.203 21.846,114.079 22.167 C 113.954 22.488,113.807 22.915,113.751 23.116 C 113.530 23.916,112.325 23.809,112.002 22.960 C 111.888 22.661,111.699 22.192,111.583 21.917 C 111.468 21.642,111.279 21.117,111.165 20.750 C 111.050 20.383,110.901 20.008,110.833 19.917 C 110.766 19.825,110.614 19.450,110.497 19.083 C 110.379 18.717,109.969 17.629,109.584 16.667 C 108.548 14.072,108.532 13.966,109.195 14.031 C 109.697 14.080,109.763 14.161,110.117 15.167 M127.803 14.375 C 127.752 14.739,127.681 14.752,125.417 14.833 L 123.083 14.917 123.083 16.417 L 123.083 17.917 125.000 17.958 C 127.346 18.008,127.667 18.073,127.667 18.503 C 127.667 18.815,127.549 18.833,125.597 18.833 C 122.815 18.833,123.000 18.695,123.000 20.772 C 123.000 22.891,122.917 22.833,125.939 22.833 C 128.005 22.833,128.023 22.837,127.970 23.208 C 127.916 23.586,123.566 23.880,122.375 23.586 L 122.000 23.494 122.000 18.747 L 122.000 14.000 124.928 14.000 L 127.857 14.000 127.803 14.375 M138.112 14.323 C 139.641 15.017,139.985 17.235,138.759 18.491 L 138.102 19.164 138.545 19.627 C 139.184 20.293,140.721 23.346,140.520 23.547 C 140.138 23.929,139.583 23.507,139.093 22.462 C 137.923 19.964,137.217 19.333,135.590 19.333 C 134.632 19.333,134.598 19.406,134.500 21.667 C 134.417 23.578,134.415 23.583,134.000 23.583 L 133.583 23.583 133.539 18.792 L 133.495 14.000 135.456 14.004 C 137.019 14.007,137.558 14.071,138.112 14.323 M151.137 14.375 C 151.085 14.736,151.012 14.752,149.167 14.795 C 146.915 14.848,146.833 14.904,146.833 16.376 C 146.833 17.945,146.900 18.000,148.806 18.000 C 150.419 18.000,150.833 18.126,150.833 18.617 C 150.833 18.781,150.410 18.833,149.095 18.833 C 146.785 18.833,146.833 18.778,146.833 21.419 C 146.833 23.539,146.761 23.772,146.165 23.583 C 145.830 23.476,145.619 14.437,145.944 14.111 C 146.303 13.753,151.190 14.001,151.137 14.375 M157.667 18.155 C 157.667 23.240,157.441 22.833,160.267 22.833 C 162.017 22.833,162.360 22.875,162.446 23.100 C 162.630 23.579,162.123 23.667,159.417 23.625 L 156.750 23.583 156.706 18.792 L 156.662 14.000 157.164 14.000 L 157.667 14.000 157.667 18.155 M98.966 14.894 C 95.811 16.294,96.485 22.505,99.842 22.956 C 102.162 23.267,104.124 20.327,103.370 17.667 C 103.231 17.175,103.203 17.338,103.193 18.700 C 103.177 21.000,102.477 22.194,100.861 22.678 C 98.136 23.495,96.093 19.488,97.671 16.423 C 98.793 14.243,101.715 14.319,102.836 16.557 C 102.966 16.818,103.097 16.959,103.127 16.870 C 103.537 15.639,100.518 14.205,98.966 14.894 M169.250 14.861 C 165.909 16.704,166.887 23.000,170.514 23.000 C 173.995 23.000,174.954 16.515,171.719 14.854 C 171.255 14.615,169.687 14.620,169.250 14.861 M134.708 15.017 C 134.415 15.322,134.427 18.004,134.724 18.410 C 135.009 18.799,136.925 18.697,137.597 18.256 C 138.540 17.638,138.661 15.999,137.820 15.238 C 137.421 14.877,135.008 14.705,134.708 15.017 M171.846 15.221 C 173.823 16.266,174.153 20.453,172.380 22.009 C 170.156 23.963,167.500 22.242,167.500 18.848 C 167.500 15.625,169.482 13.970,171.846 15.221 M137.780 15.570 C 138.426 16.320,138.265 17.688,137.483 18.092 C 136.769 18.462,135.006 18.610,134.820 18.317 C 134.648 18.046,134.614 15.664,134.776 15.243 C 134.970 14.738,137.281 14.989,137.780 15.570 M63.807 15.614 C 63.662 15.780,63.387 16.367,63.196 16.917 C 63.005 17.467,62.695 18.329,62.506 18.833 C 62.318 19.337,62.200 19.844,62.243 19.958 C 62.369 20.287,65.600 20.248,65.727 19.917 C 65.813 19.694,65.055 17.365,64.656 16.627 C 64.570 16.468,64.500 16.239,64.500 16.117 C 64.500 15.583,64.093 15.287,63.807 15.614 M283.171 15.744 C 283.060 15.879,283.007 16.085,283.054 16.203 C 283.110 16.341,283.145 16.316,283.154 16.133 C 283.161 15.977,283.298 15.773,283.458 15.680 C 283.619 15.587,283.665 15.508,283.562 15.505 C 283.459 15.502,283.283 15.610,283.171 15.744 M354.460 15.618 C 354.668 15.658,354.968 15.656,355.127 15.615 C 355.286 15.573,355.117 15.540,354.750 15.542 C 354.383 15.544,354.253 15.578,354.460 15.618 M64.497 16.685 C 64.674 17.179,64.972 17.995,65.160 18.498 C 65.719 20.000,65.719 20.000,64.078 20.000 C 62.218 20.000,62.186 19.763,63.610 16.516 C 64.062 15.483,64.067 15.484,64.497 16.685 M313.052 16.583 C 313.053 17.133,313.084 17.338,313.121 17.039 C 313.158 16.739,313.157 16.289,313.119 16.039 C 313.081 15.788,313.051 16.033,313.052 16.583 M357.147 17.214 C 357.219 17.286,358.097 17.323,359.098 17.297 L 360.917 17.248 358.966 17.166 C 357.893 17.120,357.075 17.142,357.147 17.214 M165.937 18.125 C 165.884 18.652,165.906 19.383,165.985 19.750 C 166.104 20.302,166.132 20.136,166.148 18.792 C 166.169 16.968,166.081 16.688,165.937 18.125 M313.464 18.419 C 313.559 18.603,313.811 18.902,314.026 19.084 C 314.403 19.403,314.402 19.397,314.002 18.915 C 313.339 18.116,313.283 18.065,313.464 18.419 M279.834 18.890 C 280.063 19.151,280.400 19.441,280.583 19.536 C 280.934 19.717,280.924 19.706,280.001 18.915 L 279.418 18.417 279.834 18.890 M354.189 19.532 C 354.177 20.145,354.223 20.682,354.292 20.724 C 354.360 20.767,354.395 20.415,354.369 19.943 C 354.289 18.522,354.213 18.349,354.189 19.532 M238.074 19.548 C 238.028 19.667,238.012 20.960,238.038 22.423 L 238.084 25.083 238.167 22.208 C 238.249 19.384,238.239 19.117,238.074 19.548 M336.966 22.318 C 336.939 23.867,336.973 25.101,337.042 25.058 C 337.110 25.015,337.167 23.777,337.167 22.306 C 337.167 19.957,337.198 19.643,337.425 19.730 C 337.574 19.787,337.641 19.759,337.582 19.665 C 337.152 18.969,337.014 19.565,336.966 22.318 M224.720 20.417 C 224.750 20.714,224.880 20.751,225.918 20.761 L 227.083 20.772 225.969 20.712 C 225.096 20.665,224.837 20.591,224.770 20.368 C 224.708 20.158,224.695 20.171,224.720 20.417 M296.399 22.667 C 296.399 23.904,296.425 24.410,296.457 23.792 C 296.489 23.173,296.489 22.160,296.457 21.542 C 296.425 20.923,296.399 21.429,296.399 22.667 M300.634 22.716 C 300.662 23.926,300.737 24.969,300.801 25.034 C 300.865 25.098,300.894 24.161,300.866 22.951 C 300.838 21.740,300.763 20.697,300.699 20.633 C 300.635 20.568,300.606 21.506,300.634 22.716 M324.379 21.167 C 324.379 21.579,324.411 21.748,324.451 21.542 C 324.491 21.335,324.491 20.998,324.451 20.792 C 324.411 20.585,324.379 20.754,324.379 21.167 M371.634 22.716 C 371.662 23.926,371.737 24.969,371.801 25.034 C 371.865 25.098,371.894 24.161,371.866 22.951 C 371.838 21.740,371.763 20.697,371.699 20.633 C 371.635 20.568,371.606 21.506,371.634 22.716 M352.167 21.108 C 352.167 21.198,352.410 21.491,352.708 21.760 L 353.250 22.250 352.750 21.667 C 352.475 21.347,352.231 21.053,352.208 21.015 C 352.185 20.976,352.167 21.018,352.167 21.108 M270.917 22.333 L 270.417 22.461 270.865 22.480 C 271.112 22.491,271.360 22.425,271.417 22.333 C 271.473 22.242,271.496 22.176,271.468 22.186 C 271.440 22.197,271.192 22.263,270.917 22.333 M354.295 22.454 C 354.594 22.491,355.044 22.490,355.295 22.452 C 355.545 22.414,355.300 22.384,354.750 22.385 C 354.200 22.386,353.995 22.417,354.295 22.454 M232.667 24.884 C 232.667 25.117,232.388 25.164,230.708 25.209 L 228.750 25.262 230.714 25.297 C 232.626 25.332,233.220 25.164,232.771 24.715 C 232.713 24.658,232.667 24.734,232.667 24.884 M358.812 25.042 C 358.984 25.260,359.255 25.326,359.895 25.303 L 360.750 25.273 359.921 25.209 C 359.465 25.174,358.977 25.056,358.838 24.948 C 358.615 24.775,358.612 24.787,358.812 25.042 M220.375 25.290 C 220.902 25.323,221.765 25.323,222.292 25.290 C 222.819 25.257,222.387 25.230,221.333 25.230 C 220.279 25.230,219.848 25.257,220.375 25.290 M268.542 25.282 C 268.702 25.323,268.965 25.323,269.125 25.282 C 269.285 25.240,269.154 25.205,268.833 25.205 C 268.512 25.205,268.381 25.240,268.542 25.282 M271.875 25.282 C 272.035 25.323,272.298 25.323,272.458 25.282 C 272.619 25.240,272.487 25.205,272.167 25.205 C 271.846 25.205,271.715 25.240,271.875 25.282 M282.627 25.285 C 282.834 25.324,283.134 25.323,283.294 25.281 C 283.453 25.239,283.283 25.207,282.917 25.209 C 282.550 25.211,282.420 25.245,282.627 25.285 M316.708 25.282 C 316.869 25.323,317.131 25.323,317.292 25.282 C 317.452 25.240,317.321 25.205,317.000 25.205 C 316.679 25.205,316.548 25.240,316.708 25.282 M269.961 25.454 C 270.261 25.491,270.711 25.490,270.961 25.452 C 271.212 25.414,270.967 25.384,270.417 25.385 C 269.867 25.386,269.662 25.417,269.961 25.454 M284.292 25.454 C 284.590 25.491,285.077 25.491,285.375 25.454 C 285.673 25.417,285.429 25.387,284.833 25.387 C 284.237 25.387,283.994 25.417,284.292 25.454 M318.292 25.454 C 318.590 25.491,319.077 25.491,319.375 25.454 C 319.673 25.417,319.429 25.387,318.833 25.387 C 318.237 25.387,317.994 25.417,318.292 25.454 M353.542 25.453 C 353.794 25.491,354.206 25.491,354.458 25.453 C 354.710 25.415,354.504 25.383,354.000 25.383 C 353.496 25.383,353.290 25.415,353.542 25.453 " stroke="none" fill="#a4a4a4" fill-rule="evenodd"></path><path id="path4" d="M41.197 13.537 C 40.282 13.671,39.567 13.956,39.732 14.121 C 39.783 14.172,39.933 14.125,40.065 14.015 C 40.713 13.478,44.348 13.683,44.792 14.283 C 44.973 14.527,45.000 14.529,45.000 14.302 C 45.000 13.769,42.726 13.311,41.197 13.537 M76.133 13.530 C 73.871 13.822,71.973 15.732,72.022 17.667 L 72.037 18.250 72.172 17.568 C 72.815 14.323,75.851 12.829,79.250 14.085 L 79.583 14.208 79.250 13.959 C 78.767 13.599,77.231 13.388,76.133 13.530 M98.727 13.649 C 95.873 14.383,94.497 18.553,96.083 21.661 C 96.604 22.681,97.892 23.839,98.495 23.830 C 98.635 23.827,98.496 23.701,98.185 23.548 C 94.880 21.919,94.768 15.815,98.014 14.160 C 100.083 13.104,102.872 13.786,103.940 15.609 C 104.179 16.016,104.412 16.310,104.459 16.263 C 104.718 16.004,103.319 14.425,102.417 13.957 C 101.687 13.579,99.660 13.409,98.727 13.649 M168.999 13.646 C 164.840 15.007,164.470 21.730,168.446 23.688 C 172.319 25.594,176.293 21.704,175.090 17.184 C 174.864 16.335,174.500 15.681,174.500 16.123 C 174.500 16.228,174.564 16.353,174.642 16.402 C 174.720 16.450,174.875 17.036,174.987 17.703 C 175.629 21.553,173.052 24.489,169.591 23.849 C 165.249 23.046,164.462 16.270,168.451 14.032 C 169.077 13.680,171.988 13.644,172.395 13.982 C 172.549 14.110,172.717 14.172,172.768 14.121 C 173.158 13.731,169.967 13.329,168.999 13.646 M49.114 13.775 C 48.973 13.916,48.966 14.550,49.101 14.903 C 49.182 15.114,49.478 15.167,50.588 15.167 C 52.689 15.167,52.500 14.739,52.500 19.508 C 52.500 21.784,52.556 23.682,52.625 23.724 C 52.826 23.849,52.682 15.469,52.479 15.225 C 52.366 15.088,51.758 14.995,50.776 14.964 L 49.250 14.917 49.198 14.375 L 49.146 13.833 53.333 13.833 L 57.521 13.833 57.469 14.375 L 57.417 14.917 55.890 14.964 C 54.909 14.995,54.301 15.088,54.188 15.225 C 53.985 15.469,53.841 23.849,54.042 23.724 C 54.110 23.682,54.167 21.780,54.167 19.498 L 54.167 15.348 54.708 15.257 C 55.006 15.206,55.775 15.146,56.417 15.124 L 57.583 15.083 57.583 14.417 L 57.583 13.750 53.406 13.706 C 51.108 13.681,49.177 13.712,49.114 13.775 M63.048 13.875 C 62.802 14.197,62.445 15.167,62.538 15.261 C 62.614 15.336,62.810 14.912,63.062 14.125 C 63.269 13.483,64.755 13.731,65.057 14.458 C 65.231 14.877,65.319 14.972,65.325 14.745 C 65.348 13.843,63.587 13.170,63.048 13.875 M85.033 13.867 C 84.822 14.078,84.730 23.038,84.934 23.570 C 84.990 23.715,85.154 23.833,85.300 23.833 C 85.530 23.833,85.527 23.806,85.279 23.625 C 85.020 23.436,84.999 22.984,85.039 18.667 L 85.083 13.917 85.750 13.917 L 86.417 13.917 86.464 15.708 C 86.523 17.940,86.448 17.941,88.833 15.672 C 90.713 13.883,90.765 13.848,91.542 13.841 C 92.637 13.831,92.606 13.885,90.167 16.192 C 88.975 17.319,88.000 18.346,88.000 18.474 C 88.000 18.602,89.031 19.752,90.292 21.029 C 91.552 22.306,92.619 23.389,92.662 23.435 C 92.705 23.481,92.630 23.588,92.495 23.673 C 92.290 23.803,92.297 23.829,92.542 23.831 C 93.206 23.837,92.708 23.133,90.497 20.936 C 87.755 18.215,87.886 18.643,89.364 17.229 C 90.023 16.599,91.007 15.656,91.552 15.135 C 92.751 13.986,92.744 13.667,91.516 13.667 C 90.693 13.667,90.677 13.677,88.906 15.375 C 86.713 17.476,86.762 17.473,86.702 15.506 C 86.671 14.501,86.580 13.881,86.452 13.800 C 86.140 13.602,85.256 13.644,85.033 13.867 M108.287 13.875 C 108.214 14.081,108.486 14.944,108.930 15.917 C 109.312 16.752,109.193 16.131,108.759 15.023 C 108.308 13.872,108.361 13.766,109.342 13.863 C 109.849 13.913,109.909 13.991,110.338 15.167 C 110.589 15.854,110.995 16.942,111.239 17.583 C 111.483 18.225,111.800 19.087,111.942 19.500 C 112.084 19.912,112.355 20.612,112.543 21.055 L 112.886 21.860 113.122 21.305 C 113.491 20.437,113.824 19.435,113.763 19.374 C 113.733 19.344,113.525 19.777,113.301 20.337 L 112.893 21.354 112.596 20.635 C 112.433 20.240,112.232 19.786,112.150 19.627 C 112.067 19.468,112.000 19.254,112.000 19.152 C 112.000 19.050,111.893 18.731,111.761 18.442 C 111.630 18.153,111.400 17.544,111.250 17.087 C 111.101 16.631,110.921 16.181,110.852 16.087 C 110.782 15.994,110.630 15.579,110.515 15.167 C 110.164 13.914,109.929 13.667,109.093 13.667 C 108.658 13.667,108.331 13.751,108.287 13.875 M115.762 13.929 C 115.618 14.073,115.503 14.354,115.507 14.554 C 115.512 14.847,115.558 14.813,115.748 14.375 C 115.958 13.892,116.057 13.833,116.659 13.833 C 117.328 13.833,117.639 14.292,117.167 14.583 C 117.075 14.640,117.005 14.813,117.011 14.968 C 117.017 15.140,117.124 15.044,117.284 14.723 C 117.756 13.777,116.545 13.145,115.762 13.929 M121.700 13.867 C 121.488 14.078,121.397 23.038,121.601 23.570 C 121.657 23.715,121.821 23.833,121.966 23.833 C 122.196 23.833,122.194 23.806,121.946 23.625 C 121.687 23.436,121.665 22.984,121.706 18.667 L 121.750 13.917 124.879 13.871 C 127.665 13.831,128.019 13.856,128.114 14.102 C 128.372 14.776,127.990 14.914,125.743 14.964 C 124.515 14.990,123.512 15.088,123.386 15.192 C 123.093 15.435,123.089 17.394,123.380 17.636 C 123.608 17.825,127.834 17.990,127.834 17.809 C 127.833 17.577,127.227 17.500,125.395 17.500 L 123.485 17.500 123.534 16.375 L 123.583 15.250 125.739 15.203 C 126.980 15.176,127.988 15.079,128.114 14.974 C 128.388 14.747,128.399 14.132,128.133 13.867 C 127.852 13.585,121.982 13.585,121.700 13.867 M133.242 13.877 C 133.043 14.395,133.251 23.723,133.462 23.765 C 133.579 23.789,133.598 23.770,133.504 23.724 C 133.393 23.669,133.333 21.918,133.333 18.736 L 133.333 13.833 135.418 13.833 C 137.671 13.833,138.716 14.121,139.255 14.891 C 139.390 15.083,139.500 15.162,139.500 15.066 C 139.500 14.825,138.858 14.260,138.217 13.936 C 137.527 13.588,133.372 13.538,133.242 13.877 M145.533 13.867 C 145.387 14.013,145.333 15.330,145.333 18.750 C 145.333 23.540,145.371 23.833,145.982 23.833 C 146.183 23.833,146.176 23.793,145.946 23.625 C 145.687 23.436,145.665 22.984,145.706 18.667 L 145.750 13.917 148.487 13.871 C 151.383 13.822,151.609 13.875,151.436 14.566 C 151.330 14.988,151.319 14.990,149.290 15.037 L 147.250 15.083 147.250 16.417 L 147.250 17.750 149.083 17.833 L 150.917 17.917 150.917 18.417 L 150.917 18.917 149.083 19.000 L 147.250 19.083 147.205 21.250 C 147.168 23.046,147.113 23.452,146.882 23.625 C 146.636 23.809,146.634 23.833,146.867 23.833 C 147.270 23.833,147.333 23.480,147.333 21.242 L 147.333 19.178 149.208 19.130 L 151.083 19.083 151.127 18.583 C 151.205 17.686,151.017 17.589,149.090 17.526 L 147.333 17.470 147.333 16.318 L 147.333 15.167 149.300 15.167 C 151.365 15.167,151.667 15.071,151.667 14.417 C 151.667 13.729,151.403 13.667,148.500 13.667 C 146.570 13.667,145.673 13.727,145.533 13.867 M156.358 13.887 C 155.965 14.361,156.178 23.735,156.583 23.796 C 156.888 23.841,156.892 23.830,156.625 23.665 C 156.359 23.499,156.333 23.086,156.333 18.922 C 156.333 13.691,156.309 13.833,157.184 13.833 L 157.833 13.833 157.833 17.967 C 157.833 22.906,157.617 22.500,160.250 22.500 C 161.596 22.500,162.333 22.566,162.467 22.700 C 162.749 22.982,162.715 23.627,162.413 23.721 C 162.234 23.776,162.246 23.792,162.453 23.773 C 162.787 23.742,162.910 23.328,162.762 22.737 C 162.661 22.335,162.652 22.333,160.413 22.333 C 159.178 22.333,158.151 22.315,158.132 22.292 C 158.113 22.269,158.057 20.337,158.007 18.000 L 157.917 13.750 157.236 13.700 C 156.798 13.668,156.484 13.735,156.358 13.887 M179.182 13.820 C 178.995 13.939,178.985 14.067,179.131 14.443 C 179.232 14.703,179.354 15.067,179.402 15.250 C 179.494 15.600,179.406 14.599,179.307 14.167 C 179.267 13.990,179.413 13.901,179.803 13.864 C 180.490 13.798,180.776 14.025,180.875 14.714 C 180.953 15.263,181.488 17.415,181.923 18.931 C 182.057 19.398,182.167 19.900,182.167 20.048 C 182.167 20.480,182.541 21.181,182.736 21.116 C 182.901 21.061,182.967 20.841,183.247 19.417 C 183.347 18.904,183.067 19.473,182.762 20.399 C 182.598 20.900,182.539 20.730,181.679 17.284 C 181.232 15.489,180.816 13.940,180.756 13.843 C 180.624 13.629,179.509 13.613,179.182 13.820 M184.519 13.894 C 184.408 14.028,184.282 14.425,184.239 14.777 C 184.163 15.401,184.167 15.398,184.419 14.625 C 184.708 13.736,185.897 13.425,186.331 14.125 C 186.497 14.392,186.508 14.388,186.463 14.083 C 186.399 13.652,184.846 13.500,184.519 13.894 M190.099 14.042 C 189.966 14.248,189.781 14.792,189.687 15.250 C 189.326 17.013,189.185 17.599,189.012 18.053 C 188.914 18.311,188.839 18.723,188.845 18.969 C 188.852 19.215,189.080 18.517,189.352 17.417 C 190.253 13.775,190.181 13.931,191.019 13.817 L 191.750 13.717 191.046 13.692 C 190.482 13.672,190.293 13.742,190.099 14.042 M39.050 14.542 C 37.999 15.695,38.229 18.667,39.368 18.667 C 39.473 18.667,39.404 18.498,39.217 18.292 C 38.238 17.217,38.243 15.659,39.228 14.542 C 39.409 14.335,39.521 14.167,39.475 14.167 C 39.429 14.167,39.238 14.335,39.050 14.542 M79.907 14.537 C 80.606 15.534,80.105 15.909,78.871 15.311 C 76.698 14.259,74.387 15.124,73.823 17.199 C 73.131 19.745,74.625 23.010,76.304 22.622 C 76.471 22.583,76.315 22.478,75.917 22.359 C 74.080 21.814,73.179 18.789,74.212 16.634 C 74.981 15.030,77.564 14.548,79.209 15.702 C 79.849 16.150,80.238 16.036,80.302 15.381 C 80.357 14.813,80.099 14.167,79.818 14.167 C 79.724 14.167,79.765 14.333,79.907 14.537 M173.672 14.956 C 174.082 15.418,174.446 15.769,174.482 15.736 C 174.598 15.628,173.663 14.510,173.290 14.310 C 173.065 14.190,173.210 14.435,173.672 14.956 M186.520 14.667 C 186.517 14.804,186.619 15.292,186.746 15.750 C 186.928 16.406,186.977 16.477,186.976 16.083 C 186.975 15.581,186.530 14.199,186.520 14.667 M191.356 15.426 C 191.243 15.879,191.079 16.480,190.992 16.762 C 190.827 17.293,190.780 17.775,190.905 17.650 C 191.043 17.513,191.680 14.956,191.621 14.779 C 191.588 14.681,191.469 14.972,191.356 15.426 M40.796 15.093 C 40.003 15.524,39.762 16.419,40.251 17.118 C 40.489 17.457,42.268 18.120,42.451 17.938 C 42.496 17.893,42.206 17.768,41.808 17.660 C 40.670 17.351,40.357 17.152,40.251 16.672 C 39.960 15.347,41.362 14.699,43.362 15.235 C 44.821 15.626,44.897 15.627,44.958 15.250 C 45.005 14.959,44.991 14.951,44.840 15.193 C 44.681 15.448,44.605 15.444,43.832 15.151 C 42.843 14.775,41.432 14.748,40.796 15.093 M98.822 15.220 C 96.789 16.294,96.554 20.672,98.449 22.162 C 100.672 23.911,103.182 22.096,103.182 18.739 C 103.182 15.591,101.178 13.974,98.822 15.220 M169.138 15.171 C 168.276 15.627,167.328 17.138,167.553 17.700 C 167.608 17.837,167.645 17.807,167.654 17.618 C 167.723 16.038,169.644 14.717,171.228 15.160 C 172.637 15.555,173.181 16.481,173.338 18.750 L 173.442 20.250 173.471 18.811 C 173.532 15.774,171.395 13.979,169.138 15.171 M101.651 15.434 C 103.076 16.276,103.557 19.556,102.500 21.223 C 100.753 23.978,97.333 22.406,97.333 18.848 C 97.333 15.854,99.484 14.154,101.651 15.434 M115.002 15.784 C 114.811 16.215,114.677 16.676,114.703 16.809 C 114.729 16.941,114.916 16.589,115.118 16.025 C 115.555 14.810,115.491 14.678,115.002 15.784 M134.776 15.243 C 134.614 15.664,134.648 18.046,134.820 18.317 C 135.127 18.803,138.000 18.188,138.000 17.637 C 138.000 17.533,137.850 17.584,137.668 17.749 C 137.432 17.962,136.971 18.073,136.084 18.130 L 134.833 18.211 134.833 16.791 C 134.833 15.467,134.858 15.366,135.202 15.276 C 135.667 15.154,137.500 15.338,137.500 15.506 C 137.500 15.575,137.631 15.680,137.792 15.741 C 138.023 15.828,138.008 15.774,137.721 15.484 C 137.223 14.981,134.948 14.795,134.776 15.243 M65.333 15.290 C 65.333 15.369,65.395 15.505,65.471 15.592 C 65.547 15.679,65.709 16.069,65.831 16.459 C 65.954 16.849,66.087 17.135,66.127 17.095 C 66.234 16.988,65.669 15.355,65.487 15.242 C 65.403 15.190,65.333 15.211,65.333 15.290 M116.663 15.947 C 116.551 16.297,116.394 16.655,116.313 16.742 C 116.233 16.829,116.167 17.014,116.167 17.154 C 116.167 17.342,116.222 17.323,116.381 17.079 C 116.666 16.640,117.052 15.496,116.949 15.393 C 116.903 15.348,116.775 15.597,116.663 15.947 M139.607 15.750 C 139.679 16.025,139.737 16.400,139.737 16.583 C 139.737 16.767,139.679 17.142,139.607 17.417 C 139.499 17.830,139.515 17.879,139.697 17.700 C 139.979 17.421,139.972 15.738,139.688 15.458 C 139.517 15.290,139.502 15.347,139.607 15.750 M62.010 16.392 C 61.797 16.917,61.663 17.385,61.712 17.434 C 61.760 17.483,61.892 17.236,62.005 16.886 C 62.118 16.536,62.282 16.159,62.371 16.047 C 62.459 15.936,62.501 15.753,62.464 15.642 C 62.427 15.531,62.223 15.868,62.010 16.392 M63.601 16.546 C 63.123 17.607,63.089 17.734,63.329 17.586 C 63.418 17.531,63.571 17.189,63.669 16.826 C 63.884 16.028,64.030 15.998,64.294 16.697 C 64.404 16.989,64.535 17.188,64.584 17.138 C 64.633 17.089,64.530 16.719,64.354 16.316 L 64.035 15.583 63.601 16.546 M179.506 15.847 C 179.513 16.115,179.896 17.664,180.142 18.417 C 180.453 19.371,180.331 18.330,179.981 17.044 C 179.627 15.743,179.495 15.410,179.506 15.847 M183.864 16.197 C 183.583 17.116,183.291 18.513,183.366 18.588 C 183.404 18.626,183.601 18.010,183.803 17.220 C 184.160 15.822,184.204 15.085,183.864 16.197 M138.045 16.667 C 138.045 17.079,138.078 17.248,138.118 17.042 C 138.157 16.835,138.157 16.498,138.118 16.292 C 138.078 16.085,138.045 16.254,138.045 16.667 M185.251 16.417 C 185.189 16.692,185.070 17.134,184.986 17.400 C 184.761 18.110,184.825 18.327,185.089 17.750 C 185.215 17.475,185.324 17.063,185.332 16.833 L 185.345 16.417 185.583 16.833 C 185.714 17.063,185.825 17.400,185.828 17.583 C 185.838 18.069,186.176 19.213,186.279 19.110 C 186.395 18.994,185.859 16.866,185.580 16.333 L 185.362 15.917 185.251 16.417 M104.607 17.000 C 104.770 17.733,104.775 19.729,104.617 20.500 L 104.497 21.083 104.766 20.500 C 105.085 19.810,105.033 17.295,104.689 16.750 C 104.505 16.459,104.494 16.491,104.607 17.000 M109.167 16.559 C 109.167 16.668,110.152 19.297,110.511 20.147 C 110.604 20.365,110.710 20.512,110.748 20.474 C 110.827 20.395,109.452 16.730,109.279 16.557 C 109.217 16.495,109.167 16.496,109.167 16.559 M187.074 17.167 C 187.139 17.396,187.258 17.846,187.337 18.167 C 187.417 18.487,187.559 19.012,187.652 19.333 L 187.822 19.917 187.758 19.333 C 187.657 18.410,187.314 17.099,187.126 16.917 C 187.009 16.803,186.992 16.882,187.074 17.167 M114.444 17.289 C 114.300 17.523,113.838 18.901,113.843 19.083 C 113.845 19.175,114.032 18.806,114.257 18.264 C 114.610 17.413,114.719 16.844,114.444 17.289 M66.167 17.379 C 66.167 17.520,66.986 19.408,66.993 19.281 C 67.007 19.013,66.457 17.493,66.313 17.404 C 66.233 17.354,66.167 17.343,66.167 17.379 M64.667 17.566 C 64.667 17.848,65.219 19.346,65.353 19.429 C 65.549 19.550,65.548 19.544,65.173 18.518 C 64.863 17.669,64.667 17.300,64.667 17.566 M115.786 18.199 C 115.648 18.594,115.477 19.060,115.406 19.236 C 115.322 19.444,115.338 19.517,115.452 19.447 C 115.649 19.325,116.226 17.670,116.111 17.556 C 116.071 17.515,115.924 17.805,115.786 18.199 M61.199 18.530 C 61.015 19.018,60.523 20.299,60.105 21.376 C 59.396 23.206,59.293 23.833,59.705 23.833 C 59.811 23.833,59.805 23.750,59.688 23.609 C 59.548 23.441,59.602 23.143,59.908 22.401 C 60.131 21.860,60.510 20.892,60.748 20.250 C 60.987 19.608,61.303 18.801,61.451 18.457 C 61.598 18.112,61.677 17.788,61.626 17.737 C 61.574 17.686,61.382 18.043,61.199 18.530 M62.774 18.702 C 62.608 19.226,62.521 19.732,62.580 19.827 C 62.701 20.023,65.500 20.069,65.500 19.875 C 65.500 19.806,64.882 19.750,64.125 19.750 L 62.750 19.750 62.804 19.252 C 62.834 18.978,62.934 18.663,63.026 18.552 C 63.119 18.440,63.167 18.214,63.135 18.050 C 63.101 17.880,62.945 18.163,62.774 18.702 M43.168 18.156 C 45.816 18.961,46.349 22.270,44.028 23.496 C 43.692 23.673,43.520 23.822,43.647 23.826 C 44.558 23.855,45.667 22.305,45.667 21.000 C 45.667 19.565,44.304 17.968,43.118 18.014 C 42.775 18.028,42.779 18.037,43.168 18.156 M138.958 18.598 L 138.498 19.131 139.083 19.999 C 139.404 20.477,139.790 21.125,139.939 21.440 C 140.088 21.755,140.247 21.975,140.292 21.930 C 140.402 21.820,139.386 20.016,138.940 19.527 L 138.583 19.137 139.062 18.754 C 139.325 18.544,139.513 18.303,139.479 18.218 C 139.445 18.134,139.210 18.305,138.958 18.598 M190.542 18.653 C 190.247 19.608,190.297 20.065,190.601 19.197 C 190.740 18.801,190.830 18.365,190.802 18.228 C 190.773 18.090,190.656 18.282,190.542 18.653 M127.805 18.527 C 127.751 18.908,127.697 18.919,125.500 19.017 C 124.263 19.073,123.231 19.129,123.208 19.142 C 123.185 19.156,123.167 19.878,123.167 20.747 C 123.167 22.624,122.944 22.483,126.000 22.543 L 128.083 22.583 128.083 23.200 C 128.083 23.540,128.145 23.755,128.220 23.680 C 128.296 23.604,128.333 23.289,128.304 22.980 L 128.250 22.417 125.917 22.333 L 123.583 22.250 123.583 20.750 L 123.583 19.250 125.706 19.203 C 127.819 19.157,127.830 19.155,127.935 18.737 C 127.993 18.507,128.000 18.277,127.950 18.228 C 127.901 18.178,127.835 18.313,127.805 18.527 M184.461 19.506 C 184.302 20.190,184.121 20.930,184.060 21.151 C 183.987 21.411,184.009 21.514,184.121 21.445 C 184.217 21.386,184.348 20.980,184.414 20.544 C 184.479 20.107,184.605 19.615,184.693 19.450 C 184.782 19.285,184.831 18.950,184.802 18.706 C 184.767 18.406,184.656 18.665,184.461 19.506 M39.797 18.867 C 40.006 19.125,40.496 19.271,41.667 19.426 C 41.987 19.469,41.756 19.365,41.153 19.196 C 40.550 19.026,39.950 18.824,39.820 18.745 C 39.623 18.627,39.619 18.647,39.797 18.867 M180.333 19.136 C 180.333 19.589,181.142 22.457,181.159 22.065 C 181.169 21.828,180.494 19.106,180.402 19.014 C 180.364 18.976,180.333 19.031,180.333 19.136 M186.404 19.833 C 186.535 20.889,186.856 22.247,187.013 22.408 C 187.234 22.636,187.203 22.447,186.740 20.750 C 186.516 19.925,186.364 19.512,186.404 19.833 M42.750 19.778 C 45.209 21.077,43.300 23.227,40.469 22.346 C 38.581 21.759,38.427 21.778,38.366 22.614 C 38.282 23.765,41.158 24.619,43.000 23.991 C 43.280 23.896,43.115 23.879,42.497 23.939 C 40.435 24.140,38.448 23.477,38.532 22.616 C 38.591 22.002,38.554 22.004,40.417 22.515 C 42.457 23.074,44.008 22.475,43.995 21.133 C 43.987 20.376,43.175 19.489,42.505 19.507 C 42.365 19.510,42.475 19.632,42.750 19.778 M67.000 19.707 C 67.000 19.831,67.066 20.005,67.147 20.092 C 67.227 20.179,67.385 20.536,67.496 20.886 C 67.608 21.236,67.734 21.488,67.776 21.446 C 67.882 21.340,67.326 19.682,67.147 19.571 C 67.066 19.521,67.000 19.582,67.000 19.707 M72.023 19.945 C 71.883 23.202,76.932 25.399,79.825 23.339 C 80.869 22.596,80.460 21.222,79.374 21.827 C 79.031 22.018,78.262 22.322,77.667 22.502 C 76.714 22.790,76.674 22.818,77.333 22.730 C 77.746 22.675,78.484 22.442,78.973 22.213 C 80.558 21.469,80.674 22.708,79.093 23.492 C 76.137 24.956,72.670 23.138,72.115 19.833 C 72.056 19.481,72.042 19.499,72.023 19.945 M86.500 21.492 C 86.500 23.208,86.460 23.508,86.208 23.665 C 85.942 23.830,85.945 23.841,86.250 23.796 C 86.557 23.750,86.587 23.600,86.630 21.873 C 86.689 19.536,86.616 19.535,89.000 21.914 C 90.054 22.967,90.991 23.829,91.081 23.830 C 91.171 23.832,90.272 22.858,89.083 21.667 C 86.404 18.982,86.500 18.988,86.500 21.492 M188.568 19.939 C 188.398 20.650,188.324 20.717,188.073 20.385 C 187.947 20.219,187.842 20.174,187.839 20.284 C 187.831 20.559,188.195 21.333,188.331 21.333 C 188.467 21.333,188.871 19.648,188.761 19.539 C 188.718 19.496,188.631 19.676,188.568 19.939 M115.110 19.952 C 115.056 20.116,114.900 20.547,114.763 20.910 C 114.627 21.273,114.547 21.603,114.586 21.642 C 114.625 21.681,114.736 21.496,114.833 21.231 C 114.930 20.967,115.092 20.541,115.194 20.286 C 115.295 20.031,115.340 19.785,115.294 19.738 C 115.247 19.692,115.165 19.788,115.110 19.952 M134.778 19.778 C 134.717 19.839,134.667 20.733,134.667 21.764 C 134.667 22.878,134.597 23.673,134.496 23.724 C 134.402 23.770,134.421 23.789,134.537 23.766 C 134.692 23.734,134.763 23.186,134.797 21.756 L 134.844 19.789 135.936 19.876 C 136.839 19.949,137.115 20.046,137.536 20.440 C 137.815 20.702,138.009 20.804,137.967 20.667 C 137.747 19.946,135.294 19.262,134.778 19.778 M167.507 19.965 C 167.477 21.554,169.623 23.149,171.169 22.686 C 171.873 22.475,173.004 21.600,172.994 21.274 C 172.991 21.169,172.813 21.297,172.599 21.559 C 171.073 23.424,168.643 22.741,167.732 20.190 C 167.567 19.729,167.513 19.675,167.507 19.965 M190.095 20.429 C 190.034 20.673,190.021 20.910,190.067 20.956 C 190.113 21.002,190.201 20.839,190.262 20.595 C 190.323 20.351,190.336 20.114,190.290 20.068 C 190.244 20.022,190.157 20.184,190.095 20.429 M110.842 20.864 C 110.837 21.018,111.028 21.618,111.265 22.197 C 111.847 23.616,111.904 23.718,112.176 23.809 C 112.337 23.862,112.320 23.796,112.122 23.598 C 111.963 23.439,111.833 23.232,111.833 23.138 C 111.833 23.044,111.729 22.731,111.601 22.442 C 111.474 22.153,111.253 21.617,111.110 21.250 C 110.967 20.883,110.847 20.710,110.842 20.864 M138.000 21.051 C 138.000 21.448,139.392 23.833,139.623 23.833 C 139.876 23.833,139.876 23.818,139.625 23.625 C 139.475 23.510,139.084 22.896,138.755 22.259 C 138.158 21.104,138.000 20.850,138.000 21.051 M61.694 21.792 C 61.522 22.135,61.332 22.618,61.273 22.863 C 61.214 23.109,61.048 23.428,60.905 23.572 C 60.761 23.716,60.714 23.833,60.801 23.833 C 61.022 23.833,61.272 23.492,61.410 23.000 C 61.474 22.771,61.639 22.334,61.777 22.029 L 62.028 21.474 64.184 21.529 C 65.941 21.573,66.288 21.545,66.055 21.375 C 65.867 21.238,65.130 21.167,63.888 21.167 L 62.007 21.167 61.694 21.792 M104.197 21.584 C 103.534 23.039,101.990 23.910,100.096 23.899 C 99.338 23.895,98.912 23.945,99.096 24.018 C 100.845 24.703,104.500 22.868,104.500 21.305 C 104.500 21.058,104.391 21.158,104.197 21.584 M189.685 21.993 C 189.563 22.466,189.499 22.888,189.542 22.931 C 189.654 23.043,190.049 21.565,189.971 21.329 C 189.935 21.221,189.806 21.519,189.685 21.993 M183.791 22.250 C 183.724 22.617,183.558 23.129,183.421 23.388 C 183.262 23.690,183.242 23.836,183.365 23.795 C 183.626 23.708,184.024 22.512,183.962 22.000 C 183.923 21.676,183.885 21.732,183.791 22.250 M66.412 22.309 C 66.542 23.147,66.879 23.741,67.251 23.788 C 67.569 23.829,67.570 23.825,67.265 23.695 C 67.080 23.617,66.816 23.180,66.636 22.655 C 66.428 22.049,66.354 21.935,66.412 22.309 M67.833 21.931 C 67.833 22.024,67.898 22.171,67.977 22.258 C 68.356 22.675,68.485 23.491,68.199 23.659 C 67.934 23.813,67.934 23.824,68.198 23.828 C 68.628 23.836,68.709 23.560,68.477 22.874 C 68.266 22.248,67.833 21.614,67.833 21.931 M114.108 22.642 C 113.938 23.116,113.675 23.575,113.524 23.663 C 113.272 23.810,113.273 23.824,113.534 23.828 C 113.838 23.834,114.549 22.456,114.464 22.024 C 114.438 21.891,114.278 22.169,114.108 22.642 M140.339 22.292 C 140.342 22.360,140.454 22.562,140.589 22.740 C 140.888 23.136,140.906 23.610,140.625 23.723 C 140.497 23.775,140.525 23.812,140.698 23.820 C 141.159 23.842,141.200 23.552,140.836 22.839 C 140.515 22.210,140.326 22.002,140.339 22.292 M181.243 22.817 C 181.344 23.436,181.600 23.835,181.895 23.831 C 182.011 23.829,181.998 23.774,181.864 23.689 C 181.743 23.613,181.534 23.258,181.398 22.900 L 181.151 22.250 181.243 22.817 M187.220 23.249 C 187.241 23.603,187.346 23.764,187.583 23.805 C 187.887 23.858,187.892 23.844,187.639 23.640 C 187.486 23.517,187.323 23.267,187.276 23.083 C 187.226 22.889,187.203 22.958,187.220 23.249 " stroke="none" fill="#8d8d8d" fill-rule="evenodd"></path></g></svg>