<svg id="svg" version="1.1" xmlns="http://www.w3.org/2000/svg" xmlns:xlink="http://www.w3.org/1999/xlink" width="400" height="45.55555555555555" viewBox="0, 0, 400,45.55555555555555"><g id="svgg"><path id="path0" d="M250.945 16.729 C 248.529 17.407,247.240 19.770,248.147 21.861 C 248.703 23.145,249.948 23.920,252.250 24.418 C 252.983 24.576,253.733 24.762,253.917 24.831 C 254.100 24.899,254.467 25.022,254.732 25.103 C 256.181 25.546,255.410 26.667,253.656 26.667 C 252.261 26.667,251.886 26.500,251.567 25.737 L 251.329 25.167 249.591 25.167 C 247.641 25.167,247.653 25.160,247.786 26.150 C 248.376 30.553,258.106 30.954,259.358 26.627 C 260.247 23.554,258.594 22.001,253.475 21.098 C 252.151 20.865,251.580 19.892,252.492 19.421 C 253.560 18.869,255.002 19.213,255.340 20.100 C 255.487 20.489,255.543 20.500,257.329 20.500 L 259.167 20.500 259.167 19.942 C 259.167 17.376,254.770 15.657,250.945 16.729 M280.167 16.646 C 278.448 17.025,277.088 18.323,276.909 19.753 C 276.574 22.436,278.220 24.026,281.917 24.589 C 283.771 24.871,284.770 25.706,284.080 26.396 C 283.345 27.132,280.500 26.557,280.500 25.672 C 280.500 25.085,276.937 24.869,276.717 25.442 C 276.551 25.876,276.971 27.192,277.480 27.833 C 278.988 29.733,283.931 30.270,286.485 28.811 C 288.980 27.386,289.170 23.541,286.803 22.379 C 285.704 21.839,283.402 21.167,282.654 21.167 C 282.073 21.167,281.000 20.460,281.000 20.078 C 281.000 18.860,283.630 18.801,284.253 20.005 L 284.509 20.500 286.338 20.500 C 288.377 20.500,288.335 20.531,287.990 19.287 C 287.396 17.147,283.643 15.880,280.167 16.646 M294.624 16.671 C 293.635 16.920,292.470 17.583,291.800 18.277 C 289.433 20.731,289.739 26.717,292.319 28.454 C 294.392 29.850,297.681 30.004,300.035 28.816 C 301.099 28.278,301.500 28.360,301.500 29.115 C 301.500 29.271,301.787 29.333,302.500 29.333 L 303.500 29.333 303.500 25.830 L 303.500 22.326 300.208 22.371 L 296.917 22.417 296.867 23.542 L 296.818 24.667 298.233 24.667 C 299.812 24.667,299.965 24.763,299.578 25.510 C 298.776 27.061,295.942 27.017,294.760 25.436 C 294.345 24.880,294.162 21.816,294.497 21.008 C 295.311 19.042,298.743 18.751,299.613 20.575 L 299.895 21.167 301.721 21.167 L 303.546 21.167 303.448 20.333 C 303.278 18.904,302.202 17.695,300.394 16.906 C 299.638 16.575,295.648 16.413,294.624 16.671 M45.231 16.907 C 44.949 17.640,45.167 17.746,47.133 17.833 C 49.519 17.939,49.328 17.456,49.331 23.375 L 49.333 28.333 50.000 28.333 L 50.667 28.333 50.669 23.375 C 50.672 17.472,50.481 17.955,52.865 17.840 L 54.750 17.750 54.802 17.208 L 54.854 16.667 50.089 16.667 C 46.092 16.667,45.308 16.705,45.231 16.907 M59.333 16.958 C 59.332 17.248,61.032 24.289,61.336 25.254 C 61.423 25.531,61.565 26.131,61.652 26.587 C 61.973 28.278,62.040 28.357,63.112 28.300 L 64.058 28.250 64.285 27.250 C 64.409 26.700,64.574 25.950,64.650 25.583 C 64.844 24.654,65.170 23.385,65.439 22.512 C 65.564 22.106,65.666 21.619,65.666 21.429 C 65.665 21.239,65.775 20.746,65.910 20.333 C 66.045 19.921,66.196 19.377,66.247 19.125 C 66.484 17.950,67.049 19.491,68.095 24.167 C 68.249 24.854,68.472 25.792,68.591 26.250 C 68.709 26.708,68.871 27.346,68.950 27.667 C 69.141 28.438,70.694 28.665,71.001 27.967 C 71.145 27.640,73.111 20.064,73.501 18.333 C 73.918 16.486,73.940 16.667,73.291 16.667 C 72.594 16.667,72.410 16.858,72.165 17.840 C 72.063 18.249,71.583 20.192,71.100 22.158 C 70.616 24.124,70.152 25.754,70.068 25.780 C 69.621 25.921,69.518 25.648,68.827 22.509 C 68.738 22.101,68.592 21.539,68.503 21.259 C 68.414 20.979,68.142 19.907,67.899 18.877 C 67.407 16.793,67.290 16.622,66.409 16.698 C 65.679 16.760,65.564 16.996,64.998 19.583 C 64.797 20.500,64.566 21.475,64.484 21.750 C 64.279 22.443,63.834 24.164,63.732 24.667 C 63.685 24.896,63.612 25.252,63.570 25.458 C 63.528 25.665,63.381 25.833,63.243 25.833 C 62.909 25.833,62.794 25.510,62.085 22.583 C 61.752 21.208,61.371 19.718,61.240 19.273 C 61.108 18.827,61.000 18.329,61.000 18.168 C 61.000 17.344,60.510 16.667,59.914 16.667 C 59.472 16.667,59.333 16.736,59.333 16.958 M79.833 22.500 L 79.833 28.333 80.500 28.333 L 81.167 28.333 81.167 22.500 L 81.167 16.667 80.500 16.667 L 79.833 16.667 79.833 22.500 M86.531 17.208 L 86.583 17.750 88.465 17.833 C 90.853 17.939,90.661 17.455,90.664 23.375 L 90.667 28.333 91.333 28.333 L 92.000 28.333 92.003 23.375 C 92.006 17.455,91.814 17.939,94.202 17.833 L 96.083 17.750 96.136 17.208 L 96.188 16.667 91.333 16.667 L 86.479 16.667 86.531 17.208 M99.657 16.928 C 99.172 17.513,99.650 17.744,101.534 17.833 C 104.028 17.952,103.820 17.465,103.873 23.310 L 103.917 28.250 104.542 28.302 L 105.167 28.353 105.167 23.364 C 105.167 17.452,104.957 17.952,107.483 17.833 L 109.250 17.750 109.250 17.250 L 109.250 16.750 104.564 16.706 C 100.438 16.667,99.852 16.693,99.657 16.928 M114.748 17.042 C 114.698 17.248,114.678 19.854,114.703 22.833 L 114.750 28.250 118.379 28.295 C 122.273 28.343,122.433 28.309,122.007 27.513 C 121.831 27.185,121.684 27.167,119.194 27.167 C 115.979 27.167,116.167 27.312,116.167 24.819 C 116.167 22.488,115.899 22.672,119.292 22.669 C 121.658 22.667,121.667 22.665,121.667 22.283 C 121.667 21.574,121.406 21.500,118.917 21.500 C 116.081 21.500,116.167 21.558,116.167 19.639 C 116.167 17.791,116.092 17.833,119.319 17.833 L 121.827 17.833 121.929 17.426 C 122.113 16.692,121.992 16.667,118.327 16.667 C 114.849 16.667,114.839 16.668,114.748 17.042 M128.500 22.488 L 128.500 28.333 129.167 28.333 L 129.833 28.333 129.833 26.156 C 129.833 23.429,129.878 23.333,131.169 23.333 C 133.134 23.333,133.727 23.862,135.180 26.906 C 135.856 28.320,136.624 28.820,137.214 28.231 C 137.379 28.066,135.416 24.290,134.850 23.684 C 134.210 22.999,134.209 23.019,134.914 22.336 C 136.452 20.845,136.099 18.091,134.250 17.167 C 133.494 16.789,133.187 16.745,130.958 16.696 L 128.500 16.643 128.500 22.488 M190.607 17.208 C 190.475 17.506,189.838 19.212,189.192 21.000 C 188.546 22.787,187.601 25.386,187.092 26.775 C 186.583 28.163,186.167 29.345,186.167 29.400 C 186.167 29.544,189.881 29.519,190.100 29.372 C 190.201 29.305,190.395 28.912,190.531 28.500 L 190.778 27.750 193.097 27.750 L 195.417 27.750 195.680 28.583 L 195.943 29.417 197.892 29.464 C 200.428 29.525,200.402 30.023,198.177 24.000 C 197.889 23.221,197.403 21.871,197.097 21.000 C 196.792 20.129,196.302 18.798,196.009 18.042 L 195.476 16.667 193.162 16.667 L 190.849 16.667 190.607 17.208 M201.778 16.778 C 201.717 16.839,201.667 19.687,201.667 23.108 L 201.667 29.327 202.042 29.421 C 202.248 29.473,203.054 29.493,203.833 29.466 L 205.250 29.417 205.296 26.458 C 205.321 24.831,205.406 23.500,205.485 23.500 C 205.564 23.500,206.294 24.262,207.106 25.193 C 208.757 27.086,210.066 28.549,210.617 29.120 C 210.987 29.502,213.311 29.690,214.070 29.399 C 214.304 29.309,214.333 28.587,214.333 22.977 L 214.333 16.655 212.542 16.703 L 210.750 16.750 210.705 19.792 C 210.679 21.502,210.592 22.833,210.506 22.833 C 210.421 22.833,209.693 22.027,208.889 21.042 C 208.084 20.056,207.385 19.212,207.336 19.167 C 207.288 19.121,206.836 18.596,206.333 18.000 C 205.830 17.404,205.343 16.862,205.251 16.794 C 205.041 16.641,201.929 16.626,201.778 16.778 M217.243 16.876 C 217.199 16.991,217.182 19.859,217.206 23.251 L 217.250 29.417 219.167 29.417 L 221.083 29.417 221.132 28.047 L 221.180 26.678 221.965 26.047 C 222.396 25.700,222.853 25.319,222.978 25.200 C 223.375 24.824,223.720 25.055,224.301 26.084 C 225.028 27.372,225.546 28.281,225.937 28.957 L 226.250 29.498 228.448 29.499 C 229.658 29.500,230.691 29.430,230.744 29.343 C 230.825 29.211,230.034 27.867,228.088 24.833 C 226.577 22.478,226.361 22.088,226.466 21.905 C 226.531 21.792,227.483 20.638,228.583 19.340 C 229.683 18.042,230.608 16.909,230.639 16.823 C 230.672 16.730,229.713 16.667,228.283 16.667 L 225.871 16.667 224.894 17.874 C 224.356 18.538,223.785 19.228,223.624 19.407 C 223.463 19.586,222.938 20.240,222.457 20.860 C 221.193 22.491,221.167 22.460,221.167 19.333 L 221.167 16.667 219.245 16.667 C 217.858 16.667,217.301 16.725,217.243 16.876 M232.728 16.913 C 232.676 17.049,232.662 19.092,232.697 21.455 L 232.760 25.750 233.222 26.701 C 235.287 30.951,243.929 30.503,245.148 26.083 C 245.260 25.676,245.332 23.713,245.332 21.036 L 245.333 16.656 243.375 16.703 L 241.417 16.750 241.333 21.112 C 241.233 26.372,240.946 26.946,238.596 26.594 C 236.916 26.342,236.667 25.559,236.667 20.543 L 236.667 16.667 234.745 16.667 C 233.203 16.667,232.804 16.715,232.728 16.913 M261.778 16.778 C 261.717 16.839,261.667 19.687,261.667 23.108 L 261.667 29.327 262.042 29.421 C 262.248 29.472,263.129 29.492,264.000 29.466 L 265.583 29.417 265.624 27.333 C 265.685 24.201,265.442 24.482,268.046 24.537 L 270.250 24.583 270.296 27.042 L 270.342 29.500 272.074 29.500 C 273.027 29.500,273.925 29.454,274.070 29.399 C 274.304 29.309,274.333 28.587,274.333 22.982 L 274.333 16.667 272.333 16.667 L 270.333 16.667 270.333 19.005 L 270.333 21.343 268.042 21.296 L 265.750 21.250 265.704 18.958 L 265.657 16.667 263.773 16.667 C 262.737 16.667,261.839 16.717,261.778 16.778 M309.705 16.875 C 309.612 16.990,309.311 17.721,309.036 18.500 C 308.760 19.279,308.258 20.667,307.920 21.583 C 307.228 23.456,306.175 26.347,305.565 28.051 C 305.042 29.509,305.032 29.500,307.156 29.500 C 309.158 29.500,309.194 29.483,309.490 28.375 L 309.680 27.667 312.003 27.667 L 314.327 27.667 314.421 28.125 C 314.676 29.376,314.742 29.412,316.825 29.464 C 317.868 29.490,318.784 29.449,318.860 29.373 C 318.980 29.253,318.622 27.960,318.181 26.917 C 318.012 26.518,317.608 25.410,315.900 20.667 C 314.296 16.210,314.732 16.667,312.083 16.667 C 310.517 16.667,309.825 16.727,309.705 16.875 M320.667 23.083 L 320.667 29.500 322.236 29.500 C 324.515 29.500,324.333 29.761,324.333 26.492 C 324.333 23.502,324.399 23.255,325.001 23.964 C 326.348 25.551,329.258 28.884,329.637 29.273 C 329.882 29.526,332.754 29.598,333.127 29.361 C 333.292 29.257,333.328 27.869,333.294 22.989 L 333.250 16.750 331.417 16.750 L 329.583 16.750 329.538 19.792 C 329.513 21.465,329.438 22.829,329.371 22.824 C 329.305 22.819,328.371 21.751,327.296 20.449 C 326.221 19.148,325.068 17.765,324.734 17.375 L 324.125 16.667 322.396 16.667 L 320.667 16.667 320.667 23.083 M336.167 22.983 L 336.167 29.327 336.605 29.437 C 338.668 29.955,344.742 29.225,346.048 28.302 C 348.972 26.237,349.135 20.221,346.328 17.972 C 345.052 16.950,344.140 16.768,339.958 16.700 L 336.167 16.639 336.167 22.983 M350.706 23.042 L 350.750 29.417 352.333 29.466 C 354.835 29.543,354.650 29.739,354.704 26.956 L 354.750 24.583 356.958 24.537 L 359.167 24.490 359.167 26.795 C 359.167 29.612,359.081 29.501,361.242 29.497 C 363.565 29.494,363.344 30.194,363.294 22.989 L 363.250 16.750 361.347 16.703 C 359.037 16.645,359.172 16.490,359.169 19.208 L 359.167 21.333 356.917 21.333 L 354.667 21.333 354.667 19.000 L 354.667 16.667 352.665 16.667 L 350.663 16.667 350.706 23.042 M366.411 16.870 C 366.366 16.988,366.349 19.859,366.373 23.251 L 366.417 29.417 368.333 29.417 L 370.250 29.417 370.250 23.083 L 370.250 16.750 368.372 16.703 C 366.959 16.667,366.473 16.709,366.411 16.870 M133.528 18.293 C 134.678 18.973,134.554 21.285,133.333 21.917 C 132.607 22.292,130.220 22.352,129.997 22.000 C 129.812 21.708,129.781 18.503,129.961 18.233 C 130.279 17.756,132.688 17.797,133.528 18.293 M343.066 19.974 C 343.896 20.462,344.167 21.205,344.166 22.997 C 344.166 25.600,343.540 26.387,341.461 26.406 L 340.250 26.417 340.205 23.255 C 340.180 21.516,340.196 19.998,340.241 19.880 C 340.367 19.552,342.465 19.622,343.066 19.974 M193.634 21.792 C 193.843 22.502,194.119 23.419,194.247 23.830 C 194.533 24.750,194.442 24.828,193.083 24.828 C 191.630 24.828,191.600 24.784,192.063 23.324 C 192.279 22.642,192.551 21.727,192.667 21.292 C 192.961 20.180,193.196 20.301,193.634 21.792 M312.377 21.178 C 312.455 21.493,312.711 22.377,312.947 23.144 C 313.446 24.771,313.415 24.828,312.000 24.828 C 310.436 24.828,310.452 24.982,311.623 21.285 C 311.910 20.379,312.169 20.342,312.377 21.178 " stroke="none" fill="#f6f7f8" fill-rule="evenodd"></path><path id="path1" d="M0.000 22.750 L 0.000 45.500 79.500 45.500 L 159.000 45.500 159.000 22.750 L 159.000 0.000 79.500 0.000 L 0.000 0.000 0.000 22.750 M32.561 13.989 C 33.935 14.639,33.955 14.643,34.667 14.398 C 35.915 13.968,36.637 14.370,36.173 15.238 C 35.975 15.609,35.981 15.703,36.223 15.970 C 36.570 16.354,36.579 16.894,36.242 17.173 C 35.635 17.677,35.307 18.396,35.086 19.702 C 34.672 22.153,34.325 23.544,34.016 23.985 C 33.851 24.223,33.669 24.610,33.611 24.847 C 33.554 25.084,33.281 25.563,33.004 25.912 C 32.727 26.261,32.500 26.599,32.500 26.664 C 32.500 26.728,32.313 26.999,32.084 27.266 C 31.854 27.532,31.667 27.795,31.667 27.849 C 31.666 28.385,26.962 31.500,26.153 31.500 C 25.978 31.500,25.366 31.667,24.792 31.871 C 23.305 32.400,20.440 32.397,18.667 31.866 C 16.233 31.137,16.090 31.072,15.933 30.629 C 15.681 29.920,15.888 29.724,17.112 29.511 C 18.632 29.245,19.634 28.872,19.835 28.496 C 20.072 28.054,20.063 28.039,19.375 27.684 C 17.990 26.969,17.027 25.555,17.350 24.708 C 17.506 24.298,17.470 24.205,17.008 23.818 C 15.733 22.750,15.025 20.602,15.750 20.000 C 16.076 19.730,16.067 19.258,15.727 18.739 C 15.400 18.240,15.236 16.321,15.450 15.500 C 15.686 14.597,16.594 14.574,17.490 15.448 C 18.600 16.531,20.200 17.556,21.650 18.112 C 24.629 19.254,25.088 19.141,25.572 17.151 C 26.388 13.793,29.331 12.462,32.561 13.989 M55.158 16.491 C 55.456 16.679,55.479 17.754,55.192 18.042 C 55.062 18.172,54.286 18.281,53.117 18.333 L 51.250 18.417 51.206 23.319 C 51.156 28.868,51.194 28.706,49.931 28.633 L 49.083 28.583 49.039 23.458 L 48.995 18.333 47.114 18.333 C 45.874 18.333,45.165 18.265,45.033 18.133 C 44.823 17.923,44.755 16.634,44.944 16.444 C 45.116 16.273,54.884 16.318,55.158 16.491 M60.821 16.489 C 61.051 16.634,61.826 19.400,61.831 20.092 C 61.832 20.280,61.910 20.510,62.004 20.604 C 62.099 20.699,62.222 21.182,62.279 21.679 C 62.336 22.177,62.484 22.731,62.608 22.912 C 62.732 23.093,62.833 23.562,62.833 23.954 C 62.833 24.556,62.885 24.667,63.167 24.667 C 63.437 24.667,63.500 24.556,63.500 24.078 C 63.500 23.754,63.612 23.220,63.750 22.891 C 63.887 22.562,64.000 22.133,63.999 21.938 C 63.999 21.743,64.105 21.246,64.234 20.833 C 64.545 19.847,64.842 18.614,65.018 17.584 C 65.191 16.566,65.483 16.333,66.574 16.336 C 67.710 16.339,67.812 16.435,68.105 17.765 C 68.244 18.399,68.468 19.367,68.602 19.917 C 68.737 20.467,68.909 21.217,68.984 21.583 C 69.059 21.950,69.206 22.461,69.311 22.719 C 69.415 22.977,69.500 23.468,69.500 23.811 C 69.500 24.380,69.728 24.833,70.014 24.833 C 70.077 24.833,70.180 24.422,70.242 23.919 C 70.305 23.417,70.418 22.967,70.492 22.921 C 70.567 22.875,70.679 22.497,70.742 22.080 C 70.804 21.663,71.075 20.445,71.344 19.373 C 71.613 18.300,71.833 17.302,71.833 17.154 C 71.833 16.627,72.412 16.310,73.274 16.365 L 74.083 16.417 74.133 17.188 C 74.168 17.717,74.102 18.041,73.925 18.218 C 73.771 18.372,73.667 18.769,73.667 19.201 C 73.667 19.600,73.564 20.074,73.437 20.255 C 73.311 20.435,73.171 20.883,73.125 21.250 C 73.040 21.936,72.773 23.089,72.162 25.417 C 71.969 26.150,71.752 27.081,71.678 27.486 C 71.508 28.424,71.163 28.667,70.010 28.664 C 68.648 28.660,68.560 28.494,67.682 24.250 C 67.452 23.141,67.157 21.959,66.905 21.144 C 66.774 20.719,66.660 20.194,66.652 19.978 C 66.635 19.534,66.285 20.625,65.904 22.309 C 65.772 22.892,65.612 23.454,65.547 23.559 C 65.483 23.663,65.374 24.086,65.306 24.499 C 65.143 25.495,64.755 27.091,64.475 27.917 L 64.250 28.583 63.144 28.632 C 61.815 28.691,61.567 28.511,61.413 27.373 C 61.353 26.939,61.199 26.347,61.069 26.058 C 60.939 25.769,60.833 25.371,60.833 25.173 C 60.833 24.975,60.728 24.461,60.600 24.031 C 60.472 23.602,60.238 22.650,60.081 21.917 C 59.923 21.183,59.721 20.396,59.631 20.167 C 59.541 19.938,59.405 19.412,59.327 19.000 C 59.250 18.587,59.094 17.937,58.979 17.554 C 58.665 16.503,59.803 15.844,60.821 16.489 M81.399 16.597 C 81.454 16.742,81.500 19.398,81.500 22.500 C 81.500 25.602,81.454 28.258,81.399 28.403 C 81.275 28.725,79.840 28.774,79.533 28.467 C 79.272 28.205,79.246 17.141,79.506 16.656 C 79.733 16.231,81.240 16.184,81.399 16.597 M96.469 17.137 C 96.549 18.256,96.405 18.333,94.232 18.333 L 92.338 18.333 92.294 23.458 L 92.250 28.583 91.333 28.583 L 90.417 28.583 90.333 23.500 L 90.250 18.417 88.427 18.369 C 86.467 18.318,86.245 18.235,86.083 17.498 C 85.822 16.311,85.766 16.323,91.382 16.373 L 96.417 16.417 96.469 17.137 M109.570 16.434 C 109.977 16.591,109.932 17.936,109.511 18.161 C 109.334 18.256,108.396 18.333,107.428 18.333 L 105.667 18.333 105.667 23.399 C 105.667 29.056,105.758 28.667,104.436 28.667 C 103.304 28.667,103.333 28.807,103.333 23.300 L 103.333 18.333 101.423 18.333 C 99.704 18.333,99.494 18.301,99.339 18.011 C 99.106 17.576,99.121 16.779,99.367 16.533 C 99.578 16.322,109.037 16.230,109.570 16.434 M122.302 17.137 C 122.386 18.305,122.314 18.333,119.313 18.333 L 116.667 18.333 116.667 19.667 L 116.667 21.000 118.958 21.002 C 121.659 21.005,122.059 21.133,122.133 22.018 C 122.209 22.916,122.013 22.985,119.238 23.037 L 116.750 23.083 116.703 24.875 L 116.655 26.667 119.213 26.667 C 122.003 26.667,122.233 26.733,122.382 27.582 C 122.571 28.664,122.561 28.667,118.361 28.667 C 115.632 28.667,114.511 28.611,114.367 28.467 C 114.077 28.177,114.080 16.820,114.370 16.530 C 114.520 16.380,115.566 16.339,118.411 16.372 L 122.250 16.417 122.302 17.137 M134.060 16.583 C 134.197 16.721,134.416 16.833,134.547 16.833 C 136.369 16.833,136.896 21.097,135.255 22.559 C 134.872 22.900,134.995 23.452,135.542 23.846 C 135.745 23.992,137.333 27.177,137.333 27.438 C 137.333 27.564,137.400 27.667,137.482 27.667 C 137.739 27.667,137.848 28.198,137.643 28.445 C 137.506 28.610,137.165 28.667,136.515 28.633 L 135.583 28.583 134.804 27.083 C 134.376 26.258,133.896 25.334,133.738 25.029 C 133.305 24.195,132.799 23.943,131.526 23.929 L 130.417 23.917 130.370 26.073 C 130.315 28.601,130.265 28.701,129.098 28.633 L 128.250 28.583 128.206 22.668 C 128.182 19.414,128.198 16.658,128.243 16.543 C 128.370 16.210,133.724 16.248,134.060 16.583 M130.333 19.982 C 130.333 21.914,130.333 21.913,131.996 21.735 C 133.554 21.569,133.822 21.326,133.828 20.071 C 133.836 18.598,133.511 18.333,131.698 18.333 L 130.333 18.333 130.333 19.982 " stroke="none" fill="#545454" fill-rule="evenodd"></path><path id="path2" d="M159.167 22.750 L 159.167 45.500 279.583 45.500 L 400.000 45.500 400.000 22.750 L 400.000 0.000 279.583 0.000 L 159.167 0.000 159.167 22.750 M29.750 13.613 C 27.536 14.106,26.039 15.551,25.848 17.377 C 25.723 18.579,25.618 18.797,25.061 19.009 C 24.563 19.198,22.757 18.966,21.973 18.612 C 19.581 17.532,19.166 17.284,17.699 16.050 C 16.121 14.724,15.667 14.870,15.667 16.706 C 15.667 17.590,15.760 18.028,16.083 18.667 C 16.598 19.683,16.598 19.752,16.083 20.364 C 15.444 21.124,16.056 22.769,17.272 23.556 C 17.830 23.917,17.972 24.356,17.679 24.819 C 17.297 25.423,18.427 26.821,19.792 27.435 C 21.185 28.062,20.565 29.025,18.422 29.564 C 16.783 29.975,16.061 30.598,16.792 30.970 C 19.087 32.139,25.628 32.041,27.105 30.815 C 27.210 30.728,27.633 30.487,28.044 30.278 C 30.056 29.260,32.770 26.332,33.426 24.474 C 33.546 24.134,33.763 23.674,33.910 23.451 C 34.059 23.223,34.324 22.037,34.511 20.760 C 34.845 18.475,35.158 17.630,35.894 17.019 C 36.263 16.712,36.239 16.560,35.750 16.136 C 35.245 15.696,35.229 15.480,35.673 15.078 C 36.192 14.608,35.712 14.448,34.757 14.773 C 33.980 15.038,33.966 15.036,32.945 14.540 C 31.910 14.036,30.424 13.483,30.203 13.519 C 30.137 13.530,29.933 13.572,29.750 13.613 M236.800 16.533 C 236.945 16.678,237.001 17.905,237.003 20.992 L 237.005 25.250 237.507 25.819 C 238.237 26.648,239.743 26.667,240.552 25.858 L 241.083 25.327 241.138 21.040 C 241.203 15.938,241.012 16.333,243.417 16.333 C 245.890 16.333,245.698 15.912,245.633 21.196 C 245.575 25.875,245.505 26.325,244.655 27.567 C 242.442 30.796,234.767 30.446,233.176 27.042 C 233.058 26.790,232.876 26.433,232.772 26.250 C 232.477 25.729,232.407 16.662,232.696 16.478 C 233.050 16.254,236.568 16.301,236.800 16.533 M256.578 16.624 C 257.745 17.036,258.897 18.184,259.255 19.290 C 259.692 20.643,259.660 20.667,257.346 20.667 L 255.349 20.667 255.080 20.100 C 254.685 19.268,253.158 19.009,252.504 19.663 C 251.932 20.235,252.433 20.712,253.842 20.937 C 254.208 20.996,254.548 21.109,254.597 21.189 C 254.646 21.268,254.989 21.333,255.360 21.333 C 255.730 21.333,256.269 21.437,256.558 21.564 C 256.847 21.691,257.325 21.886,257.621 21.999 C 258.264 22.244,259.500 23.536,259.500 23.963 C 259.500 24.130,259.583 24.350,259.685 24.451 C 259.884 24.650,259.816 25.663,259.531 26.728 C 258.897 29.108,255.615 30.327,251.680 29.643 C 249.082 29.191,247.500 27.689,247.500 25.676 L 247.500 25.000 249.501 25.000 L 251.503 25.000 251.763 25.650 C 252.052 26.374,252.315 26.495,253.583 26.495 C 255.847 26.495,255.720 25.204,253.426 24.906 C 250.809 24.566,248.000 23.067,248.000 22.010 C 248.000 21.832,247.925 21.640,247.833 21.583 C 247.742 21.527,247.667 21.002,247.667 20.417 C 247.667 19.832,247.742 19.307,247.833 19.250 C 247.925 19.193,248.000 19.034,248.000 18.896 C 248.000 18.209,249.052 17.289,250.583 16.636 C 251.554 16.222,255.418 16.215,256.578 16.624 M285.833 16.745 C 287.397 17.570,288.122 18.487,288.282 19.845 L 288.380 20.667 286.364 20.667 L 284.349 20.667 284.076 20.091 C 283.844 19.603,283.694 19.500,283.085 19.408 C 281.196 19.125,280.392 20.259,282.125 20.761 C 282.652 20.913,283.256 21.105,283.466 21.186 C 283.677 21.267,284.055 21.333,284.306 21.333 C 287.858 21.333,289.890 25.135,287.846 27.956 C 286.032 30.460,279.305 30.470,277.289 27.971 C 276.789 27.350,276.275 25.678,276.448 25.229 C 276.611 24.804,280.540 24.979,280.659 25.417 C 280.897 26.290,281.084 26.406,282.361 26.467 C 283.738 26.533,284.285 26.301,284.103 25.728 C 283.992 25.378,282.720 24.831,282.022 24.833 C 280.866 24.835,278.203 23.692,277.501 22.893 C 275.541 20.661,276.703 17.661,280.000 16.438 C 280.654 16.195,285.250 16.437,285.833 16.745 M300.250 16.607 C 300.433 16.711,300.874 16.936,301.230 17.107 C 302.656 17.791,303.723 19.317,303.634 20.545 L 303.583 21.250 301.744 21.297 L 299.905 21.344 299.372 20.588 C 299.050 20.130,298.712 19.833,298.513 19.833 C 298.333 19.833,298.140 19.758,298.083 19.667 C 297.929 19.416,296.849 19.466,296.089 19.759 C 294.060 20.540,293.775 24.680,295.652 26.106 C 296.456 26.716,298.528 26.450,299.201 25.649 C 299.816 24.918,299.699 24.833,298.073 24.833 L 296.667 24.833 296.667 23.500 L 296.667 22.167 300.170 22.167 L 303.673 22.167 303.628 25.875 L 303.583 29.583 302.847 29.636 C 301.781 29.712,301.436 29.578,301.218 29.002 L 301.025 28.490 300.132 28.974 C 298.350 29.938,294.469 30.141,293.592 29.316 C 293.505 29.234,293.313 29.167,293.167 29.167 C 292.702 29.167,291.085 27.579,290.762 26.807 C 290.596 26.409,290.375 25.903,290.272 25.683 C 290.025 25.159,290.022 21.016,290.269 20.484 C 290.370 20.263,290.569 19.821,290.710 19.500 C 291.267 18.229,292.694 17.074,294.500 16.434 C 294.976 16.265,299.909 16.413,300.250 16.607 M195.986 17.363 C 196.131 17.792,196.306 18.198,196.375 18.266 C 196.444 18.334,196.500 18.559,196.500 18.768 C 196.500 18.976,196.567 19.188,196.648 19.239 C 196.730 19.289,196.846 19.537,196.906 19.790 C 197.003 20.195,197.629 21.976,198.006 22.917 C 198.080 23.100,198.341 23.813,198.586 24.500 C 198.831 25.188,199.138 25.986,199.266 26.275 C 199.395 26.564,199.500 26.906,199.500 27.036 C 199.500 27.165,199.656 27.593,199.846 27.987 C 200.037 28.381,200.205 28.902,200.221 29.143 L 200.250 29.583 198.040 29.630 C 195.577 29.682,195.800 29.784,195.391 28.417 L 195.242 27.917 193.093 27.917 L 190.944 27.917 190.793 28.417 C 190.402 29.712,190.495 29.667,188.217 29.667 C 185.991 29.667,185.757 29.567,186.127 28.780 C 186.221 28.580,186.424 28.042,186.579 27.583 C 186.733 27.125,186.923 26.600,187.000 26.417 C 187.077 26.233,187.268 25.708,187.424 25.250 C 187.580 24.792,187.802 24.192,187.918 23.917 C 188.035 23.642,188.184 23.229,188.250 23.000 C 188.316 22.771,188.465 22.358,188.582 22.083 C 188.698 21.808,188.920 21.208,189.076 20.750 C 189.232 20.292,189.423 19.767,189.501 19.583 C 189.579 19.400,189.792 18.837,189.973 18.333 C 190.155 17.829,190.384 17.208,190.483 16.954 L 190.662 16.491 193.192 16.537 L 195.722 16.583 195.986 17.363 M206.062 17.375 C 207.125 18.604,207.393 18.922,208.027 19.702 C 208.333 20.079,208.662 20.470,208.759 20.569 C 208.855 20.669,209.286 21.184,209.717 21.715 L 210.500 22.680 210.500 19.590 L 210.500 16.500 212.502 16.500 L 214.504 16.500 214.460 23.042 L 214.417 29.583 212.638 29.631 C 210.551 29.686,211.006 29.991,208.083 26.583 C 207.533 25.941,206.765 25.079,206.377 24.667 L 205.671 23.917 205.669 26.605 C 205.666 29.872,205.800 29.694,203.393 29.631 L 201.583 29.583 201.540 23.251 C 201.516 19.767,201.532 16.824,201.576 16.709 C 201.634 16.559,202.172 16.500,203.481 16.500 L 205.306 16.500 206.062 17.375 M221.507 19.167 C 221.556 20.587,221.614 21.675,221.635 21.583 C 221.657 21.492,221.916 21.143,222.212 20.809 C 222.839 20.101,222.868 20.065,224.479 18.042 L 225.707 16.500 228.260 16.500 C 231.172 16.500,231.433 16.683,230.170 17.833 C 230.120 17.879,229.630 18.440,229.081 19.080 C 228.532 19.720,227.944 20.395,227.775 20.580 C 226.693 21.760,226.382 23.000,227.167 23.000 C 227.237 23.000,227.342 23.131,227.400 23.292 C 227.526 23.642,227.787 24.077,228.292 24.779 C 228.498 25.066,228.667 25.377,228.667 25.470 C 228.667 25.563,228.723 25.664,228.792 25.694 C 228.918 25.751,229.833 27.100,229.833 27.230 C 229.833 27.268,230.096 27.690,230.417 28.167 C 231.425 29.664,231.401 29.683,228.556 29.629 L 226.112 29.583 224.982 27.667 C 224.361 26.613,223.771 25.616,223.672 25.453 C 223.461 25.107,223.339 25.159,222.266 26.059 L 221.500 26.701 221.500 27.997 C 221.500 29.692,221.505 29.689,219.060 29.630 L 217.083 29.583 217.040 23.251 C 217.016 19.767,217.033 16.821,217.078 16.704 C 217.140 16.542,217.676 16.501,219.288 16.537 L 221.417 16.583 221.507 19.167 M265.899 16.764 C 265.954 16.909,266.000 17.998,266.000 19.185 L 266.000 21.344 268.042 21.297 L 270.083 21.250 270.130 18.875 L 270.176 16.500 272.340 16.500 L 274.504 16.500 274.460 23.042 L 274.417 29.583 272.333 29.583 L 270.250 29.583 270.204 27.208 L 270.158 24.833 268.079 24.833 L 266.000 24.833 265.997 27.042 C 265.994 29.868,266.158 29.687,263.654 29.630 L 261.583 29.583 261.540 23.251 C 261.516 19.767,261.532 16.824,261.576 16.709 C 261.708 16.365,265.766 16.417,265.899 16.764 M314.630 16.708 C 314.724 16.823,314.951 17.367,315.135 17.917 C 315.319 18.467,315.745 19.667,316.081 20.583 C 316.418 21.500,316.769 22.475,316.861 22.750 C 316.952 23.025,317.096 23.400,317.180 23.583 C 317.264 23.767,317.555 24.554,317.826 25.333 C 318.097 26.113,318.514 27.275,318.753 27.917 C 319.447 29.781,319.560 29.667,317.019 29.667 C 314.632 29.667,314.533 29.620,314.259 28.373 L 314.140 27.833 312.013 27.833 L 309.887 27.833 309.663 28.542 C 309.304 29.681,309.336 29.667,307.063 29.667 L 305.000 29.667 305.000 29.234 C 305.000 28.995,305.102 28.564,305.228 28.275 C 305.353 27.986,305.659 27.188,305.907 26.500 C 306.419 25.082,306.651 24.464,307.150 23.186 C 307.342 22.693,307.500 22.216,307.500 22.128 C 307.500 22.039,307.602 21.731,307.728 21.442 C 307.958 20.909,308.506 19.436,309.176 17.542 L 309.545 16.500 312.002 16.500 C 313.766 16.500,314.507 16.559,314.630 16.708 M324.857 17.208 C 325.160 17.598,325.449 17.954,325.498 18.000 C 325.547 18.046,326.037 18.618,326.586 19.272 C 327.134 19.926,327.883 20.818,328.250 21.255 C 328.617 21.692,328.992 22.170,329.083 22.316 C 329.200 22.503,329.275 21.679,329.333 19.583 L 329.417 16.583 331.417 16.583 L 333.417 16.583 333.463 22.750 C 333.521 30.471,333.748 29.667,331.511 29.667 L 329.694 29.667 328.889 28.734 C 328.446 28.221,327.874 27.565,327.618 27.276 C 327.362 26.987,326.574 26.089,325.868 25.280 L 324.583 23.811 324.500 26.697 L 324.417 29.583 322.458 29.630 L 320.500 29.677 320.500 23.089 L 320.500 16.500 322.403 16.500 L 324.305 16.500 324.857 17.208 M344.373 16.783 C 346.517 17.406,347.843 18.828,348.337 21.033 C 348.618 22.288,348.491 25.078,348.119 25.817 C 347.962 26.129,347.833 26.456,347.833 26.543 C 347.833 26.846,346.796 28.010,346.108 28.478 C 344.721 29.424,343.802 29.583,339.750 29.583 L 336.083 29.583 336.040 23.036 L 335.996 16.488 339.873 16.545 C 342.005 16.576,344.030 16.683,344.373 16.783 M354.833 18.922 L 354.833 21.344 356.875 21.297 L 358.917 21.250 359.000 18.917 L 359.083 16.583 361.250 16.583 L 363.417 16.583 363.417 23.083 L 363.417 29.583 361.346 29.630 C 358.842 29.687,359.006 29.868,359.003 27.042 L 359.000 24.833 356.921 24.833 L 354.842 24.833 354.796 27.208 L 354.750 29.583 352.667 29.583 L 350.583 29.583 350.540 23.042 L 350.496 16.500 352.665 16.500 L 354.833 16.500 354.833 18.922 M370.494 16.822 C 370.754 17.309,370.729 29.205,370.467 29.467 C 370.334 29.599,369.615 29.667,368.333 29.667 C 367.052 29.667,366.333 29.599,366.200 29.467 C 365.988 29.255,365.895 17.300,366.101 16.764 C 366.270 16.324,370.256 16.377,370.494 16.822 M340.333 23.065 L 340.333 26.333 341.258 26.333 C 342.960 26.333,343.760 25.626,343.929 23.974 C 344.227 21.062,343.598 19.962,341.575 19.860 L 340.333 19.797 340.333 23.065 M192.833 21.226 C 192.833 21.465,192.646 22.218,192.417 22.901 C 191.815 24.694,191.804 24.667,193.103 24.667 C 194.337 24.667,194.271 24.794,193.834 23.250 C 193.731 22.883,193.570 22.270,193.478 21.886 C 193.270 21.017,192.833 20.570,192.833 21.226 M311.853 21.216 C 311.752 21.472,311.625 21.884,311.571 22.132 C 311.517 22.380,311.428 22.696,311.375 22.833 C 310.724 24.500,310.785 24.667,312.046 24.667 L 313.036 24.667 312.952 24.125 C 312.694 22.467,312.041 20.740,311.853 21.216 " stroke="none" fill="#1ca3f3" fill-rule="evenodd"></path><path id="path3" d="M232.696 16.478 C 232.407 16.662,232.477 25.729,232.772 26.250 C 232.876 26.433,233.058 26.790,233.176 27.042 C 234.767 30.446,242.442 30.796,244.655 27.567 C 245.505 26.325,245.575 25.875,245.633 21.196 C 245.698 15.912,245.890 16.333,243.417 16.333 C 241.012 16.333,241.203 15.938,241.138 21.040 L 241.083 25.327 240.552 25.858 C 239.743 26.667,238.237 26.648,237.507 25.819 L 237.005 25.250 237.003 20.992 C 237.001 17.905,236.945 16.678,236.800 16.533 C 236.568 16.301,233.050 16.254,232.696 16.478 M250.583 16.636 C 249.052 17.289,248.000 18.209,248.000 18.896 C 248.000 19.034,247.925 19.193,247.833 19.250 C 247.631 19.375,247.611 21.224,247.808 21.627 C 248.333 22.701,248.560 22.984,249.344 23.542 C 249.828 23.885,250.380 24.165,250.570 24.162 C 250.799 24.160,250.633 24.013,250.083 23.732 C 247.959 22.647,247.287 20.806,248.292 18.822 C 250.214 15.026,259.167 15.948,259.167 19.942 L 259.167 20.500 257.329 20.500 C 255.543 20.500,255.487 20.489,255.340 20.100 C 255.002 19.213,253.560 18.869,252.492 19.421 C 251.579 19.893,252.155 20.871,253.475 21.094 C 253.810 21.150,254.224 21.235,254.396 21.282 C 254.575 21.332,254.666 21.300,254.608 21.206 C 254.553 21.117,254.208 20.996,253.842 20.937 C 252.433 20.712,251.932 20.235,252.504 19.663 C 253.158 19.009,254.685 19.268,255.080 20.100 L 255.349 20.667 257.346 20.667 C 259.660 20.667,259.692 20.643,259.255 19.290 C 258.897 18.184,257.745 17.036,256.578 16.624 C 255.418 16.215,251.554 16.222,250.583 16.636 M280.000 16.438 C 277.252 17.457,275.972 19.651,276.822 21.887 C 277.204 22.891,279.083 24.354,279.690 24.119 C 279.814 24.071,279.655 23.974,279.335 23.903 C 277.095 23.411,276.064 19.987,277.612 18.179 C 278.762 16.835,279.529 16.584,282.500 16.584 C 285.905 16.584,287.451 17.346,287.990 19.287 C 288.335 20.531,288.377 20.500,286.338 20.500 L 284.509 20.500 284.253 20.005 C 283.609 18.760,280.965 18.866,281.019 20.134 C 281.034 20.483,281.057 20.509,281.121 20.250 C 281.406 19.089,283.547 18.977,284.078 20.096 L 284.349 20.667 286.364 20.667 L 288.380 20.667 288.282 19.845 C 288.122 18.487,287.397 17.570,285.833 16.745 C 285.250 16.437,280.654 16.195,280.000 16.438 M294.500 16.434 C 292.694 17.074,291.267 18.229,290.710 19.500 C 290.569 19.821,290.370 20.263,290.269 20.484 C 290.022 21.016,290.025 25.159,290.272 25.683 C 290.375 25.903,290.596 26.409,290.762 26.807 C 291.085 27.579,292.702 29.167,293.167 29.167 C 293.313 29.167,293.505 29.234,293.592 29.316 C 294.469 30.141,298.350 29.938,300.132 28.974 L 301.025 28.490 301.218 29.002 C 301.436 29.578,301.781 29.712,302.847 29.636 L 303.583 29.583 303.628 25.875 L 303.673 22.167 300.170 22.167 L 296.667 22.167 296.667 23.500 L 296.667 24.833 298.073 24.833 C 299.699 24.833,299.816 24.918,299.201 25.649 C 298.094 26.967,295.956 26.694,294.758 25.083 C 294.622 24.900,294.508 24.841,294.505 24.953 C 294.458 26.743,298.700 27.208,299.579 25.508 C 299.965 24.763,299.811 24.667,298.233 24.667 L 296.818 24.667 296.867 23.542 L 296.917 22.417 300.208 22.371 L 303.500 22.326 303.500 25.830 L 303.500 29.333 302.500 29.333 C 301.787 29.333,301.500 29.271,301.500 29.115 C 301.500 28.360,301.099 28.278,300.035 28.816 C 298.139 29.773,295.218 29.874,293.406 29.044 C 288.924 26.994,289.028 19.151,293.564 17.055 C 294.771 16.497,298.986 16.345,300.167 16.816 C 302.064 17.574,303.275 18.872,303.448 20.333 L 303.546 21.167 301.721 21.167 L 299.895 21.167 299.613 20.575 C 298.962 19.210,296.462 18.922,295.192 20.065 C 294.465 20.720,294.331 21.200,294.366 23.033 L 294.399 24.750 294.491 22.986 C 294.600 20.900,294.950 20.192,296.087 19.757 C 296.850 19.466,297.929 19.417,298.083 19.667 C 298.140 19.758,298.333 19.833,298.513 19.833 C 298.712 19.833,299.050 20.130,299.372 20.588 L 299.905 21.344 301.744 21.297 L 303.583 21.250 303.634 20.545 C 303.723 19.317,302.656 17.791,301.230 17.107 C 300.874 16.936,300.433 16.711,300.250 16.607 C 299.909 16.413,294.976 16.265,294.500 16.434 M190.483 16.954 C 190.384 17.208,190.155 17.829,189.973 18.333 C 189.792 18.837,189.579 19.400,189.501 19.583 C 189.423 19.767,189.232 20.292,189.076 20.750 C 188.920 21.208,188.698 21.808,188.582 22.083 C 188.465 22.358,188.316 22.771,188.250 23.000 C 188.184 23.229,188.035 23.642,187.918 23.917 C 187.802 24.192,187.580 24.792,187.424 25.250 C 187.268 25.708,187.077 26.233,187.000 26.417 C 186.923 26.600,186.733 27.125,186.579 27.583 C 186.424 28.042,186.221 28.580,186.127 28.780 C 185.757 29.567,185.991 29.667,188.217 29.667 C 190.495 29.667,190.402 29.712,190.793 28.417 L 190.944 27.917 193.093 27.917 L 195.242 27.917 195.391 28.417 C 195.800 29.784,195.577 29.682,198.040 29.630 L 200.250 29.583 200.221 29.143 C 200.205 28.902,200.037 28.381,199.846 27.987 C 199.656 27.593,199.500 27.165,199.500 27.036 C 199.500 26.906,199.395 26.564,199.266 26.275 C 199.138 25.986,198.831 25.188,198.586 24.500 C 198.341 23.813,198.080 23.100,198.006 22.917 C 197.629 21.976,197.003 20.195,196.906 19.790 C 196.846 19.537,196.730 19.289,196.648 19.239 C 196.567 19.188,196.500 18.976,196.500 18.768 C 196.500 18.559,196.444 18.334,196.375 18.266 C 196.306 18.198,196.131 17.792,195.986 17.363 L 195.722 16.583 193.192 16.537 L 190.662 16.491 190.483 16.954 M201.576 16.709 C 201.532 16.824,201.516 19.767,201.540 23.251 L 201.583 29.583 203.393 29.631 C 205.800 29.694,205.666 29.872,205.669 26.605 L 205.671 23.917 206.377 24.667 C 206.765 25.079,207.533 25.941,208.083 26.583 C 211.006 29.991,210.551 29.686,212.638 29.631 L 214.417 29.583 214.460 23.042 L 214.504 16.500 212.502 16.500 L 210.500 16.500 210.500 19.590 L 210.500 22.680 209.717 21.715 C 209.286 21.184,208.855 20.669,208.759 20.569 C 208.662 20.470,208.333 20.079,208.027 19.702 C 207.393 18.922,207.125 18.604,206.062 17.375 L 205.306 16.500 203.481 16.500 C 202.172 16.500,201.634 16.559,201.576 16.709 M217.076 16.709 C 217.032 16.824,217.016 19.767,217.040 23.251 L 217.083 29.583 219.060 29.630 C 221.505 29.689,221.500 29.692,221.500 27.997 L 221.500 26.701 222.266 26.059 C 223.339 25.159,223.461 25.107,223.672 25.453 C 223.771 25.616,224.361 26.613,224.982 27.667 L 226.112 29.583 228.556 29.629 C 231.401 29.683,231.425 29.664,230.417 28.167 C 230.096 27.690,229.833 27.268,229.833 27.230 C 229.833 27.100,228.918 25.751,228.792 25.694 C 228.723 25.664,228.667 25.563,228.667 25.470 C 228.667 25.377,228.498 25.066,228.292 24.779 C 227.787 24.077,227.526 23.642,227.400 23.292 C 227.342 23.131,227.237 23.000,227.167 23.000 C 226.382 23.000,226.693 21.760,227.775 20.580 C 227.944 20.395,228.532 19.720,229.081 19.080 C 229.630 18.440,230.120 17.879,230.170 17.833 C 231.433 16.683,231.172 16.500,228.260 16.500 L 225.707 16.500 224.479 18.042 C 222.868 20.065,222.839 20.101,222.212 20.809 C 221.727 21.357,221.554 21.667,221.731 21.667 C 221.767 21.667,222.232 21.123,222.764 20.458 C 223.297 19.794,223.774 19.212,223.825 19.167 C 223.876 19.121,224.357 18.540,224.894 17.875 L 225.871 16.667 228.283 16.667 C 229.713 16.667,230.672 16.730,230.639 16.823 C 230.608 16.909,229.683 18.042,228.583 19.340 C 227.483 20.638,226.531 21.792,226.466 21.905 C 226.361 22.088,226.577 22.478,228.088 24.833 C 230.034 27.867,230.825 29.211,230.744 29.343 C 230.691 29.430,229.658 29.500,228.448 29.499 L 226.250 29.498 225.937 28.957 C 225.546 28.281,225.028 27.372,224.301 26.084 C 223.720 25.055,223.375 24.824,222.978 25.200 C 222.853 25.319,222.396 25.700,221.965 26.047 L 221.180 26.678 221.132 28.047 L 221.083 29.417 219.167 29.417 L 217.250 29.417 217.250 23.083 L 217.250 16.750 219.208 16.703 L 221.167 16.656 221.167 19.328 C 221.167 21.354,221.217 22.000,221.375 22.000 C 221.575 22.000,221.612 17.274,221.416 16.708 C 221.313 16.411,217.190 16.411,217.076 16.709 M261.576 16.709 C 261.532 16.824,261.516 19.767,261.540 23.251 L 261.583 29.583 263.654 29.630 C 266.158 29.687,265.994 29.868,265.997 27.042 L 266.000 24.833 268.079 24.833 L 270.158 24.833 270.204 27.208 L 270.250 29.583 272.333 29.583 L 274.417 29.583 274.460 23.042 L 274.504 16.500 272.344 16.500 L 270.184 16.500 270.134 18.917 C 270.106 20.246,270.140 21.334,270.208 21.334 C 270.277 21.333,270.333 20.283,270.333 19.000 L 270.333 16.667 272.333 16.667 L 274.333 16.667 274.333 22.982 C 274.333 28.587,274.304 29.309,274.070 29.399 C 273.925 29.454,273.027 29.500,272.074 29.500 L 270.342 29.500 270.296 27.042 L 270.250 24.583 268.046 24.537 C 265.442 24.482,265.685 24.201,265.624 27.333 L 265.583 29.417 264.000 29.466 C 263.129 29.492,262.247 29.472,262.040 29.420 L 261.663 29.326 261.706 23.038 L 261.750 16.750 263.708 16.703 L 265.667 16.656 265.667 18.902 C 265.667 20.219,265.736 21.190,265.833 21.250 C 266.016 21.363,266.076 17.226,265.899 16.764 C 265.766 16.417,261.708 16.365,261.576 16.709 M309.176 17.542 C 308.506 19.436,307.958 20.909,307.728 21.442 C 307.602 21.731,307.500 22.039,307.500 22.128 C 307.500 22.216,307.342 22.693,307.150 23.186 C 306.651 24.464,306.419 25.082,305.907 26.500 C 305.659 27.188,305.353 27.986,305.228 28.275 C 305.102 28.564,305.000 28.995,305.000 29.234 L 305.000 29.667 307.063 29.667 C 309.336 29.667,309.304 29.681,309.663 28.542 L 309.887 27.833 312.013 27.833 L 314.140 27.833 314.259 28.373 C 314.533 29.620,314.632 29.667,317.019 29.667 C 319.560 29.667,319.447 29.781,318.753 27.917 C 318.514 27.275,318.097 26.113,317.826 25.333 C 317.555 24.554,317.264 23.767,317.180 23.583 C 317.096 23.400,316.952 23.025,316.861 22.750 C 316.769 22.475,316.418 21.500,316.081 20.583 C 315.745 19.667,315.319 18.467,315.135 17.917 C 314.640 16.437,314.780 16.500,312.002 16.500 L 309.545 16.500 309.176 17.542 M320.500 23.089 L 320.500 29.677 322.458 29.630 L 324.417 29.583 324.500 26.697 L 324.583 23.811 325.868 25.280 C 326.574 26.089,327.362 26.987,327.618 27.276 C 327.874 27.565,328.446 28.221,328.889 28.734 L 329.694 29.667 331.511 29.667 C 333.748 29.667,333.521 30.471,333.463 22.750 L 333.417 16.583 331.417 16.583 L 329.417 16.583 329.333 19.583 C 329.275 21.679,329.200 22.503,329.083 22.316 C 328.992 22.170,328.617 21.692,328.250 21.255 C 327.883 20.818,327.134 19.926,326.586 19.272 C 326.037 18.618,325.547 18.046,325.498 18.000 C 325.449 17.954,325.160 17.598,324.857 17.208 L 324.305 16.500 322.403 16.500 L 320.500 16.500 320.500 23.089 M336.040 23.036 L 336.083 29.583 339.750 29.583 C 343.802 29.583,344.721 29.424,346.108 28.478 C 346.796 28.010,347.833 26.846,347.833 26.543 C 347.833 26.456,347.962 26.129,348.119 25.817 C 349.075 23.918,348.383 19.691,346.868 18.176 C 345.550 16.858,344.499 16.613,339.873 16.545 L 335.996 16.488 336.040 23.036 M350.540 23.042 L 350.583 29.583 352.667 29.583 L 354.750 29.583 354.796 27.208 L 354.842 24.833 356.921 24.833 L 359.000 24.833 359.003 27.042 C 359.006 29.868,358.842 29.687,361.346 29.630 L 363.417 29.583 363.417 23.083 L 363.417 16.583 361.250 16.583 L 359.083 16.583 359.000 18.959 C 358.954 20.265,358.973 21.334,359.042 21.334 C 359.110 21.333,359.168 20.377,359.169 19.208 C 359.172 16.490,359.037 16.645,361.347 16.703 L 363.250 16.750 363.294 22.989 C 363.344 30.194,363.565 29.494,361.242 29.497 C 359.081 29.501,359.167 29.612,359.167 26.795 L 359.167 24.490 356.958 24.537 L 354.750 24.583 354.704 26.956 C 354.650 29.739,354.835 29.543,352.333 29.466 L 350.750 29.417 350.706 23.042 L 350.663 16.667 352.660 16.667 L 354.658 16.667 354.709 19.042 L 354.760 21.417 354.797 18.958 L 354.833 16.500 352.665 16.500 L 350.496 16.500 350.540 23.042 M366.101 16.764 C 365.895 17.300,365.988 29.255,366.200 29.467 C 366.333 29.599,367.052 29.667,368.333 29.667 C 369.615 29.667,370.334 29.599,370.467 29.467 C 370.729 29.205,370.754 17.309,370.494 16.822 C 370.256 16.377,366.270 16.324,366.101 16.764 M196.009 18.042 C 196.302 18.798,196.792 20.129,197.097 21.000 C 197.403 21.871,197.889 23.221,198.177 24.000 C 200.402 30.023,200.428 29.525,197.892 29.464 L 195.943 29.417 195.680 28.583 L 195.417 27.750 193.097 27.750 L 190.778 27.750 190.531 28.500 C 190.395 28.912,190.201 29.305,190.100 29.372 C 189.881 29.519,186.167 29.544,186.167 29.400 C 186.167 29.345,186.583 28.163,187.092 26.775 C 187.601 25.386,188.546 22.787,189.192 21.000 C 189.838 19.212,190.475 17.506,190.607 17.208 L 190.849 16.667 193.162 16.667 L 195.476 16.667 196.009 18.042 M205.251 16.794 C 205.343 16.862,205.830 17.404,206.333 18.000 C 206.836 18.596,207.288 19.121,207.336 19.167 C 207.385 19.212,208.084 20.056,208.889 21.042 C 209.693 22.027,210.421 22.833,210.506 22.833 C 210.592 22.833,210.679 21.502,210.705 19.792 L 210.750 16.750 212.542 16.703 L 214.333 16.655 214.333 22.977 C 214.333 28.587,214.304 29.309,214.070 29.399 C 213.311 29.690,210.987 29.502,210.617 29.120 C 210.066 28.549,208.757 27.086,207.106 25.193 C 206.294 24.262,205.564 23.500,205.485 23.500 C 205.406 23.500,205.321 24.831,205.296 26.458 L 205.250 29.417 203.833 29.466 C 203.054 29.493,202.248 29.473,202.042 29.421 L 201.667 29.327 201.667 23.108 C 201.667 19.687,201.717 16.839,201.778 16.778 C 201.929 16.626,205.041 16.641,205.251 16.794 M236.667 20.543 C 236.667 25.559,236.916 26.342,238.596 26.594 C 240.946 26.946,241.233 26.372,241.333 21.112 L 241.417 16.750 243.375 16.703 L 245.333 16.656 245.332 21.036 C 245.332 23.713,245.260 25.676,245.148 26.083 C 243.929 30.503,235.287 30.951,233.222 26.701 L 232.760 25.750 232.697 21.455 C 232.619 16.145,232.396 16.667,234.745 16.667 L 236.667 16.667 236.667 20.543 M314.452 16.875 C 314.539 16.990,315.191 18.696,315.900 20.667 C 317.608 25.410,318.012 26.518,318.181 26.917 C 318.622 27.960,318.980 29.253,318.860 29.373 C 318.784 29.449,317.868 29.490,316.825 29.464 C 314.742 29.412,314.676 29.376,314.421 28.125 L 314.327 27.667 312.003 27.667 L 309.680 27.667 309.490 28.375 C 309.194 29.483,309.158 29.500,307.156 29.500 C 305.032 29.500,305.042 29.509,305.565 28.051 C 306.175 26.347,307.228 23.456,307.920 21.583 C 308.258 20.667,308.760 19.279,309.036 18.500 C 309.725 16.549,309.529 16.667,312.083 16.667 C 313.655 16.667,314.338 16.727,314.452 16.875 M324.734 17.375 C 325.068 17.765,326.221 19.148,327.296 20.449 C 328.371 21.751,329.305 22.819,329.371 22.824 C 329.438 22.829,329.513 21.465,329.538 19.792 L 329.583 16.750 331.417 16.750 L 333.250 16.750 333.294 22.989 C 333.328 27.869,333.292 29.257,333.127 29.361 C 332.754 29.598,329.882 29.526,329.637 29.273 C 329.258 28.884,326.348 25.551,325.001 23.964 C 324.399 23.255,324.333 23.502,324.333 26.492 C 324.333 29.761,324.515 29.500,322.236 29.500 L 320.667 29.500 320.667 23.083 L 320.667 16.667 322.396 16.667 L 324.125 16.667 324.734 17.375 M344.744 17.131 C 349.752 18.991,349.616 27.232,344.548 29.021 C 343.537 29.378,337.607 29.689,336.605 29.437 L 336.167 29.327 336.167 22.983 L 336.167 16.639 339.958 16.700 C 343.373 16.755,343.849 16.798,344.744 17.131 M370.250 23.083 L 370.250 29.417 368.333 29.417 L 366.417 29.417 366.373 23.251 C 366.349 19.859,366.366 16.988,366.411 16.870 C 366.473 16.709,366.959 16.667,368.372 16.703 L 370.250 16.750 370.250 23.083 M79.741 22.667 C 79.741 25.738,79.764 26.994,79.791 25.458 C 79.819 23.923,79.819 21.410,79.791 19.875 C 79.764 18.340,79.741 19.596,79.741 22.667 M94.333 17.833 L 92.583 17.935 94.282 17.967 C 95.271 17.986,96.023 17.930,96.083 17.833 C 96.140 17.742,96.163 17.681,96.135 17.699 C 96.107 17.717,95.296 17.778,94.333 17.833 M46.292 17.956 C 46.773 17.990,47.560 17.990,48.042 17.956 C 48.523 17.923,48.129 17.895,47.167 17.895 C 46.204 17.895,45.810 17.923,46.292 17.956 M52.297 17.956 C 52.782 17.990,53.532 17.990,53.964 17.956 C 54.396 17.921,54.000 17.894,53.083 17.894 C 52.167 17.895,51.813 17.923,52.297 17.956 M87.625 17.956 C 88.106 17.990,88.894 17.990,89.375 17.956 C 89.856 17.923,89.462 17.895,88.500 17.895 C 87.537 17.895,87.144 17.923,87.625 17.956 M100.875 17.956 C 101.310 17.990,102.023 17.990,102.458 17.956 C 102.894 17.922,102.537 17.893,101.667 17.893 C 100.796 17.893,100.440 17.922,100.875 17.956 M106.542 17.956 C 106.977 17.990,107.690 17.990,108.125 17.956 C 108.560 17.922,108.204 17.893,107.333 17.893 C 106.462 17.893,106.106 17.922,106.542 17.956 M117.792 17.957 C 118.456 17.989,119.544 17.989,120.208 17.957 C 120.873 17.925,120.329 17.900,119.000 17.900 C 117.671 17.900,117.127 17.925,117.792 17.957 M130.877 17.953 C 131.131 17.991,131.506 17.990,131.711 17.951 C 131.916 17.911,131.708 17.880,131.250 17.881 C 130.792 17.882,130.624 17.915,130.877 17.953 M103.702 23.198 C 103.683 25.920,103.723 28.182,103.792 28.224 C 103.860 28.267,103.897 26.828,103.874 25.026 C 103.794 18.852,103.737 18.254,103.702 23.198 M340.241 19.880 C 340.196 19.998,340.180 21.516,340.205 23.255 L 340.250 26.417 341.167 26.429 L 342.083 26.442 341.208 26.379 L 340.333 26.317 340.333 23.057 L 340.333 19.797 341.569 19.859 C 342.249 19.894,342.769 19.864,342.726 19.794 C 342.585 19.567,340.331 19.645,340.241 19.880 M343.000 20.075 C 343.000 20.116,343.183 20.347,343.406 20.588 C 343.899 21.120,344.093 22.373,343.929 23.971 C 343.810 25.138,343.605 25.495,342.750 26.023 C 342.424 26.224,342.347 26.332,342.529 26.333 C 343.997 26.336,344.842 22.147,343.697 20.542 C 343.365 20.076,343.000 19.832,343.000 20.075 M192.833 20.646 C 192.833 20.727,192.941 20.882,193.072 20.991 C 193.204 21.100,193.386 21.503,193.478 21.886 C 193.570 22.270,193.731 22.883,193.834 23.250 C 194.271 24.794,194.337 24.667,193.103 24.667 C 191.804 24.667,191.815 24.694,192.417 22.901 C 192.646 22.218,192.826 21.492,192.816 21.288 C 192.804 21.017,192.753 21.073,192.627 21.500 C 192.531 21.821,192.277 22.642,192.062 23.324 C 191.600 24.784,191.630 24.828,193.083 24.828 C 194.442 24.828,194.533 24.750,194.247 23.830 C 194.119 23.419,193.843 22.502,193.634 21.792 C 193.321 20.729,192.833 20.031,192.833 20.646 M281.560 20.743 C 281.887 20.993,283.493 21.396,283.627 21.262 C 283.671 21.218,283.491 21.135,283.228 21.078 C 282.965 21.020,282.412 20.867,282.000 20.739 C 281.351 20.538,281.292 20.538,281.560 20.743 M311.518 21.604 C 311.131 22.836,311.096 23.064,311.311 22.931 C 311.390 22.882,311.496 22.596,311.546 22.296 C 311.854 20.453,312.513 21.311,312.952 24.125 L 313.036 24.667 312.046 24.667 C 310.877 24.667,310.808 24.621,311.029 23.989 C 311.121 23.724,311.163 23.412,311.121 23.295 C 311.079 23.179,310.954 23.413,310.843 23.816 C 310.593 24.720,310.717 24.828,312.000 24.828 C 313.415 24.828,313.446 24.771,312.947 23.144 C 312.711 22.377,312.455 21.493,312.377 21.178 C 312.152 20.271,311.896 20.398,311.518 21.604 M255.767 21.578 C 257.420 21.983,258.450 22.576,258.997 23.439 C 259.276 23.878,259.500 24.104,259.500 23.946 C 259.500 23.532,258.252 22.239,257.621 21.999 C 257.325 21.886,256.847 21.691,256.558 21.564 C 256.269 21.437,255.782 21.342,255.475 21.352 C 254.975 21.368,255.005 21.392,255.767 21.578 M284.250 21.500 C 284.433 21.579,284.753 21.649,284.961 21.655 C 285.168 21.661,285.468 21.738,285.627 21.825 C 285.786 21.912,286.196 22.108,286.538 22.259 C 289.154 23.418,289.122 27.305,286.485 28.811 C 283.931 30.270,278.988 29.733,277.480 27.833 C 276.971 27.192,276.551 25.876,276.717 25.442 C 276.937 24.869,280.500 25.085,280.500 25.672 C 280.500 26.549,283.344 27.132,284.071 26.405 C 284.592 25.884,283.973 24.799,283.297 25.047 C 283.179 25.090,283.287 25.180,283.536 25.246 C 284.966 25.627,284.080 26.549,282.361 26.467 C 281.084 26.406,280.897 26.290,280.659 25.417 C 280.540 24.979,276.611 24.804,276.448 25.229 C 276.275 25.678,276.789 27.350,277.289 27.971 C 279.305 30.470,286.032 30.460,287.846 27.956 C 289.664 25.446,288.693 22.720,285.590 21.625 C 284.721 21.318,283.580 21.212,284.250 21.500 M130.875 22.282 C 131.035 22.323,131.298 22.323,131.458 22.282 C 131.619 22.240,131.487 22.205,131.167 22.205 C 130.846 22.205,130.715 22.240,130.875 22.282 M251.000 24.216 C 251.000 24.335,252.611 24.795,253.396 24.899 C 254.340 25.026,253.970 24.791,252.865 24.562 C 252.344 24.454,251.710 24.313,251.458 24.248 C 251.206 24.184,251.000 24.169,251.000 24.216 M280.000 24.217 C 280.000 24.336,281.613 24.795,282.402 24.901 C 283.471 25.044,282.842 24.737,281.630 24.524 C 281.015 24.416,280.396 24.283,280.255 24.229 C 280.115 24.175,280.000 24.170,280.000 24.217 M259.548 25.108 C 259.612 28.353,256.819 30.067,252.359 29.518 C 249.596 29.179,248.038 28.031,247.786 26.150 C 247.653 25.160,247.641 25.167,249.591 25.167 L 251.329 25.167 251.567 25.737 C 252.140 27.107,255.743 27.048,255.383 25.674 C 255.282 25.285,254.758 24.937,254.449 25.053 C 254.340 25.094,254.456 25.209,254.708 25.309 C 256.254 25.924,254.204 26.885,252.387 26.398 C 252.164 26.338,251.922 26.048,251.763 25.650 L 251.503 25.000 249.501 25.000 L 247.500 25.000 247.500 25.676 C 247.500 30.595,258.250 31.535,259.531 26.728 C 259.805 25.702,259.884 24.650,259.701 24.467 C 259.587 24.353,259.537 24.561,259.548 25.108 " stroke="none" fill="#65bdf4" fill-rule="evenodd"></path><path id="path4" d="M159.081 22.750 C 159.081 35.308,159.101 40.421,159.125 34.112 C 159.149 27.803,159.149 17.528,159.125 11.279 C 159.101 5.030,159.081 10.192,159.081 22.750 M28.066 13.883 C 26.565 14.671,25.992 15.421,25.572 17.151 C 25.265 18.411,25.170 18.602,24.777 18.741 C 23.462 19.205,19.509 17.419,17.490 15.448 C 16.594 14.574,15.686 14.597,15.450 15.500 C 15.236 16.321,15.400 18.240,15.727 18.739 C 16.067 19.258,16.076 19.730,15.750 20.000 C 15.025 20.602,15.733 22.750,17.008 23.818 C 17.470 24.205,17.506 24.298,17.350 24.708 C 17.027 25.555,17.990 26.969,19.375 27.684 C 20.063 28.039,20.072 28.054,19.835 28.496 C 19.634 28.872,18.632 29.245,17.112 29.511 C 15.888 29.724,15.681 29.920,15.933 30.629 C 16.090 31.072,16.233 31.137,18.667 31.866 C 20.440 32.397,23.305 32.400,24.792 31.871 C 25.366 31.667,25.978 31.500,26.153 31.500 C 26.962 31.500,31.666 28.385,31.667 27.849 C 31.667 27.795,31.854 27.532,32.084 27.266 C 32.313 26.999,32.500 26.728,32.500 26.664 C 32.500 26.599,32.727 26.261,33.004 25.912 C 33.281 25.563,33.554 25.084,33.611 24.847 C 33.669 24.610,33.851 24.223,34.016 23.985 C 34.325 23.544,34.672 22.153,35.086 19.702 C 35.307 18.396,35.635 17.677,36.242 17.173 C 36.579 16.894,36.570 16.354,36.223 15.970 C 35.981 15.703,35.975 15.609,36.173 15.238 C 36.637 14.370,35.915 13.968,34.667 14.398 C 33.955 14.643,33.935 14.639,32.561 13.989 C 30.717 13.117,29.577 13.090,28.066 13.883 M31.119 13.770 C 31.558 13.918,32.380 14.265,32.945 14.540 C 33.966 15.036,33.980 15.038,34.757 14.773 C 35.712 14.448,36.192 14.608,35.673 15.078 C 35.229 15.480,35.245 15.696,35.750 16.136 C 36.239 16.560,36.263 16.712,35.894 17.019 C 35.158 17.630,34.845 18.475,34.511 20.760 C 34.324 22.037,34.059 23.223,33.910 23.451 C 33.763 23.674,33.546 24.134,33.426 24.474 C 32.770 26.332,30.056 29.260,28.044 30.278 C 27.633 30.487,27.210 30.728,27.105 30.815 C 25.628 32.041,19.087 32.139,16.792 30.970 C 16.061 30.598,16.783 29.975,18.422 29.564 C 20.565 29.025,21.185 28.062,19.792 27.435 C 18.427 26.821,17.297 25.423,17.679 24.819 C 17.972 24.356,17.830 23.917,17.272 23.556 C 16.056 22.769,15.444 21.124,16.083 20.364 C 16.598 19.752,16.598 19.683,16.083 18.667 C 15.760 18.028,15.667 17.590,15.667 16.706 C 15.667 14.870,16.121 14.724,17.699 16.050 C 19.166 17.284,19.581 17.532,21.973 18.612 C 22.757 18.966,24.563 19.198,25.061 19.009 C 25.618 18.797,25.723 18.579,25.848 17.377 C 26.052 15.426,27.755 13.916,30.203 13.519 C 30.268 13.509,30.681 13.621,31.119 13.770 M44.944 16.444 C 44.755 16.634,44.823 17.923,45.033 18.133 C 45.165 18.265,45.874 18.333,47.114 18.333 L 48.995 18.333 49.039 23.458 L 49.083 28.583 49.931 28.633 C 51.194 28.706,51.156 28.868,51.206 23.319 L 51.250 18.417 53.117 18.333 C 54.286 18.281,55.062 18.172,55.192 18.042 C 55.479 17.754,55.456 16.679,55.158 16.491 C 54.884 16.318,45.116 16.273,44.944 16.444 M58.989 16.596 C 58.812 16.809,58.810 16.990,58.979 17.554 C 59.094 17.937,59.250 18.587,59.327 19.000 C 59.405 19.412,59.541 19.938,59.631 20.167 C 59.721 20.396,59.923 21.183,60.081 21.917 C 60.238 22.650,60.472 23.602,60.600 24.031 C 60.728 24.461,60.833 24.975,60.833 25.173 C 60.833 25.371,60.939 25.769,61.069 26.058 C 61.199 26.347,61.353 26.939,61.413 27.373 C 61.567 28.511,61.815 28.691,63.144 28.632 L 64.250 28.583 64.475 27.917 C 64.755 27.091,65.143 25.495,65.306 24.499 C 65.374 24.086,65.483 23.663,65.547 23.559 C 65.612 23.454,65.772 22.892,65.904 22.309 C 66.285 20.625,66.635 19.534,66.652 19.978 C 66.660 20.194,66.774 20.719,66.905 21.144 C 67.157 21.959,67.452 23.141,67.682 24.250 C 68.560 28.494,68.648 28.660,70.010 28.664 C 71.163 28.667,71.508 28.424,71.678 27.486 C 71.752 27.081,71.969 26.150,72.162 25.417 C 72.773 23.089,73.040 21.936,73.125 21.250 C 73.171 20.883,73.311 20.435,73.437 20.255 C 73.564 20.074,73.667 19.600,73.667 19.201 C 73.667 18.769,73.771 18.372,73.925 18.218 C 74.102 18.041,74.168 17.717,74.133 17.188 L 74.083 16.417 73.274 16.365 C 72.412 16.310,71.833 16.627,71.833 17.154 C 71.833 17.302,71.613 18.300,71.344 19.373 C 71.075 20.445,70.804 21.663,70.742 22.080 C 70.679 22.497,70.567 22.875,70.492 22.921 C 70.418 22.967,70.305 23.417,70.242 23.919 C 70.180 24.422,70.077 24.833,70.014 24.833 C 69.728 24.833,69.500 24.380,69.500 23.811 C 69.500 23.468,69.415 22.977,69.311 22.719 C 69.206 22.461,69.059 21.950,68.984 21.583 C 68.909 21.217,68.737 20.467,68.602 19.917 C 68.468 19.367,68.244 18.399,68.105 17.765 C 67.812 16.435,67.710 16.339,66.574 16.336 C 65.483 16.333,65.191 16.566,65.018 17.584 C 64.842 18.614,64.545 19.847,64.234 20.833 C 64.105 21.246,63.999 21.743,63.999 21.938 C 64.000 22.133,63.887 22.562,63.750 22.891 C 63.612 23.220,63.500 23.754,63.500 24.078 C 63.500 24.556,63.437 24.667,63.167 24.667 C 62.885 24.667,62.833 24.556,62.833 23.954 C 62.833 23.562,62.732 23.093,62.608 22.912 C 62.484 22.731,62.336 22.177,62.279 21.679 C 62.222 21.182,62.099 20.699,62.004 20.604 C 61.910 20.510,61.832 20.280,61.831 20.092 C 61.826 19.400,61.051 16.634,60.821 16.489 C 60.423 16.237,59.229 16.307,58.989 16.596 M79.506 16.656 C 79.246 17.141,79.272 28.205,79.533 28.467 C 79.840 28.774,81.275 28.725,81.399 28.403 C 81.454 28.258,81.500 25.602,81.500 22.500 C 81.500 19.398,81.454 16.742,81.399 16.597 C 81.240 16.184,79.733 16.231,79.506 16.656 M86.163 16.674 C 85.953 17.065,86.084 17.890,86.396 18.149 C 86.510 18.244,87.424 18.343,88.427 18.369 L 90.250 18.417 90.333 23.500 L 90.417 28.583 91.333 28.583 L 92.250 28.583 92.294 23.458 L 92.338 18.333 94.232 18.333 C 96.405 18.333,96.549 18.256,96.469 17.137 L 96.417 16.417 91.382 16.373 C 86.436 16.329,86.344 16.335,86.163 16.674 M99.367 16.533 C 99.121 16.779,99.106 17.576,99.339 18.011 C 99.494 18.301,99.704 18.333,101.423 18.333 L 103.333 18.333 103.333 23.300 C 103.333 28.807,103.304 28.667,104.436 28.667 C 105.758 28.667,105.667 29.056,105.667 23.399 L 105.667 18.333 107.428 18.333 C 108.396 18.333,109.334 18.256,109.511 18.161 C 109.932 17.936,109.977 16.591,109.570 16.434 C 109.037 16.230,99.578 16.322,99.367 16.533 M114.370 16.530 C 114.080 16.820,114.077 28.177,114.367 28.467 C 114.511 28.611,115.632 28.667,118.361 28.667 C 122.561 28.667,122.571 28.664,122.382 27.582 C 122.233 26.733,122.003 26.667,119.213 26.667 L 116.655 26.667 116.703 24.875 L 116.750 23.083 119.238 23.037 C 122.013 22.985,122.209 22.916,122.133 22.018 C 122.059 21.133,121.659 21.005,118.958 21.002 L 116.667 21.000 116.667 19.667 L 116.667 18.333 119.313 18.333 C 122.314 18.333,122.386 18.305,122.302 17.137 L 122.250 16.417 118.411 16.372 C 115.566 16.339,114.520 16.380,114.370 16.530 M128.243 16.543 C 128.198 16.658,128.182 19.414,128.206 22.668 L 128.250 28.583 129.098 28.633 C 130.265 28.701,130.315 28.601,130.370 26.073 L 130.417 23.917 131.526 23.929 C 132.799 23.943,133.305 24.195,133.738 25.029 C 133.896 25.334,134.376 26.258,134.804 27.083 L 135.583 28.583 136.515 28.633 C 137.165 28.667,137.506 28.610,137.643 28.445 C 137.848 28.198,137.739 27.667,137.482 27.667 C 137.400 27.667,137.333 27.564,137.333 27.438 C 137.333 27.177,135.745 23.992,135.542 23.846 C 134.995 23.452,134.872 22.900,135.255 22.559 C 136.896 21.097,136.369 16.833,134.547 16.833 C 134.416 16.833,134.197 16.721,134.060 16.583 C 133.724 16.248,128.370 16.210,128.243 16.543 M54.833 17.070 C 54.833 17.967,54.763 18.000,52.849 18.000 C 50.469 18.000,50.667 17.513,50.667 23.367 L 50.667 28.333 50.000 28.333 L 49.333 28.333 49.333 23.430 C 49.333 17.417,49.546 18.000,47.349 18.000 C 45.410 18.000,45.167 17.903,45.167 17.133 L 45.167 16.667 50.000 16.667 L 54.833 16.667 54.833 17.070 M60.643 16.958 C 60.728 17.119,60.994 18.075,61.234 19.083 C 61.473 20.092,61.744 21.179,61.836 21.500 C 62.014 22.126,62.228 23.000,62.587 24.567 C 62.919 26.018,63.547 26.186,63.709 24.869 C 63.783 24.272,64.671 20.609,64.991 19.583 C 65.076 19.308,65.200 18.783,65.266 18.417 C 65.694 16.033,67.365 15.827,67.755 18.110 C 67.816 18.462,67.965 19.125,68.088 19.583 C 68.211 20.042,68.434 20.904,68.583 21.500 C 68.733 22.096,68.956 22.958,69.078 23.417 C 69.201 23.875,69.348 24.524,69.405 24.858 C 69.672 26.424,70.141 26.098,70.641 24.000 C 70.848 23.129,71.126 21.985,71.259 21.458 C 71.391 20.931,71.617 20.031,71.761 19.458 C 72.476 16.604,72.444 16.667,73.175 16.667 C 73.898 16.667,73.920 16.714,73.654 17.731 C 73.556 18.108,73.371 18.829,73.245 19.333 C 73.119 19.837,72.817 21.037,72.574 22.000 C 72.006 24.253,71.739 25.346,71.454 26.583 C 71.077 28.222,70.958 28.358,69.950 28.300 L 69.088 28.250 68.702 26.667 C 68.489 25.796,68.211 24.671,68.083 24.167 C 67.954 23.662,67.728 22.725,67.578 22.083 C 66.956 19.410,66.645 18.577,66.395 18.918 C 66.270 19.090,66.167 19.341,66.167 19.476 C 66.167 19.610,66.059 20.102,65.928 20.569 C 65.621 21.655,65.254 23.108,64.914 24.583 C 64.765 25.225,64.538 26.162,64.409 26.667 C 64.280 27.171,64.153 27.733,64.127 27.917 C 64.087 28.199,63.933 28.258,63.122 28.300 C 61.941 28.362,62.133 28.735,61.083 24.333 C 60.252 20.847,59.836 19.195,59.699 18.833 C 59.612 18.604,59.488 18.023,59.422 17.542 L 59.302 16.667 59.895 16.667 C 60.290 16.667,60.540 16.764,60.643 16.958 M81.167 22.510 L 81.167 28.352 80.458 28.301 L 79.750 28.250 79.702 23.000 C 79.643 16.584,79.632 16.667,80.508 16.667 L 81.167 16.667 81.167 22.510 M96.135 17.292 L 96.083 17.917 94.143 17.963 C 91.769 18.021,92.005 17.405,92.002 23.542 L 92.000 28.333 91.333 28.333 L 90.667 28.333 90.667 23.430 C 90.667 17.417,90.880 18.000,88.682 18.000 C 86.744 18.000,86.500 17.903,86.500 17.133 L 86.500 16.667 91.343 16.667 L 96.187 16.667 96.135 17.292 M109.307 17.157 C 109.402 17.823,108.953 18.000,107.168 18.000 C 104.998 18.000,105.167 17.546,105.167 23.376 L 105.167 28.352 104.458 28.301 L 103.750 28.250 103.667 23.167 L 103.583 18.083 101.816 18.000 C 99.999 17.914,99.500 17.736,99.500 17.174 C 99.500 16.674,99.642 16.661,104.489 16.706 L 109.250 16.750 109.307 17.157 M121.972 17.144 C 122.070 17.834,121.793 17.912,118.950 18.000 L 116.250 18.083 116.202 19.558 C 116.136 21.564,116.047 21.500,118.904 21.500 C 121.407 21.500,121.667 21.574,121.667 22.283 C 121.667 22.666,121.661 22.667,119.239 22.667 C 116.026 22.667,116.167 22.565,116.167 24.889 C 116.167 27.301,115.989 27.167,119.180 27.167 C 121.933 27.167,122.270 27.256,122.136 27.950 C 122.083 28.228,121.809 28.250,118.414 28.250 L 114.750 28.250 114.706 22.668 C 114.682 19.598,114.699 16.990,114.744 16.873 C 114.807 16.707,115.615 16.670,118.371 16.705 L 121.917 16.750 121.972 17.144 M133.621 16.875 C 135.948 17.487,136.677 20.411,134.965 22.269 L 134.302 22.988 134.882 23.703 C 135.536 24.507,137.372 28.072,137.214 28.231 C 137.157 28.287,136.834 28.333,136.494 28.333 L 135.877 28.333 135.003 26.573 C 133.625 23.801,133.073 23.333,131.178 23.333 C 129.877 23.333,129.833 23.425,129.833 26.156 L 129.833 28.333 129.167 28.333 L 128.500 28.333 128.500 22.500 L 128.500 16.667 130.664 16.667 C 131.862 16.667,133.182 16.760,133.621 16.875 M129.934 18.264 C 129.804 18.604,129.807 21.302,129.938 21.792 C 130.070 22.282,132.320 22.347,133.287 21.888 C 134.472 21.326,134.697 19.372,133.680 18.464 C 133.044 17.895,130.135 17.740,129.934 18.264 M133.448 18.696 C 133.770 18.999,133.832 19.224,133.828 20.071 C 133.822 21.326,133.554 21.569,131.996 21.735 C 130.333 21.913,130.333 21.914,130.333 19.982 L 130.333 18.333 131.698 18.333 C 132.869 18.333,133.116 18.385,133.448 18.696 " stroke="none" fill="#7e7e7e" fill-rule="evenodd"></path></g></svg>