<svg id="svg" version="1.1" xmlns="http://www.w3.org/2000/svg" xmlns:xlink="http://www.w3.org/1999/xlink" width="400" height="44.44444444444444" viewBox="0, 0, 400,44.44444444444444"><g id="svgg"><path id="path0" d="M45.030 16.312 C 44.874 16.410,44.842 16.643,44.920 17.101 C 45.023 17.700,45.113 18.062,45.680 20.167 C 45.792 20.579,45.938 21.179,46.005 21.500 C 46.143 22.157,46.872 25.046,47.298 26.625 L 47.579 27.667 48.540 27.667 C 49.324 27.667,49.500 27.616,49.500 27.390 C 49.500 27.237,49.608 26.731,49.740 26.265 C 49.873 25.798,50.101 24.892,50.249 24.250 C 50.396 23.608,50.625 22.652,50.758 22.125 C 50.891 21.598,51.109 20.735,51.242 20.208 C 51.376 19.681,51.527 19.044,51.579 18.792 C 51.796 17.736,52.235 18.603,52.823 21.250 C 53.027 22.167,53.257 23.104,53.333 23.333 C 53.410 23.563,53.633 24.500,53.830 25.417 C 54.291 27.572,54.292 27.573,55.249 27.635 C 56.232 27.699,56.310 27.623,56.607 26.308 C 56.738 25.726,56.947 24.837,57.071 24.333 C 57.656 21.953,58.185 19.863,58.336 19.333 C 59.071 16.751,59.077 16.265,58.371 16.197 C 57.734 16.136,57.511 16.525,57.074 18.460 C 56.808 19.638,56.500 20.908,56.074 22.583 C 55.935 23.133,55.740 23.980,55.643 24.464 C 55.394 25.696,54.818 25.227,54.494 23.531 C 54.413 23.101,54.233 22.300,54.096 21.750 C 53.527 19.475,53.297 18.532,53.079 17.587 C 52.823 16.478,52.527 16.167,51.732 16.167 C 51.091 16.167,51.029 16.320,50.088 20.250 C 49.758 21.625,49.385 23.087,49.257 23.500 C 49.130 23.912,48.976 24.545,48.916 24.906 L 48.807 25.562 48.486 25.057 C 48.310 24.778,48.099 24.221,48.017 23.817 C 47.935 23.414,47.701 22.446,47.498 21.667 C 47.121 20.222,46.785 18.833,46.495 17.513 C 46.247 16.386,45.665 15.909,45.030 16.312 M64.749 16.538 C 64.698 16.746,64.678 19.317,64.703 22.250 L 64.750 27.583 68.331 27.583 C 71.646 27.583,71.916 27.561,71.970 27.284 C 72.103 26.594,71.760 26.500,69.105 26.497 C 65.931 26.494,66.145 26.661,66.203 24.237 L 66.250 22.250 68.915 22.167 C 71.309 22.092,71.585 22.053,71.637 21.784 C 71.768 21.101,71.418 21.000,68.917 21.000 C 66.045 21.000,66.136 21.065,66.202 19.058 L 66.250 17.583 68.899 17.500 C 71.748 17.410,72.185 17.262,71.731 16.542 C 71.568 16.282,71.177 16.245,68.194 16.205 L 64.841 16.160 64.749 16.538 M78.279 16.375 C 78.020 16.565,77.999 17.061,78.039 22.083 L 78.083 27.583 80.750 27.624 C 84.571 27.683,85.809 27.025,85.966 24.853 C 86.064 23.505,85.798 22.814,84.896 22.075 L 84.142 21.458 84.725 20.978 C 85.821 20.073,85.810 17.814,84.704 17.027 C 83.597 16.239,79.089 15.782,78.279 16.375 M93.210 16.488 C 91.314 17.548,90.857 20.047,92.331 21.297 C 93.012 21.875,93.443 22.057,94.964 22.408 C 97.611 23.020,98.443 23.933,97.727 25.441 C 97.080 26.804,93.556 27.126,92.049 25.960 C 91.731 25.714,91.500 25.972,91.500 26.571 C 91.500 28.075,96.917 28.297,98.555 26.859 C 99.442 26.080,99.717 24.458,99.166 23.249 C 98.617 22.043,97.833 21.606,94.917 20.885 C 93.445 20.520,92.998 20.111,93.006 19.133 C 93.018 17.565,95.240 16.636,97.109 17.417 C 98.223 17.882,98.972 17.699,98.754 17.014 C 98.489 16.178,94.450 15.794,93.210 16.488 M105.625 16.347 C 105.306 16.533,105.168 26.981,105.478 27.471 C 105.563 27.603,105.844 27.670,106.184 27.637 L 106.750 27.583 106.794 22.083 C 106.844 15.920,106.792 15.667,105.625 16.347 M112.042 16.277 C 111.927 16.323,111.833 16.538,111.833 16.754 C 111.833 17.328,112.065 17.408,114.000 17.500 L 115.750 17.583 115.840 22.583 C 115.943 28.355,115.841 27.700,116.625 27.635 L 117.250 27.583 117.294 22.764 C 117.346 17.080,117.185 17.500,119.320 17.500 C 120.353 17.500,121.005 17.428,121.133 17.300 C 121.419 17.014,121.380 16.387,121.070 16.268 C 120.755 16.147,112.342 16.156,112.042 16.277 M126.625 16.347 C 126.329 16.519,126.154 26.673,126.434 27.403 C 126.587 27.800,133.579 27.801,133.732 27.405 C 134.027 26.635,133.634 26.500,131.088 26.500 C 127.682 26.500,127.833 26.604,127.833 24.257 C 127.833 21.978,127.538 22.183,130.917 22.124 L 133.250 22.083 133.250 21.583 L 133.250 21.083 130.750 21.000 C 127.689 20.898,127.833 20.984,127.833 19.261 C 127.833 17.471,127.756 17.519,130.741 17.463 C 133.446 17.412,134.127 17.151,133.412 16.436 C 133.094 16.118,127.153 16.039,126.625 16.347 M170.210 16.375 C 170.120 16.490,169.656 17.671,169.180 19.000 C 168.704 20.329,168.133 21.904,167.911 22.500 C 165.553 28.837,165.574 28.167,167.730 28.167 C 169.621 28.167,169.662 28.148,169.993 27.120 L 170.196 26.490 172.304 26.537 L 174.413 26.583 174.632 27.083 C 175.085 28.118,175.006 28.080,176.837 28.131 C 179.042 28.193,178.998 28.284,178.031 25.649 C 177.580 24.421,176.664 21.891,175.995 20.026 C 175.326 18.161,174.673 16.530,174.544 16.401 C 174.228 16.086,170.456 16.063,170.210 16.375 M180.700 16.367 C 180.466 16.600,180.411 27.601,180.641 27.965 C 180.741 28.122,181.204 28.167,182.347 28.132 L 183.917 28.083 184.000 25.417 C 184.054 23.680,184.146 22.750,184.262 22.750 C 184.361 22.750,185.250 23.688,186.238 24.833 C 187.227 25.979,188.299 27.201,188.621 27.547 L 189.206 28.178 190.811 28.131 L 192.417 28.083 192.461 22.353 C 192.512 15.685,192.644 16.167,190.763 16.167 C 188.940 16.167,189.000 16.063,189.000 19.200 C 189.000 20.819,188.937 21.833,188.836 21.833 C 188.745 21.833,187.622 20.605,186.340 19.103 C 185.058 17.601,183.888 16.326,183.741 16.269 C 183.253 16.082,180.909 16.157,180.700 16.367 M195.283 16.272 C 195.219 16.336,195.167 19.039,195.167 22.278 L 195.167 28.167 197.000 28.167 L 198.833 28.167 198.833 26.854 L 198.833 25.541 199.778 24.763 C 201.007 23.752,201.069 23.779,202.213 25.832 C 203.600 28.321,203.370 28.167,205.683 28.167 C 206.763 28.167,207.684 28.107,207.728 28.035 C 207.773 27.962,206.883 26.410,205.750 24.586 C 203.347 20.719,203.344 21.391,205.784 18.608 C 207.898 16.197,207.909 16.262,205.366 16.203 C 203.105 16.151,203.333 16.055,202.083 17.590 C 201.717 18.040,201.190 18.673,200.912 18.996 C 200.634 19.319,200.119 19.945,199.766 20.387 C 198.920 21.447,198.851 21.319,198.797 18.580 L 198.750 16.250 197.075 16.203 C 196.154 16.177,195.347 16.208,195.283 16.272 M226.750 16.511 C 224.964 17.092,224.168 18.118,224.167 19.842 C 224.166 21.914,225.178 22.876,228.083 23.565 C 230.307 24.092,230.651 24.207,230.923 24.507 C 231.541 25.190,230.833 25.827,229.450 25.831 C 228.433 25.834,227.751 25.482,227.527 24.838 L 227.351 24.333 225.685 24.333 C 223.801 24.333,223.752 24.365,224.015 25.407 C 224.899 28.918,232.871 29.567,234.560 26.265 C 235.997 23.457,234.562 21.585,230.250 20.642 C 228.136 20.180,227.292 19.391,228.322 18.839 C 229.287 18.323,231.167 18.850,231.167 19.636 C 231.167 19.776,231.679 19.833,232.917 19.833 L 234.667 19.833 234.667 19.411 C 234.667 16.903,230.376 15.331,226.750 16.511 M237.245 16.370 C 237.199 16.489,237.182 19.172,237.206 22.334 L 237.250 28.083 239.042 28.131 L 240.833 28.178 240.836 26.131 C 240.839 23.486,240.685 23.646,243.180 23.703 L 245.250 23.750 245.297 25.964 L 245.343 28.178 247.130 28.131 L 248.917 28.083 248.917 22.167 L 248.917 16.250 247.125 16.203 L 245.333 16.155 245.333 18.147 C 245.333 20.863,245.503 20.667,243.159 20.667 C 240.792 20.667,240.940 20.821,240.833 18.250 L 240.750 16.250 239.039 16.202 C 237.759 16.167,237.307 16.209,237.245 16.370 M254.323 16.394 C 251.989 17.023,250.798 19.050,251.571 21.074 C 252.090 22.432,253.283 23.141,256.083 23.753 C 257.913 24.153,258.367 24.401,258.302 24.964 C 258.157 26.208,255.421 26.140,254.833 24.878 L 254.583 24.341 252.875 24.337 L 251.167 24.333 251.167 24.813 C 251.167 28.951,260.498 29.856,262.020 25.866 C 263.005 23.284,261.652 21.598,257.919 20.754 C 255.297 20.162,254.741 19.759,255.500 19.000 C 256.170 18.330,258.026 18.610,258.337 19.427 C 258.487 19.820,258.545 19.833,260.153 19.833 C 262.029 19.833,262.047 19.823,261.803 18.864 C 261.263 16.735,257.574 15.517,254.323 16.394 M264.706 16.302 C 264.542 16.409,264.505 17.716,264.539 22.261 L 264.583 28.083 266.417 28.083 L 268.250 28.083 268.250 22.167 L 268.250 16.250 266.583 16.208 C 265.667 16.185,264.822 16.227,264.706 16.302 M271.409 16.376 C 271.365 16.491,271.349 19.172,271.373 22.334 L 271.417 28.083 273.038 28.131 L 274.658 28.179 274.704 25.464 C 274.735 23.614,274.809 22.750,274.935 22.750 C 275.037 22.750,276.188 23.971,277.494 25.464 L 279.868 28.178 281.476 28.131 L 283.083 28.083 283.130 22.500 C 283.188 15.501,283.367 16.167,281.431 16.167 C 279.535 16.167,279.667 15.935,279.667 19.264 C 279.667 20.677,279.599 21.833,279.517 21.833 C 279.434 21.833,278.337 20.631,277.078 19.161 C 275.820 17.691,274.655 16.416,274.489 16.328 C 274.030 16.082,271.507 16.122,271.409 16.376 M289.500 16.405 C 285.949 17.390,284.343 21.601,286.024 25.518 C 287.138 28.113,291.464 29.215,294.557 27.692 C 295.180 27.385,295.707 27.160,295.728 27.192 C 295.749 27.224,295.854 27.456,295.963 27.708 C 296.143 28.129,296.235 28.167,297.080 28.167 L 298.000 28.167 298.000 24.917 L 298.000 21.667 294.833 21.667 L 291.667 21.667 291.667 22.750 L 291.667 23.833 292.922 23.833 C 294.334 23.833,294.574 24.025,294.089 24.765 C 293.477 25.699,291.371 25.959,290.368 25.224 C 288.838 24.102,288.911 20.262,290.483 19.212 C 291.662 18.424,293.578 18.817,294.269 19.987 L 294.572 20.500 296.193 20.500 C 298.034 20.500,298.121 20.443,297.835 19.421 C 297.125 16.888,293.060 15.417,289.500 16.405 M300.578 16.370 C 300.533 16.489,300.515 19.172,300.539 22.334 L 300.583 28.083 302.370 28.131 L 304.157 28.178 304.203 25.964 L 304.250 23.750 306.320 23.703 C 308.815 23.646,308.661 23.486,308.664 26.131 L 308.667 28.178 310.458 28.131 L 312.250 28.083 312.250 22.167 L 312.250 16.250 310.458 16.203 L 308.667 16.155 308.667 18.129 C 308.667 20.778,308.752 20.690,306.248 20.631 L 304.250 20.583 304.167 18.417 L 304.083 16.250 302.372 16.202 C 301.092 16.167,300.640 16.209,300.578 16.370 M318.446 16.485 C 315.696 17.391,314.750 18.889,314.750 22.333 C 314.750 25.459,315.497 26.935,317.543 27.851 C 319.229 28.607,323.255 28.336,324.346 27.394 C 324.717 27.074,324.791 27.102,325.083 27.667 C 325.323 28.130,325.409 28.167,326.254 28.167 L 327.167 28.167 327.167 24.913 L 327.167 21.659 324.042 21.705 L 320.917 21.750 320.917 22.750 L 320.917 23.750 322.167 23.833 C 323.657 23.933,323.868 24.252,322.996 25.087 C 322.317 25.737,320.353 25.823,319.554 25.238 C 318.006 24.103,318.066 20.270,319.650 19.212 C 320.803 18.441,322.847 18.837,323.445 19.947 L 323.748 20.511 325.416 20.464 L 327.083 20.417 327.135 19.971 C 327.436 17.364,322.178 15.255,318.446 16.485 M333.062 16.294 C 332.849 16.433,332.409 17.528,331.170 21.000 C 330.695 22.329,329.938 24.405,329.487 25.613 C 329.036 26.821,328.667 27.892,328.667 27.994 C 328.667 28.120,329.255 28.163,330.537 28.130 L 332.407 28.083 332.667 27.333 L 332.927 26.583 335.066 26.583 L 337.205 26.583 337.482 27.333 L 337.759 28.083 339.573 28.131 C 341.871 28.191,341.801 28.377,340.646 25.250 C 339.264 21.508,338.201 18.588,337.795 17.417 C 337.351 16.138,337.422 16.172,335.167 16.172 C 334.112 16.172,333.165 16.227,333.062 16.294 M343.444 16.278 C 343.383 16.339,343.333 19.039,343.333 22.278 L 343.333 28.167 345.000 28.167 L 346.667 28.167 346.669 25.625 C 346.671 24.227,346.743 22.971,346.830 22.833 C 347.021 22.533,346.836 22.350,349.741 25.714 L 351.869 28.178 353.476 28.131 L 355.083 28.083 355.083 22.167 L 355.083 16.250 353.417 16.250 L 351.750 16.250 351.667 19.161 L 351.583 22.072 349.175 19.245 C 347.850 17.689,346.688 16.362,346.592 16.294 C 346.373 16.141,343.596 16.127,343.444 16.278 M358.039 16.305 C 357.875 16.410,357.839 17.714,357.873 22.261 L 357.917 28.083 361.500 28.083 C 364.536 28.083,365.216 28.037,365.953 27.780 C 370.300 26.264,370.614 18.673,366.407 16.812 C 365.144 16.253,358.733 15.865,358.039 16.305 M371.783 16.272 C 371.719 16.336,371.667 19.041,371.667 22.283 L 371.667 28.178 373.458 28.131 L 375.250 28.083 375.333 25.917 L 375.417 23.750 377.500 23.750 L 379.583 23.750 379.667 25.917 L 379.750 28.083 381.486 28.131 C 382.763 28.166,383.259 28.122,383.359 27.964 C 383.589 27.601,383.533 16.600,383.300 16.367 C 383.013 16.080,380.100 16.095,379.859 16.385 C 379.757 16.508,379.657 17.477,379.631 18.594 L 379.583 20.583 377.500 20.583 L 375.417 20.583 375.333 18.417 L 375.250 16.250 373.575 16.203 C 372.654 16.177,371.847 16.208,371.783 16.272 M386.533 16.367 C 386.300 16.600,386.244 27.601,386.475 27.964 C 386.575 28.122,387.070 28.166,388.347 28.131 L 390.083 28.083 390.127 22.261 C 390.161 17.714,390.125 16.410,389.961 16.305 C 389.619 16.088,386.761 16.139,386.533 16.367 M209.833 20.398 C 209.833 23.714,209.884 24.618,210.107 25.311 C 211.356 29.175,219.164 29.504,221.131 25.775 L 221.583 24.917 221.583 20.667 L 221.583 16.417 219.750 16.417 L 217.917 16.417 217.833 20.417 C 217.787 22.617,217.686 24.546,217.608 24.705 C 217.148 25.644,215.132 25.966,214.309 25.233 C 213.582 24.585,213.500 24.062,213.500 20.089 L 213.500 16.333 211.667 16.333 L 209.833 16.333 209.833 20.398 M83.585 18.009 C 84.522 18.947,84.142 20.473,82.884 20.822 C 82.014 21.064,79.949 21.049,79.700 20.800 C 79.420 20.520,79.427 17.727,79.708 17.603 C 80.398 17.300,83.166 17.590,83.585 18.009 M364.269 19.195 C 365.213 19.659,365.417 20.181,365.417 22.145 C 365.417 24.732,364.757 25.552,362.750 25.462 L 361.750 25.417 361.704 22.355 C 361.671 20.103,361.714 19.227,361.866 19.044 C 362.112 18.748,363.540 18.838,364.269 19.195 M173.087 21.678 C 173.757 23.906,173.782 23.833,172.333 23.833 C 170.893 23.833,170.918 23.896,171.531 21.822 C 172.326 19.127,172.320 19.127,173.087 21.678 M335.576 20.875 C 335.744 21.540,335.937 22.196,336.003 22.333 C 336.069 22.471,336.174 22.865,336.236 23.208 L 336.348 23.833 335.091 23.833 C 333.594 23.833,333.630 23.937,334.329 21.620 C 335.060 19.193,335.137 19.147,335.576 20.875 M83.440 22.439 C 84.744 23.058,84.890 25.512,83.663 26.169 C 83.123 26.458,80.060 26.590,79.755 26.338 C 79.419 26.059,79.377 22.411,79.708 22.277 C 80.242 22.062,82.887 22.177,83.440 22.439 " stroke="none" fill="#edf2f5" fill-rule="evenodd"></path><path id="path1" d="M0.000 22.167 L 0.000 44.333 77.583 44.333 L 155.167 44.333 155.167 22.167 L 155.167 0.000 77.583 0.000 L 0.000 0.000 0.000 22.167 M21.925 11.235 C 22.398 11.581,21.948 12.773,21.153 13.280 C 19.544 14.306,19.307 14.748,19.069 17.167 C 19.010 17.762,18.824 18.570,18.655 18.962 C 18.487 19.353,18.301 20.141,18.242 20.712 C 18.042 22.655,17.160 24.333,16.340 24.333 C 16.225 24.333,15.471 25.779,15.272 26.379 C 15.129 26.812,14.682 26.920,14.362 26.600 C 13.960 26.198,13.932 11.417,14.333 11.163 C 14.761 10.893,21.544 10.957,21.925 11.235 M36.339 11.344 C 36.462 11.574,36.506 12.901,36.470 15.359 L 36.417 19.030 36.002 19.366 C 34.915 20.245,33.323 19.379,31.555 16.949 C 29.475 14.088,27.539 12.542,25.586 12.181 C 24.461 11.973,24.073 11.731,24.344 11.404 C 24.787 10.870,36.055 10.814,36.339 11.344 M97.167 15.920 C 98.681 16.184,99.167 16.508,99.167 17.255 C 99.167 18.116,98.646 18.422,97.873 18.014 C 96.083 17.073,93.195 17.747,93.173 19.112 C 93.165 19.602,94.089 20.500,94.602 20.500 C 94.827 20.500,95.280 20.612,95.609 20.750 C 95.938 20.887,96.389 21.000,96.610 21.000 C 99.718 21.000,100.855 26.069,98.083 27.567 C 96.552 28.394,93.034 28.376,91.708 27.533 C 90.840 26.981,91.312 25.196,92.195 25.693 C 92.606 25.924,93.893 26.299,94.781 26.446 C 95.474 26.561,96.931 26.071,97.250 25.616 C 97.723 24.941,97.434 23.333,96.840 23.333 C 96.690 23.333,96.478 23.245,96.371 23.137 C 96.263 23.029,95.817 22.883,95.379 22.812 C 93.547 22.513,92.931 22.263,92.126 21.489 L 91.333 20.728 91.333 19.342 C 91.333 17.462,92.365 16.006,93.705 15.997 C 93.913 15.996,94.196 15.922,94.333 15.833 C 94.683 15.607,95.519 15.633,97.167 15.920 M46.405 16.262 C 46.549 16.406,46.667 16.681,46.667 16.872 C 46.667 17.064,46.774 17.602,46.906 18.069 C 47.037 18.535,47.267 19.404,47.417 20.000 C 47.566 20.596,47.796 21.465,47.928 21.931 C 48.059 22.398,48.170 22.960,48.174 23.181 C 48.177 23.402,48.324 23.846,48.500 24.167 L 48.819 24.750 48.826 24.136 C 48.830 23.798,48.916 23.311,49.018 23.053 C 49.119 22.794,49.312 22.096,49.447 21.500 C 49.581 20.904,49.801 19.967,49.935 19.417 C 50.069 18.867,50.248 18.052,50.332 17.607 C 50.698 15.677,52.892 15.153,53.217 16.917 C 53.340 17.584,53.643 18.747,53.932 19.667 C 54.062 20.079,54.171 20.642,54.173 20.917 C 54.176 21.192,54.286 21.604,54.417 21.833 C 54.548 22.063,54.658 22.400,54.662 22.583 C 54.689 23.913,55.313 24.562,55.530 23.486 C 55.638 22.950,55.796 22.301,56.429 19.792 C 56.574 19.219,56.769 18.375,56.862 17.917 C 57.198 16.272,57.439 15.978,58.405 16.034 C 59.419 16.093,59.528 16.370,59.072 17.725 C 58.913 18.197,58.725 18.883,58.654 19.250 C 58.510 19.999,58.199 21.271,57.270 24.917 C 57.130 25.467,56.913 26.325,56.789 26.824 C 56.364 28.525,53.833 28.428,53.833 26.711 C 53.833 26.448,53.767 26.162,53.685 26.075 C 53.604 25.988,53.460 25.504,53.365 25.000 C 53.207 24.157,52.916 22.931,52.227 20.210 C 51.964 19.170,51.668 18.955,51.666 19.802 C 51.665 20.048,51.553 20.465,51.416 20.727 C 51.279 20.990,51.167 21.454,51.167 21.758 C 51.167 22.063,51.081 22.523,50.977 22.781 C 50.873 23.039,50.726 23.550,50.651 23.917 C 49.823 27.945,49.689 28.159,48.136 27.950 C 47.291 27.837,47.230 27.772,46.995 26.750 C 46.890 26.292,46.698 25.579,46.568 25.167 C 46.438 24.754,46.329 24.229,46.327 24.000 C 46.324 23.771,46.214 23.396,46.083 23.167 C 45.952 22.938,45.842 22.535,45.839 22.272 C 45.836 22.010,45.726 21.447,45.596 21.022 C 44.727 18.201,44.339 16.444,44.532 16.211 C 44.783 15.909,46.087 15.944,46.405 16.262 M71.967 16.200 C 72.077 16.310,72.166 16.591,72.164 16.825 C 72.159 17.708,72.051 17.744,69.131 17.833 L 66.417 17.917 66.417 19.167 L 66.417 20.417 68.950 20.500 C 71.623 20.588,71.773 20.634,71.918 21.422 C 72.089 22.353,71.933 22.411,69.090 22.470 C 66.072 22.532,66.287 22.359,66.367 24.667 L 66.417 26.083 69.155 26.129 C 72.153 26.180,72.333 26.235,72.333 27.108 C 72.333 27.952,71.963 28.026,68.042 27.968 C 65.251 27.926,64.626 27.873,64.496 27.667 C 64.275 27.316,64.284 16.737,64.506 16.322 C 64.717 15.927,71.581 15.815,71.967 16.200 M84.132 16.330 C 86.173 17.417,86.600 19.504,85.114 21.129 L 84.768 21.508 85.304 21.997 C 87.133 23.668,86.657 26.531,84.370 27.617 C 83.727 27.922,78.612 28.065,77.958 27.797 C 77.589 27.645,77.501 16.566,77.867 16.200 C 78.241 15.825,83.385 15.932,84.132 16.330 M106.961 16.139 C 107.125 16.243,107.161 17.529,107.127 21.999 L 107.083 27.726 106.589 27.858 C 106.316 27.931,105.866 27.932,105.589 27.860 L 105.083 27.729 105.039 22.093 C 105.008 18.072,105.050 16.391,105.185 16.228 C 105.389 15.982,106.616 15.920,106.961 16.139 M121.633 16.200 C 121.743 16.310,121.832 16.591,121.831 16.825 C 121.826 17.665,121.649 17.746,119.673 17.806 L 117.833 17.863 117.833 22.566 C 117.833 27.872,117.825 27.910,116.725 27.907 C 115.415 27.903,115.500 28.260,115.500 22.755 L 115.500 17.833 113.822 17.833 C 111.788 17.833,111.500 17.712,111.500 16.855 C 111.500 16.507,111.550 16.172,111.611 16.111 C 111.824 15.898,121.416 15.983,121.633 16.200 M133.800 16.200 C 133.910 16.310,133.999 16.591,133.997 16.825 C 133.992 17.711,133.887 17.746,131.007 17.803 C 127.949 17.864,128.100 17.772,128.198 19.509 L 128.250 20.417 130.722 20.500 C 133.438 20.592,133.667 20.684,133.667 21.693 C 133.667 22.390,133.261 22.500,130.695 22.500 C 128.728 22.500,128.353 22.541,128.268 22.764 C 128.173 23.012,128.119 25.968,128.208 26.027 C 128.231 26.042,129.525 26.099,131.083 26.152 L 133.917 26.250 133.970 26.910 C 134.056 27.956,133.906 28.000,130.229 28.000 C 128.465 28.000,126.829 27.927,126.594 27.837 L 126.167 27.675 126.167 21.949 C 126.167 18.799,126.217 16.172,126.278 16.111 C 126.489 15.900,133.584 15.984,133.800 16.200 M79.944 17.944 C 79.708 18.181,79.826 20.287,80.088 20.504 C 80.478 20.827,83.145 20.590,83.437 20.205 C 83.774 19.761,83.727 18.440,83.362 18.109 C 83.050 17.827,80.199 17.690,79.944 17.944 M79.940 22.748 C 79.598 23.641,79.827 25.992,80.268 26.103 C 81.268 26.354,83.390 26.017,83.799 25.542 C 84.377 24.871,84.274 23.426,83.613 22.934 C 82.964 22.450,80.110 22.306,79.940 22.748 " stroke="none" fill="#545454" fill-rule="evenodd"></path><path id="path2" d="M155.500 22.167 L 155.500 44.333 277.750 44.333 L 400.000 44.333 400.000 22.167 L 400.000 0.000 277.750 0.000 L 155.500 0.000 155.500 22.167 M232.454 16.332 C 233.776 16.916,234.612 17.902,234.908 19.224 C 235.090 20.038,234.819 20.167,232.913 20.167 L 231.200 20.167 230.861 19.593 C 230.460 18.913,229.682 18.692,228.761 18.996 C 227.632 19.369,228.188 19.926,230.083 20.320 C 234.754 21.291,236.463 23.517,234.760 26.412 C 232.491 30.270,223.965 29.153,223.788 24.974 L 223.750 24.083 225.610 24.036 L 227.471 23.989 227.659 24.561 C 227.894 25.274,228.477 25.537,229.666 25.468 C 231.540 25.359,231.179 24.555,229.042 24.080 C 224.586 23.088,223.162 21.531,224.037 18.608 C 224.738 16.269,229.436 14.999,232.454 16.332 M259.461 16.229 C 261.021 16.795,261.969 17.912,262.041 19.268 L 262.083 20.083 260.287 20.131 L 258.491 20.178 258.206 19.681 C 257.724 18.841,256.764 18.602,255.825 19.088 C 254.895 19.568,255.288 19.821,257.995 20.485 C 261.468 21.338,262.417 22.158,262.417 24.307 C 262.417 27.210,260.544 28.669,256.833 28.659 C 253.073 28.649,250.833 27.132,251.030 24.730 L 251.083 24.083 252.881 24.036 L 254.679 23.989 254.923 24.572 C 255.291 25.454,256.853 25.858,257.844 25.327 C 258.584 24.931,258.128 24.564,256.325 24.105 C 251.694 22.926,250.561 21.677,251.352 18.623 C 251.937 16.362,256.285 15.079,259.461 16.229 M295.025 16.325 C 296.732 16.965,298.167 18.634,298.167 19.980 C 298.167 20.725,297.908 20.833,296.128 20.833 L 294.489 20.833 294.141 20.244 C 293.240 18.717,290.550 18.779,289.769 20.345 C 289.154 21.579,289.478 24.143,290.350 24.931 C 290.989 25.510,293.240 25.391,293.793 24.750 L 294.225 24.250 292.904 24.167 L 291.583 24.083 291.583 22.750 L 291.583 21.417 294.833 21.417 L 298.083 21.417 298.083 24.917 L 298.083 28.417 297.347 28.469 C 296.442 28.534,295.834 28.395,295.831 28.122 C 295.824 27.562,295.559 27.477,294.947 27.838 C 291.172 30.065,286.253 28.217,285.395 24.250 C 284.469 19.974,286.361 16.679,290.167 15.937 C 291.168 15.742,294.090 15.976,295.025 16.325 M323.019 16.002 C 325.457 16.461,327.333 18.202,327.333 20.006 C 327.333 20.811,327.174 20.867,325.091 20.799 L 323.599 20.750 323.274 20.132 C 322.776 19.186,320.988 18.820,319.818 19.425 C 318.156 20.284,318.180 24.228,319.852 25.093 C 320.652 25.507,322.350 25.365,322.911 24.838 C 323.543 24.245,323.448 24.167,322.087 24.167 C 320.641 24.167,320.611 24.128,320.699 22.410 L 320.750 21.417 323.988 21.371 C 326.467 21.337,327.257 21.376,327.360 21.538 C 327.561 21.854,327.531 27.796,327.327 28.178 C 326.896 28.985,325.348 28.602,324.742 27.539 C 324.729 27.515,324.387 27.675,323.984 27.895 C 321.807 29.083,318.285 28.895,316.517 27.497 C 314.244 25.701,313.662 21.956,315.164 18.787 C 316.244 16.507,319.523 15.344,323.019 16.002 M174.808 16.219 C 174.908 16.340,175.173 16.959,175.397 17.594 C 175.983 19.257,177.092 22.332,177.317 22.917 C 177.422 23.192,177.576 23.604,177.657 23.833 C 178.470 26.117,178.734 26.829,178.946 27.303 C 179.386 28.287,179.259 28.349,176.895 28.297 L 174.783 28.250 174.555 27.591 C 174.250 26.709,174.161 26.672,172.333 26.672 C 170.506 26.672,170.417 26.709,170.111 27.591 L 169.884 28.250 167.855 28.297 C 165.568 28.350,165.506 28.316,165.897 27.243 C 167.737 22.192,168.913 18.938,169.446 17.426 C 169.670 16.790,169.891 16.208,169.937 16.134 C 170.086 15.893,174.603 15.972,174.808 16.219 M184.196 16.228 C 184.318 16.353,184.567 16.635,184.750 16.855 C 185.268 17.476,187.868 20.525,188.333 21.057 L 188.750 21.533 188.833 18.808 L 188.917 16.083 190.750 16.083 L 192.583 16.083 192.583 22.167 L 192.583 28.250 190.750 28.298 C 189.011 28.344,188.901 28.327,188.610 27.965 C 188.441 27.755,187.429 26.582,186.360 25.359 L 184.417 23.135 184.376 25.359 C 184.316 28.626,184.510 28.353,182.287 28.297 L 180.417 28.250 180.373 22.334 C 180.349 19.081,180.365 16.324,180.409 16.209 C 180.528 15.901,183.897 15.918,184.196 16.228 M198.963 18.292 C 198.989 19.506,199.074 20.500,199.152 20.500 C 199.318 20.500,200.109 19.614,201.815 17.515 L 203.047 16.000 205.430 16.000 C 208.417 16.000,208.443 16.031,206.898 17.715 C 206.236 18.435,204.585 20.359,204.195 20.863 C 203.923 21.216,203.934 21.239,206.327 25.059 C 207.345 26.684,208.134 28.085,208.079 28.173 C 208.024 28.263,206.969 28.333,205.676 28.333 L 203.372 28.333 202.810 27.375 C 202.501 26.848,202.098 26.132,201.916 25.784 C 201.049 24.134,200.891 24.094,199.681 25.215 C 199.001 25.846,199.000 25.848,199.000 27.095 L 199.000 28.344 196.958 28.297 L 194.917 28.250 194.870 22.500 C 194.811 15.217,194.565 15.979,196.963 16.036 L 198.917 16.083 198.963 18.292 M213.667 20.000 C 213.770 24.851,213.946 25.333,215.613 25.333 C 217.474 25.333,217.566 25.101,217.667 20.167 L 217.750 16.083 219.700 16.036 C 222.229 15.976,222.060 15.630,221.954 20.649 C 221.867 24.801,221.789 25.281,221.020 26.421 C 218.820 29.678,211.801 29.385,210.096 25.964 L 209.667 25.101 209.667 20.545 L 209.667 15.989 211.625 16.036 L 213.583 16.083 213.667 20.000 M241.130 18.208 L 241.177 20.333 243.088 20.333 L 245.000 20.333 245.000 18.430 C 245.000 15.817,244.837 16.000,247.165 16.000 C 249.576 16.000,249.328 15.281,249.331 22.278 C 249.334 29.032,249.584 28.333,247.167 28.333 C 244.832 28.333,245.000 28.528,245.000 25.820 L 245.000 23.833 243.088 23.833 L 241.176 23.833 241.130 26.042 L 241.083 28.250 239.097 28.297 C 237.619 28.332,237.075 28.290,236.974 28.131 C 236.740 27.761,236.801 16.433,237.038 16.195 C 237.183 16.051,237.812 16.004,239.163 16.037 L 241.083 16.083 241.130 18.208 M268.460 22.213 L 268.504 28.344 266.460 28.297 L 264.417 28.250 264.373 22.334 C 264.349 19.081,264.366 16.322,264.411 16.204 C 264.473 16.042,264.975 16.001,266.455 16.036 L 268.417 16.083 268.460 22.213 M275.417 16.808 C 277.978 19.909,279.244 21.322,279.358 21.208 C 279.431 21.135,279.512 19.953,279.537 18.580 L 279.583 16.083 281.417 16.083 L 283.250 16.083 283.294 22.208 L 283.337 28.333 281.438 28.333 C 279.605 28.333,279.529 28.319,279.270 27.924 C 279.123 27.699,278.867 27.380,278.702 27.216 C 278.536 27.051,277.667 26.073,276.769 25.041 C 275.871 24.009,275.069 23.208,274.985 23.259 C 274.902 23.311,274.833 24.476,274.833 25.849 L 274.833 28.344 272.958 28.297 L 271.083 28.250 271.039 22.334 C 271.015 19.081,271.032 16.324,271.076 16.209 C 271.133 16.059,271.665 16.000,272.953 16.000 L 274.750 16.001 275.417 16.808 M304.399 16.264 C 304.454 16.409,304.500 17.384,304.500 18.430 L 304.500 20.333 306.412 20.333 L 308.323 20.333 308.370 18.208 L 308.417 16.083 310.458 16.037 L 312.500 15.990 312.500 22.167 L 312.500 28.344 310.458 28.297 L 308.417 28.250 308.370 26.042 L 308.324 23.833 306.412 23.833 L 304.500 23.833 304.497 25.875 C 304.494 28.507,304.636 28.354,302.237 28.297 L 300.250 28.250 300.203 22.500 C 300.178 19.337,300.198 16.581,300.248 16.375 C 300.368 15.882,304.213 15.779,304.399 16.264 M337.888 17.000 C 338.062 17.504,338.504 18.742,338.869 19.750 C 339.235 20.758,339.722 22.108,339.950 22.750 C 340.179 23.392,340.462 24.142,340.580 24.417 C 340.698 24.692,340.884 25.217,340.995 25.583 C 341.105 25.950,341.302 26.488,341.433 26.778 C 341.563 27.069,341.716 27.538,341.772 27.820 L 341.875 28.333 339.714 28.333 L 337.553 28.333 337.341 27.625 C 337.062 26.689,337.022 26.672,335.054 26.669 C 333.223 26.666,332.833 26.823,332.833 27.562 C 332.833 28.240,332.546 28.333,330.467 28.333 C 328.235 28.333,328.185 28.291,328.771 26.895 C 328.920 26.540,329.341 25.425,329.705 24.417 C 330.900 21.113,331.684 18.935,332.091 17.789 C 332.787 15.828,332.509 15.984,335.210 16.037 L 337.571 16.083 337.888 17.000 M347.206 16.542 C 347.443 16.840,347.799 17.271,347.996 17.500 C 348.193 17.729,348.480 18.067,348.635 18.250 C 348.790 18.433,349.479 19.246,350.167 20.057 L 351.417 21.531 351.515 18.807 C 351.569 17.309,351.625 16.062,351.640 16.036 C 351.655 16.010,352.473 16.010,353.458 16.036 L 355.250 16.083 355.294 22.208 L 355.337 28.333 353.523 28.333 L 351.709 28.333 351.063 27.616 C 349.992 26.428,349.464 25.816,348.246 24.356 L 347.083 22.963 347.000 25.606 L 346.917 28.250 345.000 28.250 L 343.083 28.250 343.039 22.334 C 343.015 19.081,343.032 16.324,343.076 16.209 C 343.134 16.059,343.668 16.000,344.965 16.000 L 346.773 16.000 347.206 16.542 M365.964 16.347 C 369.740 17.623,370.942 23.705,368.006 26.688 C 366.505 28.213,365.947 28.349,361.444 28.295 L 357.750 28.250 357.706 22.334 C 357.682 19.081,357.698 16.324,357.743 16.209 C 357.896 15.810,364.711 15.924,365.964 16.347 M375.467 16.200 C 375.600 16.333,375.667 17.060,375.667 18.372 L 375.667 20.344 377.542 20.297 L 379.417 20.250 379.500 18.167 L 379.583 16.083 381.583 16.083 L 383.583 16.083 383.583 22.167 L 383.583 28.250 381.547 28.297 L 379.510 28.344 379.463 26.130 L 379.417 23.917 377.542 23.870 L 375.667 23.822 375.664 25.870 C 375.661 28.507,375.803 28.354,373.403 28.297 L 371.417 28.250 371.373 22.334 C 371.349 19.081,371.365 16.324,371.409 16.209 C 371.519 15.923,375.181 15.914,375.467 16.200 M390.294 22.213 L 390.337 28.344 388.294 28.297 L 386.250 28.250 386.206 22.334 C 386.182 19.081,386.199 16.322,386.245 16.204 C 386.307 16.042,386.808 16.001,388.288 16.036 L 390.250 16.083 390.294 22.213 M361.934 19.430 C 361.879 19.575,361.833 20.807,361.833 22.167 C 361.833 25.275,361.790 25.167,363.034 25.167 C 363.948 25.167,364.082 25.118,364.600 24.600 L 365.167 24.033 365.167 22.220 C 365.167 20.181,365.016 19.796,364.067 19.399 C 363.290 19.074,362.064 19.092,361.934 19.430 M334.971 20.267 C 334.890 20.422,334.684 21.119,334.277 22.615 C 334.005 23.618,334.050 23.667,335.264 23.667 C 336.122 23.667,336.156 23.557,335.731 22.144 C 335.296 20.700,335.056 20.107,334.971 20.267 M172.097 20.708 C 171.208 23.830,171.201 23.668,172.218 23.664 C 173.356 23.660,173.390 23.580,172.917 22.002 C 172.688 21.235,172.500 20.584,172.500 20.554 C 172.500 20.396,172.147 20.531,172.097 20.708 " stroke="none" fill="#04a3f3" fill-rule="evenodd"></path><path id="path3" d="M14.769 11.760 C 14.638 12.102,14.634 23.296,14.765 23.951 L 14.864 24.444 15.849 23.498 C 16.390 22.978,16.833 22.446,16.833 22.316 C 16.833 22.185,16.984 21.797,17.169 21.452 C 17.387 21.046,17.565 20.232,17.678 19.130 C 17.774 18.197,17.992 17.093,18.162 16.675 C 18.333 16.258,18.518 15.467,18.573 14.917 C 18.716 13.496,19.166 12.966,20.583 12.554 C 20.965 12.443,21.083 12.311,21.083 11.996 L 21.083 11.583 17.978 11.538 C 15.255 11.498,14.859 11.526,14.769 11.760 M27.936 11.645 C 27.652 11.758,27.673 11.810,28.160 12.177 C 28.456 12.400,28.922 12.790,29.195 13.042 C 29.469 13.294,29.750 13.500,29.821 13.500 C 29.891 13.500,30.279 13.884,30.683 14.354 C 31.086 14.824,31.548 15.360,31.708 15.546 C 31.869 15.732,32.000 15.988,32.000 16.114 C 32.000 16.240,32.106 16.385,32.236 16.434 C 32.366 16.484,32.669 16.822,32.909 17.186 C 33.438 17.984,34.232 18.499,34.938 18.499 C 35.807 18.500,35.845 18.339,35.795 14.812 L 35.750 11.583 32.000 11.552 C 29.938 11.534,28.109 11.576,27.936 11.645 M227.476 15.992 C 223.022 16.810,222.470 22.132,226.702 23.461 C 227.294 23.646,228.347 23.925,229.042 24.080 C 231.179 24.555,231.540 25.359,229.666 25.468 C 228.477 25.537,227.894 25.274,227.659 24.561 L 227.471 23.989 225.610 24.036 L 223.750 24.083 223.788 24.974 C 223.965 29.153,232.491 30.270,234.760 26.412 C 236.463 23.517,234.754 21.291,230.083 20.320 C 228.188 19.926,227.632 19.369,228.761 18.996 C 229.682 18.692,230.460 18.913,230.861 19.593 L 231.200 20.167 232.913 20.167 C 235.127 20.167,235.330 19.932,234.579 18.250 C 233.760 16.417,230.611 15.416,227.476 15.992 M254.689 16.002 C 252.092 16.551,250.847 18.269,251.245 20.750 C 251.514 22.426,252.632 23.165,256.325 24.105 C 258.128 24.564,258.584 24.931,257.844 25.327 C 256.853 25.858,255.291 25.454,254.923 24.572 L 254.679 23.989 252.881 24.036 L 251.083 24.083 251.030 24.730 C 250.833 27.132,253.073 28.649,256.833 28.659 C 260.544 28.669,262.417 27.210,262.417 24.307 C 262.417 22.158,261.468 21.338,257.995 20.485 C 255.288 19.821,254.895 19.568,255.825 19.088 C 256.764 18.602,257.724 18.841,258.206 19.681 L 258.491 20.178 260.287 20.131 L 262.083 20.083 262.041 19.268 C 261.910 16.786,258.385 15.220,254.689 16.002 M290.167 15.937 C 286.361 16.679,284.469 19.974,285.395 24.250 C 286.253 28.217,291.172 30.065,294.947 27.838 C 295.559 27.477,295.824 27.562,295.831 28.122 C 295.834 28.395,296.442 28.534,297.347 28.469 L 298.083 28.417 298.083 24.917 L 298.083 21.417 294.833 21.417 L 291.583 21.417 291.583 22.750 L 291.583 24.083 292.904 24.167 L 294.225 24.250 293.793 24.750 C 293.240 25.391,290.989 25.510,290.350 24.931 C 289.478 24.143,289.154 21.579,289.769 20.345 C 290.550 18.779,293.240 18.717,294.141 20.244 L 294.489 20.833 296.128 20.833 C 298.291 20.833,298.580 20.492,297.853 18.795 C 296.959 16.709,293.260 15.334,290.167 15.937 M319.022 16.013 C 314.917 16.820,312.949 22.129,315.271 26.128 C 316.715 28.614,321.054 29.494,323.984 27.895 C 324.387 27.675,324.729 27.515,324.742 27.539 C 325.348 28.602,326.896 28.985,327.327 28.178 C 327.531 27.796,327.561 21.854,327.360 21.538 C 327.257 21.376,326.467 21.337,323.988 21.371 L 320.750 21.417 320.699 22.410 C 320.611 24.128,320.641 24.167,322.087 24.167 C 323.448 24.167,323.543 24.245,322.911 24.838 C 322.350 25.365,320.652 25.507,319.852 25.093 C 318.180 24.228,318.156 20.284,319.818 19.425 C 320.988 18.820,322.776 19.186,323.274 20.132 L 323.599 20.750 325.091 20.799 C 327.174 20.867,327.333 20.811,327.333 20.006 C 327.333 17.145,323.247 15.183,319.022 16.013 M94.961 16.121 C 95.261 16.158,95.711 16.157,95.961 16.119 C 96.212 16.081,95.967 16.051,95.417 16.052 C 94.867 16.053,94.662 16.084,94.961 16.121 M169.937 16.134 C 169.891 16.208,169.670 16.790,169.446 17.426 C 168.913 18.938,167.737 22.192,165.897 27.243 C 165.506 28.316,165.568 28.350,167.855 28.297 L 169.884 28.250 170.111 27.591 C 170.417 26.709,170.506 26.672,172.333 26.672 C 174.161 26.672,174.250 26.709,174.555 27.591 L 174.783 28.250 176.895 28.297 C 179.259 28.349,179.386 28.287,178.946 27.303 C 178.734 26.829,178.470 26.117,177.657 23.833 C 177.576 23.604,177.422 23.192,177.317 22.917 C 177.092 22.332,175.983 19.257,175.397 17.594 C 175.173 16.959,174.908 16.340,174.808 16.219 C 174.603 15.972,170.086 15.893,169.937 16.134 M180.409 16.209 C 180.365 16.324,180.349 19.081,180.373 22.334 L 180.417 28.250 182.287 28.297 C 184.510 28.353,184.316 28.626,184.376 25.359 L 184.417 23.135 186.360 25.359 C 187.429 26.582,188.441 27.755,188.610 27.965 C 188.901 28.327,189.011 28.344,190.750 28.298 L 192.583 28.250 192.583 22.167 L 192.583 16.083 190.750 16.083 L 188.917 16.083 188.833 18.808 L 188.750 21.533 188.333 21.057 C 187.868 20.525,185.268 17.476,184.750 16.855 C 184.032 15.995,184.048 16.000,182.233 16.000 C 180.988 16.000,180.467 16.060,180.409 16.209 M194.916 16.370 C 194.865 16.579,194.845 19.337,194.870 22.500 L 194.917 28.250 196.958 28.297 L 199.000 28.344 199.000 27.095 C 199.000 25.848,199.001 25.846,199.681 25.215 C 200.891 24.094,201.049 24.134,201.916 25.784 C 202.098 26.132,202.501 26.848,202.810 27.375 L 203.372 28.333 205.676 28.333 C 206.969 28.333,208.024 28.263,208.079 28.173 C 208.134 28.085,207.345 26.684,206.327 25.059 C 203.934 21.239,203.923 21.216,204.195 20.863 C 204.585 20.359,206.236 18.435,206.898 17.715 C 208.443 16.031,208.417 16.000,205.430 16.000 L 203.047 16.000 201.815 17.515 C 200.109 19.614,199.318 20.500,199.152 20.500 C 199.074 20.500,198.989 19.506,198.963 18.292 L 198.917 16.083 196.963 16.036 C 195.049 15.990,195.007 15.997,194.916 16.370 M209.667 20.545 L 209.667 25.101 210.096 25.964 C 211.801 29.385,218.820 29.678,221.020 26.421 C 221.789 25.281,221.867 24.801,221.954 20.649 C 222.060 15.630,222.229 15.976,219.700 16.036 L 217.750 16.083 217.667 20.167 C 217.566 25.101,217.474 25.333,215.613 25.333 C 213.946 25.333,213.770 24.851,213.667 20.000 L 213.583 16.083 211.625 16.036 L 209.667 15.989 209.667 20.545 M237.038 16.195 C 236.801 16.433,236.740 27.761,236.974 28.131 C 237.075 28.290,237.619 28.332,239.097 28.297 L 241.083 28.250 241.130 26.042 L 241.176 23.833 243.088 23.833 L 245.000 23.833 245.000 25.820 C 245.000 28.528,244.832 28.333,247.167 28.333 C 249.584 28.333,249.334 29.032,249.331 22.278 C 249.328 15.281,249.576 16.000,247.165 16.000 C 244.837 16.000,245.000 15.817,245.000 18.430 L 245.000 20.333 243.088 20.333 L 241.177 20.333 241.130 18.208 L 241.083 16.083 239.163 16.037 C 237.812 16.004,237.183 16.051,237.038 16.195 M264.411 16.204 C 264.366 16.322,264.349 19.081,264.373 22.334 L 264.417 28.250 266.460 28.297 L 268.504 28.344 268.460 22.213 L 268.417 16.083 266.455 16.036 C 264.975 16.001,264.473 16.042,264.411 16.204 M271.076 16.209 C 271.032 16.324,271.015 19.081,271.039 22.334 L 271.083 28.250 272.958 28.297 L 274.833 28.344 274.833 25.849 C 274.833 24.476,274.902 23.311,274.985 23.259 C 275.069 23.208,275.871 24.009,276.769 25.041 C 277.667 26.073,278.536 27.051,278.702 27.216 C 278.867 27.380,279.123 27.699,279.270 27.924 C 279.529 28.319,279.605 28.333,281.438 28.333 L 283.337 28.333 283.294 22.208 L 283.250 16.083 281.417 16.083 L 279.583 16.083 279.537 18.580 C 279.512 19.953,279.431 21.135,279.358 21.208 C 279.244 21.322,277.978 19.909,275.417 16.808 L 274.750 16.001 272.953 16.000 C 271.665 16.000,271.133 16.059,271.076 16.209 M300.248 16.375 C 300.198 16.581,300.178 19.337,300.203 22.500 L 300.250 28.250 302.237 28.297 C 304.636 28.354,304.494 28.507,304.497 25.875 L 304.500 23.833 306.412 23.833 L 308.324 23.833 308.370 26.042 L 308.417 28.250 310.458 28.297 L 312.500 28.344 312.500 22.167 L 312.500 15.990 310.458 16.037 L 308.417 16.083 308.370 18.208 L 308.323 20.333 306.412 20.333 L 304.500 20.333 304.500 18.430 C 304.500 15.816,304.665 16.000,302.319 16.000 C 300.405 16.000,300.337 16.012,300.248 16.375 M332.670 16.326 C 332.572 16.511,332.311 17.169,332.091 17.789 C 331.684 18.935,330.900 21.113,329.705 24.417 C 329.341 25.425,328.920 26.540,328.771 26.895 C 328.185 28.291,328.235 28.333,330.467 28.333 C 332.546 28.333,332.833 28.240,332.833 27.562 C 332.833 26.823,333.223 26.666,335.054 26.669 C 337.022 26.672,337.062 26.689,337.341 27.625 L 337.553 28.333 339.714 28.333 L 341.875 28.333 341.772 27.820 C 341.716 27.538,341.563 27.069,341.433 26.778 C 341.302 26.488,341.105 25.950,340.995 25.583 C 340.884 25.217,340.698 24.692,340.580 24.417 C 340.462 24.142,340.179 23.392,339.950 22.750 C 339.722 22.108,339.235 20.758,338.869 19.750 C 338.504 18.742,338.062 17.504,337.888 17.000 L 337.571 16.083 335.210 16.037 C 332.990 15.994,332.839 16.011,332.670 16.326 M343.076 16.209 C 343.032 16.324,343.015 19.081,343.039 22.334 L 343.083 28.250 345.000 28.250 L 346.917 28.250 347.000 25.606 L 347.083 22.963 348.246 24.356 C 349.464 25.816,349.992 26.428,351.063 27.616 L 351.709 28.333 353.523 28.333 L 355.337 28.333 355.294 22.208 L 355.250 16.083 353.458 16.036 C 352.473 16.010,351.667 16.048,351.666 16.119 C 351.666 16.191,352.435 16.250,353.375 16.250 L 355.083 16.250 355.083 22.167 L 355.083 28.083 353.476 28.131 L 351.869 28.178 349.741 25.714 C 346.836 22.350,347.021 22.533,346.830 22.833 C 346.743 22.971,346.671 24.227,346.669 25.625 L 346.667 28.167 344.998 28.167 L 343.329 28.167 343.373 22.208 L 343.417 16.250 344.917 16.208 C 346.723 16.156,346.272 15.836,349.144 19.208 C 350.452 20.744,351.555 22.000,351.595 22.000 C 351.634 22.000,351.651 20.744,351.632 19.208 L 351.597 16.417 351.507 18.973 L 351.417 21.530 350.167 20.057 C 349.479 19.246,348.790 18.433,348.635 18.250 C 348.480 18.067,348.193 17.729,347.996 17.500 C 347.799 17.271,347.443 16.840,347.206 16.542 L 346.773 16.000 344.965 16.000 C 343.668 16.000,343.134 16.059,343.076 16.209 M357.743 16.209 C 357.698 16.324,357.682 19.081,357.706 22.334 L 357.750 28.250 361.444 28.295 C 364.869 28.336,365.208 28.314,366.110 27.982 C 370.867 26.236,370.763 17.968,365.964 16.347 C 364.711 15.924,357.896 15.810,357.743 16.209 M371.409 16.209 C 371.365 16.324,371.349 19.081,371.373 22.334 L 371.417 28.250 373.403 28.297 C 375.803 28.354,375.661 28.507,375.664 25.870 L 375.667 23.822 377.542 23.870 L 379.417 23.917 379.463 26.130 L 379.510 28.344 381.547 28.297 L 383.583 28.250 383.583 22.167 L 383.583 16.083 381.583 16.083 L 379.583 16.083 379.500 18.167 L 379.417 20.250 377.542 20.297 L 375.667 20.344 375.667 18.372 C 375.667 17.060,375.600 16.333,375.467 16.200 C 375.181 15.914,371.519 15.923,371.409 16.209 M386.245 16.204 C 386.199 16.322,386.182 19.081,386.206 22.334 L 386.250 28.250 388.294 28.297 L 390.337 28.344 390.294 22.213 L 390.250 16.083 388.288 16.036 C 386.808 16.001,386.307 16.042,386.245 16.204 M174.544 16.401 C 174.673 16.530,175.326 18.161,175.995 20.026 C 176.664 21.891,177.580 24.421,178.031 25.649 C 178.998 28.284,179.042 28.193,176.837 28.131 C 175.006 28.080,175.085 28.118,174.632 27.083 L 174.413 26.583 172.304 26.537 L 170.196 26.490 169.993 27.120 C 169.662 28.148,169.621 28.167,167.730 28.167 C 165.574 28.167,165.553 28.837,167.911 22.500 C 168.133 21.904,168.704 20.329,169.180 19.000 C 169.656 17.671,170.120 16.490,170.210 16.375 C 170.456 16.063,174.228 16.086,174.544 16.401 M183.741 16.269 C 183.888 16.326,185.058 17.601,186.340 19.103 C 187.622 20.605,188.745 21.833,188.836 21.833 C 188.937 21.833,189.000 20.819,189.000 19.200 C 189.000 16.063,188.940 16.167,190.763 16.167 C 192.644 16.167,192.512 15.685,192.461 22.353 L 192.417 28.083 190.811 28.131 L 189.206 28.178 188.621 27.547 C 188.299 27.201,187.227 25.979,186.238 24.833 C 185.250 23.688,184.361 22.750,184.262 22.750 C 184.146 22.750,184.054 23.680,184.000 25.417 L 183.917 28.083 182.347 28.132 C 181.204 28.167,180.741 28.122,180.641 27.965 C 180.411 27.601,180.466 16.600,180.700 16.367 C 180.909 16.157,183.253 16.082,183.741 16.269 M198.797 18.580 C 198.851 21.319,198.920 21.447,199.766 20.387 C 200.119 19.945,200.634 19.319,200.912 18.996 C 201.190 18.673,201.717 18.040,202.083 17.590 C 203.333 16.055,203.105 16.151,205.366 16.203 C 207.909 16.262,207.898 16.197,205.784 18.608 C 203.344 21.391,203.347 20.719,205.750 24.586 C 206.883 26.410,207.773 27.962,207.728 28.035 C 207.684 28.107,206.763 28.167,205.683 28.167 C 203.370 28.167,203.600 28.321,202.213 25.832 C 201.069 23.779,201.007 23.752,199.778 24.763 L 198.833 25.541 198.833 26.854 L 198.833 28.167 197.000 28.167 L 195.167 28.167 195.167 22.278 C 195.167 19.039,195.219 16.336,195.283 16.272 C 195.347 16.208,196.154 16.177,197.075 16.203 L 198.750 16.250 198.797 18.580 M231.858 16.437 C 233.439 16.881,234.667 18.180,234.667 19.411 L 234.667 19.833 232.917 19.833 C 231.679 19.833,231.167 19.776,231.167 19.636 C 231.167 18.850,229.287 18.323,228.322 18.839 C 227.292 19.391,228.136 20.180,230.250 20.642 C 234.562 21.585,235.997 23.457,234.560 26.265 C 232.871 29.567,224.899 28.918,224.015 25.407 C 223.752 24.365,223.801 24.333,225.685 24.333 L 227.351 24.333 227.527 24.838 C 227.751 25.482,228.433 25.834,229.450 25.831 C 230.833 25.827,231.541 25.190,230.923 24.507 C 230.651 24.207,230.307 24.092,228.083 23.565 C 225.178 22.876,224.166 21.914,224.167 19.842 C 224.169 16.927,227.828 15.306,231.858 16.437 M240.833 18.250 C 240.940 20.821,240.792 20.667,243.159 20.667 C 245.503 20.667,245.333 20.863,245.333 18.147 L 245.333 16.155 247.125 16.203 L 248.917 16.250 248.917 22.167 L 248.917 28.083 247.130 28.131 L 245.343 28.178 245.297 25.964 L 245.250 23.750 243.180 23.703 C 240.685 23.646,240.839 23.486,240.836 26.131 L 240.833 28.178 239.042 28.131 L 237.250 28.083 237.206 22.334 C 237.153 15.415,236.935 16.144,239.039 16.202 L 240.750 16.250 240.833 18.250 M259.242 16.510 C 260.845 17.005,262.404 18.878,261.897 19.698 C 261.659 20.084,258.495 19.843,258.337 19.427 C 258.026 18.610,256.170 18.330,255.500 19.000 C 254.741 19.759,255.297 20.162,257.919 20.754 C 261.229 21.502,262.210 22.339,262.197 24.403 C 262.181 27.047,260.450 28.333,256.907 28.333 C 253.218 28.333,251.167 27.075,251.167 24.813 L 251.167 24.333 252.875 24.337 L 254.583 24.341 254.833 24.878 C 255.421 26.140,258.157 26.208,258.302 24.964 C 258.367 24.401,257.913 24.153,256.083 23.753 C 252.458 22.960,251.121 21.737,251.391 19.458 C 251.712 16.745,255.454 15.340,259.242 16.510 M268.250 22.167 L 268.250 28.083 266.417 28.083 L 264.583 28.083 264.539 22.261 C 264.489 15.523,264.277 16.149,266.583 16.208 L 268.250 16.250 268.250 22.167 M274.489 16.328 C 274.655 16.416,275.820 17.691,277.078 19.161 C 278.337 20.631,279.434 21.833,279.517 21.833 C 279.599 21.833,279.667 20.677,279.667 19.264 C 279.667 15.935,279.535 16.167,281.431 16.167 C 283.367 16.167,283.188 15.501,283.130 22.500 L 283.083 28.083 281.476 28.131 L 279.868 28.178 277.494 25.464 C 276.188 23.971,275.037 22.750,274.935 22.750 C 274.809 22.750,274.735 23.614,274.704 25.464 L 274.658 28.179 273.038 28.131 L 271.417 28.083 271.373 22.334 C 271.349 19.172,271.365 16.491,271.409 16.376 C 271.507 16.122,274.030 16.082,274.489 16.328 M294.369 16.426 C 296.148 16.887,297.437 18.001,297.835 19.421 C 298.121 20.443,298.034 20.500,296.193 20.500 L 294.572 20.500 294.269 19.987 C 293.289 18.329,290.495 18.439,289.625 20.170 C 288.908 21.597,289.329 24.462,290.368 25.224 C 291.371 25.959,293.477 25.699,294.089 24.765 C 294.574 24.025,294.334 23.833,292.922 23.833 L 291.667 23.833 291.667 22.750 L 291.667 21.667 294.833 21.667 L 298.000 21.667 298.000 24.917 L 298.000 28.167 297.080 28.167 C 296.235 28.167,296.143 28.129,295.963 27.708 C 295.854 27.456,295.749 27.224,295.728 27.192 C 295.707 27.160,295.180 27.385,294.557 27.692 C 292.245 28.830,288.563 28.438,286.969 26.885 C 284.829 24.800,284.952 19.473,287.183 17.595 C 288.763 16.266,291.827 15.767,294.369 16.426 M304.167 18.417 L 304.250 20.583 306.248 20.631 C 308.752 20.690,308.667 20.778,308.667 18.129 L 308.667 16.155 310.458 16.203 L 312.250 16.250 312.250 22.167 L 312.250 28.083 310.458 28.131 L 308.667 28.178 308.664 26.131 C 308.661 23.486,308.815 23.646,306.320 23.703 L 304.250 23.750 304.203 25.964 L 304.157 28.178 302.370 28.131 L 300.583 28.083 300.539 22.334 C 300.487 15.415,300.269 16.144,302.372 16.202 L 304.083 16.250 304.167 18.417 M324.199 16.575 C 325.708 17.121,327.257 18.913,327.135 19.971 L 327.083 20.417 325.416 20.464 L 323.748 20.511 323.445 19.947 C 322.847 18.837,320.803 18.441,319.650 19.212 C 318.066 20.270,318.006 24.103,319.554 25.238 C 320.353 25.823,322.317 25.737,322.996 25.087 C 323.868 24.252,323.657 23.933,322.167 23.833 L 320.917 23.750 320.917 22.750 L 320.917 21.750 324.042 21.705 L 327.167 21.659 327.167 24.913 L 327.167 28.167 326.254 28.167 C 325.409 28.167,325.323 28.130,325.083 27.667 C 324.791 27.102,324.717 27.074,324.346 27.394 C 323.255 28.336,319.229 28.607,317.543 27.851 C 313.983 26.257,313.529 19.540,316.827 17.255 C 318.403 16.162,322.113 15.820,324.199 16.575 M337.265 16.294 C 337.366 16.362,337.604 16.867,337.795 17.417 C 338.201 18.588,339.264 21.508,340.646 25.250 C 341.801 28.377,341.871 28.191,339.573 28.131 L 337.759 28.083 337.482 27.333 L 337.205 26.583 335.066 26.583 L 332.927 26.583 332.667 27.333 L 332.407 28.083 330.537 28.130 C 329.255 28.163,328.667 28.120,328.667 27.994 C 328.667 27.892,329.036 26.821,329.487 25.613 C 329.938 24.405,330.695 22.329,331.170 21.000 C 333.070 15.676,332.659 16.172,335.167 16.172 C 336.221 16.172,337.165 16.227,337.265 16.294 M364.565 16.339 C 367.897 16.821,369.250 18.505,369.249 22.167 C 369.248 26.869,367.658 28.083,361.500 28.083 L 357.917 28.083 357.873 22.261 C 357.839 17.714,357.875 16.410,358.039 16.305 C 358.338 16.116,363.192 16.141,364.565 16.339 M375.333 18.417 L 375.417 20.583 377.500 20.583 L 379.583 20.583 379.631 18.594 C 379.657 17.477,379.757 16.508,379.859 16.385 C 380.100 16.095,383.013 16.080,383.300 16.367 C 383.533 16.600,383.589 27.601,383.359 27.964 C 383.259 28.122,382.763 28.166,381.486 28.131 L 379.750 28.083 379.667 25.917 L 379.583 23.750 377.500 23.750 L 375.417 23.750 375.333 25.917 L 375.250 28.083 373.458 28.131 L 371.667 28.178 371.667 22.283 C 371.667 19.041,371.719 16.336,371.783 16.272 C 371.847 16.208,372.654 16.177,373.575 16.203 L 375.250 16.250 375.333 18.417 M389.961 16.305 C 390.125 16.410,390.161 17.714,390.127 22.261 L 390.083 28.083 388.347 28.131 C 387.070 28.166,386.575 28.122,386.475 27.964 C 386.244 27.601,386.300 16.600,386.533 16.367 C 386.761 16.139,389.619 16.088,389.961 16.305 M121.356 16.675 C 121.344 16.909,121.277 17.172,121.208 17.260 C 121.140 17.347,121.184 17.334,121.306 17.231 C 121.429 17.127,121.495 16.864,121.454 16.646 C 121.379 16.254,121.378 16.254,121.356 16.675 M213.500 20.089 C 213.500 24.062,213.582 24.585,214.309 25.233 C 215.132 25.966,217.148 25.644,217.608 24.705 C 217.686 24.546,217.787 22.617,217.833 20.417 L 217.917 16.417 219.750 16.417 L 221.583 16.417 221.583 20.667 L 221.583 24.917 221.131 25.775 C 219.164 29.504,211.356 29.175,210.107 25.311 C 209.884 24.618,209.833 23.714,209.833 20.398 L 209.833 16.333 211.667 16.333 L 213.500 16.333 213.500 20.089 M77.908 22.167 C 77.908 25.054,77.930 26.235,77.958 24.792 C 77.986 23.348,77.986 20.985,77.958 19.542 C 77.930 18.098,77.908 19.279,77.908 22.167 M98.333 17.667 L 97.917 17.800 98.375 17.817 C 98.627 17.826,98.833 17.758,98.833 17.667 C 98.833 17.575,98.815 17.507,98.792 17.517 C 98.769 17.526,98.563 17.593,98.333 17.667 M117.518 17.729 C 117.383 17.891,117.342 19.333,117.375 22.687 L 117.422 27.417 117.461 22.658 C 117.489 19.225,117.556 17.844,117.700 17.700 C 117.810 17.590,117.857 17.500,117.804 17.500 C 117.751 17.500,117.622 17.603,117.518 17.729 M361.866 19.044 C 361.714 19.227,361.671 20.103,361.704 22.355 L 361.750 25.417 362.750 25.462 C 364.757 25.552,365.417 24.732,365.417 22.145 C 365.417 20.181,365.213 19.659,364.269 19.195 C 363.540 18.838,362.112 18.748,361.866 19.044 M364.067 19.399 C 365.016 19.796,365.167 20.181,365.167 22.220 L 365.167 24.033 364.600 24.600 C 364.082 25.118,363.948 25.167,363.034 25.167 C 361.790 25.167,361.833 25.275,361.833 22.167 C 361.833 20.807,361.879 19.575,361.934 19.430 C 362.064 19.092,363.290 19.074,364.067 19.399 M172.212 19.871 C 171.975 20.170,170.999 23.531,171.102 23.697 C 171.213 23.876,173.455 23.874,173.566 23.695 C 173.645 23.567,172.611 19.889,172.452 19.729 C 172.413 19.690,172.305 19.754,172.212 19.871 M334.920 19.828 C 334.752 20.100,333.837 23.231,333.835 23.542 C 333.834 23.794,334.004 23.833,335.091 23.833 L 336.348 23.833 336.236 23.208 C 336.174 22.865,336.069 22.471,336.003 22.333 C 335.937 22.196,335.744 21.540,335.576 20.875 C 335.281 19.714,335.135 19.480,334.920 19.828 M335.731 22.144 C 336.156 23.557,336.122 23.667,335.264 23.667 C 333.892 23.667,333.924 23.813,334.702 21.083 C 335.036 19.912,335.069 19.945,335.731 22.144 M172.500 20.554 C 172.500 20.584,172.688 21.235,172.917 22.002 C 173.390 23.580,173.356 23.660,172.218 23.664 C 171.303 23.667,171.276 23.590,171.688 22.145 C 171.880 21.469,172.064 20.823,172.097 20.708 C 172.147 20.531,172.500 20.396,172.500 20.554 M67.625 20.957 C 68.290 20.989,69.377 20.989,70.042 20.957 C 70.706 20.925,70.162 20.900,68.833 20.900 C 67.504 20.900,66.960 20.925,67.625 20.957 M129.458 20.957 C 130.123 20.989,131.210 20.989,131.875 20.957 C 132.540 20.925,131.996 20.900,130.667 20.900 C 129.337 20.900,128.794 20.925,129.458 20.957 M86.045 24.500 C 86.045 24.912,86.078 25.081,86.118 24.875 C 86.157 24.669,86.157 24.331,86.118 24.125 C 86.078 23.919,86.045 24.087,86.045 24.500 M48.317 24.750 C 48.598 25.294,48.828 25.595,48.827 25.417 C 48.826 25.325,48.673 25.063,48.485 24.833 C 48.259 24.557,48.202 24.529,48.317 24.750 M79.645 26.208 C 79.832 26.447,80.107 26.494,81.145 26.467 L 82.417 26.434 81.174 26.376 C 80.491 26.344,79.816 26.227,79.674 26.117 C 79.448 25.941,79.445 25.952,79.645 26.208 M68.988 26.458 C 70.690 26.492,71.649 26.578,71.822 26.713 C 72.052 26.893,72.056 26.882,71.855 26.625 C 71.652 26.366,71.331 26.338,69.021 26.370 L 66.417 26.407 68.988 26.458 M130.917 26.456 C 133.023 26.498,133.449 26.549,133.625 26.785 C 133.740 26.938,133.833 26.989,133.833 26.899 C 133.833 26.415,133.388 26.334,130.925 26.370 L 128.417 26.407 130.917 26.456 M94.875 27.948 C 95.035 27.990,95.298 27.990,95.458 27.948 C 95.619 27.906,95.487 27.872,95.167 27.872 C 94.846 27.872,94.715 27.906,94.875 27.948 " stroke="none" fill="#5cbded" fill-rule="evenodd"></path><path id="path4" d="M155.167 22.167 C 155.167 36.833,155.223 44.333,155.333 44.333 C 155.444 44.333,155.500 36.833,155.500 22.167 C 155.500 7.500,155.444 0.000,155.333 0.000 C 155.223 0.000,155.167 7.500,155.167 22.167 M14.333 11.163 C 13.932 11.417,13.960 26.198,14.362 26.600 C 14.682 26.920,15.129 26.812,15.272 26.379 C 15.471 25.779,16.225 24.333,16.340 24.333 C 17.160 24.333,18.042 22.655,18.242 20.712 C 18.301 20.141,18.487 19.353,18.655 18.962 C 18.824 18.570,19.010 17.762,19.069 17.167 C 19.307 14.748,19.544 14.306,21.153 13.280 C 21.948 12.773,22.398 11.581,21.925 11.235 C 21.544 10.957,14.761 10.893,14.333 11.163 M25.138 11.121 C 23.753 11.267,24.018 11.891,25.586 12.181 C 27.539 12.542,29.475 14.088,31.555 16.949 C 33.323 19.379,34.915 20.245,36.002 19.366 L 36.417 19.030 36.470 15.359 C 36.506 12.901,36.462 11.574,36.339 11.344 C 36.163 11.014,27.736 10.846,25.138 11.121 M21.083 11.996 C 21.083 12.311,20.965 12.443,20.583 12.554 C 19.166 12.966,18.716 13.496,18.573 14.917 C 18.518 15.467,18.333 16.258,18.162 16.675 C 17.992 17.093,17.774 18.197,17.678 19.130 C 17.565 20.232,17.387 21.046,17.169 21.452 C 16.984 21.797,16.833 22.185,16.833 22.316 C 16.833 22.446,16.390 22.978,15.849 23.498 L 14.864 24.444 14.765 23.951 C 14.634 23.296,14.638 12.102,14.769 11.760 C 14.859 11.526,15.255 11.498,17.978 11.538 L 21.083 11.583 21.083 11.996 M35.795 14.812 C 35.845 18.339,35.807 18.500,34.938 18.499 C 34.232 18.499,33.438 17.984,32.909 17.186 C 32.669 16.822,32.366 16.484,32.236 16.434 C 32.106 16.385,32.000 16.240,32.000 16.114 C 32.000 15.988,31.869 15.732,31.708 15.546 C 31.548 15.360,31.086 14.824,30.683 14.354 C 30.279 13.884,29.891 13.500,29.821 13.500 C 29.750 13.500,29.469 13.294,29.195 13.042 C 28.922 12.790,28.456 12.400,28.160 12.177 C 27.358 11.572,27.704 11.516,32.000 11.552 L 35.750 11.583 35.795 14.812 M94.333 15.833 C 94.196 15.922,93.913 15.996,93.705 15.997 C 92.365 16.006,91.333 17.462,91.333 19.342 L 91.333 20.728 92.126 21.489 C 92.931 22.263,93.547 22.513,95.379 22.812 C 95.817 22.883,96.263 23.029,96.371 23.137 C 96.478 23.245,96.690 23.333,96.840 23.333 C 97.434 23.333,97.723 24.941,97.250 25.616 C 96.931 26.071,95.474 26.561,94.781 26.446 C 93.893 26.299,92.606 25.924,92.195 25.693 C 91.312 25.196,90.840 26.981,91.708 27.533 C 93.034 28.376,96.552 28.394,98.083 27.567 C 100.855 26.069,99.718 21.000,96.610 21.000 C 96.389 21.000,95.938 20.887,95.609 20.750 C 95.280 20.612,94.827 20.500,94.602 20.500 C 94.089 20.500,93.165 19.602,93.173 19.112 C 93.195 17.747,96.083 17.073,97.873 18.014 C 98.920 18.566,99.659 17.463,98.875 16.519 C 98.409 15.957,94.950 15.435,94.333 15.833 M44.532 16.211 C 44.339 16.444,44.727 18.201,45.596 21.022 C 45.726 21.447,45.836 22.010,45.839 22.272 C 45.842 22.535,45.952 22.938,46.083 23.167 C 46.214 23.396,46.324 23.771,46.327 24.000 C 46.329 24.229,46.438 24.754,46.568 25.167 C 46.698 25.579,46.890 26.292,46.995 26.750 C 47.230 27.772,47.291 27.837,48.136 27.950 C 49.689 28.159,49.823 27.945,50.651 23.917 C 50.726 23.550,50.873 23.039,50.977 22.781 C 51.081 22.523,51.167 22.063,51.167 21.758 C 51.167 21.454,51.279 20.990,51.416 20.727 C 51.553 20.465,51.665 20.048,51.666 19.802 C 51.668 18.955,51.964 19.170,52.227 20.210 C 52.916 22.931,53.207 24.157,53.365 25.000 C 53.460 25.504,53.604 25.988,53.685 26.075 C 53.767 26.162,53.833 26.448,53.833 26.711 C 53.833 27.496,54.101 27.804,54.875 27.911 C 56.137 28.087,56.529 27.864,56.789 26.824 C 56.913 26.325,57.130 25.467,57.270 24.917 C 58.199 21.271,58.510 19.999,58.654 19.250 C 58.725 18.883,58.913 18.197,59.072 17.725 C 59.528 16.370,59.419 16.093,58.405 16.034 C 57.439 15.978,57.198 16.272,56.862 17.917 C 56.769 18.375,56.574 19.219,56.429 19.792 C 55.796 22.301,55.638 22.950,55.530 23.486 C 55.313 24.562,54.689 23.913,54.662 22.583 C 54.658 22.400,54.548 22.063,54.417 21.833 C 54.286 21.604,54.176 21.192,54.173 20.917 C 54.171 20.642,54.062 20.079,53.932 19.667 C 53.643 18.747,53.340 17.584,53.217 16.917 C 53.074 16.141,52.871 16.000,51.900 16.000 C 50.854 16.000,50.584 16.277,50.332 17.607 C 50.248 18.052,50.069 18.867,49.935 19.417 C 49.801 19.967,49.581 20.904,49.447 21.500 C 49.312 22.096,49.119 22.794,49.018 23.053 C 48.916 23.311,48.830 23.798,48.826 24.136 L 48.819 24.750 48.500 24.167 C 48.324 23.846,48.177 23.402,48.174 23.181 C 48.170 22.960,48.059 22.398,47.928 21.931 C 47.796 21.465,47.566 20.596,47.417 20.000 C 47.267 19.404,47.037 18.535,46.906 18.069 C 46.774 17.602,46.667 17.064,46.667 16.872 C 46.667 16.116,45.031 15.610,44.532 16.211 M64.506 16.322 C 64.284 16.737,64.275 27.316,64.496 27.667 C 64.626 27.873,65.251 27.926,68.042 27.968 C 71.963 28.026,72.333 27.952,72.333 27.108 C 72.333 26.235,72.153 26.180,69.155 26.129 L 66.417 26.083 66.367 24.667 C 66.287 22.359,66.072 22.532,69.090 22.470 C 71.933 22.411,72.089 22.353,71.918 21.422 C 71.773 20.634,71.623 20.588,68.950 20.500 L 66.417 20.417 66.417 19.167 L 66.417 17.917 69.131 17.833 C 72.051 17.744,72.159 17.708,72.164 16.825 C 72.169 16.034,72.008 16.000,68.223 16.000 C 64.889 16.000,64.668 16.019,64.506 16.322 M77.867 16.200 C 77.501 16.566,77.589 27.645,77.958 27.797 C 78.612 28.065,83.727 27.922,84.370 27.617 C 86.657 26.531,87.133 23.668,85.304 21.997 L 84.768 21.508 85.114 21.129 C 86.600 19.504,86.173 17.417,84.132 16.330 C 83.385 15.932,78.241 15.825,77.867 16.200 M98.250 16.478 C 98.613 16.687,98.764 16.912,98.802 17.300 C 98.866 17.948,98.838 17.951,96.998 17.476 C 94.742 16.895,93.000 17.630,93.000 19.164 C 93.000 20.017,93.681 20.543,95.250 20.902 C 99.204 21.807,100.658 24.015,98.908 26.457 C 97.482 28.447,91.500 28.478,91.500 26.496 C 91.500 25.712,91.528 25.708,93.031 26.250 C 96.013 27.326,98.667 25.929,97.592 23.850 C 97.237 23.163,96.719 22.894,94.979 22.491 C 92.314 21.874,91.500 21.120,91.500 19.270 C 91.500 17.576,92.359 16.502,94.000 16.145 C 94.960 15.937,97.681 16.149,98.250 16.478 M105.185 16.228 C 105.050 16.391,105.008 18.072,105.039 22.093 L 105.083 27.729 105.589 27.860 C 105.866 27.932,106.316 27.931,106.589 27.858 L 107.083 27.726 107.127 21.999 C 107.161 17.529,107.125 16.243,106.961 16.139 C 106.616 15.920,105.389 15.982,105.185 16.228 M111.611 16.111 C 111.550 16.172,111.500 16.507,111.500 16.855 C 111.500 17.712,111.788 17.833,113.822 17.833 L 115.500 17.833 115.500 22.755 C 115.500 28.260,115.415 27.903,116.725 27.907 C 117.825 27.910,117.833 27.872,117.833 22.566 L 117.833 17.863 119.673 17.806 C 121.649 17.746,121.826 17.665,121.831 16.825 C 121.836 16.012,121.759 16.000,116.578 16.000 C 113.907 16.000,111.672 16.050,111.611 16.111 M126.278 16.111 C 126.217 16.172,126.167 18.799,126.167 21.949 L 126.167 27.675 126.594 27.837 C 126.829 27.927,128.465 28.000,130.229 28.000 C 133.906 28.000,134.056 27.956,133.970 26.910 L 133.917 26.250 131.083 26.152 C 129.525 26.099,128.231 26.042,128.208 26.027 C 128.119 25.968,128.173 23.012,128.268 22.764 C 128.353 22.541,128.728 22.500,130.695 22.500 C 133.261 22.500,133.667 22.390,133.667 21.693 C 133.667 20.684,133.438 20.592,130.722 20.500 L 128.250 20.417 128.198 19.509 C 128.100 17.772,127.949 17.864,131.007 17.803 C 133.887 17.746,133.992 17.711,133.997 16.825 C 134.002 16.032,133.845 16.000,129.994 16.000 C 128.011 16.000,126.339 16.050,126.278 16.111 M46.241 16.537 C 46.383 16.741,46.500 17.065,46.500 17.257 C 46.500 17.450,46.604 17.939,46.731 18.345 C 46.858 18.751,47.092 19.683,47.251 20.417 C 47.409 21.150,47.636 22.050,47.755 22.417 C 47.873 22.783,48.020 23.376,48.081 23.733 C 48.302 25.037,48.990 25.504,48.997 24.356 C 48.999 24.139,49.112 23.614,49.248 23.189 C 49.385 22.764,49.805 21.142,50.181 19.584 C 51.014 16.135,50.999 16.167,51.827 16.167 C 52.526 16.167,53.000 16.501,53.000 16.993 C 53.000 17.159,53.111 17.660,53.247 18.106 C 53.383 18.552,53.800 20.192,54.174 21.750 C 54.757 24.182,55.166 25.281,55.379 24.990 C 55.409 24.950,55.832 23.267,56.320 21.250 C 57.538 16.210,57.556 16.167,58.338 16.167 C 59.034 16.167,59.245 16.439,59.016 17.043 C 58.938 17.249,58.714 18.092,58.517 18.917 C 58.320 19.742,58.075 20.717,57.971 21.083 C 57.868 21.450,57.729 22.012,57.662 22.333 C 57.594 22.654,57.336 23.704,57.088 24.667 C 56.840 25.629,56.565 26.701,56.476 27.049 L 56.316 27.682 55.292 27.633 L 54.267 27.583 53.882 25.917 C 53.670 25.000,53.393 23.875,53.267 23.417 C 53.140 22.958,52.905 21.983,52.745 21.250 C 52.063 18.137,51.849 17.952,51.346 20.042 C 51.142 20.890,50.643 22.917,50.238 24.547 C 49.832 26.177,49.500 27.545,49.500 27.588 C 49.500 27.631,49.054 27.667,48.509 27.667 L 47.517 27.667 47.263 26.792 C 46.941 25.686,46.171 22.628,45.993 21.750 C 45.918 21.383,45.808 20.958,45.749 20.804 C 45.689 20.650,45.533 20.050,45.401 19.470 C 45.270 18.891,45.059 17.967,44.932 17.417 C 44.660 16.231,44.685 16.167,45.417 16.167 C 45.811 16.167,46.059 16.278,46.241 16.537 M71.750 16.833 L 71.750 17.417 69.178 17.463 C 66.114 17.518,66.167 17.490,66.167 19.090 C 66.167 20.941,66.010 20.833,68.695 20.833 C 71.291 20.833,71.667 20.940,71.667 21.673 L 71.667 22.167 69.104 22.167 C 65.979 22.167,66.140 22.041,66.203 24.441 L 66.250 26.250 68.905 26.296 C 71.760 26.346,72.000 26.415,72.000 27.187 L 72.000 27.667 68.333 27.667 L 64.667 27.667 64.667 22.028 C 64.667 18.926,64.718 16.337,64.781 16.274 C 64.844 16.212,66.438 16.180,68.323 16.205 L 71.750 16.250 71.750 16.833 M83.705 16.442 C 85.823 17.261,86.398 19.896,84.729 21.130 L 84.250 21.484 84.631 21.755 C 86.875 23.356,86.607 26.375,84.130 27.408 C 83.004 27.878,78.035 27.780,77.911 27.286 C 77.766 26.710,77.897 16.614,78.052 16.375 C 78.270 16.037,82.797 16.091,83.705 16.442 M106.794 21.958 L 106.838 27.667 106.086 27.667 L 105.333 27.667 105.333 22.028 C 105.333 15.916,105.303 16.128,106.161 16.200 L 106.750 16.250 106.794 21.958 M121.236 16.268 C 121.547 16.387,121.586 17.014,121.300 17.300 C 121.172 17.428,120.522 17.500,119.500 17.500 C 117.338 17.500,117.500 17.094,117.500 22.520 C 117.500 27.874,117.538 27.667,116.566 27.667 L 115.833 27.667 115.833 22.783 C 115.833 17.035,116.020 17.500,113.713 17.500 C 111.851 17.500,111.229 17.144,111.829 16.422 C 112.047 16.159,120.590 16.020,121.236 16.268 M133.403 16.268 C 133.718 16.389,133.753 17.055,133.456 17.300 C 133.337 17.399,132.144 17.498,130.700 17.529 C 127.741 17.592,127.840 17.532,127.836 19.258 C 127.832 20.847,127.809 20.833,130.520 20.833 C 133.234 20.833,133.333 20.860,133.333 21.589 L 133.333 22.143 130.744 22.197 C 127.679 22.260,127.839 22.141,127.836 24.342 C 127.833 26.425,127.694 26.333,130.833 26.333 C 133.641 26.333,133.833 26.389,133.833 27.200 L 133.833 27.667 130.083 27.667 L 126.333 27.667 126.333 22.028 C 126.333 18.926,126.383 16.339,126.444 16.278 C 126.583 16.139,133.043 16.130,133.403 16.268 M79.792 17.680 C 79.269 17.984,79.372 20.409,79.923 20.769 C 80.384 21.072,82.103 21.013,83.114 20.660 C 83.968 20.362,84.313 18.923,83.708 18.177 C 83.225 17.580,80.547 17.240,79.792 17.680 M83.362 18.109 C 83.727 18.440,83.774 19.761,83.437 20.205 C 83.145 20.590,80.478 20.827,80.088 20.504 C 79.826 20.287,79.708 18.181,79.944 17.944 C 80.199 17.690,83.050 17.827,83.362 18.109 M79.792 22.335 C 79.396 22.582,79.355 25.839,79.744 26.162 C 80.259 26.589,83.424 26.319,83.940 25.803 C 84.464 25.278,84.610 23.617,84.177 23.096 C 83.569 22.363,80.579 21.844,79.792 22.335 M83.613 22.934 C 84.274 23.426,84.377 24.871,83.799 25.542 C 83.390 26.017,81.268 26.354,80.268 26.103 C 79.827 25.992,79.598 23.641,79.940 22.748 C 80.110 22.306,82.964 22.450,83.613 22.934 " stroke="none" fill="#4c6894" fill-rule="evenodd"></path></g></svg>