<svg id="svg" version="1.1" xmlns="http://www.w3.org/2000/svg" xmlns:xlink="http://www.w3.org/1999/xlink" width="400" height="45" viewBox="0, 0, 400,45"><g id="svgg"><path id="path0" d="M0.000 22.500 L 0.000 45.000 80.500 45.000 L 161.000 45.000 161.000 22.500 L 161.000 0.000 80.500 0.000 L 0.000 0.000 0.000 22.500 M31.250 14.364 C 31.892 14.461,33.070 14.628,33.869 14.734 C 36.805 15.123,36.993 15.595,36.993 22.583 C 36.993 29.344,36.742 30.065,34.290 30.357 C 33.718 30.425,32.612 30.602,31.833 30.751 C 29.802 31.139,21.533 31.136,19.500 30.746 C 18.721 30.597,17.619 30.420,17.051 30.354 C 14.529 30.062,14.054 28.211,14.333 19.774 C 14.461 15.891,15.036 14.966,17.463 14.742 C 18.171 14.677,18.938 14.549,19.167 14.459 C 20.209 14.049,28.724 13.982,31.250 14.364 M65.025 16.239 C 66.491 16.684,68.333 18.222,68.333 19.002 C 68.333 19.143,68.465 19.445,68.625 19.671 C 68.868 20.015,68.917 20.459,68.917 22.341 C 68.917 24.210,68.867 24.675,68.625 25.043 C 68.465 25.288,68.333 25.574,68.333 25.678 C 68.333 26.104,66.784 27.817,66.389 27.828 C 66.282 27.831,66.168 27.911,66.137 28.007 C 65.859 28.841,61.631 28.878,60.654 28.055 C 60.509 27.933,60.324 27.833,60.244 27.833 C 60.011 27.833,58.833 26.622,58.833 26.383 C 58.833 26.264,58.760 26.167,58.670 26.167 C 58.580 26.167,58.456 25.960,58.393 25.708 C 58.331 25.456,58.176 25.088,58.048 24.890 C 57.730 24.399,57.830 20.338,58.181 19.500 C 59.328 16.763,62.216 15.386,65.025 16.239 M47.067 16.731 C 47.259 16.963,47.901 17.906,48.493 18.826 C 49.635 20.600,49.793 20.719,50.227 20.125 C 50.999 19.067,52.013 17.542,52.152 17.230 C 52.535 16.367,53.496 15.983,54.406 16.329 C 54.802 16.480,55.019 17.000,54.686 17.000 C 54.605 17.000,54.491 17.131,54.433 17.292 C 54.281 17.714,53.842 18.392,51.781 21.386 L 51.000 22.521 50.997 25.219 C 50.994 28.422,51.017 28.367,49.735 28.301 L 48.750 28.250 48.667 25.333 L 48.583 22.417 46.710 19.667 C 45.679 18.154,44.835 16.827,44.835 16.717 C 44.830 16.040,46.504 16.050,47.067 16.731 M75.844 16.339 C 76.149 16.502,76.167 16.733,76.174 20.631 C 76.182 25.973,76.542 26.832,78.771 26.833 C 81.061 26.834,81.333 26.203,81.336 20.882 C 81.339 16.327,81.335 16.346,82.290 16.218 C 83.586 16.044,83.667 16.277,83.667 20.195 C 83.667 25.185,83.341 26.609,81.948 27.716 C 81.149 28.350,79.141 28.937,78.327 28.774 C 76.179 28.344,75.230 27.738,74.504 26.333 C 73.970 25.301,73.747 16.943,74.240 16.450 C 74.558 16.133,75.355 16.077,75.844 16.339 M97.938 16.583 C 98.187 16.924,98.124 17.599,97.814 17.917 C 97.724 18.008,96.829 18.109,95.825 18.140 L 94.000 18.196 93.997 23.056 C 93.995 28.618,94.055 28.369,92.735 28.301 L 91.750 28.250 91.706 23.208 L 91.662 18.167 90.039 18.164 C 87.663 18.161,87.270 17.938,87.566 16.762 C 87.704 16.208,87.771 16.202,93.055 16.227 C 97.488 16.249,97.705 16.265,97.938 16.583 M104.078 16.511 C 104.185 16.618,104.269 18.335,104.300 21.035 C 104.360 26.351,104.571 26.833,106.833 26.833 C 109.049 26.833,109.231 26.411,109.333 21.035 C 109.425 16.224,109.438 16.167,110.459 16.167 C 111.520 16.167,111.500 16.073,111.500 20.933 C 111.500 27.226,110.988 28.151,107.167 28.768 C 106.530 28.870,104.122 28.281,104.028 27.999 C 103.997 27.908,103.870 27.833,103.745 27.833 C 102.552 27.833,101.986 25.419,102.039 20.552 L 102.083 16.432 102.500 16.310 C 102.997 16.164,103.838 16.272,104.078 16.511 M123.923 16.706 C 125.583 17.764,126.083 20.217,124.866 21.328 L 124.349 21.801 125.072 22.545 C 126.658 24.177,126.192 26.925,124.149 27.990 C 123.258 28.454,117.441 28.522,117.268 28.070 C 117.138 27.731,117.139 17.203,117.269 16.717 C 117.469 15.974,122.761 15.965,123.923 16.706 M139.011 16.339 C 139.387 16.540,139.471 17.725,139.125 17.948 C 139.010 18.023,137.717 18.121,136.250 18.167 L 133.583 18.250 133.532 19.243 C 133.437 21.103,133.274 21.000,136.319 21.000 C 139.196 21.000,139.167 20.990,139.167 21.980 C 139.167 22.774,138.963 22.833,136.220 22.833 C 133.246 22.833,133.453 22.666,133.534 25.000 L 133.583 26.417 136.333 26.500 C 139.350 26.591,139.425 26.611,139.585 27.342 C 139.800 28.321,139.699 28.344,135.435 28.295 L 131.583 28.250 131.539 22.417 C 131.499 17.081,131.519 16.566,131.779 16.375 C 132.140 16.110,138.524 16.079,139.011 16.339 M62.386 18.051 C 59.199 18.961,59.146 25.586,62.317 26.644 C 65.151 27.590,67.295 24.891,66.666 21.166 C 66.248 18.684,64.534 17.437,62.386 18.051 M119.333 19.497 C 119.333 21.077,119.387 21.113,121.477 20.941 C 122.952 20.819,123.333 20.526,123.333 19.511 C 123.333 18.430,122.866 18.167,120.948 18.167 L 119.333 18.167 119.333 19.497 M24.073 21.093 C 23.762 23.167,24.139 25.240,24.727 24.688 C 24.924 24.503,25.310 24.252,25.585 24.130 C 26.485 23.730,27.833 22.809,27.833 22.593 C 27.833 22.351,26.146 21.210,25.577 21.067 C 25.369 21.015,25.045 20.828,24.857 20.653 C 24.344 20.175,24.199 20.257,24.073 21.093 M119.333 24.672 L 119.333 26.511 121.202 26.464 L 123.071 26.417 123.452 25.850 C 124.588 24.164,123.353 22.833,120.653 22.833 L 119.333 22.833 119.333 24.672 " stroke="none" fill="#545454" fill-rule="evenodd"></path><path id="path1" d="M19.065 15.156 C 15.367 15.339,14.808 16.313,14.805 22.576 C 14.800 30.104,14.869 30.152,25.667 30.149 C 35.772 30.147,36.038 30.037,36.495 25.667 C 37.002 20.819,36.461 16.894,35.140 15.832 L 34.458 15.284 31.770 15.150 C 28.759 15.001,22.133 15.004,19.065 15.156 M258.750 15.692 C 256.283 16.149,255.002 17.484,255.001 19.599 C 254.999 22.030,256.084 22.934,260.083 23.834 C 263.255 24.548,263.725 26.000,260.785 26.000 C 259.428 26.000,259.051 25.829,258.734 25.070 L 258.496 24.500 256.597 24.500 L 254.698 24.500 254.786 25.208 C 255.338 29.654,264.606 30.575,266.519 26.374 C 267.877 23.394,266.202 21.329,261.750 20.495 C 261.108 20.375,260.512 20.214,260.425 20.138 C 260.338 20.062,260.143 20.000,259.992 20.000 C 259.263 20.000,258.943 19.009,259.537 18.593 C 260.495 17.922,262.667 18.488,262.667 19.409 C 262.667 19.627,262.972 19.667,264.652 19.667 L 266.637 19.667 266.433 18.792 C 265.833 16.211,262.721 14.956,258.750 15.692 M295.043 15.685 C 292.480 16.112,291.034 17.717,291.196 19.957 C 291.342 21.982,292.587 22.976,295.952 23.752 C 298.247 24.282,298.834 24.545,298.831 25.039 C 298.821 26.446,295.463 26.401,294.971 24.988 L 294.801 24.500 292.814 24.500 L 290.827 24.500 290.930 24.958 C 290.987 25.210,291.100 25.683,291.181 26.009 C 292.127 29.807,300.977 30.085,302.764 26.373 C 304.032 23.738,302.602 21.612,298.974 20.737 C 295.411 19.878,294.823 19.510,295.667 18.667 C 296.380 17.954,298.509 18.307,298.816 19.190 L 298.983 19.667 300.927 19.667 L 302.870 19.667 302.755 19.042 C 302.251 16.318,299.203 14.991,295.043 15.685 M333.333 15.689 C 328.723 16.445,326.578 22.421,329.401 26.644 C 331.038 29.095,336.070 29.806,338.714 27.960 C 339.270 27.572,339.618 27.667,339.763 28.244 C 339.885 28.727,340.302 28.882,341.266 28.803 L 341.917 28.750 341.962 25.125 L 342.007 21.500 338.587 21.500 L 335.167 21.500 335.167 22.833 L 335.167 24.167 336.583 24.167 C 338.500 24.167,338.400 25.322,336.438 25.850 C 333.486 26.645,331.357 23.256,332.813 20.083 C 333.713 18.124,336.653 17.908,337.822 19.715 L 338.229 20.344 340.073 20.297 C 342.215 20.242,342.294 20.163,341.666 18.703 C 341.157 17.519,340.279 16.735,338.667 16.023 C 337.604 15.555,335.109 15.398,333.333 15.689 M207.409 15.876 C 207.365 15.991,207.349 18.897,207.373 22.334 L 207.417 28.583 209.250 28.583 L 211.083 28.583 211.167 25.534 L 211.250 22.485 211.929 23.201 C 212.302 23.595,213.052 24.441,213.595 25.082 C 214.139 25.724,214.896 26.586,215.278 26.999 C 215.660 27.412,216.134 27.956,216.332 28.208 C 216.684 28.658,216.723 28.667,218.512 28.667 L 220.333 28.667 220.333 22.167 L 220.333 15.667 218.500 15.667 L 216.667 15.667 216.667 18.762 C 216.667 22.576,216.814 22.564,213.833 18.992 C 213.421 18.498,212.783 17.748,212.417 17.324 C 212.050 16.901,211.582 16.355,211.376 16.111 C 210.949 15.604,207.590 15.405,207.409 15.876 M223.333 22.167 L 223.333 28.667 225.417 28.667 L 227.500 28.667 227.502 27.208 L 227.504 25.750 228.585 24.865 C 229.932 23.763,229.718 23.571,232.183 28.083 L 232.456 28.583 234.832 28.630 C 237.709 28.686,237.705 29.136,234.862 24.602 C 232.887 21.452,232.701 21.090,232.906 20.798 C 233.031 20.620,234.022 19.461,235.108 18.222 C 236.194 16.983,237.108 15.901,237.139 15.818 C 237.171 15.732,236.122 15.667,234.696 15.667 L 232.197 15.667 231.067 17.042 C 230.445 17.798,229.804 18.567,229.640 18.750 C 229.477 18.933,228.995 19.515,228.568 20.042 C 227.506 21.354,227.500 21.345,227.500 18.333 L 227.500 15.667 225.417 15.667 L 223.333 15.667 223.333 22.167 M239.364 20.536 L 239.417 25.417 239.869 26.185 C 242.162 30.087,249.449 29.974,251.833 26.000 C 252.037 25.660,252.093 24.670,252.134 20.625 L 252.185 15.667 250.186 15.667 L 248.187 15.667 248.135 20.072 C 248.086 24.220,248.063 24.504,247.738 24.947 C 246.702 26.358,244.522 26.274,243.712 24.790 C 243.458 24.326,243.405 23.648,243.333 20.000 L 243.250 15.750 241.280 15.703 L 239.311 15.656 239.364 20.536 M269.206 22.125 L 269.250 28.583 271.250 28.583 L 273.250 28.583 273.296 26.208 L 273.342 23.833 275.667 23.833 L 277.991 23.833 278.037 26.208 L 278.083 28.583 280.125 28.630 L 282.167 28.677 282.167 22.167 L 282.167 15.656 280.125 15.703 L 278.083 15.750 278.037 18.125 L 277.991 20.500 275.662 20.500 L 273.333 20.500 273.333 18.083 L 273.333 15.667 271.248 15.667 L 269.163 15.667 269.206 22.125 M305.667 22.167 L 305.667 28.667 307.667 28.667 L 309.667 28.667 309.667 22.167 L 309.667 15.667 307.667 15.667 L 305.667 15.667 305.667 22.167 M312.833 22.172 L 312.833 28.678 314.708 28.630 L 316.583 28.583 316.629 25.625 C 316.654 23.998,316.741 22.667,316.823 22.667 C 316.970 22.667,321.866 28.228,321.972 28.516 C 322.003 28.599,322.884 28.667,323.931 28.667 L 325.833 28.667 325.833 22.161 L 325.833 15.656 323.958 15.703 L 322.083 15.750 322.038 18.792 C 322.013 20.465,321.937 21.833,321.869 21.833 C 321.800 21.833,320.556 20.446,319.104 18.750 L 316.462 15.667 314.648 15.667 L 312.833 15.667 312.833 22.172 M344.833 22.167 L 344.833 28.667 346.829 28.667 L 348.824 28.667 348.870 26.292 L 348.917 23.917 351.250 23.917 L 353.583 23.917 353.630 26.297 L 353.676 28.677 355.713 28.630 L 357.750 28.583 357.794 22.125 L 357.837 15.667 355.757 15.667 L 353.676 15.667 353.630 18.042 L 353.583 20.417 351.346 20.463 C 348.651 20.520,348.839 20.714,348.836 17.875 L 348.833 15.667 346.833 15.667 L 344.833 15.667 344.833 22.167 M195.852 16.208 C 195.775 16.415,195.612 16.883,195.489 17.250 C 195.366 17.617,195.206 17.988,195.133 18.075 C 195.060 18.162,195.000 18.350,194.999 18.492 C 194.998 18.634,194.886 18.965,194.749 19.227 C 194.612 19.490,194.500 19.800,194.500 19.917 C 194.500 20.033,194.388 20.343,194.251 20.606 C 194.114 20.869,194.002 21.210,194.001 21.365 C 194.000 21.520,193.934 21.688,193.853 21.738 C 193.773 21.788,193.669 21.998,193.623 22.206 C 193.578 22.413,193.316 23.183,193.042 23.917 C 191.646 27.652,191.343 28.547,191.427 28.684 C 191.478 28.766,192.403 28.833,193.483 28.833 L 195.447 28.833 195.656 28.125 C 196.028 26.867,195.923 26.921,198.101 26.868 C 200.705 26.805,200.748 26.819,200.992 27.788 C 201.253 28.824,201.262 28.828,203.542 28.831 C 205.731 28.834,205.774 28.804,205.260 27.631 C 205.129 27.330,204.835 26.558,204.608 25.917 C 204.235 24.864,203.702 23.409,201.893 18.500 C 201.572 17.629,201.204 16.673,201.074 16.375 L 200.839 15.833 198.415 15.833 C 196.054 15.833,195.988 15.843,195.852 16.208 M62.417 16.505 C 57.406 17.158,56.312 25.396,60.917 27.799 C 62.067 28.400,64.702 28.436,65.756 27.867 C 67.710 26.811,68.746 24.739,68.630 22.119 C 68.453 18.109,66.141 16.020,62.417 16.505 M45.333 16.754 C 45.333 16.894,45.896 17.850,46.584 18.879 C 47.273 19.908,47.929 20.890,48.043 21.061 C 48.157 21.232,48.368 21.532,48.513 21.728 C 49.015 22.406,49.078 22.763,49.164 25.417 L 49.250 28.083 49.833 28.083 L 50.417 28.083 50.500 25.333 C 50.546 23.821,50.652 22.471,50.735 22.333 C 50.819 22.196,51.669 20.906,52.625 19.467 C 54.404 16.789,54.505 16.500,53.662 16.500 C 53.125 16.500,52.660 17.047,51.005 19.625 C 49.930 21.299,49.736 21.337,48.869 20.042 C 46.482 16.478,46.501 16.500,45.899 16.500 C 45.503 16.500,45.333 16.576,45.333 16.754 M74.406 17.079 C 74.134 18.530,74.429 25.208,74.800 26.000 C 76.258 29.112,81.150 29.214,82.761 26.167 C 83.031 25.655,83.076 25.074,83.131 21.438 C 83.202 16.656,83.183 16.500,82.517 16.500 C 81.718 16.500,81.691 16.646,81.636 21.254 C 81.570 26.692,81.345 27.167,78.835 27.167 C 76.221 27.167,75.942 26.588,75.833 20.917 L 75.750 16.583 75.134 16.532 C 74.547 16.483,74.514 16.508,74.406 17.079 M88.009 16.739 C 87.476 17.382,88.054 17.667,89.889 17.667 C 92.186 17.667,92.000 17.193,92.000 23.030 L 92.000 27.994 92.403 28.095 C 93.458 28.360,93.412 28.577,93.461 23.087 C 93.512 17.289,93.319 17.775,95.616 17.667 C 97.515 17.577,97.996 17.348,97.512 16.764 C 97.198 16.387,88.321 16.364,88.009 16.739 M102.566 16.736 C 102.516 16.866,102.500 18.955,102.529 21.380 L 102.583 25.789 103.151 26.620 C 104.705 28.896,108.948 28.947,110.402 26.707 C 111.114 25.610,111.186 25.013,111.133 20.667 L 111.083 16.583 110.500 16.583 L 109.917 16.583 109.833 20.833 C 109.724 26.426,109.380 27.167,106.898 27.167 C 104.202 27.167,103.833 26.365,103.833 20.511 C 103.833 17.925,103.777 16.843,103.633 16.700 C 103.359 16.425,102.676 16.448,102.566 16.736 M117.582 16.875 C 117.531 17.081,117.511 19.688,117.537 22.667 L 117.583 28.083 120.167 28.122 C 122.509 28.157,122.835 28.126,123.659 27.789 C 126.034 26.817,126.431 23.939,124.398 22.444 C 123.539 21.813,123.543 21.836,124.210 21.416 C 126.041 20.265,125.307 17.411,123.015 16.768 C 121.394 16.313,117.701 16.386,117.582 16.875 M131.910 16.706 C 131.866 16.823,131.849 19.431,131.873 22.501 L 131.917 28.083 135.498 28.083 C 138.812 28.083,139.083 28.061,139.136 27.784 C 139.269 27.096,138.924 27.000,136.327 27.000 C 133.063 27.000,133.333 27.203,133.333 24.750 C 133.333 22.296,133.060 22.500,136.347 22.500 L 138.833 22.500 138.833 22.093 C 138.833 21.479,138.621 21.423,135.917 21.333 L 133.417 21.250 133.369 19.546 C 133.313 17.510,133.032 17.682,136.500 17.624 L 138.917 17.583 138.917 17.083 L 138.917 16.583 135.454 16.538 C 132.765 16.503,131.974 16.541,131.910 16.706 M64.884 17.819 C 67.903 19.113,67.976 25.315,64.991 26.838 C 63.353 27.674,61.151 27.009,60.283 25.417 C 57.992 21.215,61.045 16.174,64.884 17.819 M122.134 17.820 C 124.398 18.258,124.289 20.827,121.985 21.321 C 119.461 21.862,119.000 21.594,119.000 19.586 C 119.000 17.600,119.510 17.313,122.134 17.820 M25.224 20.001 C 25.658 20.276,26.254 20.615,26.548 20.755 C 29.043 21.940,29.418 22.817,27.811 23.708 C 27.438 23.914,26.811 24.271,26.417 24.500 C 24.250 25.760,24.141 25.786,23.458 25.199 C 22.935 24.750,23.031 20.454,23.576 19.909 C 24.100 19.385,24.268 19.394,25.224 20.001 M198.667 19.777 C 198.667 20.022,199.055 21.489,199.300 22.167 C 199.976 24.042,199.914 24.167,198.301 24.167 L 196.963 24.167 197.072 23.542 C 197.131 23.198,197.246 22.729,197.327 22.500 C 197.407 22.271,197.604 21.633,197.764 21.083 C 198.191 19.612,198.667 18.923,198.667 19.777 M122.389 22.609 C 124.691 22.990,124.844 26.317,122.583 26.838 C 121.609 27.063,119.439 27.039,119.200 26.800 C 118.915 26.515,118.922 22.726,119.208 22.610 C 119.513 22.487,121.647 22.487,122.389 22.609 " stroke="none" fill="#f1efef" fill-rule="evenodd"></path><path id="path2" d="M161.000 22.500 L 161.000 45.000 280.500 45.000 L 400.000 45.000 400.000 22.500 L 400.000 0.000 280.500 0.000 L 161.000 0.000 161.000 22.500 M262.321 15.495 C 264.749 15.846,266.501 17.283,266.557 18.969 L 266.583 19.750 264.917 19.799 C 262.917 19.857,262.500 19.776,262.500 19.328 C 262.500 18.886,261.575 18.335,260.833 18.335 C 258.549 18.335,258.894 19.743,261.303 20.254 C 263.009 20.615,265.333 21.339,265.333 21.508 C 265.333 21.583,265.479 21.690,265.656 21.747 C 266.363 21.971,267.000 23.292,267.000 24.535 C 267.000 27.811,264.075 29.574,259.553 29.024 C 256.476 28.650,254.880 27.406,254.701 25.243 L 254.625 24.333 256.646 24.333 C 258.385 24.333,258.667 24.370,258.667 24.599 C 258.667 25.459,259.292 25.833,260.728 25.833 C 263.313 25.833,263.183 24.610,260.539 24.057 C 256.034 23.113,254.917 22.227,254.917 19.595 C 254.917 16.522,257.920 14.859,262.321 15.495 M299.784 15.750 C 301.532 16.271,302.879 17.762,302.793 19.083 L 302.750 19.750 300.875 19.797 L 299.000 19.844 298.728 19.275 C 298.404 18.595,297.518 18.230,296.604 18.402 C 295.013 18.700,295.278 19.747,297.046 20.144 C 298.500 20.471,299.222 20.640,299.833 20.800 C 305.024 22.154,304.276 28.115,298.802 29.023 C 294.616 29.718,290.833 27.790,290.833 24.962 L 290.833 24.323 292.873 24.370 C 294.762 24.413,294.917 24.441,294.973 24.750 C 295.165 25.811,298.172 26.425,298.665 25.504 C 299.054 24.777,298.487 24.429,296.083 23.917 C 295.350 23.761,294.600 23.571,294.417 23.494 C 294.233 23.417,293.897 23.301,293.669 23.237 C 290.937 22.462,290.154 18.833,292.280 16.801 C 293.674 15.468,297.185 14.976,299.784 15.750 M338.663 15.938 C 340.923 16.776,342.171 18.395,342.017 20.292 C 342.004 20.445,341.497 20.500,340.088 20.500 L 338.175 20.500 337.921 20.009 C 336.769 17.781,333.414 18.270,332.697 20.769 C 331.741 24.099,334.187 26.952,336.827 25.587 C 338.395 24.776,338.164 24.173,336.285 24.169 L 334.987 24.167 335.035 22.792 L 335.083 21.417 338.583 21.417 L 342.083 21.417 342.083 25.083 L 342.083 28.750 340.919 28.750 C 339.886 28.750,339.748 28.712,339.694 28.417 C 339.584 27.807,339.372 27.793,338.292 28.325 C 334.597 30.144,329.892 28.820,328.696 25.624 C 326.141 18.794,331.726 13.367,338.663 15.938 M213.451 18.375 C 216.161 21.546,216.269 21.667,216.401 21.667 C 216.451 21.667,216.513 20.298,216.538 18.625 L 216.583 15.583 218.500 15.583 L 220.417 15.583 220.417 22.167 L 220.417 28.750 218.573 28.797 L 216.730 28.844 215.721 27.713 C 215.167 27.092,214.497 26.321,214.232 26.000 C 213.616 25.253,212.771 24.297,211.879 23.340 L 211.174 22.583 211.171 25.708 L 211.167 28.833 209.268 28.833 C 206.922 28.833,207.167 29.618,207.167 22.103 C 207.167 14.857,206.961 15.500,209.280 15.500 L 210.993 15.500 213.451 18.375 M227.500 18.073 C 227.500 19.489,227.564 20.687,227.643 20.735 C 227.721 20.784,228.565 19.878,229.518 18.722 C 230.470 17.567,231.475 16.367,231.750 16.055 L 232.250 15.489 234.750 15.536 C 236.430 15.568,237.250 15.644,237.250 15.767 C 237.250 15.963,236.486 16.871,233.310 20.454 C 232.704 21.137,232.498 20.640,235.091 24.759 C 236.333 26.732,237.391 28.457,237.444 28.594 C 237.586 28.965,232.520 28.873,232.314 28.500 C 232.238 28.363,231.891 27.762,231.543 27.167 C 231.195 26.571,230.767 25.808,230.591 25.472 C 230.111 24.552,229.688 24.059,229.543 24.251 C 229.473 24.343,229.154 24.617,228.833 24.859 C 227.514 25.855,227.500 25.882,227.500 27.428 L 227.500 28.843 225.375 28.797 L 223.250 28.750 223.206 22.334 C 223.182 18.805,223.199 15.824,223.243 15.709 C 223.301 15.557,223.892 15.500,225.411 15.500 L 227.500 15.500 227.500 18.073 M243.500 20.000 C 243.558 23.087,243.646 24.526,243.791 24.780 C 244.475 25.974,246.172 26.213,247.264 25.269 L 247.917 24.705 248.000 20.144 L 248.083 15.583 250.167 15.583 L 252.250 15.583 252.294 20.157 C 252.331 23.959,252.295 24.864,252.076 25.521 C 250.471 30.355,240.985 30.357,239.451 25.523 C 239.156 24.595,239.009 15.880,239.283 15.606 C 239.346 15.542,240.303 15.511,241.408 15.537 L 243.417 15.583 243.500 20.000 M273.370 17.875 L 273.417 20.250 275.667 20.250 L 277.917 20.250 278.000 17.917 L 278.083 15.583 280.167 15.583 L 282.250 15.583 282.250 22.167 L 282.250 28.750 280.125 28.797 L 278.000 28.843 278.000 26.422 L 278.000 24.000 275.667 24.000 L 273.333 24.000 273.333 26.417 L 273.333 28.833 271.250 28.833 L 269.167 28.833 269.167 22.167 L 269.167 15.500 271.245 15.500 L 273.324 15.500 273.370 17.875 M309.750 22.167 L 309.750 28.750 307.667 28.750 L 305.583 28.750 305.540 22.334 C 305.516 18.805,305.533 15.821,305.578 15.704 C 305.640 15.542,306.160 15.501,307.705 15.537 L 309.750 15.583 309.750 22.167 M317.523 16.720 C 318.106 17.391,319.291 18.779,320.156 19.803 C 321.022 20.828,321.790 21.667,321.865 21.667 C 321.939 21.667,322.000 20.277,322.000 18.578 L 322.000 15.489 323.958 15.536 L 325.917 15.583 325.917 22.167 L 325.917 28.750 324.008 28.750 L 322.099 28.750 319.571 25.840 C 318.180 24.240,316.958 22.903,316.854 22.868 C 316.720 22.823,316.667 23.659,316.667 25.819 L 316.667 28.833 314.768 28.833 C 312.422 28.833,312.667 29.609,312.667 22.167 C 312.667 14.742,312.439 15.500,314.665 15.500 L 316.462 15.500 317.523 16.720 M349.000 17.917 L 349.083 20.250 351.287 20.296 L 353.491 20.343 353.537 17.963 L 353.583 15.583 355.750 15.583 L 357.917 15.583 357.963 21.833 C 358.021 29.693,358.291 28.833,355.765 28.833 C 353.309 28.833,353.500 29.060,353.500 26.153 L 353.500 24.000 351.255 24.000 L 349.009 24.000 348.963 26.375 L 348.917 28.750 346.833 28.750 L 344.750 28.750 344.706 22.334 C 344.682 18.805,344.700 15.821,344.745 15.704 C 344.807 15.542,345.326 15.501,346.872 15.537 L 348.917 15.583 349.000 17.917 M201.156 16.250 C 201.303 16.525,201.566 17.200,201.742 17.750 C 201.917 18.300,202.111 18.825,202.173 18.917 C 202.235 19.008,202.527 19.796,202.823 20.667 C 203.119 21.537,203.425 22.400,203.504 22.583 C 203.889 23.484,205.667 28.452,205.667 28.630 C 205.667 28.780,205.080 28.833,203.421 28.833 L 201.176 28.833 200.909 27.917 L 200.643 27.000 198.425 27.000 L 196.207 27.000 196.005 27.542 C 195.472 28.970,195.756 28.833,193.326 28.833 L 191.144 28.833 191.249 28.458 C 191.307 28.252,191.419 27.933,191.498 27.750 C 191.632 27.438,192.490 25.094,193.448 22.417 C 193.933 21.063,194.328 20.010,194.914 18.513 C 195.145 17.924,195.333 17.376,195.333 17.295 C 195.333 17.215,195.486 16.813,195.673 16.403 L 196.012 15.658 198.450 15.704 L 200.888 15.750 201.156 16.250 M198.267 20.000 C 198.200 20.229,198.084 20.567,198.008 20.750 C 197.881 21.054,197.283 23.071,197.142 23.667 C 197.094 23.870,197.329 23.926,198.390 23.966 L 199.696 24.015 199.593 23.549 C 199.208 21.821,198.381 19.607,198.267 20.000 " stroke="none" fill="#fc0404" fill-rule="evenodd"></path><path id="path3" d="M260.295 15.454 C 260.594 15.491,261.044 15.490,261.295 15.452 C 261.545 15.414,261.300 15.384,260.750 15.385 C 260.200 15.386,259.995 15.417,260.295 15.454 M296.458 15.454 C 296.756 15.491,297.244 15.491,297.542 15.454 C 297.840 15.417,297.596 15.387,297.000 15.387 C 296.404 15.387,296.160 15.417,296.458 15.454 M334.792 15.454 C 335.090 15.491,335.577 15.491,335.875 15.454 C 336.173 15.417,335.929 15.387,335.333 15.387 C 334.737 15.387,334.494 15.417,334.792 15.454 M207.367 15.700 C 207.155 15.912,207.062 28.033,207.268 28.570 C 207.375 28.849,211.166 28.984,211.167 28.708 C 211.167 28.640,210.323 28.583,209.292 28.583 L 207.417 28.583 207.417 22.167 L 207.417 15.750 209.276 15.750 C 210.299 15.750,211.100 15.694,211.058 15.625 C 210.925 15.410,207.588 15.478,207.367 15.700 M216.616 15.606 C 216.552 15.670,216.500 17.060,216.500 18.694 C 216.500 21.347,216.398 22.078,216.110 21.496 C 216.063 21.402,216.044 21.421,216.068 21.537 C 216.092 21.654,216.236 21.774,216.389 21.804 C 216.640 21.853,216.667 21.562,216.667 18.762 L 216.667 15.667 218.500 15.667 L 220.333 15.667 220.333 22.167 L 220.333 28.667 218.512 28.667 C 216.739 28.667,216.682 28.655,216.342 28.224 C 215.782 27.511,214.641 26.303,214.584 26.362 C 214.556 26.392,215.032 26.963,215.643 27.631 L 216.754 28.845 218.585 28.798 L 220.417 28.750 220.417 22.167 L 220.417 15.583 218.575 15.537 C 217.561 15.511,216.680 15.542,216.616 15.606 M223.243 15.709 C 223.199 15.824,223.182 18.805,223.206 22.334 L 223.250 28.750 225.375 28.758 L 227.501 28.766 225.417 28.711 L 223.333 28.657 223.333 22.167 L 223.333 15.677 225.458 15.625 L 227.583 15.572 225.453 15.536 C 223.873 15.509,223.302 15.554,223.243 15.709 M231.901 15.875 C 231.584 16.250,231.584 16.250,231.930 15.958 C 232.301 15.646,237.167 15.502,237.167 15.804 C 237.167 15.880,236.979 16.118,236.750 16.333 C 236.521 16.549,236.333 16.789,236.333 16.868 C 236.333 16.947,236.564 16.749,236.846 16.427 C 237.602 15.567,237.445 15.500,234.683 15.500 C 232.332 15.500,232.204 15.517,231.901 15.875 M239.278 15.611 C 239.136 15.753,239.164 24.622,239.308 25.137 C 239.368 25.350,239.393 23.304,239.364 20.590 L 239.311 15.656 241.280 15.703 L 243.250 15.750 243.333 20.028 C 243.379 22.381,243.454 24.344,243.500 24.390 C 243.601 24.491,243.520 16.002,243.417 15.708 C 243.338 15.485,239.494 15.395,239.278 15.611 M248.077 15.706 C 248.031 15.825,248.015 17.759,248.042 20.003 L 248.090 24.083 248.128 19.875 L 248.167 15.667 250.164 15.667 L 252.161 15.667 252.210 20.292 L 252.258 24.917 252.254 20.250 L 252.250 15.583 250.205 15.537 C 248.647 15.501,248.140 15.541,248.077 15.706 M258.250 15.671 C 258.027 15.770,258.166 15.786,258.667 15.719 C 259.079 15.665,259.448 15.593,259.486 15.560 C 259.631 15.435,258.568 15.530,258.250 15.671 M262.014 15.560 C 262.052 15.593,262.421 15.665,262.833 15.719 C 263.334 15.786,263.473 15.770,263.250 15.671 C 262.932 15.530,261.869 15.435,262.014 15.560 M270.215 15.624 C 270.838 15.656,271.813 15.656,272.382 15.623 C 272.951 15.591,272.442 15.564,271.250 15.565 C 270.058 15.565,269.593 15.592,270.215 15.624 M278.112 15.620 C 278.067 15.691,278.962 15.727,280.099 15.699 L 282.167 15.648 282.167 22.167 L 282.167 28.686 280.083 28.635 C 278.937 28.606,278.000 28.642,278.000 28.713 C 278.000 28.785,278.956 28.822,280.125 28.797 L 282.250 28.750 282.250 22.167 L 282.250 15.583 280.221 15.537 C 279.105 15.511,278.156 15.548,278.112 15.620 M294.417 15.668 C 294.202 15.761,294.381 15.778,294.917 15.716 C 295.375 15.663,295.781 15.593,295.819 15.560 C 295.964 15.435,294.735 15.530,294.417 15.668 M298.375 15.615 C 298.535 15.657,298.798 15.657,298.958 15.615 C 299.119 15.573,298.987 15.539,298.667 15.539 C 298.346 15.539,298.215 15.573,298.375 15.615 M305.578 15.704 C 305.533 15.821,305.516 18.805,305.540 22.334 L 305.583 28.750 307.667 28.750 L 309.750 28.750 309.750 22.167 L 309.750 15.583 307.705 15.537 C 306.160 15.501,305.640 15.542,305.578 15.704 M314.608 15.624 L 316.466 15.677 317.755 17.172 C 318.463 17.994,319.084 18.667,319.134 18.667 C 319.184 18.667,319.075 18.498,318.893 18.292 C 318.710 18.085,318.086 17.373,317.506 16.708 L 316.451 15.500 314.601 15.536 L 312.750 15.571 314.608 15.624 M322.000 15.620 C 321.999 15.691,322.862 15.727,323.916 15.698 L 325.833 15.646 325.833 22.151 L 325.833 28.656 324.000 28.711 L 322.166 28.767 324.041 28.759 L 325.917 28.750 325.917 22.167 L 325.917 15.583 323.958 15.536 C 322.881 15.511,322.000 15.548,322.000 15.620 M332.750 15.668 C 332.536 15.761,332.714 15.778,333.250 15.716 C 333.708 15.663,334.115 15.593,334.153 15.560 C 334.297 15.435,333.068 15.530,332.750 15.668 M336.514 15.560 C 336.552 15.593,336.958 15.663,337.417 15.716 C 337.953 15.778,338.131 15.761,337.917 15.668 C 337.598 15.530,336.369 15.435,336.514 15.560 M344.745 15.704 C 344.700 15.821,344.682 18.805,344.706 22.334 L 344.750 28.750 346.833 28.750 L 348.917 28.750 348.963 26.375 L 349.009 24.000 351.250 24.000 L 353.491 24.000 353.544 26.250 L 353.598 28.500 353.591 26.209 L 353.583 23.917 351.250 23.917 L 348.917 23.917 348.870 26.292 L 348.824 28.667 346.829 28.667 L 344.833 28.667 344.833 22.167 L 344.833 15.667 346.833 15.667 L 348.833 15.667 348.836 17.875 C 348.839 20.714,348.651 20.520,351.346 20.463 L 353.583 20.417 353.630 18.042 L 353.676 15.667 355.757 15.667 L 357.837 15.667 357.794 22.125 L 357.750 28.583 355.667 28.675 L 353.583 28.766 355.705 28.800 C 358.302 28.841,358.022 29.707,357.963 21.833 L 357.917 15.583 355.750 15.583 L 353.583 15.583 353.537 17.963 L 353.491 20.343 351.287 20.296 L 349.083 20.250 349.000 17.917 L 348.917 15.583 346.872 15.537 C 345.326 15.501,344.807 15.542,344.745 15.704 M195.942 15.792 C 195.899 15.860,196.962 15.894,198.303 15.866 C 200.466 15.821,200.765 15.848,200.954 16.106 C 201.071 16.266,201.167 16.323,201.167 16.232 C 201.167 15.761,200.706 15.667,198.393 15.667 C 197.088 15.667,195.985 15.723,195.942 15.792 M309.667 22.167 L 309.667 28.667 307.667 28.667 L 305.667 28.667 305.667 22.167 L 305.667 15.667 307.667 15.667 L 309.667 15.667 309.667 22.167 M300.775 16.329 C 301.246 16.599,301.834 17.067,302.080 17.369 C 302.326 17.670,302.453 17.767,302.362 17.583 C 302.073 16.999,300.553 15.833,300.083 15.836 C 299.992 15.836,300.303 16.058,300.775 16.329 M312.742 22.167 C 312.742 25.696,312.764 27.140,312.791 25.375 C 312.818 23.610,312.818 20.723,312.791 18.958 C 312.764 17.194,312.742 18.637,312.742 22.167 M211.801 16.625 C 212.074 16.969,212.470 17.400,212.682 17.583 C 212.893 17.767,212.700 17.485,212.251 16.958 C 211.339 15.885,211.037 15.662,211.801 16.625 M292.551 16.595 L 292.083 17.024 292.625 16.647 C 292.923 16.440,293.167 16.247,293.167 16.219 C 293.167 16.087,292.982 16.200,292.551 16.595 M195.491 16.773 C 195.399 17.015,195.355 17.244,195.393 17.282 C 195.431 17.319,195.541 17.122,195.639 16.842 C 195.855 16.220,195.725 16.159,195.491 16.773 M264.833 16.394 C 264.833 16.440,265.058 16.638,265.333 16.833 C 265.608 17.029,265.833 17.152,265.833 17.106 C 265.833 17.060,265.608 16.862,265.333 16.667 C 265.058 16.471,264.833 16.348,264.833 16.394 M201.331 16.992 C 201.418 17.296,201.536 17.591,201.592 17.647 C 201.748 17.804,201.477 16.772,201.315 16.595 C 201.236 16.509,201.244 16.688,201.331 16.992 M330.069 17.095 L 329.417 17.691 330.125 17.151 C 330.772 16.657,330.930 16.500,330.778 16.500 C 330.747 16.500,330.428 16.768,330.069 17.095 M255.802 16.957 C 255.332 17.505,255.277 17.752,255.732 17.273 C 255.981 17.011,256.156 16.767,256.119 16.730 C 256.083 16.694,255.940 16.796,255.802 16.957 M340.699 17.250 C 341.038 17.617,341.468 18.254,341.654 18.667 C 341.840 19.079,341.994 19.320,341.996 19.202 C 342.004 18.781,341.353 17.741,340.723 17.167 L 340.083 16.584 340.699 17.250 M234.552 18.847 C 233.744 19.771,233.053 20.611,233.017 20.714 C 232.980 20.816,233.430 20.347,234.017 19.671 C 234.603 18.995,235.333 18.155,235.638 17.804 C 235.943 17.454,236.154 17.167,236.107 17.167 C 236.060 17.167,235.360 17.923,234.552 18.847 M230.184 17.922 C 229.899 18.246,229.667 18.561,229.667 18.622 C 229.667 18.683,229.723 18.662,229.793 18.575 C 229.862 18.488,230.139 18.173,230.407 17.875 C 230.676 17.577,230.852 17.333,230.798 17.333 C 230.745 17.333,230.468 17.598,230.184 17.922 M291.328 18.009 C 291.228 18.198,291.170 18.426,291.200 18.516 C 291.230 18.607,291.341 18.453,291.446 18.174 C 291.665 17.594,291.600 17.502,291.328 18.009 M266.327 18.348 C 266.409 18.661,266.516 19.067,266.566 19.250 C 266.615 19.433,266.617 19.246,266.569 18.833 C 266.522 18.421,266.414 18.015,266.331 17.931 C 266.239 17.839,266.237 18.004,266.327 18.348 M213.429 18.516 C 213.697 18.845,213.950 19.087,213.991 19.052 C 214.033 19.018,213.813 18.748,213.504 18.453 L 212.941 17.917 213.429 18.516 M302.602 18.417 C 302.739 19.029,302.834 19.163,302.831 18.736 C 302.829 18.560,302.752 18.304,302.659 18.167 C 302.536 17.984,302.520 18.052,302.602 18.417 M259.477 18.677 L 259.083 19.020 259.583 18.727 C 260.241 18.342,260.251 18.333,260.046 18.333 C 259.949 18.333,259.693 18.488,259.477 18.677 M261.514 18.384 C 261.552 18.412,261.808 18.566,262.083 18.727 L 262.583 19.020 262.190 18.677 C 261.973 18.488,261.717 18.333,261.620 18.333 C 261.524 18.333,261.476 18.356,261.514 18.384 M295.873 18.444 C 295.259 18.692,295.272 19.539,295.895 19.859 C 296.238 20.035,296.237 20.029,295.875 19.681 C 295.339 19.165,295.428 18.816,296.171 18.519 C 296.398 18.428,296.471 18.356,296.333 18.357 C 296.196 18.358,295.989 18.398,295.873 18.444 M194.695 18.991 C 194.597 19.271,194.553 19.500,194.596 19.500 C 194.709 19.500,195.023 18.634,194.941 18.552 C 194.903 18.514,194.792 18.712,194.695 18.991 M335.042 18.619 C 335.294 18.658,335.706 18.658,335.958 18.619 C 336.210 18.581,336.004 18.550,335.500 18.550 C 334.996 18.550,334.790 18.581,335.042 18.619 M254.887 19.667 C 254.887 20.262,254.917 20.506,254.954 20.208 C 254.991 19.910,254.991 19.423,254.954 19.125 C 254.917 18.827,254.887 19.071,254.887 19.667 M334.000 18.785 C 333.635 18.919,333.160 19.364,332.971 19.748 C 332.880 19.932,333.005 19.840,333.249 19.542 C 333.492 19.244,333.793 19.000,333.919 19.000 C 334.044 19.000,334.193 18.925,334.250 18.833 C 334.362 18.651,334.363 18.651,334.000 18.785 M202.195 19.342 C 202.292 19.622,202.403 19.819,202.441 19.782 C 202.523 19.699,202.209 18.833,202.096 18.833 C 202.053 18.833,202.097 19.062,202.195 19.342 M228.826 19.542 C 228.517 19.931,228.395 20.144,228.556 20.015 C 228.859 19.771,229.574 18.833,229.456 18.833 C 229.419 18.833,229.136 19.152,228.826 19.542 M320.062 19.883 C 320.600 20.497,321.076 21.000,321.120 21.000 C 321.231 21.000,319.510 19.025,319.275 18.882 C 319.169 18.818,319.524 19.268,320.062 19.883 M336.847 18.875 C 336.885 18.898,337.142 19.104,337.417 19.333 L 337.917 19.750 337.513 19.292 C 337.290 19.040,337.034 18.833,336.943 18.833 C 336.852 18.833,336.809 18.852,336.847 18.875 M291.045 19.667 C 291.045 20.079,291.078 20.248,291.118 20.042 C 291.157 19.835,291.157 19.498,291.118 19.292 C 291.078 19.085,291.045 19.254,291.045 19.667 M214.634 19.958 C 214.907 20.302,215.303 20.733,215.515 20.917 C 215.727 21.100,215.533 20.819,215.085 20.292 C 214.172 19.218,213.871 18.995,214.634 19.958 M198.247 19.672 C 198.056 19.981,197.851 20.842,197.989 20.757 C 198.063 20.711,198.177 20.428,198.243 20.128 C 198.348 19.647,198.378 19.622,198.502 19.917 C 198.637 20.234,198.644 20.232,198.655 19.875 C 198.667 19.487,198.433 19.371,198.247 19.672 M298.980 19.714 C 299.053 19.786,299.930 19.823,300.931 19.797 L 302.750 19.748 300.799 19.666 C 299.726 19.620,298.908 19.642,298.980 19.714 M263.708 19.790 C 264.235 19.823,265.098 19.823,265.625 19.790 C 266.152 19.757,265.721 19.730,264.667 19.730 C 263.612 19.730,263.181 19.757,263.708 19.790 M341.889 20.177 C 341.778 20.288,341.021 20.335,339.871 20.302 C 338.859 20.274,338.066 20.306,338.109 20.375 C 338.271 20.636,341.957 20.519,342.060 20.250 C 342.174 19.954,342.131 19.936,341.889 20.177 M273.333 20.375 C 273.333 20.444,274.383 20.500,275.667 20.500 C 276.950 20.500,278.000 20.444,278.000 20.375 C 278.000 20.306,276.950 20.250,275.667 20.250 C 274.383 20.250,273.333 20.306,273.333 20.375 M332.595 20.595 C 332.534 20.839,332.516 21.071,332.555 21.111 C 332.594 21.150,332.677 20.982,332.738 20.738 C 332.799 20.494,332.817 20.262,332.778 20.223 C 332.739 20.183,332.657 20.351,332.595 20.595 M228.002 20.581 C 227.888 20.718,227.729 20.789,227.648 20.738 C 227.567 20.688,227.500 20.726,227.500 20.823 C 227.500 21.100,227.753 21.032,228.083 20.667 C 228.249 20.483,228.345 20.333,228.296 20.333 C 228.247 20.333,228.115 20.445,228.002 20.581 M298.514 20.560 C 298.552 20.593,298.808 20.670,299.083 20.732 C 299.448 20.813,299.516 20.798,299.333 20.674 C 299.108 20.522,298.347 20.416,298.514 20.560 M194.000 20.709 C 194.000 20.733,193.926 21.009,193.836 21.323 C 193.746 21.637,193.736 21.824,193.815 21.739 C 193.985 21.553,194.210 20.667,194.087 20.667 C 194.039 20.667,194.000 20.686,194.000 20.709 M328.209 21.250 C 328.211 21.617,328.245 21.747,328.285 21.540 C 328.324 21.332,328.323 21.032,328.281 20.873 C 328.239 20.714,328.207 20.883,328.209 21.250 M198.857 21.000 C 198.857 21.137,198.921 21.400,199.000 21.583 C 199.090 21.793,199.143 21.824,199.143 21.667 C 199.143 21.529,199.079 21.267,199.000 21.083 C 198.910 20.873,198.857 20.842,198.857 21.000 M197.604 21.521 C 197.465 22.216,197.600 22.350,197.750 21.667 C 197.813 21.379,197.830 21.108,197.788 21.066 C 197.745 21.023,197.663 21.228,197.604 21.521 M202.929 21.333 C 202.990 21.563,203.110 21.863,203.195 22.000 C 203.302 22.174,203.315 22.123,203.238 21.833 C 203.176 21.604,203.057 21.304,202.972 21.167 C 202.865 20.993,202.851 21.044,202.929 21.333 M291.616 21.679 C 291.781 21.962,292.023 22.280,292.153 22.388 C 292.284 22.495,292.180 22.265,291.923 21.875 C 291.383 21.057,291.171 20.922,291.616 21.679 M301.181 21.382 C 301.219 21.408,301.550 21.639,301.917 21.894 L 302.583 22.357 302.006 21.845 C 301.689 21.564,301.358 21.333,301.270 21.333 C 301.183 21.333,301.142 21.355,301.181 21.382 M335.072 21.554 C 335.024 21.679,335.010 22.337,335.042 23.016 L 335.100 24.250 335.134 22.875 L 335.167 21.500 338.590 21.500 L 342.012 21.500 341.965 25.159 C 341.938 27.171,341.974 28.759,342.045 28.689 C 342.116 28.618,342.153 26.953,342.128 24.988 L 342.083 21.417 338.621 21.372 C 335.820 21.335,335.142 21.370,335.072 21.554 M266.023 22.250 C 266.326 22.571,266.597 22.833,266.625 22.833 C 266.764 22.833,265.918 21.837,265.711 21.758 C 265.580 21.708,265.721 21.929,266.023 22.250 M255.749 22.140 C 255.931 22.355,256.230 22.608,256.415 22.703 C 256.769 22.884,256.717 22.828,255.918 22.164 C 255.437 21.765,255.431 21.764,255.749 22.140 M197.271 22.590 C 197.213 22.739,197.173 22.986,197.181 23.139 C 197.189 23.292,197.261 23.195,197.342 22.925 C 197.499 22.399,197.444 22.139,197.271 22.590 M211.842 23.239 C 212.168 23.612,212.712 24.236,213.051 24.625 C 213.389 25.015,213.666 25.278,213.664 25.209 C 213.663 25.140,213.119 24.516,212.456 23.822 C 211.793 23.129,211.517 22.866,211.842 23.239 M292.575 22.654 C 292.682 22.826,293.838 23.384,293.920 23.302 C 293.952 23.270,293.644 23.079,293.234 22.879 C 292.825 22.679,292.528 22.577,292.575 22.654 M316.681 22.708 C 316.720 22.731,317.014 22.975,317.334 23.250 L 317.917 23.750 317.427 23.208 C 317.158 22.910,316.864 22.667,316.774 22.667 C 316.685 22.667,316.643 22.685,316.681 22.708 M328.212 23.333 C 328.212 23.746,328.245 23.915,328.284 23.708 C 328.324 23.502,328.324 23.165,328.284 22.958 C 328.245 22.752,328.212 22.921,328.212 23.333 M257.074 23.074 C 257.251 23.217,257.514 23.327,257.657 23.320 C 257.881 23.309,257.883 23.294,257.667 23.214 C 257.529 23.163,257.267 23.053,257.083 22.968 C 256.755 22.817,256.755 22.819,257.074 23.074 M266.750 24.583 C 266.750 25.437,266.805 26.048,266.872 25.942 C 266.940 25.837,266.995 25.225,266.995 24.583 C 266.995 23.942,266.940 23.330,266.872 23.224 C 266.805 23.118,266.750 23.730,266.750 24.583 M258.167 23.492 C 258.304 23.585,258.560 23.663,258.736 23.664 C 259.163 23.668,259.029 23.572,258.417 23.435 C 258.052 23.353,257.984 23.369,258.167 23.492 M332.523 23.500 C 332.523 23.637,332.588 23.900,332.667 24.083 C 332.757 24.293,332.810 24.324,332.810 24.167 C 332.810 24.029,332.745 23.767,332.667 23.583 C 332.576 23.373,332.523 23.342,332.523 23.500 M259.500 23.817 C 259.637 23.897,260.087 24.007,260.500 24.061 C 260.992 24.126,261.107 24.113,260.833 24.024 C 260.144 23.799,259.223 23.657,259.500 23.817 M197.000 24.042 C 197.000 24.110,197.619 24.155,198.375 24.142 C 199.795 24.116,199.631 24.046,197.958 23.964 C 197.431 23.938,197.000 23.973,197.000 24.042 M274.458 23.957 C 275.123 23.989,276.210 23.989,276.875 23.957 C 277.540 23.925,276.996 23.900,275.667 23.900 C 274.337 23.900,273.794 23.925,274.458 23.957 M318.833 25.000 C 319.402 25.642,319.905 26.167,319.951 26.167 C 319.997 26.167,319.569 25.642,319.000 25.000 C 318.431 24.358,317.928 23.833,317.882 23.833 C 317.837 23.833,318.264 24.358,318.833 25.000 M228.583 24.861 C 228.033 25.327,227.554 25.786,227.518 25.882 C 227.483 25.978,227.633 25.886,227.852 25.678 C 228.071 25.470,228.512 25.101,228.833 24.859 C 229.154 24.617,229.473 24.343,229.543 24.251 C 229.620 24.149,229.807 24.246,230.022 24.500 L 230.374 24.917 230.131 24.509 C 229.775 23.911,229.679 23.933,228.583 24.861 M234.645 24.250 C 234.735 24.433,234.931 24.733,235.080 24.917 L 235.352 25.250 235.188 24.917 C 235.098 24.733,234.902 24.433,234.753 24.250 L 234.482 23.917 234.645 24.250 M303.107 24.898 C 303.048 25.397,302.956 25.943,302.901 26.111 C 302.820 26.362,302.833 26.372,302.977 26.168 C 303.168 25.898,303.424 24.202,303.294 24.071 C 303.250 24.027,303.166 24.399,303.107 24.898 M255.250 24.443 C 256.850 24.565,258.667 24.573,258.667 24.458 C 258.667 24.390,257.748 24.346,256.625 24.362 C 255.502 24.378,254.883 24.415,255.250 24.443 M292.744 24.455 C 294.062 24.492,294.786 24.580,294.881 24.714 C 294.985 24.859,295.006 24.846,294.957 24.667 C 294.902 24.462,294.513 24.415,292.820 24.408 L 290.750 24.400 292.744 24.455 M262.347 24.792 C 262.547 25.113,262.547 25.220,262.347 25.542 C 262.133 25.885,262.137 25.897,262.390 25.688 C 262.542 25.562,262.667 25.328,262.667 25.167 C 262.667 25.006,262.542 24.771,262.390 24.645 C 262.137 24.436,262.133 24.448,262.347 24.792 M337.697 24.846 C 337.584 25.028,337.249 25.325,336.954 25.505 C 336.658 25.685,336.480 25.832,336.558 25.833 C 336.996 25.835,338.171 24.783,337.964 24.575 C 337.931 24.542,337.811 24.664,337.697 24.846 M247.167 25.358 C 246.846 25.640,246.734 25.794,246.919 25.700 C 247.223 25.546,247.978 24.824,247.817 24.840 C 247.780 24.844,247.487 25.077,247.167 25.358 M254.705 25.333 C 254.705 25.654,254.740 25.785,254.782 25.625 C 254.823 25.465,254.823 25.202,254.782 25.042 C 254.740 24.881,254.705 25.012,254.705 25.333 M290.845 25.181 C 290.851 25.402,290.925 25.733,291.008 25.917 C 291.113 26.149,291.128 26.048,291.057 25.583 C 290.939 24.809,290.828 24.598,290.845 25.181 M243.986 25.227 C 244.208 25.501,244.833 25.914,244.833 25.787 C 244.833 25.755,244.590 25.551,244.292 25.333 C 243.956 25.087,243.840 25.047,243.986 25.227 M235.479 25.583 C 235.569 25.767,235.764 26.067,235.914 26.250 L 236.185 26.583 236.021 26.250 C 235.931 26.067,235.736 25.767,235.586 25.583 L 235.315 25.250 235.479 25.583 M328.669 25.592 C 328.665 25.872,329.578 27.218,330.016 27.581 C 330.366 27.869,330.360 27.848,329.970 27.414 C 329.725 27.140,329.332 26.579,329.097 26.167 C 328.863 25.754,328.670 25.496,328.669 25.592 M245.542 25.948 C 245.702 25.990,245.965 25.990,246.125 25.948 C 246.285 25.906,246.154 25.872,245.833 25.872 C 245.512 25.872,245.381 25.906,245.542 25.948 M260.129 25.956 C 260.521 25.991,261.121 25.990,261.463 25.954 C 261.804 25.919,261.483 25.890,260.750 25.890 C 260.017 25.891,259.737 25.920,260.129 25.956 M296.375 25.955 C 296.719 25.991,297.281 25.991,297.625 25.955 C 297.969 25.919,297.688 25.889,297.000 25.889 C 296.313 25.889,296.031 25.919,296.375 25.955 M335.125 25.951 C 335.331 25.991,335.669 25.991,335.875 25.951 C 336.081 25.911,335.912 25.879,335.500 25.879 C 335.087 25.879,334.919 25.911,335.125 25.951 M239.667 26.113 C 239.667 26.217,239.985 26.631,240.375 27.035 C 240.765 27.439,240.888 27.540,240.650 27.260 C 240.412 26.979,240.093 26.565,239.942 26.338 C 239.791 26.111,239.667 26.010,239.667 26.113 M320.895 27.383 C 321.434 27.997,321.910 28.500,321.954 28.500 C 322.064 28.500,320.343 26.525,320.108 26.382 C 320.003 26.318,320.357 26.768,320.895 27.383 M255.284 26.974 C 255.561 27.491,256.058 27.942,256.667 28.230 C 256.804 28.295,256.731 28.214,256.504 28.049 C 255.981 27.671,255.662 27.351,255.284 26.830 C 254.997 26.433,254.997 26.438,255.284 26.974 M302.439 26.906 C 302.050 27.500,302.102 27.627,302.519 27.097 C 302.713 26.851,302.835 26.613,302.792 26.569 C 302.748 26.525,302.589 26.677,302.439 26.906 M236.312 26.917 C 236.402 27.100,236.598 27.400,236.747 27.583 L 237.018 27.917 236.855 27.583 C 236.765 27.400,236.569 27.100,236.420 26.917 L 236.148 26.583 236.312 26.917 M196.033 27.033 C 195.923 27.143,195.838 27.350,195.845 27.492 C 195.852 27.664,195.915 27.627,196.035 27.380 C 196.204 27.029,196.331 27.007,198.398 26.958 L 200.583 26.906 198.408 26.870 C 196.895 26.844,196.172 26.894,196.033 27.033 M250.273 27.767 C 249.827 28.079,249.535 28.333,249.623 28.333 C 249.804 28.333,251.167 27.376,251.167 27.249 C 251.167 27.139,251.196 27.122,250.273 27.767 M265.417 27.778 C 265.050 28.107,264.900 28.298,265.083 28.203 C 265.392 28.043,266.313 27.158,266.154 27.174 C 266.115 27.177,265.783 27.450,265.417 27.778 M338.667 28.023 L 338.250 28.373 338.722 28.090 C 338.981 27.935,339.304 27.850,339.439 27.902 C 339.576 27.955,339.639 27.924,339.582 27.831 C 339.425 27.577,339.123 27.641,338.667 28.023 M237.111 28.292 L 237.206 28.667 234.861 28.667 C 232.804 28.667,232.496 28.631,232.347 28.375 C 232.253 28.215,232.175 28.162,232.172 28.258 C 232.158 28.742,232.614 28.833,235.033 28.833 C 237.556 28.833,237.677 28.801,237.258 28.240 C 237.025 27.928,237.020 27.929,237.111 28.292 M269.167 28.708 C 269.167 28.777,270.104 28.833,271.250 28.833 C 272.396 28.833,273.333 28.777,273.333 28.708 C 273.333 28.640,272.396 28.583,271.250 28.583 C 270.104 28.583,269.167 28.640,269.167 28.708 M314.667 28.667 L 312.750 28.767 314.708 28.800 C 315.925 28.821,316.667 28.770,316.667 28.667 C 316.667 28.575,316.648 28.515,316.625 28.533 C 316.602 28.552,315.721 28.612,314.667 28.667 M247.916 28.763 C 247.824 28.802,247.074 28.905,246.249 28.992 L 244.750 29.149 246.268 29.078 C 247.480 29.021,249.296 28.680,248.333 28.690 C 248.196 28.692,248.008 28.725,247.916 28.763 M243.875 28.948 C 244.035 28.990,244.298 28.990,244.458 28.948 C 244.619 28.906,244.487 28.872,244.167 28.872 C 243.846 28.872,243.715 28.906,243.875 28.948 M258.960 28.951 C 259.168 28.991,259.468 28.990,259.627 28.948 C 259.786 28.906,259.617 28.874,259.250 28.875 C 258.883 28.877,258.753 28.911,258.960 28.951 M261.083 29.000 L 259.917 29.108 260.917 29.128 C 261.467 29.139,262.217 29.085,262.583 29.010 C 263.403 28.840,262.854 28.836,261.083 29.000 M296.040 29.060 C 296.772 29.143,297.817 29.144,298.457 29.061 C 299.447 28.934,299.290 28.917,297.167 28.916 C 294.917 28.915,294.839 28.925,296.040 29.060 M332.875 28.948 C 333.035 28.990,333.298 28.990,333.458 28.948 C 333.619 28.906,333.487 28.872,333.167 28.872 C 332.846 28.872,332.715 28.906,332.875 28.948 M336.042 28.948 C 336.202 28.990,336.465 28.990,336.625 28.948 C 336.785 28.906,336.654 28.872,336.333 28.872 C 336.012 28.872,335.881 28.906,336.042 28.948 M334.295 29.121 C 334.594 29.158,335.044 29.157,335.295 29.119 C 335.545 29.081,335.300 29.051,334.750 29.052 C 334.200 29.053,333.995 29.084,334.295 29.121 " stroke="none" fill="#9b7c7c" fill-rule="evenodd"></path><path id="path4" d="M22.167 14.172 C 20.746 14.240,19.396 14.369,19.167 14.459 C 18.938 14.549,18.171 14.677,17.463 14.742 C 15.036 14.966,14.461 15.891,14.333 19.774 C 14.054 28.211,14.529 30.062,17.051 30.354 C 17.619 30.420,18.721 30.597,19.500 30.746 C 21.533 31.136,29.802 31.139,31.833 30.751 C 32.612 30.602,33.718 30.425,34.290 30.357 C 36.742 30.065,36.993 29.344,36.993 22.583 C 36.993 15.595,36.805 15.123,33.869 14.734 C 33.070 14.628,31.892 14.461,31.250 14.364 C 29.626 14.119,25.244 14.026,22.167 14.172 M31.770 15.150 L 34.458 15.284 35.140 15.832 C 36.461 16.894,37.002 20.819,36.495 25.667 C 36.038 30.037,35.772 30.147,25.667 30.149 C 14.869 30.152,14.800 30.104,14.805 22.576 C 14.808 16.313,15.367 15.339,19.065 15.156 C 22.133 15.004,28.759 15.001,31.770 15.150 M61.750 16.207 C 60.248 16.596,58.862 17.875,58.181 19.500 C 57.830 20.338,57.730 24.399,58.048 24.890 C 58.176 25.088,58.331 25.456,58.393 25.708 C 58.456 25.960,58.580 26.167,58.670 26.167 C 58.760 26.167,58.833 26.264,58.833 26.383 C 58.833 26.622,60.011 27.833,60.244 27.833 C 60.324 27.833,60.509 27.933,60.654 28.055 C 61.631 28.878,65.859 28.841,66.137 28.007 C 66.168 27.911,66.282 27.831,66.389 27.828 C 66.784 27.817,68.333 26.104,68.333 25.678 C 68.333 25.574,68.465 25.288,68.625 25.043 C 68.867 24.675,68.917 24.210,68.917 22.341 C 68.917 20.459,68.868 20.015,68.625 19.671 C 68.465 19.445,68.333 19.143,68.333 19.002 C 68.333 18.641,66.902 17.044,66.299 16.732 C 64.951 16.035,63.197 15.832,61.750 16.207 M45.125 16.338 C 44.664 16.621,44.731 16.763,46.710 19.667 L 48.583 22.417 48.667 25.333 L 48.750 28.250 49.735 28.301 C 51.017 28.367,50.994 28.422,50.997 25.219 L 51.000 22.521 51.781 21.386 C 53.842 18.392,54.281 17.714,54.433 17.292 C 54.491 17.131,54.605 17.000,54.686 17.000 C 55.019 17.000,54.802 16.480,54.406 16.329 C 53.496 15.983,52.535 16.367,52.152 17.230 C 52.013 17.542,50.999 19.067,50.227 20.125 C 49.793 20.719,49.635 20.600,48.493 18.826 C 46.829 16.239,46.129 15.721,45.125 16.338 M74.240 16.450 C 73.747 16.943,73.970 25.301,74.504 26.333 C 75.230 27.738,76.179 28.344,78.327 28.774 C 79.141 28.937,81.149 28.350,81.948 27.716 C 83.341 26.609,83.667 25.185,83.667 20.195 C 83.667 16.277,83.586 16.044,82.290 16.218 C 81.335 16.346,81.339 16.327,81.336 20.882 C 81.333 26.203,81.061 26.834,78.771 26.833 C 76.542 26.832,76.182 25.973,76.174 20.631 C 76.167 16.733,76.149 16.502,75.844 16.339 C 75.355 16.077,74.558 16.133,74.240 16.450 M88.042 16.281 C 87.333 16.424,87.331 17.871,88.040 18.061 C 88.247 18.117,89.147 18.163,90.039 18.164 L 91.662 18.167 91.706 23.208 L 91.750 28.250 92.735 28.301 C 94.055 28.369,93.995 28.618,93.997 23.056 L 94.000 18.196 95.825 18.140 C 97.732 18.081,97.911 18.017,98.079 17.333 C 98.337 16.287,98.180 16.252,93.055 16.227 C 90.504 16.215,88.248 16.239,88.042 16.281 M102.500 16.310 L 102.083 16.432 102.039 20.552 C 101.986 25.419,102.552 27.833,103.745 27.833 C 103.870 27.833,103.997 27.908,104.028 27.999 C 104.122 28.281,106.530 28.870,107.167 28.768 C 110.988 28.151,111.500 27.226,111.500 20.933 C 111.500 16.073,111.520 16.167,110.459 16.167 C 109.438 16.167,109.425 16.224,109.333 21.035 C 109.231 26.411,109.049 26.833,106.833 26.833 C 104.571 26.833,104.360 26.351,104.300 21.035 C 104.269 18.335,104.185 16.618,104.078 16.511 C 103.838 16.272,102.997 16.164,102.500 16.310 M117.642 16.267 C 117.491 16.313,117.323 16.516,117.269 16.717 C 117.139 17.203,117.138 27.731,117.268 28.070 C 117.441 28.522,123.258 28.454,124.149 27.990 C 126.192 26.925,126.658 24.177,125.072 22.545 L 124.349 21.801 124.866 21.328 C 126.083 20.217,125.583 17.764,123.923 16.706 C 123.278 16.294,118.616 15.969,117.642 16.267 M131.779 16.375 C 131.519 16.566,131.499 17.081,131.539 22.417 L 131.583 28.250 135.435 28.295 C 139.699 28.344,139.800 28.321,139.585 27.342 C 139.425 26.611,139.350 26.591,136.333 26.500 L 133.583 26.417 133.534 25.000 C 133.453 22.666,133.246 22.833,136.220 22.833 C 138.963 22.833,139.167 22.774,139.167 21.980 C 139.167 20.990,139.196 21.000,136.319 21.000 C 133.274 21.000,133.437 21.103,133.532 19.243 L 133.583 18.250 136.250 18.167 C 137.717 18.121,139.010 18.023,139.125 17.948 C 139.471 17.725,139.387 16.540,139.011 16.339 C 138.524 16.079,132.140 16.110,131.779 16.375 M65.893 16.974 C 69.679 18.994,69.593 25.794,65.756 27.867 C 64.702 28.436,62.067 28.400,60.917 27.799 C 56.967 25.738,57.073 18.737,61.083 16.849 C 62.343 16.256,64.661 16.316,65.893 16.974 M47.345 17.792 C 47.830 18.502,48.516 19.515,48.869 20.042 C 49.736 21.337,49.930 21.299,51.005 19.625 C 52.660 17.047,53.125 16.500,53.662 16.500 C 54.505 16.500,54.404 16.789,52.625 19.467 C 51.669 20.906,50.819 22.196,50.735 22.333 C 50.652 22.471,50.546 23.821,50.500 25.333 L 50.417 28.083 49.833 28.083 L 49.250 28.083 49.164 25.417 C 49.078 22.763,49.015 22.406,48.513 21.728 C 48.368 21.532,48.157 21.232,48.043 21.061 C 47.929 20.890,47.273 19.908,46.584 18.879 C 45.156 16.743,45.086 16.500,45.899 16.500 C 46.417 16.500,46.537 16.608,47.345 17.792 M75.833 20.917 C 75.942 26.588,76.221 27.167,78.835 27.167 C 81.345 27.167,81.570 26.692,81.636 21.254 C 81.691 16.646,81.718 16.500,82.517 16.500 C 83.183 16.500,83.202 16.656,83.131 21.438 C 83.064 25.877,83.021 26.116,82.101 27.141 C 80.672 28.733,76.882 28.703,75.451 27.088 C 74.572 26.096,74.453 25.475,74.371 21.464 C 74.274 16.689,74.309 16.464,75.134 16.532 L 75.750 16.583 75.833 20.917 M97.512 16.764 C 97.996 17.348,97.515 17.577,95.616 17.667 C 93.319 17.775,93.512 17.289,93.461 23.087 C 93.412 28.577,93.458 28.360,92.403 28.095 L 92.000 27.994 92.000 23.030 C 92.000 17.193,92.186 17.667,89.889 17.667 C 88.054 17.667,87.476 17.382,88.009 16.739 C 88.321 16.364,97.198 16.387,97.512 16.764 M103.633 16.700 C 103.777 16.843,103.833 17.925,103.833 20.511 C 103.833 26.365,104.202 27.167,106.898 27.167 C 109.380 27.167,109.724 26.426,109.833 20.833 L 109.917 16.583 110.500 16.583 L 111.083 16.583 111.133 20.667 C 111.186 25.013,111.114 25.610,110.402 26.707 C 108.948 28.947,104.705 28.896,103.151 26.620 L 102.583 25.789 102.529 21.380 C 102.500 18.955,102.516 16.866,102.566 16.736 C 102.676 16.448,103.359 16.425,103.633 16.700 M123.015 16.768 C 125.307 17.411,126.041 20.265,124.210 21.416 C 123.543 21.836,123.539 21.813,124.398 22.444 C 126.431 23.939,126.034 26.817,123.659 27.789 C 122.835 28.126,122.509 28.157,120.167 28.122 L 117.583 28.083 117.537 22.667 C 117.511 19.688,117.531 17.081,117.582 16.875 C 117.701 16.386,121.394 16.313,123.015 16.768 M138.917 17.083 L 138.917 17.583 136.500 17.624 C 133.032 17.682,133.313 17.510,133.369 19.546 L 133.417 21.250 135.917 21.333 C 138.621 21.423,138.833 21.479,138.833 22.093 L 138.833 22.500 136.347 22.500 C 133.060 22.500,133.333 22.296,133.333 24.750 C 133.333 27.203,133.063 27.000,136.327 27.000 C 138.924 27.000,139.269 27.096,139.136 27.784 C 139.083 28.061,138.812 28.083,135.498 28.083 L 131.917 28.083 131.873 22.501 C 131.849 19.431,131.866 16.823,131.910 16.706 C 131.974 16.541,132.765 16.503,135.454 16.538 L 138.917 16.583 138.917 17.083 M61.805 17.838 C 58.740 19.457,58.802 25.606,61.895 26.897 C 64.737 28.084,67.167 25.955,67.167 22.279 C 67.167 18.727,64.424 16.455,61.805 17.838 M119.292 17.847 C 118.834 18.113,118.860 21.080,119.322 21.327 C 120.057 21.720,122.494 21.398,123.243 20.809 C 123.851 20.331,123.860 18.906,123.259 18.342 C 122.627 17.748,120.020 17.422,119.292 17.847 M64.943 18.274 C 67.440 19.459,67.366 25.179,64.837 26.458 C 62.203 27.791,60.090 25.955,60.092 22.333 C 60.094 18.695,62.170 16.958,64.943 18.274 M122.948 18.529 C 124.035 19.551,123.278 20.793,121.477 20.941 C 119.387 21.113,119.333 21.077,119.333 19.497 L 119.333 18.167 120.948 18.167 C 122.376 18.167,122.606 18.208,122.948 18.529 M23.576 19.909 C 23.031 20.454,22.935 24.750,23.458 25.199 C 24.141 25.786,24.250 25.760,26.417 24.500 C 26.811 24.271,27.438 23.914,27.811 23.708 C 29.418 22.817,29.043 21.940,26.548 20.755 C 26.254 20.615,25.658 20.276,25.224 20.001 C 24.268 19.394,24.100 19.385,23.576 19.909 M24.857 20.653 C 25.045 20.828,25.369 21.015,25.577 21.067 C 26.146 21.210,27.833 22.351,27.833 22.593 C 27.833 22.809,26.485 23.730,25.585 24.130 C 25.310 24.252,24.924 24.503,24.727 24.688 C 24.235 25.151,24.120 24.908,24.031 23.224 C 23.902 20.756,24.147 19.992,24.857 20.653 M119.208 22.610 C 118.922 22.726,118.915 26.515,119.200 26.800 C 119.439 27.039,121.609 27.063,122.583 26.838 C 124.844 26.317,124.691 22.990,122.389 22.609 C 121.647 22.487,119.513 22.487,119.208 22.610 M122.700 23.145 C 123.854 23.640,124.172 24.782,123.452 25.850 L 123.071 26.417 121.202 26.464 L 119.333 26.511 119.333 24.672 L 119.333 22.833 120.653 22.833 C 121.572 22.833,122.193 22.928,122.700 23.145 " stroke="none" fill="#908484" fill-rule="evenodd"></path></g></svg>